G04 Generated by CircuitCAM Version 4.4*
%FSLAX33Y33*%
%MOMM*%
%ADD10C,0.050000*%
%ADD11C,0.100000*%
%ADD12C,0.000000*%
%ADD666R,0.525000X0.600000*%
%AMROUNDED667*21,1,0.750000,0.150000,0,0,0.0*
21,1,0.650000,0.250000,0,0,0.0*
1,1,0.100000,0.325000,0.075000*
1,1,0.100000,0.325000,-0.075000*
1,1,0.100000,-0.325000,-0.075000*
1,1,0.100000,-0.325000,0.075000*%
%ADD667ROUNDED667*%
%AMROUNDED665*21,1,0.750000,0.130000,0,0,0.0*
21,1,0.650000,0.230000,0,0,0.0*
1,1,0.100000,0.325000,0.065000*
1,1,0.100000,0.325000,-0.065000*
1,1,0.100000,-0.325000,-0.065000*
1,1,0.100000,-0.325000,0.065000*%
%ADD665ROUNDED665*%
%AMROUNDED668*21,1,0.250000,0.650000,0,0,0.0*
21,1,0.150000,0.750000,0,0,0.0*
1,1,0.100000,0.075000,0.325000*
1,1,0.100000,0.075000,-0.325000*
1,1,0.100000,-0.075000,-0.325000*
1,1,0.100000,-0.075000,0.325000*%
%ADD668ROUNDED668*%
%AMROUNDED669*21,1,0.230000,0.650000,0,0,0.0*
21,1,0.130000,0.750000,0,0,0.0*
1,1,0.100000,0.065000,0.325000*
1,1,0.100000,0.065000,-0.325000*
1,1,0.100000,-0.065000,-0.325000*
1,1,0.100000,-0.065000,0.325000*%
%ADD669ROUNDED669*%
%ADD662R,1.000000X0.600000*%
%ADD335R,0.799846X0.799846*%
%ADD308R,0.599948X0.799846*%
%ADD652R,0.500000X1.200000*%
%ADD653R,1.200000X0.500000*%
%ADD650O,0.650000X1.651000*%
%ADD651R,0.962000X0.662000*%
%ADD649R,0.550000X1.100000*%
%ADD309R,1.400048X1.199896*%
%ADD643R,0.848000X1.272000*%
%ADD644R,1.272000X0.848000*%
%ADD629R,0.475000X0.500000*%
%ADD630R,0.500000X0.475000*%
%ADD631R,0.505000X0.500000*%
%ADD632R,0.501000X0.500000*%
%AMROUNDED628*21,1,0.800000,0.180000,0,0,0.0*
21,1,0.700000,0.280000,0,0,0.0*
1,1,0.100000,0.350000,0.090000*
1,1,0.100000,0.350000,-0.090000*
1,1,0.100000,-0.350000,-0.090000*
1,1,0.100000,-0.350000,0.090000*%
%ADD628ROUNDED628*%
%AMROUNDED627*21,1,0.800000,0.140000,0,0,0.0*
21,1,0.700000,0.240000,0,0,0.0*
1,1,0.100000,0.350000,0.070000*
1,1,0.100000,0.350000,-0.070000*
1,1,0.100000,-0.350000,-0.070000*
1,1,0.100000,-0.350000,0.070000*%
%ADD627ROUNDED627*%
%ADD624R,2.399000X0.650000*%
%ADD622O,0.185000X0.899000*%
%ADD670O,0.899000X0.185000*%
%ADD623C,0.500000*%
%ADD616O,2.750020X0.220000*%
%ADD617R,4.047000X2.024000*%
%ADD618R,3.794000X2.024000*%
%ADD611R,1.609000X2.952000*%
%ADD612R,1.609000X2.414000*%
%ADD613R,2.146000X2.012000*%
%ADD614R,0.650000X2.600000*%
%ADD610R,1.975000X2.100000*%
%ADD608R,1.474000X2.990000*%
%ADD609R,2.990000X1.474000*%
%AMROUNDED607*21,1,0.290000,0.190000,0,0,0.0*
21,1,0.190000,0.290000,0,0,0.0*
1,1,0.100000,0.095000,0.095000*
1,1,0.100000,0.095000,-0.095000*
1,1,0.100000,-0.095000,-0.095000*
1,1,0.100000,-0.095000,0.095000*%
%ADD607ROUNDED607*%
%AMROUNDED606*21,1,0.380000,0.260000,0,0,0.0*
21,1,0.260000,0.380000,0,0,0.0*
1,1,0.120000,0.130000,0.130000*
1,1,0.120000,0.130000,-0.130000*
1,1,0.120000,-0.130000,-0.130000*
1,1,0.120000,-0.130000,0.130000*%
%ADD606ROUNDED606*%
%AMROUNDED605*21,1,0.480000,0.320000,0,0,0.0*
21,1,0.320000,0.480000,0,0,0.0*
1,1,0.160000,0.160000,0.160000*
1,1,0.160000,0.160000,-0.160000*
1,1,0.160000,-0.160000,-0.160000*
1,1,0.160000,-0.160000,0.160000*%
%ADD605ROUNDED605*%
%ADD603O,0.320000X1.401000*%
%ADD604O,0.230000X1.201000*%
%ADD671C,1.000000*%
%LNSolderPasteTop_Ready*%
%LPD*%
G36*
G01X-309133Y-245600D02*
X-310933Y-245600D01*
X-311349Y-245399D01*
X-311340Y-245554D01*
X-311333Y-245721D01*
X-311327Y-245901D01*
X-311322Y-246093D01*
X-311319Y-246299D01*
X-311317Y-246518D01*
X-311316Y-246750D01*
X-311316Y-246976D01*
X-311317Y-247178D01*
X-311319Y-247357D01*
X-311321Y-247511D01*
X-311325Y-247642D01*
X-311328Y-247750D01*
X-311333Y-247833D01*
X-311337Y-247899D01*
X-311342Y-247957D01*
X-311347Y-248004D01*
X-311352Y-248042D01*
X-311357Y-248071D01*
X-311361Y-248090D01*
X-311366Y-248100D01*
X-310949Y-247949D01*
X-310949Y-247616D01*
X-309133Y-247616D01*
X-309133Y-248156D01*
X-309135Y-248642D01*
X-309139Y-249074D01*
X-309144Y-249453D01*
X-309150Y-249778D01*
X-309157Y-250049D01*
X-309166Y-250266D01*
X-308749Y-250116D01*
X-308754Y-249943D01*
X-308758Y-249708D01*
X-308761Y-249412D01*
X-308763Y-249055D01*
X-308765Y-248637D01*
X-308766Y-248157D01*
X-308766Y-247616D01*
X-306899Y-247616D01*
X-306899Y-248100D01*
X-306499Y-247949D01*
X-306508Y-247860D01*
X-306516Y-247771D01*
X-306522Y-247684D01*
X-306527Y-247598D01*
X-306530Y-247514D01*
X-306532Y-247431D01*
X-306533Y-247350D01*
X-306533Y-245866D01*
X-306316Y-245683D01*
X-306733Y-245349D01*
X-306949Y-245600D01*
X-308766Y-245600D01*
X-308766Y-244566D01*
X-308583Y-244383D01*
X-309166Y-244116D01*
X-309157Y-244277D01*
X-309150Y-244455D01*
X-309144Y-244650D01*
X-309139Y-244862D01*
X-309135Y-245091D01*
X-309133Y-245337D01*
X-309133Y-245600D01*
G37*
%LPC*%
G36*
G01X-306899Y-245733D02*
X-308766Y-245733D01*
X-308766Y-247483D01*
X-306899Y-247483D01*
X-306899Y-245733D01*
G37*
G36*
G01X-309133Y-245733D02*
X-310949Y-245733D01*
X-310949Y-247483D01*
X-309133Y-247483D01*
X-309133Y-245733D01*
G37*
%LPD*%
G54D10*
X-311812Y-252742D02*
X-311812Y-257242D01*
X-311812Y-252742D02*
X-310097Y-257242D01*
X-308383Y-252742D02*
X-310097Y-257242D01*
X-308383Y-252742D02*
X-308383Y-257242D01*
X-305812Y-252742D02*
X-306240Y-252957D01*
X-306669Y-253385D01*
X-306883Y-253814D01*
X-307097Y-254457D01*
X-307097Y-255528D01*
X-306883Y-256171D01*
X-306669Y-256600D01*
X-306240Y-257028D01*
X-305812Y-257242D01*
X-304954Y-257242D01*
X-304526Y-257028D01*
X-304097Y-256600D01*
X-303883Y-256171D01*
X-303669Y-255528D01*
X-303669Y-254457D01*
X-303883Y-253814D01*
X-304097Y-253385D01*
X-304526Y-252957D01*
X-304954Y-252742D01*
X-305812Y-252742D01*
X-302383Y-252742D02*
X-302383Y-257242D01*
X-302383Y-252742D02*
X-300883Y-252742D01*
X-300240Y-252957D01*
X-299812Y-253385D01*
X-299597Y-253814D01*
X-299383Y-254457D01*
X-299383Y-255528D01*
X-299597Y-256171D01*
X-299812Y-256600D01*
X-300240Y-257028D01*
X-300883Y-257242D01*
X-302383Y-257242D01*
X-298097Y-252742D02*
X-298097Y-257242D01*
X-298097Y-252742D02*
X-295312Y-252742D01*
X-298097Y-254885D02*
X-296383Y-254885D01*
X-298097Y-257242D02*
X-295312Y-257242D01*
X-294026Y-252742D02*
X-294026Y-257242D01*
X-294026Y-257242D02*
X-291454Y-257242D01*
X-289954Y-254242D02*
X-290169Y-254457D01*
X-289954Y-254671D01*
X-289740Y-254457D01*
X-289954Y-254242D01*
X-289954Y-256814D02*
X-290169Y-257028D01*
X-289954Y-257242D01*
X-289740Y-257028D01*
X-289954Y-256814D01*
X-288454Y-252742D02*
X-288454Y-257242D01*
X-288454Y-252742D02*
X-286526Y-252742D01*
X-285883Y-252957D01*
X-285669Y-253171D01*
X-285454Y-253600D01*
X-285454Y-254028D01*
X-285669Y-254457D01*
X-285883Y-254671D01*
X-286526Y-254885D01*
X-288454Y-254885D02*
X-286526Y-254885D01*
X-285883Y-255100D01*
X-285669Y-255314D01*
X-285454Y-255742D01*
X-285454Y-256385D01*
X-285669Y-256814D01*
X-285883Y-257028D01*
X-286526Y-257242D01*
X-288454Y-257242D01*
X-283097Y-252742D02*
X-283740Y-252957D01*
X-283954Y-253385D01*
X-283954Y-253814D01*
X-283740Y-254242D01*
X-283312Y-254457D01*
X-282454Y-254671D01*
X-281812Y-254885D01*
X-281383Y-255314D01*
X-281169Y-255742D01*
X-281169Y-256385D01*
X-281383Y-256814D01*
X-281597Y-257028D01*
X-282240Y-257242D01*
X-283097Y-257242D01*
X-283740Y-257028D01*
X-283954Y-256814D01*
X-284169Y-256385D01*
X-284169Y-255742D01*
X-283954Y-255314D01*
X-283526Y-254885D01*
X-282883Y-254671D01*
X-282026Y-254457D01*
X-281597Y-254242D01*
X-281383Y-253814D01*
X-281383Y-253385D01*
X-281597Y-252957D01*
X-282240Y-252742D01*
X-283097Y-252742D01*
X-277312Y-253385D02*
X-277526Y-252957D01*
X-278169Y-252742D01*
X-278597Y-252742D01*
X-279240Y-252957D01*
X-279669Y-253600D01*
X-279883Y-254671D01*
X-279883Y-255742D01*
X-279669Y-256600D01*
X-279240Y-257028D01*
X-278597Y-257242D01*
X-278383Y-257242D01*
X-277740Y-257028D01*
X-277312Y-256600D01*
X-277097Y-255957D01*
X-277097Y-255742D01*
X-277312Y-255100D01*
X-277740Y-254671D01*
X-278383Y-254457D01*
X-278597Y-254457D01*
X-279240Y-254671D01*
X-279669Y-255100D01*
X-279883Y-255742D01*
X-274526Y-252742D02*
X-275169Y-252957D01*
X-275597Y-253600D01*
X-275812Y-254671D01*
X-275812Y-255314D01*
X-275597Y-256385D01*
X-275169Y-257028D01*
X-274526Y-257242D01*
X-274097Y-257242D01*
X-273454Y-257028D01*
X-273026Y-256385D01*
X-272812Y-255314D01*
X-272812Y-254671D01*
X-273026Y-253600D01*
X-273454Y-252957D01*
X-274097Y-252742D01*
X-274526Y-252742D01*
X-269812Y-252742D02*
X-271526Y-257242D01*
X-269812Y-252742D02*
X-268097Y-257242D01*
X-270883Y-255742D02*
X-268740Y-255742D01*
X-266812Y-255314D02*
X-262954Y-255314D01*
X-261669Y-252742D02*
X-259954Y-257242D01*
X-258240Y-252742D02*
X-259954Y-257242D01*
X-256954Y-253600D02*
X-256526Y-253385D01*
X-255883Y-252742D01*
X-255883Y-257242D01*
X-254383Y-256814D02*
X-254597Y-257028D01*
X-254383Y-257242D01*
X-254169Y-257028D01*
X-254383Y-256814D01*
X-252883Y-253600D02*
X-252454Y-253385D01*
X-251812Y-252742D01*
X-251812Y-257242D01*
X-244740Y-252742D02*
X-244740Y-257242D01*
X-246240Y-252742D02*
X-243240Y-252742D01*
X-240669Y-252742D02*
X-241097Y-252957D01*
X-241526Y-253385D01*
X-241740Y-253814D01*
X-241954Y-254457D01*
X-241954Y-255528D01*
X-241740Y-256171D01*
X-241526Y-256600D01*
X-241097Y-257028D01*
X-240669Y-257242D01*
X-239812Y-257242D01*
X-239383Y-257028D01*
X-238954Y-256600D01*
X-238740Y-256171D01*
X-238526Y-255528D01*
X-238526Y-254457D01*
X-238740Y-253814D01*
X-238954Y-253385D01*
X-239383Y-252957D01*
X-239812Y-252742D01*
X-240669Y-252742D01*
X-237240Y-252742D02*
X-237240Y-257242D01*
X-237240Y-252742D02*
X-235312Y-252742D01*
X-234669Y-252957D01*
X-234454Y-253171D01*
X-234240Y-253600D01*
X-234240Y-254242D01*
X-234454Y-254671D01*
X-234669Y-254885D01*
X-235312Y-255100D01*
X-237240Y-255100D01*
X-308812Y-259814D02*
X-309240Y-259385D01*
X-309883Y-259171D01*
X-310740Y-259171D01*
X-311383Y-259385D01*
X-311812Y-259814D01*
X-311812Y-260242D01*
X-311597Y-260671D01*
X-311383Y-260885D01*
X-310954Y-261100D01*
X-309669Y-261528D01*
X-309240Y-261742D01*
X-309026Y-261957D01*
X-308812Y-262385D01*
X-308812Y-263028D01*
X-309240Y-263457D01*
X-309883Y-263671D01*
X-310740Y-263671D01*
X-311383Y-263457D01*
X-311812Y-263028D01*
X-307526Y-259171D02*
X-307526Y-263671D01*
X-303240Y-259171D02*
X-306240Y-263671D01*
X-306240Y-259171D02*
X-303240Y-259171D01*
X-306240Y-263671D02*
X-303240Y-263671D01*
X-301954Y-259171D02*
X-301954Y-263671D01*
X-301954Y-259171D02*
X-299169Y-259171D01*
X-301954Y-261314D02*
X-300240Y-261314D01*
X-301954Y-263671D02*
X-299169Y-263671D01*
X-297669Y-260671D02*
X-297883Y-260885D01*
X-297669Y-261100D01*
X-297454Y-260885D01*
X-297669Y-260671D01*
X-297669Y-263242D02*
X-297883Y-263457D01*
X-297669Y-263671D01*
X-297454Y-263457D01*
X-297669Y-263242D01*
X-293383Y-259171D02*
X-295526Y-259171D01*
X-295740Y-261100D01*
X-295526Y-260885D01*
X-294883Y-260671D01*
X-294240Y-260671D01*
X-293597Y-260885D01*
X-293169Y-261314D01*
X-292954Y-261957D01*
X-292954Y-262385D01*
X-293383Y-263028D01*
X-293812Y-263457D01*
X-294454Y-263671D01*
X-295097Y-263671D01*
X-295740Y-263457D01*
X-295954Y-263242D01*
X-296169Y-262814D01*
X-288883Y-259171D02*
X-291026Y-259171D01*
X-291240Y-261100D01*
X-291026Y-260885D01*
X-290383Y-260671D01*
X-289740Y-260671D01*
X-289097Y-260885D01*
X-288669Y-261314D01*
X-288454Y-261957D01*
X-288454Y-262385D01*
X-288883Y-263028D01*
X-289312Y-263457D01*
X-289954Y-263671D01*
X-290597Y-263671D01*
X-291240Y-263457D01*
X-291454Y-263242D01*
X-291669Y-262814D01*
X-287169Y-259171D02*
X-284169Y-263671D01*
X-284169Y-259171D02*
X-287169Y-263671D01*
X-280312Y-259814D02*
X-280526Y-259385D01*
X-281169Y-259171D01*
X-281597Y-259171D01*
X-282240Y-259385D01*
X-282669Y-260028D01*
X-282883Y-261100D01*
X-282883Y-262171D01*
X-282669Y-263028D01*
X-282240Y-263457D01*
X-281597Y-263671D01*
X-281383Y-263671D01*
X-280740Y-263457D01*
X-280312Y-263028D01*
X-280097Y-262385D01*
X-280097Y-262171D01*
X-280312Y-261528D01*
X-280740Y-261100D01*
X-281383Y-260885D01*
X-281597Y-260885D01*
X-282240Y-261100D01*
X-282669Y-261528D01*
X-282883Y-262171D01*
X-276026Y-259171D02*
X-278169Y-259171D01*
X-278383Y-261100D01*
X-278169Y-260885D01*
X-277526Y-260671D01*
X-276883Y-260671D01*
X-276240Y-260885D01*
X-275812Y-261314D01*
X-275597Y-261957D01*
X-275597Y-262385D01*
X-276026Y-263028D01*
X-276454Y-263457D01*
X-277097Y-263671D01*
X-277740Y-263671D01*
X-278383Y-263457D01*
X-278597Y-263242D01*
X-278812Y-262814D01*
X-271097Y-260242D02*
X-271312Y-259814D01*
X-271740Y-259385D01*
X-272169Y-259171D01*
X-273026Y-259171D01*
X-273454Y-259385D01*
X-273883Y-259814D01*
X-274097Y-260242D01*
X-274312Y-260885D01*
X-274312Y-261957D01*
X-274097Y-262600D01*
X-273883Y-263028D01*
X-273454Y-263457D01*
X-273026Y-263671D01*
X-272169Y-263671D01*
X-271740Y-263457D01*
X-271312Y-263028D01*
X-271097Y-262600D01*
X-269812Y-259171D02*
X-269812Y-263671D01*
X-269812Y-259171D02*
X-268097Y-263671D01*
X-266383Y-259171D02*
X-268097Y-263671D01*
X-266383Y-259171D02*
X-266383Y-263671D01*
X-259312Y-259171D02*
X-259312Y-263671D01*
X-260812Y-259171D02*
X-257812Y-259171D01*
X-256526Y-261100D02*
X-252669Y-261100D01*
X-256526Y-262385D02*
X-252669Y-262385D01*
X-250097Y-259171D02*
X-250740Y-259385D01*
X-251169Y-260028D01*
X-251383Y-261100D01*
X-251383Y-261742D01*
X-251169Y-262814D01*
X-250740Y-263457D01*
X-250097Y-263671D01*
X-249669Y-263671D01*
X-249026Y-263457D01*
X-248597Y-262814D01*
X-248383Y-261742D01*
X-248383Y-261100D01*
X-248597Y-260028D01*
X-249026Y-259385D01*
X-249669Y-259171D01*
X-250097Y-259171D01*
X-246883Y-263242D02*
X-247097Y-263457D01*
X-246883Y-263671D01*
X-246669Y-263457D01*
X-246883Y-263242D01*
X-245383Y-260028D02*
X-244954Y-259814D01*
X-244312Y-259171D01*
X-244312Y-263671D01*
X-241740Y-259171D02*
X-242383Y-259385D01*
X-242812Y-260028D01*
X-243026Y-261100D01*
X-243026Y-261742D01*
X-242812Y-262814D01*
X-242383Y-263457D01*
X-241740Y-263671D01*
X-241312Y-263671D01*
X-240669Y-263457D01*
X-240240Y-262814D01*
X-240026Y-261742D01*
X-240026Y-261100D01*
X-240240Y-260028D01*
X-240669Y-259385D01*
X-241312Y-259171D01*
X-241740Y-259171D01*
X-238740Y-259171D02*
X-238740Y-263671D01*
X-238740Y-259171D02*
X-237026Y-263671D01*
X-235312Y-259171D02*
X-237026Y-263671D01*
X-235312Y-259171D02*
X-235312Y-263671D01*
X-234026Y-259171D02*
X-234026Y-263671D01*
X-234026Y-259171D02*
X-232312Y-263671D01*
X-230597Y-259171D02*
X-232312Y-263671D01*
X-230597Y-259171D02*
X-230597Y-263671D01*
X-311812Y-265600D02*
X-311812Y-270100D01*
X-311812Y-265600D02*
X-310312Y-265600D01*
X-309669Y-265814D01*
X-309240Y-266242D01*
X-309026Y-266671D01*
X-308812Y-267314D01*
X-308812Y-268385D01*
X-309026Y-269028D01*
X-309240Y-269457D01*
X-309669Y-269885D01*
X-310312Y-270100D01*
X-311812Y-270100D01*
X-305812Y-265600D02*
X-307526Y-270100D01*
X-305812Y-265600D02*
X-304097Y-270100D01*
X-306883Y-268600D02*
X-304740Y-268600D01*
X-301312Y-265600D02*
X-301312Y-270100D01*
X-302812Y-265600D02*
X-299812Y-265600D01*
X-298526Y-265600D02*
X-298526Y-270100D01*
X-298526Y-265600D02*
X-295740Y-265600D01*
X-298526Y-267742D02*
X-296812Y-267742D01*
X-298526Y-270100D02*
X-295740Y-270100D01*
X-294240Y-267100D02*
X-294454Y-267314D01*
X-294240Y-267528D01*
X-294026Y-267314D01*
X-294240Y-267100D01*
X-294240Y-269671D02*
X-294454Y-269885D01*
X-294240Y-270100D01*
X-294026Y-269885D01*
X-294240Y-269671D01*
G36*
G01X-304249Y-244750D02*
X-304165Y-244885D01*
X-304083Y-245026D01*
X-304004Y-245171D01*
X-303928Y-245321D01*
X-303855Y-245476D01*
X-303784Y-245635D01*
X-303716Y-245799D01*
X-303648Y-245964D01*
X-303585Y-246123D01*
X-303529Y-246278D01*
X-303479Y-246428D01*
X-303435Y-246573D01*
X-303398Y-246714D01*
X-303366Y-246849D01*
X-303340Y-246963D01*
X-303308Y-247048D01*
X-303270Y-247104D01*
X-303227Y-247130D01*
X-303179Y-247127D01*
X-303125Y-247094D01*
X-303066Y-247033D01*
X-303006Y-246949D01*
X-302959Y-246859D01*
X-302924Y-246762D01*
X-302903Y-246660D01*
X-302894Y-246552D01*
X-302899Y-246437D01*
X-302916Y-246316D01*
X-302962Y-246180D01*
X-303052Y-246011D01*
X-303186Y-245809D01*
X-303365Y-245573D01*
X-303588Y-245304D01*
X-303855Y-245002D01*
X-304166Y-244666D01*
X-304249Y-244750D01*
G37*
G36*
G01X-302733Y-247816D02*
X-302799Y-247925D01*
X-302876Y-248041D01*
X-302961Y-248164D01*
X-303057Y-248295D01*
X-303161Y-248434D01*
X-303276Y-248579D01*
X-303399Y-248733D01*
X-303538Y-248894D01*
X-303696Y-249063D01*
X-303874Y-249241D01*
X-304071Y-249427D01*
X-304289Y-249621D01*
X-304526Y-249823D01*
X-304783Y-250033D01*
X-304733Y-250133D01*
X-304425Y-249945D01*
X-304141Y-249763D01*
X-303880Y-249586D01*
X-303642Y-249414D01*
X-303427Y-249248D01*
X-303235Y-249088D01*
X-303066Y-248933D01*
X-302918Y-248794D01*
X-302779Y-248672D01*
X-302649Y-248567D01*
X-302527Y-248478D01*
X-302415Y-248407D01*
X-302311Y-248353D01*
X-302216Y-248316D01*
X-302733Y-247816D01*
G37*
G36*
G01X-302783Y-244416D02*
X-302573Y-244808D01*
X-302391Y-245164D01*
X-302237Y-245486D01*
X-302111Y-245771D01*
X-302012Y-246022D01*
X-301942Y-246237D01*
X-301899Y-246416D01*
X-301868Y-246561D01*
X-301830Y-246673D01*
X-301786Y-246752D01*
X-301736Y-246797D01*
X-301680Y-246809D01*
X-301618Y-246788D01*
X-301549Y-246733D01*
X-301485Y-246662D01*
X-301434Y-246585D01*
X-301396Y-246499D01*
X-301372Y-246406D01*
X-301362Y-246306D01*
X-301366Y-246198D01*
X-301383Y-246083D01*
X-301426Y-245945D01*
X-301517Y-245770D01*
X-301657Y-245557D01*
X-301845Y-245307D01*
X-302082Y-245020D01*
X-302366Y-244695D01*
X-302699Y-244333D01*
X-302783Y-244416D01*
G37*
G36*
G01X-301516Y-248050D02*
X-301162Y-248373D01*
X-300852Y-248669D01*
X-300586Y-248935D01*
X-300365Y-249173D01*
X-300188Y-249383D01*
X-300055Y-249564D01*
X-299966Y-249716D01*
X-299896Y-249836D01*
X-299830Y-249927D01*
X-299767Y-249991D01*
X-299708Y-250026D01*
X-299651Y-250034D01*
X-299599Y-250014D01*
X-299549Y-249966D01*
X-299502Y-249901D01*
X-299466Y-249829D01*
X-299441Y-249750D01*
X-299427Y-249664D01*
X-299423Y-249572D01*
X-299431Y-249472D01*
X-299449Y-249366D01*
X-299511Y-249247D01*
X-299647Y-249101D01*
X-299858Y-248926D01*
X-300143Y-248724D01*
X-300504Y-248494D01*
X-300939Y-248236D01*
X-301449Y-247949D01*
X-301516Y-248050D01*
G37*
G36*
G01X-301249Y-247450D02*
X-304816Y-247450D01*
X-304616Y-247666D01*
X-304544Y-247644D01*
X-304470Y-247625D01*
X-304396Y-247610D01*
X-304319Y-247598D01*
X-304242Y-247590D01*
X-304163Y-247585D01*
X-304083Y-247583D01*
X-298883Y-247583D01*
X-299366Y-247033D01*
X-299783Y-247450D01*
X-301066Y-247450D01*
X-300859Y-247088D01*
X-300666Y-246757D01*
X-300487Y-246456D01*
X-300323Y-246184D01*
X-300173Y-245943D01*
X-300037Y-245731D01*
X-299916Y-245550D01*
X-299809Y-245388D01*
X-299706Y-245246D01*
X-299609Y-245124D01*
X-299516Y-245022D01*
X-299428Y-244939D01*
X-299345Y-244876D01*
X-299266Y-244833D01*
X-299999Y-244349D01*
X-300053Y-244564D01*
X-300110Y-244770D01*
X-300169Y-244967D01*
X-300231Y-245155D01*
X-300295Y-245334D01*
X-300363Y-245505D01*
X-300433Y-245666D01*
X-300511Y-245841D01*
X-300601Y-246043D01*
X-300705Y-246271D01*
X-300822Y-246526D01*
X-300951Y-246807D01*
X-301094Y-247115D01*
X-301249Y-247450D01*
G37*
G54D11*
X-292049Y-266967D02*
X-292049Y-266789D01*
X-291870Y-266432D01*
X-291692Y-266253D01*
X-291335Y-266074D01*
X-290620Y-266074D01*
X-290263Y-266253D01*
X-290085Y-266432D01*
X-289906Y-266789D01*
X-289906Y-267146D01*
X-290085Y-267503D01*
X-290442Y-268039D01*
X-292228Y-269824D01*
X-289728Y-269824D01*
X-287585Y-266074D02*
X-288120Y-266253D01*
X-288478Y-266789D01*
X-288656Y-267682D01*
X-288656Y-268217D01*
X-288478Y-269110D01*
X-288120Y-269646D01*
X-287585Y-269824D01*
X-287228Y-269824D01*
X-286692Y-269646D01*
X-286335Y-269110D01*
X-286156Y-268217D01*
X-286156Y-267682D01*
X-286335Y-266789D01*
X-286692Y-266253D01*
X-287228Y-266074D01*
X-287585Y-266074D01*
X-285085Y-266789D02*
X-284728Y-266610D01*
X-284192Y-266074D01*
X-284192Y-269824D01*
X-280978Y-266610D02*
X-281156Y-266253D01*
X-281692Y-266074D01*
X-282049Y-266074D01*
X-282585Y-266253D01*
X-282942Y-266789D01*
X-283120Y-267682D01*
X-283120Y-268574D01*
X-282942Y-269289D01*
X-282585Y-269646D01*
X-282049Y-269824D01*
X-281870Y-269824D01*
X-281335Y-269646D01*
X-280978Y-269289D01*
X-280799Y-268753D01*
X-280799Y-268574D01*
X-280978Y-268039D01*
X-281335Y-267682D01*
X-281870Y-267503D01*
X-282049Y-267503D01*
X-282585Y-267682D01*
X-282942Y-268039D01*
X-283120Y-268574D01*
X-278656Y-266074D02*
X-279192Y-266253D01*
X-279549Y-266789D01*
X-279728Y-267682D01*
X-279728Y-268217D01*
X-279549Y-269110D01*
X-279192Y-269646D01*
X-278656Y-269824D01*
X-278299Y-269824D01*
X-277763Y-269646D01*
X-277406Y-269110D01*
X-277228Y-268217D01*
X-277228Y-267682D01*
X-277406Y-266789D01*
X-277763Y-266253D01*
X-278299Y-266074D01*
X-278656Y-266074D01*
X-275799Y-266074D02*
X-273835Y-266074D01*
X-274906Y-267503D01*
X-274370Y-267503D01*
X-274013Y-267682D01*
X-273835Y-267860D01*
X-273656Y-268396D01*
X-273656Y-268753D01*
X-273835Y-269289D01*
X-274192Y-269646D01*
X-274728Y-269824D01*
X-275263Y-269824D01*
X-275799Y-269646D01*
X-275978Y-269467D01*
X-276156Y-269110D01*
X-272585Y-266789D02*
X-272228Y-266610D01*
X-271692Y-266074D01*
X-271692Y-269824D01*
X-270442Y-266967D02*
X-270442Y-266789D01*
X-270263Y-266432D01*
X-270085Y-266253D01*
X-269728Y-266074D01*
X-269013Y-266074D01*
X-268656Y-266253D01*
X-268478Y-266432D01*
X-268299Y-266789D01*
X-268299Y-267146D01*
X-268478Y-267503D01*
X-268835Y-268039D01*
X-270620Y-269824D01*
X-268120Y-269824D01*
X-259906Y-266074D02*
X-259013Y-269824D01*
X-258120Y-266074D02*
X-259013Y-269824D01*
X-258120Y-266074D02*
X-257228Y-269824D01*
X-256335Y-266074D02*
X-257228Y-269824D01*
X-254192Y-266074D02*
X-254728Y-266253D01*
X-255085Y-266789D01*
X-255263Y-267682D01*
X-255263Y-268217D01*
X-255085Y-269110D01*
X-254728Y-269646D01*
X-254192Y-269824D01*
X-253835Y-269824D01*
X-253299Y-269646D01*
X-252942Y-269110D01*
X-252763Y-268217D01*
X-252763Y-267682D01*
X-252942Y-266789D01*
X-253299Y-266253D01*
X-253835Y-266074D01*
X-254192Y-266074D01*
X-249906Y-266074D02*
X-251692Y-268574D01*
X-249013Y-268574D01*
X-249906Y-266074D02*
X-249906Y-269824D01*
G54D12*
X-325000Y275000D02*
X325000Y275000D01*
X325000Y-275000D01*
X-325000Y-275000D01*
X-325000Y275000D01*
G54D666*
X-88109Y8202D03*
X-88984Y8202D03*
G36*
G01X-84734Y18112D02*
X-86384Y18112D01*
X-86384Y17062D01*
X-85834Y17062D01*
X-85834Y17162D01*
G75*
G02X-85584Y17412I250J0D01*
G74*
G01*
X-85534Y17412D01*
G75*
G02X-85284Y17162I0J-250D01*
G74*
G01*
X-85284Y17062D01*
X-84734Y17062D01*
X-84734Y18112D01*
G37*
G36*
G01X-84734Y15262D02*
X-85284Y15262D01*
X-85284Y15162D01*
G75*
G02X-85534Y14912I-250J0D01*
G74*
G01*
X-85584Y14912D01*
G75*
G02X-85834Y15162I0J250D01*
G74*
G01*
X-85834Y15262D01*
X-86384Y15262D01*
X-86384Y14212D01*
X-84734Y14212D01*
X-84734Y15262D01*
G37*
G54D667*
X-91014Y-8095D03*
X-89864Y-8095D03*
G54D665*
X-89864Y-7095D03*
X-91014Y-7095D03*
X-91014Y-7595D03*
X-89864Y-8595D03*
X-91014Y-8595D03*
X-91014Y-9095D03*
X-89864Y-9095D03*
X-89864Y-7595D03*
G54D667*
X-90983Y-14876D03*
X-89833Y-14876D03*
G54D665*
X-89833Y-13876D03*
X-90983Y-13876D03*
X-90983Y-14376D03*
X-89833Y-15376D03*
X-90983Y-15376D03*
X-90983Y-15876D03*
X-89833Y-15876D03*
X-89833Y-14376D03*
G54D667*
X-90983Y-11447D03*
X-89833Y-11447D03*
G54D665*
X-89833Y-10447D03*
X-90983Y-10447D03*
X-90983Y-10947D03*
X-89833Y-11947D03*
X-90983Y-11947D03*
X-90983Y-12447D03*
X-89833Y-12447D03*
X-89833Y-10947D03*
G54D668*
X-48427Y33009D03*
X-48427Y34159D03*
G54D669*
X-49427Y34159D03*
X-49427Y33009D03*
X-48927Y33009D03*
X-47927Y34159D03*
X-47927Y33009D03*
X-47427Y33009D03*
X-47427Y34159D03*
X-48927Y34159D03*
G54D662*
X-62641Y22004D03*
X-64841Y22004D03*
X-19863Y9474D03*
X-22063Y9474D03*
G54D335*
X-3500Y22955D03*
X-3500Y21455D03*
G54D308*
X-4000Y12855D03*
X-3000Y12855D03*
X-3000Y11455D03*
X-4000Y11455D03*
X-3000Y-48845D03*
X-2000Y-48845D03*
X-2000Y-50245D03*
X-3000Y-50245D03*
G36*
G01X-36882Y30720D02*
X-38332Y30720D01*
X-38332Y29870D01*
X-37849Y29870D01*
X-37849Y29953D01*
G75*
G02X-37649Y30153I200J0D01*
G74*
G01*
X-37565Y30153D01*
G75*
G02X-37365Y29953I0J-200D01*
G74*
G01*
X-37365Y29870D01*
X-36882Y29870D01*
X-36882Y30720D01*
G37*
G36*
G01X-24543Y28177D02*
X-25993Y28177D01*
X-25993Y27327D01*
X-25510Y27327D01*
X-25510Y27410D01*
G75*
G02X-25310Y27610I200J0D01*
G74*
G01*
X-25226Y27610D01*
G75*
G02X-25026Y27410I0J-200D01*
G74*
G01*
X-25026Y27327D01*
X-24543Y27327D01*
X-24543Y28177D01*
G37*
G36*
G01X-75787Y-13931D02*
X-77237Y-13931D01*
X-77237Y-14781D01*
X-76754Y-14781D01*
X-76754Y-14698D01*
G75*
G02X-76554Y-14498I200J0D01*
G74*
G01*
X-76470Y-14498D01*
G75*
G02X-76270Y-14698I0J-200D01*
G74*
G01*
X-76270Y-14781D01*
X-75787Y-14781D01*
X-75787Y-13931D01*
G37*
G36*
G01X-87067Y-23108D02*
X-88517Y-23108D01*
X-88517Y-23958D01*
X-88034Y-23958D01*
X-88034Y-23875D01*
G75*
G02X-87834Y-23675I200J0D01*
G74*
G01*
X-87750Y-23675D01*
G75*
G02X-87550Y-23875I0J-200D01*
G74*
G01*
X-87550Y-23958D01*
X-87067Y-23958D01*
X-87067Y-23108D01*
G37*
G36*
G01X-82348Y-39765D02*
X-83798Y-39765D01*
X-83798Y-40615D01*
X-83315Y-40615D01*
X-83315Y-40532D01*
G75*
G02X-83115Y-40332I200J0D01*
G74*
G01*
X-83031Y-40332D01*
G75*
G02X-82831Y-40532I0J-200D01*
G74*
G01*
X-82831Y-40615D01*
X-82348Y-40615D01*
X-82348Y-39765D01*
G37*
G36*
G01X-36882Y28870D02*
X-37365Y28870D01*
X-37365Y28787D01*
G75*
G02X-37565Y28587I-200J0D01*
G74*
G01*
X-37649Y28587D01*
G75*
G02X-37849Y28787I0J200D01*
G74*
G01*
X-37849Y28870D01*
X-38332Y28870D01*
X-38332Y28020D01*
X-36882Y28020D01*
X-36882Y28870D01*
G37*
G36*
G01X-24543Y26327D02*
X-25026Y26327D01*
X-25026Y26244D01*
G75*
G02X-25226Y26044I-200J0D01*
G74*
G01*
X-25310Y26044D01*
G75*
G02X-25510Y26244I0J200D01*
G74*
G01*
X-25510Y26327D01*
X-25993Y26327D01*
X-25993Y25477D01*
X-24543Y25477D01*
X-24543Y26327D01*
G37*
G36*
G01X-75787Y-15781D02*
X-76270Y-15781D01*
X-76270Y-15864D01*
G75*
G02X-76470Y-16064I-200J0D01*
G74*
G01*
X-76554Y-16064D01*
G75*
G02X-76754Y-15864I0J200D01*
G74*
G01*
X-76754Y-15781D01*
X-77237Y-15781D01*
X-77237Y-16631D01*
X-75787Y-16631D01*
X-75787Y-15781D01*
G37*
G36*
G01X-87067Y-24958D02*
X-87550Y-24958D01*
X-87550Y-25041D01*
G75*
G02X-87750Y-25241I-200J0D01*
G74*
G01*
X-87834Y-25241D01*
G75*
G02X-88034Y-25041I0J200D01*
G74*
G01*
X-88034Y-24958D01*
X-88517Y-24958D01*
X-88517Y-25808D01*
X-87067Y-25808D01*
X-87067Y-24958D01*
G37*
G36*
G01X-82348Y-41615D02*
X-82831Y-41615D01*
X-82831Y-41698D01*
G75*
G02X-83031Y-41898I-200J0D01*
G74*
G01*
X-83115Y-41898D01*
G75*
G02X-83315Y-41698I0J200D01*
G74*
G01*
X-83315Y-41615D01*
X-83798Y-41615D01*
X-83798Y-42465D01*
X-82348Y-42465D01*
X-82348Y-41615D01*
G37*
G36*
G01X-16574Y22853D02*
X-17424Y22853D01*
X-17424Y22370D01*
X-17341Y22370D01*
G75*
G02X-17141Y22170I0J-200D01*
G74*
G01*
X-17141Y22086D01*
G75*
G02X-17341Y21886I-200J0D01*
G74*
G01*
X-17424Y21886D01*
X-17424Y21403D01*
X-16574Y21403D01*
X-16574Y22853D01*
G37*
G36*
G01X-74557Y-38818D02*
X-75407Y-38818D01*
X-75407Y-39301D01*
X-75324Y-39301D01*
G75*
G02X-75124Y-39501I0J-200D01*
G74*
G01*
X-75124Y-39585D01*
G75*
G02X-75324Y-39785I-200J0D01*
G74*
G01*
X-75407Y-39785D01*
X-75407Y-40268D01*
X-74557Y-40268D01*
X-74557Y-38818D01*
G37*
G36*
G01X-18424Y22853D02*
X-19274Y22853D01*
X-19274Y21403D01*
X-18424Y21403D01*
X-18424Y21886D01*
X-18507Y21886D01*
G75*
G02X-18707Y22086I0J200D01*
G74*
G01*
X-18707Y22170D01*
G75*
G02X-18507Y22370I200J0D01*
G74*
G01*
X-18424Y22370D01*
X-18424Y22853D01*
G37*
G36*
G01X-76407Y-38818D02*
X-77257Y-38818D01*
X-77257Y-40268D01*
X-76407Y-40268D01*
X-76407Y-39785D01*
X-76490Y-39785D01*
G75*
G02X-76690Y-39585I0J200D01*
G74*
G01*
X-76690Y-39501D01*
G75*
G02X-76490Y-39301I200J0D01*
G74*
G01*
X-76407Y-39301D01*
X-76407Y-38818D01*
G37*
G36*
G01X-45300Y-27539D02*
X-47400Y-27539D01*
X-47400Y-28539D01*
X-46700Y-28539D01*
X-46700Y-28456D01*
G75*
G02X-46450Y-28206I250J0D01*
G74*
G01*
X-46250Y-28206D01*
G75*
G02X-46000Y-28456I0J-250D01*
G74*
G01*
X-46000Y-28539D01*
X-45300Y-28539D01*
X-45300Y-27539D01*
G37*
G36*
G01X-45300Y-29739D02*
X-46000Y-29739D01*
X-46000Y-29822D01*
G75*
G02X-46250Y-30072I-250J0D01*
G74*
G01*
X-46450Y-30072D01*
G75*
G02X-46700Y-29822I0J250D01*
G74*
G01*
X-46700Y-29739D01*
X-47400Y-29739D01*
X-47400Y-30739D01*
X-45300Y-30739D01*
X-45300Y-29739D01*
G37*
G54D652*
X-18493Y28330D03*
X-19443Y28330D03*
X-20393Y28330D03*
X-18493Y25730D03*
X-19443Y25730D03*
X-20393Y25730D03*
X-82618Y-21850D03*
X-83568Y-21850D03*
X-84518Y-21850D03*
X-82618Y-24450D03*
X-83568Y-24450D03*
X-84518Y-24450D03*
X-75333Y-33214D03*
X-75333Y-35814D03*
X-76283Y-35814D03*
X-77233Y-35814D03*
X-76283Y-33214D03*
X-77233Y-33214D03*
G54D653*
X-28869Y27528D03*
X-31469Y27528D03*
X-28869Y26578D03*
X-31469Y26578D03*
X-28869Y25628D03*
X-31469Y25628D03*
G54D650*
X-69442Y-15642D03*
X-70712Y-15642D03*
X-71982Y-15642D03*
X-73252Y-15642D03*
X-69442Y-21092D03*
X-70712Y-21092D03*
X-71982Y-21092D03*
X-73252Y-21092D03*
G54D651*
X-70665Y-17835D03*
X-72028Y-17835D03*
X-70665Y-18898D03*
X-72028Y-18898D03*
G54D649*
X-52849Y34426D03*
X-53799Y34426D03*
X-54748Y34426D03*
X-52849Y31725D03*
X-54748Y31725D03*
G54D309*
X-51765Y-35584D03*
X-51765Y-33784D03*
X-49465Y-35584D03*
X-49465Y-33784D03*
G54D643*
X-41561Y31970D03*
X-40611Y29270D03*
X-21135Y23774D03*
X-23035Y23774D03*
X-22085Y21074D03*
X-86298Y-2203D03*
X-85348Y-4904D03*
X-87248Y-4904D03*
G54D644*
X-82639Y-6434D03*
X-82639Y-8334D03*
G36*
G01X-14993Y34256D02*
X-15743Y34256D01*
X-15743Y33923D01*
X-15613Y33923D01*
G75*
G02X-15493Y33803I0J-120D01*
G74*
G01*
X-15493Y33710D01*
G75*
G02X-15613Y33590I-120J0D01*
G74*
G01*
X-15743Y33590D01*
X-15743Y33256D01*
X-14993Y33256D01*
X-14993Y34256D01*
G37*
G36*
G01X-14993Y32859D02*
X-15743Y32859D01*
X-15743Y32526D01*
X-15613Y32526D01*
G75*
G02X-15493Y32406I0J-120D01*
G74*
G01*
X-15493Y32313D01*
G75*
G02X-15613Y32193I-120J0D01*
G74*
G01*
X-15743Y32193D01*
X-15743Y31859D01*
X-14993Y31859D01*
X-14993Y32859D01*
G37*
G36*
G01X-78160Y-16980D02*
X-78910Y-16980D01*
X-78910Y-17313D01*
X-78780Y-17313D01*
G75*
G02X-78660Y-17433I0J-120D01*
G74*
G01*
X-78660Y-17526D01*
G75*
G02X-78780Y-17646I-120J0D01*
G74*
G01*
X-78910Y-17646D01*
X-78910Y-17980D01*
X-78160Y-17980D01*
X-78160Y-16980D01*
G37*
G36*
G01X-78160Y-18377D02*
X-78910Y-18377D01*
X-78910Y-18710D01*
X-78780Y-18710D01*
G75*
G02X-78660Y-18830I0J-120D01*
G74*
G01*
X-78660Y-18923D01*
G75*
G02X-78780Y-19043I-120J0D01*
G74*
G01*
X-78910Y-19043D01*
X-78910Y-19377D01*
X-78160Y-19377D01*
X-78160Y-18377D01*
G37*
G36*
G01X-70337Y-27816D02*
X-71087Y-27816D01*
X-71087Y-28149D01*
X-70957Y-28149D01*
G75*
G02X-70837Y-28269I0J-120D01*
G74*
G01*
X-70837Y-28362D01*
G75*
G02X-70957Y-28482I-120J0D01*
G74*
G01*
X-71087Y-28482D01*
X-71087Y-28816D01*
X-70337Y-28816D01*
X-70337Y-27816D01*
G37*
G36*
G01X-70337Y-29213D02*
X-71087Y-29213D01*
X-71087Y-29546D01*
X-70957Y-29546D01*
G75*
G02X-70837Y-29666I0J-120D01*
G74*
G01*
X-70837Y-29759D01*
G75*
G02X-70957Y-29879I-120J0D01*
G74*
G01*
X-71087Y-29879D01*
X-71087Y-30213D01*
X-70337Y-30213D01*
X-70337Y-29213D01*
G37*
G36*
G01X-16443Y34256D02*
X-17193Y34256D01*
X-17193Y33256D01*
X-16443Y33256D01*
X-16443Y33590D01*
X-16573Y33590D01*
G75*
G02X-16693Y33710I0J120D01*
G74*
G01*
X-16693Y33803D01*
G75*
G02X-16573Y33923I120J0D01*
G74*
G01*
X-16443Y33923D01*
X-16443Y34256D01*
G37*
G36*
G01X-16443Y32859D02*
X-17193Y32859D01*
X-17193Y31859D01*
X-16443Y31859D01*
X-16443Y32193D01*
X-16573Y32193D01*
G75*
G02X-16693Y32313I0J120D01*
G74*
G01*
X-16693Y32406D01*
G75*
G02X-16573Y32526I120J0D01*
G74*
G01*
X-16443Y32526D01*
X-16443Y32859D01*
G37*
G36*
G01X-79610Y-16980D02*
X-80360Y-16980D01*
X-80360Y-17980D01*
X-79610Y-17980D01*
X-79610Y-17646D01*
X-79740Y-17646D01*
G75*
G02X-79860Y-17526I0J120D01*
G74*
G01*
X-79860Y-17433D01*
G75*
G02X-79740Y-17313I120J0D01*
G74*
G01*
X-79610Y-17313D01*
X-79610Y-16980D01*
G37*
G36*
G01X-79610Y-18377D02*
X-80360Y-18377D01*
X-80360Y-19377D01*
X-79610Y-19377D01*
X-79610Y-19043D01*
X-79740Y-19043D01*
G75*
G02X-79860Y-18923I0J120D01*
G74*
G01*
X-79860Y-18830D01*
G75*
G02X-79740Y-18710I120J0D01*
G74*
G01*
X-79610Y-18710D01*
X-79610Y-18377D01*
G37*
G36*
G01X-71787Y-27816D02*
X-72537Y-27816D01*
X-72537Y-28816D01*
X-71787Y-28816D01*
X-71787Y-28482D01*
X-71917Y-28482D01*
G75*
G02X-72037Y-28362I0J120D01*
G74*
G01*
X-72037Y-28269D01*
G75*
G02X-71917Y-28149I120J0D01*
G74*
G01*
X-71787Y-28149D01*
X-71787Y-27816D01*
G37*
G36*
G01X-71787Y-29213D02*
X-72537Y-29213D01*
X-72537Y-30213D01*
X-71787Y-30213D01*
X-71787Y-29879D01*
X-71917Y-29879D01*
G75*
G02X-72037Y-29759I0J120D01*
G74*
G01*
X-72037Y-29666D01*
G75*
G02X-71917Y-29546I120J0D01*
G74*
G01*
X-71787Y-29546D01*
X-71787Y-29213D01*
G37*
G36*
G01X-32847Y30915D02*
X-33847Y30915D01*
X-33847Y30165D01*
X-33514Y30165D01*
X-33514Y30295D01*
G75*
G02X-33394Y30415I120J0D01*
G74*
G01*
X-33300Y30415D01*
G75*
G02X-33180Y30295I0J-120D01*
G74*
G01*
X-33180Y30165D01*
X-32847Y30165D01*
X-32847Y30915D01*
G37*
G36*
G01X-34244Y30915D02*
X-35244Y30915D01*
X-35244Y30165D01*
X-34911Y30165D01*
X-34911Y30295D01*
G75*
G02X-34791Y30415I120J0D01*
G74*
G01*
X-34697Y30415D01*
G75*
G02X-34577Y30295I0J-120D01*
G74*
G01*
X-34577Y30165D01*
X-34244Y30165D01*
X-34244Y30915D01*
G37*
G36*
G01X-65707Y-11313D02*
X-66707Y-11313D01*
X-66707Y-12063D01*
X-66374Y-12063D01*
X-66374Y-11933D01*
G75*
G02X-66254Y-11813I120J0D01*
G74*
G01*
X-66160Y-11813D01*
G75*
G02X-66040Y-11933I0J-120D01*
G74*
G01*
X-66040Y-12063D01*
X-65707Y-12063D01*
X-65707Y-11313D01*
G37*
G36*
G01X-67127Y-11313D02*
X-68127Y-11313D01*
X-68127Y-12063D01*
X-67794Y-12063D01*
X-67794Y-11933D01*
G75*
G02X-67674Y-11813I120J0D01*
G74*
G01*
X-67580Y-11813D01*
G75*
G02X-67460Y-11933I0J-120D01*
G74*
G01*
X-67460Y-12063D01*
X-67127Y-12063D01*
X-67127Y-11313D01*
G37*
G36*
G01X-32847Y29465D02*
X-33180Y29465D01*
X-33180Y29335D01*
G75*
G02X-33300Y29215I-120J0D01*
G74*
G01*
X-33394Y29215D01*
G75*
G02X-33514Y29335I0J120D01*
G74*
G01*
X-33514Y29465D01*
X-33847Y29465D01*
X-33847Y28715D01*
X-32847Y28715D01*
X-32847Y29465D01*
G37*
G36*
G01X-34244Y29465D02*
X-34577Y29465D01*
X-34577Y29335D01*
G75*
G02X-34697Y29215I-120J0D01*
G74*
G01*
X-34791Y29215D01*
G75*
G02X-34911Y29335I0J120D01*
G74*
G01*
X-34911Y29465D01*
X-35244Y29465D01*
X-35244Y28715D01*
X-34244Y28715D01*
X-34244Y29465D01*
G37*
G36*
G01X-65707Y-12763D02*
X-66040Y-12763D01*
X-66040Y-12893D01*
G75*
G02X-66160Y-13013I-120J0D01*
G74*
G01*
X-66254Y-13013D01*
G75*
G02X-66374Y-12893I0J120D01*
G74*
G01*
X-66374Y-12763D01*
X-66707Y-12763D01*
X-66707Y-13513D01*
X-65707Y-13513D01*
X-65707Y-12763D01*
G37*
G36*
G01X-67127Y-12763D02*
X-67460Y-12763D01*
X-67460Y-12893D01*
G75*
G02X-67580Y-13013I-120J0D01*
G74*
G01*
X-67674Y-13013D01*
G75*
G02X-67794Y-12893I0J120D01*
G74*
G01*
X-67794Y-12763D01*
X-68127Y-12763D01*
X-68127Y-13513D01*
X-67127Y-13513D01*
X-67127Y-12763D01*
G37*
G36*
G01X-50834Y34302D02*
X-51684Y34302D01*
X-51684Y33502D01*
X-51401Y33502D01*
X-51401Y33649D01*
G75*
G02X-51281Y33769I120J0D01*
G74*
G01*
X-51237Y33769D01*
G75*
G02X-51117Y33649I0J-120D01*
G74*
G01*
X-51117Y33502D01*
X-50834Y33502D01*
X-50834Y34302D01*
G37*
G36*
G01X-42642Y31971D02*
X-43492Y31971D01*
X-43492Y31171D01*
X-43209Y31171D01*
X-43209Y31318D01*
G75*
G02X-43089Y31438I120J0D01*
G74*
G01*
X-43045Y31438D01*
G75*
G02X-42925Y31318I0J-120D01*
G74*
G01*
X-42925Y31171D01*
X-42642Y31171D01*
X-42642Y31971D01*
G37*
G36*
G01X-44039Y31971D02*
X-44889Y31971D01*
X-44889Y31171D01*
X-44606Y31171D01*
X-44606Y31318D01*
G75*
G02X-44486Y31438I120J0D01*
G74*
G01*
X-44442Y31438D01*
G75*
G02X-44322Y31318I0J-120D01*
G74*
G01*
X-44322Y31171D01*
X-44039Y31171D01*
X-44039Y31971D01*
G37*
G36*
G01X-25256Y24381D02*
X-26106Y24381D01*
X-26106Y23581D01*
X-25823Y23581D01*
X-25823Y23728D01*
G75*
G02X-25703Y23848I120J0D01*
G74*
G01*
X-25659Y23848D01*
G75*
G02X-25539Y23728I0J-120D01*
G74*
G01*
X-25539Y23581D01*
X-25256Y23581D01*
X-25256Y24381D01*
G37*
G36*
G01X-23859Y24000D02*
X-24709Y24000D01*
X-24709Y23200D01*
X-24426Y23200D01*
X-24426Y23347D01*
G75*
G02X-24306Y23467I120J0D01*
G74*
G01*
X-24262Y23467D01*
G75*
G02X-24142Y23347I0J-120D01*
G74*
G01*
X-24142Y23200D01*
X-23859Y23200D01*
X-23859Y24000D01*
G37*
G36*
G01X-87278Y12568D02*
X-88128Y12568D01*
X-88128Y11768D01*
X-87845Y11768D01*
X-87845Y11915D01*
G75*
G02X-87725Y12035I120J0D01*
G74*
G01*
X-87681Y12035D01*
G75*
G02X-87561Y11915I0J-120D01*
G74*
G01*
X-87561Y11768D01*
X-87278Y11768D01*
X-87278Y12568D01*
G37*
G36*
G01X-64839Y2624D02*
X-65689Y2624D01*
X-65689Y1824D01*
X-65406Y1824D01*
X-65406Y1971D01*
G75*
G02X-65286Y2091I120J0D01*
G74*
G01*
X-65242Y2091D01*
G75*
G02X-65122Y1971I0J-120D01*
G74*
G01*
X-65122Y1824D01*
X-64839Y1824D01*
X-64839Y2624D01*
G37*
G36*
G01X-81885Y-3058D02*
X-82735Y-3058D01*
X-82735Y-3858D01*
X-82452Y-3858D01*
X-82452Y-3711D01*
G75*
G02X-82332Y-3591I120J0D01*
G74*
G01*
X-82288Y-3591D01*
G75*
G02X-82168Y-3711I0J-120D01*
G74*
G01*
X-82168Y-3858D01*
X-81885Y-3858D01*
X-81885Y-3058D01*
G37*
G36*
G01X-83282Y-3058D02*
X-84132Y-3058D01*
X-84132Y-3858D01*
X-83849Y-3858D01*
X-83849Y-3711D01*
G75*
G02X-83729Y-3591I120J0D01*
G74*
G01*
X-83685Y-3591D01*
G75*
G02X-83565Y-3711I0J-120D01*
G74*
G01*
X-83565Y-3858D01*
X-83282Y-3858D01*
X-83282Y-3058D01*
G37*
G36*
G01X-45173Y-33762D02*
X-46023Y-33762D01*
X-46023Y-34562D01*
X-45740Y-34562D01*
X-45740Y-34415D01*
G75*
G02X-45620Y-34295I120J0D01*
G74*
G01*
X-45576Y-34295D01*
G75*
G02X-45456Y-34415I0J-120D01*
G74*
G01*
X-45456Y-34562D01*
X-45173Y-34562D01*
X-45173Y-33762D01*
G37*
G36*
G01X-27901Y-42245D02*
X-28751Y-42245D01*
X-28751Y-43045D01*
X-28468Y-43045D01*
X-28468Y-42898D01*
G75*
G02X-28348Y-42778I120J0D01*
G74*
G01*
X-28304Y-42778D01*
G75*
G02X-28184Y-42898I0J-120D01*
G74*
G01*
X-28184Y-43045D01*
X-27901Y-43045D01*
X-27901Y-42245D01*
G37*
G36*
G01X-50834Y32903D02*
X-51117Y32903D01*
X-51117Y32757D01*
G75*
G02X-51237Y32637I-120J0D01*
G74*
G01*
X-51281Y32637D01*
G75*
G02X-51401Y32757I0J120D01*
G74*
G01*
X-51401Y32903D01*
X-51684Y32903D01*
X-51684Y32103D01*
X-50834Y32103D01*
X-50834Y32903D01*
G37*
G36*
G01X-42642Y30572D02*
X-42925Y30572D01*
X-42925Y30426D01*
G75*
G02X-43045Y30306I-120J0D01*
G74*
G01*
X-43089Y30306D01*
G75*
G02X-43209Y30426I0J120D01*
G74*
G01*
X-43209Y30572D01*
X-43492Y30572D01*
X-43492Y29772D01*
X-42642Y29772D01*
X-42642Y30572D01*
G37*
G36*
G01X-44039Y30572D02*
X-44322Y30572D01*
X-44322Y30426D01*
G75*
G02X-44442Y30306I-120J0D01*
G74*
G01*
X-44486Y30306D01*
G75*
G02X-44606Y30426I0J120D01*
G74*
G01*
X-44606Y30572D01*
X-44889Y30572D01*
X-44889Y29772D01*
X-44039Y29772D01*
X-44039Y30572D01*
G37*
G36*
G01X-25256Y22982D02*
X-25539Y22982D01*
X-25539Y22836D01*
G75*
G02X-25659Y22716I-120J0D01*
G74*
G01*
X-25703Y22716D01*
G75*
G02X-25823Y22836I0J120D01*
G74*
G01*
X-25823Y22982D01*
X-26106Y22982D01*
X-26106Y22182D01*
X-25256Y22182D01*
X-25256Y22982D01*
G37*
G36*
G01X-23859Y22601D02*
X-24142Y22601D01*
X-24142Y22455D01*
G75*
G02X-24262Y22335I-120J0D01*
G74*
G01*
X-24306Y22335D01*
G75*
G02X-24426Y22455I0J120D01*
G74*
G01*
X-24426Y22601D01*
X-24709Y22601D01*
X-24709Y21801D01*
X-23859Y21801D01*
X-23859Y22601D01*
G37*
G36*
G01X-87278Y11169D02*
X-87561Y11169D01*
X-87561Y11023D01*
G75*
G02X-87681Y10903I-120J0D01*
G74*
G01*
X-87725Y10903D01*
G75*
G02X-87845Y11023I0J120D01*
G74*
G01*
X-87845Y11169D01*
X-88128Y11169D01*
X-88128Y10369D01*
X-87278Y10369D01*
X-87278Y11169D01*
G37*
G36*
G01X-64839Y1224D02*
X-65122Y1224D01*
X-65122Y1078D01*
G75*
G02X-65242Y958I-120J0D01*
G74*
G01*
X-65286Y958D01*
G75*
G02X-65406Y1078I0J120D01*
G74*
G01*
X-65406Y1224D01*
X-65689Y1224D01*
X-65689Y424D01*
X-64839Y424D01*
X-64839Y1224D01*
G37*
G36*
G01X-81885Y-4457D02*
X-82168Y-4457D01*
X-82168Y-4603D01*
G75*
G02X-82288Y-4723I-120J0D01*
G74*
G01*
X-82332Y-4723D01*
G75*
G02X-82452Y-4603I0J120D01*
G74*
G01*
X-82452Y-4457D01*
X-82735Y-4457D01*
X-82735Y-5257D01*
X-81885Y-5257D01*
X-81885Y-4457D01*
G37*
G36*
G01X-83282Y-4457D02*
X-83565Y-4457D01*
X-83565Y-4603D01*
G75*
G02X-83685Y-4723I-120J0D01*
G74*
G01*
X-83729Y-4723D01*
G75*
G02X-83849Y-4603I0J120D01*
G74*
G01*
X-83849Y-4457D01*
X-84132Y-4457D01*
X-84132Y-5257D01*
X-83282Y-5257D01*
X-83282Y-4457D01*
G37*
G36*
G01X-45173Y-35161D02*
X-45456Y-35161D01*
X-45456Y-35307D01*
G75*
G02X-45576Y-35427I-120J0D01*
G74*
G01*
X-45620Y-35427D01*
G75*
G02X-45740Y-35307I0J120D01*
G74*
G01*
X-45740Y-35161D01*
X-46023Y-35161D01*
X-46023Y-35961D01*
X-45173Y-35961D01*
X-45173Y-35161D01*
G37*
G36*
G01X-27901Y-43644D02*
X-28184Y-43644D01*
X-28184Y-43790D01*
G75*
G02X-28304Y-43910I-120J0D01*
G74*
G01*
X-28348Y-43910D01*
G75*
G02X-28468Y-43790I0J120D01*
G74*
G01*
X-28468Y-43644D01*
X-28751Y-43644D01*
X-28751Y-44444D01*
X-27901Y-44444D01*
X-27901Y-43644D01*
G37*
G36*
G01X-20068Y12526D02*
X-20868Y12526D01*
X-20868Y12242D01*
X-20721Y12242D01*
G75*
G02X-20601Y12122I0J-120D01*
G74*
G01*
X-20601Y12079D01*
G75*
G02X-20721Y11959I-120J0D01*
G74*
G01*
X-20868Y11959D01*
X-20868Y11676D01*
X-20068Y11676D01*
X-20068Y12526D01*
G37*
G36*
G01X-20055Y11258D02*
X-20855Y11258D01*
X-20855Y10974D01*
X-20708Y10974D01*
G75*
G02X-20588Y10854I0J-120D01*
G74*
G01*
X-20588Y10811D01*
G75*
G02X-20708Y10691I-120J0D01*
G74*
G01*
X-20855Y10691D01*
X-20855Y10408D01*
X-20055Y10408D01*
X-20055Y11258D01*
G37*
G36*
G01X-87040Y9813D02*
X-87840Y9813D01*
X-87840Y9529D01*
X-87693Y9529D01*
G75*
G02X-87573Y9409I0J-120D01*
G74*
G01*
X-87573Y9366D01*
G75*
G02X-87693Y9246I-120J0D01*
G74*
G01*
X-87840Y9246D01*
X-87840Y8963D01*
X-87040Y8963D01*
X-87040Y9813D01*
G37*
G36*
G01X-87091Y7245D02*
X-87891Y7245D01*
X-87891Y6961D01*
X-87744Y6961D01*
G75*
G02X-87624Y6841I0J-120D01*
G74*
G01*
X-87624Y6798D01*
G75*
G02X-87744Y6678I-120J0D01*
G74*
G01*
X-87891Y6678D01*
X-87891Y6395D01*
X-87091Y6395D01*
X-87091Y7245D01*
G37*
G36*
G01X-79326Y-1523D02*
X-80126Y-1523D01*
X-80126Y-1807D01*
X-79979Y-1807D01*
G75*
G02X-79859Y-1927I0J-120D01*
G74*
G01*
X-79859Y-1970D01*
G75*
G02X-79979Y-2090I-120J0D01*
G74*
G01*
X-80126Y-2090D01*
X-80126Y-2373D01*
X-79326Y-2373D01*
X-79326Y-1523D01*
G37*
G36*
G01X-28542Y-24952D02*
X-29342Y-24952D01*
X-29342Y-25236D01*
X-29195Y-25236D01*
G75*
G02X-29075Y-25356I0J-120D01*
G74*
G01*
X-29075Y-25399D01*
G75*
G02X-29195Y-25519I-120J0D01*
G74*
G01*
X-29342Y-25519D01*
X-29342Y-25802D01*
X-28542Y-25802D01*
X-28542Y-24952D01*
G37*
G36*
G01X-31258Y-25010D02*
X-32058Y-25010D01*
X-32058Y-25294D01*
X-31911Y-25294D01*
G75*
G02X-31791Y-25414I0J-120D01*
G74*
G01*
X-31791Y-25457D01*
G75*
G02X-31911Y-25577I-120J0D01*
G74*
G01*
X-32058Y-25577D01*
X-32058Y-25860D01*
X-31258Y-25860D01*
X-31258Y-25010D01*
G37*
G36*
G01X-34826Y-25228D02*
X-35626Y-25228D01*
X-35626Y-25512D01*
X-35479Y-25512D01*
G75*
G02X-35359Y-25632I0J-120D01*
G74*
G01*
X-35359Y-25675D01*
G75*
G02X-35479Y-25795I-120J0D01*
G74*
G01*
X-35626Y-25795D01*
X-35626Y-26078D01*
X-34826Y-26078D01*
X-34826Y-25228D01*
G37*
G36*
G01X-5262Y-30868D02*
X-6062Y-30868D01*
X-6062Y-31152D01*
X-5915Y-31152D01*
G75*
G02X-5795Y-31272I0J-120D01*
G74*
G01*
X-5795Y-31315D01*
G75*
G02X-5915Y-31435I-120J0D01*
G74*
G01*
X-6062Y-31435D01*
X-6062Y-31718D01*
X-5262Y-31718D01*
X-5262Y-30868D01*
G37*
G36*
G01X-21467Y12526D02*
X-22267Y12526D01*
X-22267Y11676D01*
X-21467Y11676D01*
X-21467Y11959D01*
X-21614Y11959D01*
G75*
G02X-21734Y12079I0J120D01*
G74*
G01*
X-21734Y12122D01*
G75*
G02X-21614Y12242I120J0D01*
G74*
G01*
X-21467Y12242D01*
X-21467Y12526D01*
G37*
G36*
G01X-21454Y11258D02*
X-22254Y11258D01*
X-22254Y10408D01*
X-21454Y10408D01*
X-21454Y10691D01*
X-21601Y10691D01*
G75*
G02X-21721Y10811I0J120D01*
G74*
G01*
X-21721Y10854D01*
G75*
G02X-21601Y10974I120J0D01*
G74*
G01*
X-21454Y10974D01*
X-21454Y11258D01*
G37*
G36*
G01X-88439Y9813D02*
X-89239Y9813D01*
X-89239Y8963D01*
X-88439Y8963D01*
X-88439Y9246D01*
X-88586Y9246D01*
G75*
G02X-88706Y9366I0J120D01*
G74*
G01*
X-88706Y9409D01*
G75*
G02X-88586Y9529I120J0D01*
G74*
G01*
X-88439Y9529D01*
X-88439Y9813D01*
G37*
G36*
G01X-88490Y7245D02*
X-89290Y7245D01*
X-89290Y6395D01*
X-88490Y6395D01*
X-88490Y6678D01*
X-88637Y6678D01*
G75*
G02X-88757Y6798I0J120D01*
G74*
G01*
X-88757Y6841D01*
G75*
G02X-88637Y6961I120J0D01*
G74*
G01*
X-88490Y6961D01*
X-88490Y7245D01*
G37*
G36*
G01X-80725Y-1523D02*
X-81525Y-1523D01*
X-81525Y-2373D01*
X-80725Y-2373D01*
X-80725Y-2090D01*
X-80872Y-2090D01*
G75*
G02X-80992Y-1970I0J120D01*
G74*
G01*
X-80992Y-1927D01*
G75*
G02X-80872Y-1807I120J0D01*
G74*
G01*
X-80725Y-1807D01*
X-80725Y-1523D01*
G37*
G36*
G01X-29941Y-24952D02*
X-30741Y-24952D01*
X-30741Y-25802D01*
X-29941Y-25802D01*
X-29941Y-25519D01*
X-30088Y-25519D01*
G75*
G02X-30208Y-25399I0J120D01*
G74*
G01*
X-30208Y-25356D01*
G75*
G02X-30088Y-25236I120J0D01*
G74*
G01*
X-29941Y-25236D01*
X-29941Y-24952D01*
G37*
G36*
G01X-32657Y-25010D02*
X-33457Y-25010D01*
X-33457Y-25860D01*
X-32657Y-25860D01*
X-32657Y-25577D01*
X-32804Y-25577D01*
G75*
G02X-32924Y-25457I0J120D01*
G74*
G01*
X-32924Y-25414D01*
G75*
G02X-32804Y-25294I120J0D01*
G74*
G01*
X-32657Y-25294D01*
X-32657Y-25010D01*
G37*
G36*
G01X-36225Y-25228D02*
X-37025Y-25228D01*
X-37025Y-26078D01*
X-36225Y-26078D01*
X-36225Y-25795D01*
X-36372Y-25795D01*
G75*
G02X-36492Y-25675I0J120D01*
G74*
G01*
X-36492Y-25632D01*
G75*
G02X-36372Y-25512I120J0D01*
G74*
G01*
X-36225Y-25512D01*
X-36225Y-25228D01*
G37*
G36*
G01X-6661Y-30868D02*
X-7461Y-30868D01*
X-7461Y-31718D01*
X-6661Y-31718D01*
X-6661Y-31435D01*
X-6808Y-31435D01*
G75*
G02X-6928Y-31315I0J120D01*
G74*
G01*
X-6928Y-31272D01*
G75*
G02X-6808Y-31152I120J0D01*
G74*
G01*
X-6661Y-31152D01*
X-6661Y-30868D01*
G37*
G54D629*
X-15553Y35026D03*
X-16378Y35026D03*
X-39516Y34836D03*
X-40341Y34836D03*
X-8645Y27520D03*
X-9470Y27520D03*
X-33440Y27086D03*
X-34265Y27086D03*
X-33440Y26177D03*
X-34265Y26177D03*
X-8645Y26123D03*
X-9470Y26123D03*
X-33440Y25308D03*
X-34265Y25308D03*
X-8645Y25234D03*
X-9470Y25234D03*
X-8645Y24345D03*
X-9470Y24345D03*
X-18261Y23606D03*
X-19086Y23606D03*
X-52335Y21612D03*
X-53160Y21612D03*
X-53986Y21612D03*
X-54811Y21612D03*
X-62594Y20734D03*
X-63419Y20734D03*
X-52335Y20723D03*
X-53160Y20723D03*
X-53986Y20723D03*
X-54811Y20723D03*
X-78975Y14429D03*
X-79800Y14429D03*
X-88116Y13299D03*
X-88941Y13299D03*
X-59239Y13083D03*
X-60064Y13083D03*
X-76356Y12608D03*
X-77181Y12608D03*
X-59239Y11844D03*
X-60064Y11844D03*
X-84253Y8275D03*
X-85078Y8275D03*
X-83371Y7272D03*
X-84196Y7272D03*
X-85149Y7272D03*
X-85974Y7272D03*
X-85297Y5252D03*
X-86122Y5252D03*
X-80067Y2687D03*
X-80892Y2687D03*
X-81845Y2687D03*
X-82670Y2687D03*
X-78721Y-16211D03*
X-79546Y-16211D03*
X-54379Y-16267D03*
X-55204Y-16267D03*
X-45440Y-23813D03*
X-46265Y-23813D03*
X-43281Y-24067D03*
X-44106Y-24067D03*
X-40559Y-24097D03*
X-38007Y-24100D03*
X-45440Y-24829D03*
X-46265Y-24829D03*
X-43281Y-25083D03*
X-44106Y-25083D03*
X-45440Y-25845D03*
X-46265Y-25845D03*
X-45440Y-26861D03*
X-46265Y-26861D03*
X-70897Y-27046D03*
X-71722Y-27046D03*
X-35396Y-29530D03*
X-36221Y-29530D03*
X-31931Y-29600D03*
X-32756Y-29600D03*
X-35396Y-30419D03*
X-36221Y-30419D03*
X-31931Y-30489D03*
X-32756Y-30489D03*
X-27500Y-30752D03*
X-28325Y-30752D03*
X-45536Y-31466D03*
X-46361Y-31466D03*
X-36001Y-32360D03*
X-36826Y-32360D03*
X-45528Y-32471D03*
X-46353Y-32471D03*
X-5696Y-32436D03*
X-6521Y-32436D03*
X-5696Y-33325D03*
X-6521Y-33325D03*
X-27500Y-34118D03*
X-5696Y-34214D03*
X-6521Y-34214D03*
X-27500Y-35009D03*
X-5696Y-35230D03*
X-6521Y-35230D03*
X-41147Y-35776D03*
X-41972Y-35776D03*
X-42943Y-35781D03*
X-43768Y-35781D03*
X-75510Y-37918D03*
X-76335Y-37918D03*
X-81390Y-38829D03*
X-82215Y-38829D03*
X-28314Y-41598D03*
X-29139Y-41598D03*
X-28314Y-45103D03*
X-29139Y-45103D03*
G54D630*
X-56535Y35145D03*
X-67061Y34957D03*
X-67950Y34957D03*
X-56535Y34320D03*
X-67061Y34132D03*
X-67950Y34132D03*
X-45135Y34233D03*
X-46024Y34233D03*
X-39547Y33852D03*
X-40436Y33852D03*
X-45135Y33408D03*
X-46024Y33408D03*
X-39547Y33027D03*
X-40436Y33027D03*
X-56560Y32574D03*
X-57475Y32574D03*
X-56560Y31749D03*
X-57475Y31749D03*
X-45839Y31391D03*
X-18935Y31126D03*
X-19824Y31126D03*
X-20734Y31126D03*
X-45839Y30566D03*
X-18935Y30301D03*
X-19824Y30301D03*
X-20734Y30301D03*
X-35999Y30098D03*
X-35999Y29273D03*
X-26766Y27352D03*
X-26766Y26527D03*
X-26825Y24075D03*
X-42941Y23814D03*
X-43830Y23814D03*
X-44719Y23814D03*
X-45608Y23814D03*
X-46497Y23814D03*
X-47386Y23814D03*
X-26825Y23250D03*
X-42941Y22989D03*
X-43830Y22989D03*
X-44719Y22989D03*
X-45608Y22989D03*
X-46497Y22989D03*
X-47386Y22989D03*
X-50241Y22142D03*
X-55768Y21528D03*
X-56657Y21528D03*
X-57546Y21528D03*
X-58435Y21528D03*
X-59377Y21528D03*
X-60266Y21528D03*
X-61155Y21528D03*
X-51386Y21528D03*
X-50241Y21317D03*
X-55768Y20703D03*
X-56657Y20703D03*
X-57546Y20703D03*
X-58435Y20703D03*
X-59377Y20703D03*
X-60266Y20703D03*
X-61155Y20703D03*
X-51386Y20703D03*
X-74328Y14418D03*
X-75318Y14418D03*
X-76261Y14418D03*
X-77150Y14418D03*
X-78074Y14413D03*
X-74328Y13593D03*
X-75318Y13593D03*
X-76261Y13593D03*
X-77150Y13593D03*
X-78074Y13588D03*
X-79309Y13402D03*
X-80198Y13402D03*
X-81163Y13402D03*
X-82052Y13402D03*
X-79309Y12577D03*
X-80198Y12577D03*
X-81163Y12577D03*
X-82052Y12577D03*
X-38775Y12511D03*
X-88846Y12008D03*
X-38775Y11686D03*
X-88846Y11183D03*
X-60886Y2813D03*
X-60886Y1988D03*
X-80099Y1754D03*
X-80988Y1754D03*
X-81877Y1754D03*
X-83197Y1754D03*
X-80099Y929D03*
X-80988Y929D03*
X-81877Y929D03*
X-83197Y929D03*
X-80099Y-24D03*
X-80988Y-24D03*
X-81877Y-24D03*
X-83197Y-24D03*
X-80099Y-849D03*
X-80988Y-849D03*
X-81877Y-849D03*
X-83197Y-849D03*
X-48188Y-2468D03*
X-48188Y-3293D03*
X-81168Y-3618D03*
X-88915Y-4126D03*
X-81168Y-4443D03*
X-48188Y-4653D03*
X-88915Y-4951D03*
X-48188Y-5478D03*
X-86375Y-6412D03*
X-87264Y-6412D03*
X-88153Y-6412D03*
X-86375Y-7237D03*
X-87264Y-7237D03*
X-88153Y-7237D03*
X-48188Y-7259D03*
X-48188Y-8084D03*
X-86375Y-8190D03*
X-87264Y-8190D03*
X-88153Y-8190D03*
X-35484Y-8876D03*
X-86375Y-9015D03*
X-87264Y-9015D03*
X-88153Y-9015D03*
X-35484Y-9701D03*
X-48188Y-10942D03*
X-48188Y-11767D03*
X-65064Y-12000D03*
X-65064Y-12825D03*
X-47591Y-13898D03*
X-47591Y-14723D03*
X-75072Y-15048D03*
X-75072Y-15873D03*
X-85857Y-19051D03*
X-83060Y-19054D03*
X-84013Y-19061D03*
X-84902Y-19061D03*
X-85857Y-19876D03*
X-83060Y-19879D03*
X-84013Y-19886D03*
X-84902Y-19886D03*
X-72161Y-23148D03*
X-73050Y-23148D03*
X-71231Y-23151D03*
X-68529Y-23159D03*
X-69418Y-23159D03*
X-70307Y-23159D03*
X-72161Y-23973D03*
X-73050Y-23973D03*
X-86266Y-24357D03*
X-71231Y-23976D03*
X-68529Y-23984D03*
X-69418Y-23984D03*
X-70307Y-23984D03*
X-41377Y-24121D03*
X-42322Y-24121D03*
X-86266Y-25182D03*
X-39751Y-24911D03*
X-41377Y-24946D03*
X-42322Y-24946D03*
X-38818Y-24916D03*
X-36795Y-26765D03*
X-36795Y-27590D03*
X-33632Y-28717D03*
X-37079Y-29557D03*
X-33632Y-29542D03*
X-34493Y-29569D03*
X-31016Y-29672D03*
X-29202Y-29676D03*
X-30122Y-29676D03*
X-33632Y-30368D03*
X-37079Y-30382D03*
X-75775Y-30418D03*
X-76664Y-30418D03*
X-77553Y-30418D03*
X-34493Y-30394D03*
X-31016Y-30497D03*
X-29202Y-30501D03*
X-30122Y-30501D03*
X-33632Y-31193D03*
X-75775Y-31243D03*
X-76664Y-31243D03*
X-77553Y-31243D03*
X-42378Y-33938D03*
X-43313Y-33941D03*
X-44329Y-33941D03*
X-37471Y-33941D03*
X-38487Y-33941D03*
X-39503Y-33941D03*
X-40519Y-33941D03*
X-42378Y-34763D03*
X-43313Y-34766D03*
X-44329Y-34766D03*
X-37471Y-34766D03*
X-38487Y-34766D03*
X-39503Y-34766D03*
X-40519Y-34766D03*
X-84724Y-41083D03*
X-85872Y-41083D03*
X-84724Y-41908D03*
X-85872Y-41908D03*
X-4190Y-41889D03*
X-5206Y-41889D03*
X-4190Y-42714D03*
X-5206Y-42714D03*
G54D631*
X-39749Y-24097D03*
G54D632*
X-38819Y-24100D03*
G36*
G01X-28087Y-33868D02*
X-28562Y-33868D01*
X-28562Y-34368D01*
X-28560Y-34368D01*
X-28560Y-34392D01*
X-28060Y-34392D01*
X-28060Y-33917D01*
X-28087Y-33917D01*
X-28087Y-33868D01*
G37*
G36*
G01X-28060Y-34742D02*
X-28560Y-34742D01*
X-28560Y-34759D01*
X-28562Y-34759D01*
X-28562Y-35259D01*
X-28087Y-35259D01*
X-28087Y-35217D01*
X-28060Y-35217D01*
X-28060Y-34742D01*
G37*
G54D628*
X-61706Y9385D03*
X-60506Y7785D03*
X-61706Y7785D03*
X-60506Y6954D03*
X-61706Y6954D03*
X-60506Y5354D03*
X-61706Y5354D03*
X-43502Y-16128D03*
X-44702Y-16128D03*
X-47102Y-16700D03*
X-48302Y-16700D03*
X-43502Y-17728D03*
X-44702Y-17728D03*
X-47102Y-18300D03*
X-48302Y-18300D03*
X-60506Y9385D03*
G54D627*
X-61706Y8835D03*
X-60506Y8335D03*
X-61706Y8335D03*
X-60506Y6404D03*
X-61706Y6404D03*
X-60506Y5904D03*
X-61706Y5904D03*
X-43502Y-16678D03*
X-44702Y-16678D03*
X-43502Y-17178D03*
X-44702Y-17178D03*
X-47102Y-17250D03*
X-48302Y-17250D03*
X-47102Y-17750D03*
X-48302Y-17750D03*
X-60506Y8835D03*
G54D624*
X-75689Y34196D03*
X-85038Y34196D03*
X-75689Y32926D03*
X-85038Y32926D03*
X-75689Y31656D03*
X-85038Y31656D03*
X-75689Y30386D03*
X-85038Y30386D03*
X-75689Y29116D03*
X-85038Y29116D03*
X-75689Y27846D03*
X-85038Y27846D03*
X-75689Y26576D03*
X-85038Y26576D03*
X-75689Y25306D03*
X-85038Y25306D03*
G54D622*
X-39373Y-27027D03*
X-39773Y-27027D03*
X-40973Y-27027D03*
X-41773Y-27027D03*
X-42173Y-27027D03*
X-42573Y-27027D03*
X-42973Y-27027D03*
X-39373Y-32127D03*
X-39773Y-32127D03*
X-40173Y-32127D03*
X-40573Y-32127D03*
X-40973Y-32127D03*
X-41373Y-32127D03*
X-41773Y-32127D03*
X-42173Y-32127D03*
X-42573Y-32127D03*
X-42973Y-32127D03*
G54D670*
X-38622Y-27778D03*
X-43722Y-27778D03*
X-43722Y-28178D03*
X-43722Y-28578D03*
X-43722Y-28978D03*
X-43722Y-29378D03*
X-43722Y-29778D03*
X-43722Y-30178D03*
X-43722Y-30578D03*
X-43722Y-30978D03*
X-43722Y-31378D03*
X-38622Y-28178D03*
X-38622Y-28578D03*
X-38622Y-28978D03*
X-38622Y-29378D03*
X-38622Y-29778D03*
X-38622Y-30178D03*
X-38622Y-30578D03*
X-38622Y-30978D03*
X-38622Y-31378D03*
G54D622*
X-41373Y-27027D03*
X-40173Y-27027D03*
X-40573Y-27027D03*
G54D623*
X-40473Y-28878D03*
X-41873Y-28878D03*
X-40473Y-30278D03*
X-41873Y-30278D03*
G54D616*
X-94095Y-6945D03*
X-94095Y-7445D03*
X-94095Y-7945D03*
X-94095Y-8445D03*
X-94095Y-8945D03*
X-94095Y-9445D03*
X-94095Y-9945D03*
X-94095Y-10445D03*
X-94095Y-10945D03*
X-94095Y-11445D03*
X-94095Y-11945D03*
X-94095Y-12445D03*
X-94095Y-12945D03*
X-94095Y-13445D03*
X-94095Y-13945D03*
X-94095Y-14445D03*
X-94095Y-14945D03*
X-94095Y-15445D03*
X-94095Y-15945D03*
G54D617*
X-95631Y-4095D03*
X-95631Y-18795D03*
G54D618*
X-101591Y-4095D03*
X-101591Y-18795D03*
G54D611*
X-60746Y47655D03*
X-76646Y47655D03*
G54D612*
X-60646Y38355D03*
G54D613*
X-75746Y38105D03*
G54D614*
X-62146Y36555D03*
X-63246Y36555D03*
X-64346Y36555D03*
X-65446Y36555D03*
X-69846Y36555D03*
X-70946Y36555D03*
G36*
G01X-68421Y37855D02*
X-69071Y37855D01*
X-69071Y35519D01*
X-68421Y35519D01*
X-68421Y37855D01*
G37*
G36*
G01X-67321Y37855D02*
X-67971Y37855D01*
X-67971Y35519D01*
X-67321Y35519D01*
X-67321Y37855D01*
G37*
G36*
G01X-66221Y37855D02*
X-66871Y37855D01*
X-66871Y35519D01*
X-66221Y35519D01*
X-66221Y37855D01*
G37*
G54D610*
X-70191Y-9892D03*
X-72516Y-9892D03*
X-70191Y-13292D03*
X-72516Y-13292D03*
X-77135Y-21076D03*
X-79460Y-21076D03*
X-77135Y-24476D03*
X-79460Y-24476D03*
G54D608*
X-24984Y33839D03*
X-26759Y33839D03*
X-29632Y33839D03*
X-31407Y33839D03*
X-24984Y30449D03*
X-26759Y30449D03*
X-29632Y30449D03*
X-31407Y30449D03*
G54D609*
X-12259Y30783D03*
X-15649Y30783D03*
X-12259Y29008D03*
X-15649Y29008D03*
X-12259Y26135D03*
X-15649Y26135D03*
X-12259Y24360D03*
X-15649Y24360D03*
X-68949Y-31330D03*
X-72339Y-31330D03*
X-68949Y-33105D03*
X-72339Y-33105D03*
X-68949Y-35978D03*
X-72339Y-35978D03*
X-68949Y-37753D03*
X-72339Y-37753D03*
G54D607*
X-14672Y-1162D03*
X-15171Y-1162D03*
X-15672Y-1162D03*
X-16171Y-1162D03*
X-16672Y-1162D03*
X-17171Y-1162D03*
X-17672Y-1162D03*
X-18171Y-1162D03*
X-18672Y-1162D03*
X-19171Y-1162D03*
X-19672Y-1162D03*
X-20171Y-1162D03*
X-20672Y-1162D03*
X-21171Y-1162D03*
X-14672Y-1662D03*
X-15171Y-1662D03*
X-15672Y-1662D03*
X-16171Y-1662D03*
X-16672Y-1662D03*
X-17171Y-1662D03*
X-17672Y-1662D03*
X-18171Y-1662D03*
X-18672Y-1662D03*
X-19171Y-1662D03*
X-19672Y-1662D03*
X-20171Y-1662D03*
X-20672Y-1662D03*
X-21171Y-1662D03*
X-14672Y-2162D03*
X-15171Y-2162D03*
X-15672Y-2162D03*
X-16171Y-2162D03*
X-16672Y-2162D03*
X-17171Y-2162D03*
X-17672Y-2162D03*
X-18171Y-2162D03*
X-18672Y-2162D03*
X-19171Y-2162D03*
X-19672Y-2162D03*
X-20171Y-2162D03*
X-20672Y-2162D03*
X-21171Y-2162D03*
X-14672Y-2662D03*
X-15171Y-2662D03*
X-15672Y-2662D03*
X-20171Y-2662D03*
X-20672Y-2662D03*
X-21171Y-2662D03*
X-14672Y-3162D03*
X-15171Y-3162D03*
X-15672Y-3162D03*
X-16672Y-3162D03*
X-17171Y-3162D03*
X-17672Y-3162D03*
X-18171Y-3162D03*
X-18672Y-3162D03*
X-19171Y-3162D03*
X-20171Y-3162D03*
X-20672Y-3162D03*
X-21171Y-3162D03*
X-14672Y-3662D03*
X-15171Y-3662D03*
X-15672Y-3662D03*
X-16672Y-3662D03*
X-19171Y-3662D03*
X-20171Y-3662D03*
X-20672Y-3662D03*
X-21171Y-3662D03*
X-14672Y-4162D03*
X-15171Y-4162D03*
X-15672Y-4162D03*
X-16672Y-4162D03*
X-19171Y-4162D03*
X-20171Y-4162D03*
X-20672Y-4162D03*
X-21171Y-4162D03*
X-14672Y-4662D03*
X-15171Y-4662D03*
X-15672Y-4662D03*
X-16672Y-4662D03*
X-19171Y-4662D03*
X-20171Y-4662D03*
X-20672Y-4662D03*
X-21171Y-4662D03*
X-14672Y-5162D03*
X-15171Y-5162D03*
X-15672Y-5162D03*
X-16672Y-5162D03*
X-19171Y-5162D03*
X-20171Y-5162D03*
X-20672Y-5162D03*
X-21171Y-5162D03*
X-14672Y-5662D03*
X-15171Y-5662D03*
X-15672Y-5662D03*
X-16672Y-5662D03*
X-17171Y-5662D03*
X-17672Y-5662D03*
X-18171Y-5662D03*
X-18672Y-5662D03*
X-19171Y-5662D03*
X-20171Y-5662D03*
X-20672Y-5662D03*
X-21171Y-5662D03*
X-14672Y-6162D03*
X-15171Y-6162D03*
X-15672Y-6162D03*
X-16171Y-6162D03*
X-20171Y-6162D03*
X-20672Y-6162D03*
X-21171Y-6162D03*
X-14672Y-6662D03*
X-15171Y-6662D03*
X-15672Y-6662D03*
X-16171Y-6662D03*
X-16672Y-6662D03*
X-17171Y-6662D03*
X-17672Y-6662D03*
X-18171Y-6662D03*
X-18672Y-6662D03*
X-19171Y-6662D03*
X-19672Y-6662D03*
X-20171Y-6662D03*
X-20672Y-6662D03*
X-21171Y-6662D03*
X-14672Y-7162D03*
X-15171Y-7162D03*
X-15672Y-7162D03*
X-16171Y-7162D03*
X-16672Y-7162D03*
X-17171Y-7162D03*
X-17672Y-7162D03*
X-18171Y-7162D03*
X-18672Y-7162D03*
X-19171Y-7162D03*
X-19672Y-7162D03*
X-20171Y-7162D03*
X-20672Y-7162D03*
X-21171Y-7162D03*
X-14672Y-7662D03*
X-15171Y-7662D03*
X-15672Y-7662D03*
X-16171Y-7662D03*
X-16672Y-7662D03*
X-17171Y-7662D03*
X-17672Y-7662D03*
X-18171Y-7662D03*
X-18672Y-7662D03*
X-19171Y-7662D03*
X-19672Y-7662D03*
X-20171Y-7662D03*
X-20672Y-7662D03*
X-21171Y-7662D03*
G54D606*
X-44908Y13940D03*
X-45558Y13940D03*
X-46208Y13940D03*
X-47508Y13940D03*
X-48158Y13940D03*
X-51409Y13940D03*
X-52059Y13940D03*
X-52709Y13940D03*
X-53359Y13940D03*
X-54009Y13940D03*
X-54659Y13940D03*
X-55309Y13940D03*
X-55959Y13940D03*
X-44908Y13290D03*
X-45558Y13290D03*
X-46208Y13290D03*
X-46858Y13290D03*
X-47508Y13290D03*
X-48158Y13290D03*
X-48808Y13290D03*
X-49458Y13290D03*
X-50108Y13290D03*
X-50759Y13290D03*
X-51409Y13290D03*
X-52059Y13290D03*
X-52709Y13290D03*
X-53359Y13290D03*
X-54009Y13290D03*
X-54659Y13290D03*
X-55309Y13290D03*
X-44908Y12640D03*
X-45558Y12640D03*
X-46208Y12640D03*
X-46858Y12640D03*
X-47508Y12640D03*
X-48158Y12640D03*
X-48808Y12640D03*
X-49458Y12640D03*
X-50108Y12640D03*
X-50759Y12640D03*
X-51409Y12640D03*
X-52059Y12640D03*
X-52709Y12640D03*
X-53359Y12640D03*
X-54009Y12640D03*
X-54659Y12640D03*
X-55309Y12640D03*
X-55959Y12640D03*
X-44908Y11990D03*
X-45558Y11990D03*
X-46208Y11990D03*
X-46858Y11990D03*
X-47508Y11990D03*
X-48158Y11990D03*
X-48808Y11990D03*
X-49458Y11990D03*
X-50108Y11990D03*
X-50759Y11990D03*
X-51409Y11990D03*
X-52059Y11990D03*
X-52709Y11990D03*
X-53359Y11990D03*
X-54009Y11990D03*
X-54659Y11990D03*
X-55309Y11990D03*
X-55959Y11990D03*
X-44908Y11340D03*
X-45558Y11340D03*
X-46208Y11340D03*
X-46858Y11340D03*
X-47508Y11340D03*
X-48158Y11340D03*
X-48808Y11340D03*
X-49458Y11340D03*
X-51409Y11340D03*
X-52059Y11340D03*
X-52709Y11340D03*
X-53359Y11340D03*
X-54009Y11340D03*
X-54659Y11340D03*
X-55309Y11340D03*
X-44908Y10690D03*
X-45558Y10690D03*
X-46208Y10690D03*
X-46858Y10690D03*
X-47508Y10690D03*
X-48158Y10690D03*
X-48808Y10690D03*
X-49458Y10690D03*
X-50108Y10690D03*
X-50759Y10690D03*
X-51409Y10690D03*
X-52059Y10690D03*
X-52709Y10690D03*
X-53359Y10690D03*
X-54009Y10690D03*
X-54659Y10690D03*
X-55309Y10690D03*
X-55959Y10690D03*
X-45558Y10040D03*
X-46208Y10040D03*
X-46858Y10040D03*
X-47508Y10040D03*
X-48158Y10040D03*
X-48808Y10040D03*
X-49458Y10040D03*
X-50108Y10040D03*
X-50759Y10040D03*
X-51409Y10040D03*
X-52059Y10040D03*
X-52709Y10040D03*
X-53359Y10040D03*
X-54009Y10040D03*
X-54659Y10040D03*
X-55309Y10040D03*
X-55959Y10040D03*
X-44908Y9390D03*
X-45558Y9390D03*
X-46208Y9390D03*
X-46858Y9390D03*
X-47508Y9390D03*
X-48158Y9390D03*
X-48808Y9390D03*
X-49458Y9390D03*
X-50108Y9390D03*
X-50759Y9390D03*
X-51409Y9390D03*
X-52059Y9390D03*
X-52709Y9390D03*
X-53359Y9390D03*
X-54009Y9390D03*
X-54659Y9390D03*
X-55309Y9390D03*
X-44908Y8740D03*
X-45558Y8740D03*
X-46208Y8740D03*
X-46858Y8740D03*
X-47508Y8740D03*
X-48158Y8740D03*
X-48808Y8740D03*
X-50759Y8740D03*
X-51409Y8740D03*
X-52059Y8740D03*
X-53359Y8740D03*
X-54009Y8740D03*
X-54659Y8740D03*
X-55309Y8740D03*
X-55959Y8740D03*
X-45558Y8090D03*
X-46208Y8090D03*
X-46858Y8090D03*
X-47508Y8090D03*
X-48158Y8090D03*
X-49458Y8090D03*
X-50108Y8090D03*
X-50759Y8090D03*
X-51409Y8090D03*
X-52059Y8090D03*
X-52709Y8090D03*
X-53359Y8090D03*
X-54009Y8090D03*
X-54659Y8090D03*
X-55309Y8090D03*
X-55959Y8090D03*
X-44908Y7440D03*
X-45558Y7440D03*
X-46208Y7440D03*
X-46858Y7440D03*
X-47508Y7440D03*
X-48158Y7440D03*
X-48808Y7440D03*
X-49458Y7440D03*
X-50108Y7440D03*
X-50759Y7440D03*
X-51409Y7440D03*
X-52059Y7440D03*
X-52709Y7440D03*
X-53359Y7440D03*
X-54009Y7440D03*
X-54659Y7440D03*
X-55309Y7440D03*
X-55959Y7440D03*
X-44908Y6790D03*
X-45558Y6790D03*
X-46208Y6790D03*
X-46858Y6790D03*
X-47508Y6790D03*
X-48158Y6790D03*
X-48808Y6790D03*
X-49458Y6790D03*
X-50108Y6790D03*
X-50759Y6790D03*
X-51409Y6790D03*
X-52059Y6790D03*
X-52709Y6790D03*
X-53359Y6790D03*
X-54009Y6790D03*
X-54659Y6790D03*
X-55309Y6790D03*
X-45558Y6140D03*
X-46208Y6140D03*
X-46858Y6140D03*
X-47508Y6140D03*
X-48158Y6140D03*
X-49458Y6140D03*
X-50108Y6140D03*
X-50759Y6140D03*
X-51409Y6140D03*
X-52059Y6140D03*
X-52709Y6140D03*
X-53359Y6140D03*
X-54009Y6140D03*
X-54659Y6140D03*
X-55309Y6140D03*
X-55959Y6140D03*
X-44908Y5490D03*
X-45558Y5490D03*
X-46208Y5490D03*
X-46858Y5490D03*
X-47508Y5490D03*
X-48158Y5490D03*
X-48808Y5490D03*
X-49458Y5490D03*
X-50108Y5490D03*
X-50759Y5490D03*
X-51409Y5490D03*
X-52059Y5490D03*
X-52709Y5490D03*
X-53359Y5490D03*
X-54659Y5490D03*
X-55309Y5490D03*
X-55959Y5490D03*
X-44908Y4840D03*
X-45558Y4840D03*
X-46208Y4840D03*
X-46858Y4840D03*
X-47508Y4840D03*
X-48158Y4840D03*
X-48808Y4840D03*
X-49458Y4840D03*
X-50108Y4840D03*
X-50759Y4840D03*
X-51409Y4840D03*
X-52059Y4840D03*
X-52709Y4840D03*
X-53359Y4840D03*
X-54009Y4840D03*
X-54659Y4840D03*
X-55309Y4840D03*
X-45558Y4190D03*
X-46208Y4190D03*
X-46858Y4190D03*
X-47508Y4190D03*
X-48158Y4190D03*
X-48808Y4190D03*
X-49458Y4190D03*
X-50108Y4190D03*
X-50759Y4190D03*
X-51409Y4190D03*
X-52059Y4190D03*
X-52709Y4190D03*
X-53359Y4190D03*
X-54009Y4190D03*
X-54659Y4190D03*
X-55309Y4190D03*
X-55959Y4190D03*
X-44908Y3540D03*
X-45558Y3540D03*
X-46208Y3540D03*
X-46858Y3540D03*
X-47508Y3540D03*
X-48158Y3540D03*
X-48808Y3540D03*
X-49458Y3540D03*
X-50108Y3540D03*
X-50759Y3540D03*
X-51409Y3540D03*
X-52059Y3540D03*
X-52709Y3540D03*
X-53359Y3540D03*
X-54009Y3540D03*
X-54659Y3540D03*
X-55309Y3540D03*
X-55959Y3540D03*
X-44908Y2890D03*
X-45558Y2890D03*
X-46208Y2890D03*
X-46858Y2890D03*
X-47508Y2890D03*
X-48158Y2890D03*
X-48808Y2890D03*
X-49458Y2890D03*
X-50108Y2890D03*
X-50759Y2890D03*
X-51409Y2890D03*
X-52059Y2890D03*
X-53359Y2890D03*
X-54009Y2890D03*
X-54659Y2890D03*
X-55309Y2890D03*
X-55959Y2890D03*
X-49458Y13940D03*
X-50108Y13940D03*
G54D605*
X-38834Y-2464D03*
X-39633Y-2464D03*
X-40434Y-2464D03*
X-43633Y-2464D03*
X-44433Y-2464D03*
X-45233Y-2464D03*
X-50634Y-2464D03*
X-51433Y-2464D03*
X-52234Y-2464D03*
X-55433Y-2464D03*
X-56234Y-2464D03*
X-57033Y-2464D03*
X-38834Y-3264D03*
X-39633Y-3264D03*
X-40434Y-3264D03*
X-43633Y-3264D03*
X-44433Y-3264D03*
X-45233Y-3264D03*
X-50634Y-3264D03*
X-51433Y-3264D03*
X-52234Y-3264D03*
X-55433Y-3264D03*
X-56234Y-3264D03*
X-57033Y-3264D03*
X-38834Y-4064D03*
X-39633Y-4064D03*
X-40434Y-4064D03*
X-43633Y-4064D03*
X-44433Y-4064D03*
X-45233Y-4064D03*
X-50634Y-4064D03*
X-51433Y-4064D03*
X-52234Y-4064D03*
X-55433Y-4064D03*
X-56234Y-4064D03*
X-57033Y-4064D03*
X-38834Y-4864D03*
X-39633Y-4864D03*
X-40434Y-4864D03*
X-43633Y-4864D03*
X-44433Y-4864D03*
X-45233Y-4864D03*
X-50634Y-4864D03*
X-51433Y-4864D03*
X-52234Y-4864D03*
X-55433Y-4864D03*
X-56234Y-4864D03*
X-57033Y-4864D03*
X-38834Y-5664D03*
X-39633Y-5664D03*
X-40434Y-5664D03*
X-43633Y-5664D03*
X-44433Y-5664D03*
X-45233Y-5664D03*
X-50634Y-5664D03*
X-51433Y-5664D03*
X-52234Y-5664D03*
X-55433Y-5664D03*
X-56234Y-5664D03*
X-57033Y-5664D03*
X-38834Y-6464D03*
X-39633Y-6464D03*
X-40434Y-6464D03*
X-43633Y-6464D03*
X-44433Y-6464D03*
X-45233Y-6464D03*
X-50634Y-6464D03*
X-51433Y-6464D03*
X-52234Y-6464D03*
X-55433Y-6464D03*
X-56234Y-6464D03*
X-57033Y-6464D03*
X-38834Y-7264D03*
X-39633Y-7264D03*
X-40434Y-7264D03*
X-43633Y-7264D03*
X-44433Y-7264D03*
X-45233Y-7264D03*
X-50634Y-7264D03*
X-51433Y-7264D03*
X-52234Y-7264D03*
X-55433Y-7264D03*
X-56234Y-7264D03*
X-57033Y-7264D03*
X-38834Y-8064D03*
X-39633Y-8064D03*
X-40434Y-8064D03*
X-43633Y-8064D03*
X-44433Y-8064D03*
X-45233Y-8064D03*
X-50634Y-8064D03*
X-51433Y-8064D03*
X-52234Y-8064D03*
X-55433Y-8064D03*
X-56234Y-8064D03*
X-57033Y-8064D03*
X-38834Y-8864D03*
X-39633Y-8864D03*
X-40434Y-8864D03*
X-43633Y-8864D03*
X-44433Y-8864D03*
X-45233Y-8864D03*
X-50634Y-8864D03*
X-51433Y-8864D03*
X-52234Y-8864D03*
X-55433Y-8864D03*
X-56234Y-8864D03*
X-57033Y-8864D03*
X-38834Y-9664D03*
X-39633Y-9664D03*
X-40434Y-9664D03*
X-43633Y-9664D03*
X-44433Y-9664D03*
X-45233Y-9664D03*
X-50634Y-9664D03*
X-51433Y-9664D03*
X-52234Y-9664D03*
X-55433Y-9664D03*
X-56234Y-9664D03*
X-57033Y-9664D03*
X-38834Y-10464D03*
X-39633Y-10464D03*
X-40434Y-10464D03*
X-43633Y-10464D03*
X-44433Y-10464D03*
X-45233Y-10464D03*
X-50634Y-10464D03*
X-51433Y-10464D03*
X-52234Y-10464D03*
X-55433Y-10464D03*
X-56234Y-10464D03*
X-57033Y-10464D03*
X-38834Y-11264D03*
X-39633Y-11264D03*
X-40434Y-11264D03*
X-43633Y-11264D03*
X-44433Y-11264D03*
X-45233Y-11264D03*
X-50634Y-11264D03*
X-51433Y-11264D03*
X-52234Y-11264D03*
X-55433Y-11264D03*
X-56234Y-11264D03*
X-57033Y-11264D03*
X-38834Y-12064D03*
X-39633Y-12064D03*
X-40434Y-12064D03*
X-43633Y-12064D03*
X-44433Y-12064D03*
X-45233Y-12064D03*
X-50634Y-12064D03*
X-51433Y-12064D03*
X-52234Y-12064D03*
X-55433Y-12064D03*
X-56234Y-12064D03*
X-57033Y-12064D03*
X-38834Y-12864D03*
X-39633Y-12864D03*
X-40434Y-12864D03*
X-43633Y-12864D03*
X-44433Y-12864D03*
X-45233Y-12864D03*
X-50634Y-12864D03*
X-51433Y-12864D03*
X-52234Y-12864D03*
X-55433Y-12864D03*
X-56234Y-12864D03*
X-57033Y-12864D03*
X-38834Y-13664D03*
X-39633Y-13664D03*
X-40434Y-13664D03*
X-43633Y-13664D03*
X-44433Y-13664D03*
X-45233Y-13664D03*
X-50634Y-13664D03*
X-51433Y-13664D03*
X-52234Y-13664D03*
X-55433Y-13664D03*
X-56234Y-13664D03*
X-57033Y-13664D03*
X-38834Y-14464D03*
X-39633Y-14464D03*
X-40434Y-14464D03*
X-43633Y-14464D03*
X-44433Y-14464D03*
X-45233Y-14464D03*
X-50634Y-14464D03*
X-51433Y-14464D03*
X-52234Y-14464D03*
X-55433Y-14464D03*
X-56234Y-14464D03*
X-57033Y-14464D03*
G54D603*
X-77671Y10454D03*
X-78321Y10454D03*
X-78971Y10454D03*
X-79621Y10454D03*
X-80271Y10454D03*
X-80921Y10454D03*
X-81571Y10454D03*
X-77671Y4354D03*
X-78321Y4354D03*
X-78971Y4354D03*
X-79621Y4354D03*
X-80271Y4354D03*
X-80921Y4354D03*
X-81571Y4354D03*
G54D604*
X-12298Y5284D03*
X-12799Y5284D03*
X-13298Y5284D03*
X-13799Y5284D03*
X-14298Y5284D03*
X-14799Y5284D03*
X-15298Y5284D03*
X-15799Y5284D03*
X-16298Y5284D03*
X-16799Y5284D03*
X-17298Y5284D03*
X-17799Y5284D03*
X-18298Y5284D03*
X-18799Y5284D03*
X-19298Y5284D03*
X-19799Y5284D03*
X-20298Y5284D03*
X-20799Y5284D03*
X-21298Y5284D03*
X-21799Y5284D03*
X-22298Y5284D03*
X-22799Y5284D03*
X-23298Y5284D03*
X-23799Y5284D03*
X-12298Y-14616D03*
X-12799Y-14616D03*
X-13298Y-14616D03*
X-13799Y-14616D03*
X-14298Y-14616D03*
X-14799Y-14616D03*
X-15298Y-14616D03*
X-15799Y-14616D03*
X-16298Y-14616D03*
X-16799Y-14616D03*
X-17298Y-14616D03*
X-17799Y-14616D03*
X-18298Y-14616D03*
X-18799Y-14616D03*
X-19298Y-14616D03*
X-19799Y-14616D03*
X-20298Y-14616D03*
X-20799Y-14616D03*
X-21298Y-14616D03*
X-21799Y-14616D03*
X-22298Y-14616D03*
X-22799Y-14616D03*
X-23298Y-14616D03*
X-23799Y-14616D03*
G36*
G01X-84704Y-6960D02*
X-85820Y-6960D01*
X-85820Y-7808D01*
X-84704Y-7808D01*
X-84704Y-6960D01*
G37*
G36*
G01X-39237Y32485D02*
X-40085Y32485D01*
X-40085Y31334D01*
X-39237Y31334D01*
X-39237Y32485D01*
G37*
G36*
G01X-43563Y33294D02*
X-44585Y33294D01*
X-44585Y32446D01*
X-43563Y32446D01*
X-43563Y33294D01*
G37*
G36*
G01X-43563Y35194D02*
X-44585Y35194D01*
X-44585Y34346D01*
X-43563Y34346D01*
X-43563Y35194D01*
G37*
G36*
G01X-40987Y34244D02*
X-42135Y34244D01*
X-42135Y33396D01*
X-40987Y33396D01*
X-40987Y34244D01*
G37*
G54D666*
X88109Y-8202D03*
X88984Y-8202D03*
G36*
G01X84734Y-18112D02*
X86384Y-18112D01*
X86384Y-17062D01*
X85834Y-17062D01*
X85834Y-17162D01*
G75*
G02X85584Y-17412I-250J0D01*
G74*
G01*
X85534Y-17412D01*
G75*
G02X85284Y-17162I0J250D01*
G74*
G01*
X85284Y-17062D01*
X84734Y-17062D01*
X84734Y-18112D01*
G37*
G36*
G01X84734Y-15262D02*
X85284Y-15262D01*
X85284Y-15162D01*
G75*
G02X85534Y-14912I250J0D01*
G74*
G01*
X85584Y-14912D01*
G75*
G02X85834Y-15162I0J-250D01*
G74*
G01*
X85834Y-15262D01*
X86384Y-15262D01*
X86384Y-14212D01*
X84734Y-14212D01*
X84734Y-15262D01*
G37*
G54D667*
X91014Y8095D03*
X89864Y8095D03*
G54D665*
X89864Y7095D03*
X91014Y7095D03*
X91014Y7595D03*
X89864Y8595D03*
X91014Y8595D03*
X91014Y9095D03*
X89864Y9095D03*
X89864Y7595D03*
G54D667*
X90983Y14876D03*
X89833Y14876D03*
G54D665*
X89833Y13876D03*
X90983Y13876D03*
X90983Y14376D03*
X89833Y15376D03*
X90983Y15376D03*
X90983Y15876D03*
X89833Y15876D03*
X89833Y14376D03*
G54D667*
X90983Y11447D03*
X89833Y11447D03*
G54D665*
X89833Y10447D03*
X90983Y10447D03*
X90983Y10947D03*
X89833Y11947D03*
X90983Y11947D03*
X90983Y12447D03*
X89833Y12447D03*
X89833Y10947D03*
G54D668*
X48427Y-33009D03*
X48427Y-34159D03*
G54D669*
X49427Y-34159D03*
X49427Y-33009D03*
X48927Y-33009D03*
X47927Y-34159D03*
X47927Y-33009D03*
X47427Y-33009D03*
X47427Y-34159D03*
X48927Y-34159D03*
G54D662*
X62641Y-22004D03*
X64841Y-22004D03*
X19863Y-9474D03*
X22063Y-9474D03*
G54D335*
X3500Y-22955D03*
X3500Y-21455D03*
G54D308*
X4000Y-12855D03*
X3000Y-12855D03*
X3000Y-11455D03*
X4000Y-11455D03*
X3000Y48845D03*
X2000Y48845D03*
X2000Y50245D03*
X3000Y50245D03*
G36*
G01X36882Y-30720D02*
X38332Y-30720D01*
X38332Y-29870D01*
X37849Y-29870D01*
X37849Y-29953D01*
G75*
G02X37649Y-30153I-200J0D01*
G74*
G01*
X37565Y-30153D01*
G75*
G02X37365Y-29953I0J200D01*
G74*
G01*
X37365Y-29870D01*
X36882Y-29870D01*
X36882Y-30720D01*
G37*
G36*
G01X24543Y-28177D02*
X25993Y-28177D01*
X25993Y-27327D01*
X25510Y-27327D01*
X25510Y-27410D01*
G75*
G02X25310Y-27610I-200J0D01*
G74*
G01*
X25226Y-27610D01*
G75*
G02X25026Y-27410I0J200D01*
G74*
G01*
X25026Y-27327D01*
X24543Y-27327D01*
X24543Y-28177D01*
G37*
G36*
G01X75787Y13931D02*
X77237Y13931D01*
X77237Y14781D01*
X76754Y14781D01*
X76754Y14698D01*
G75*
G02X76554Y14498I-200J0D01*
G74*
G01*
X76470Y14498D01*
G75*
G02X76270Y14698I0J200D01*
G74*
G01*
X76270Y14781D01*
X75787Y14781D01*
X75787Y13931D01*
G37*
G36*
G01X87067Y23108D02*
X88517Y23108D01*
X88517Y23958D01*
X88034Y23958D01*
X88034Y23875D01*
G75*
G02X87834Y23675I-200J0D01*
G74*
G01*
X87750Y23675D01*
G75*
G02X87550Y23875I0J200D01*
G74*
G01*
X87550Y23958D01*
X87067Y23958D01*
X87067Y23108D01*
G37*
G36*
G01X82348Y39765D02*
X83798Y39765D01*
X83798Y40615D01*
X83315Y40615D01*
X83315Y40532D01*
G75*
G02X83115Y40332I-200J0D01*
G74*
G01*
X83031Y40332D01*
G75*
G02X82831Y40532I0J200D01*
G74*
G01*
X82831Y40615D01*
X82348Y40615D01*
X82348Y39765D01*
G37*
G36*
G01X36882Y-28870D02*
X37365Y-28870D01*
X37365Y-28787D01*
G75*
G02X37565Y-28587I200J0D01*
G74*
G01*
X37649Y-28587D01*
G75*
G02X37849Y-28787I0J-200D01*
G74*
G01*
X37849Y-28870D01*
X38332Y-28870D01*
X38332Y-28020D01*
X36882Y-28020D01*
X36882Y-28870D01*
G37*
G36*
G01X24543Y-26327D02*
X25026Y-26327D01*
X25026Y-26244D01*
G75*
G02X25226Y-26044I200J0D01*
G74*
G01*
X25310Y-26044D01*
G75*
G02X25510Y-26244I0J-200D01*
G74*
G01*
X25510Y-26327D01*
X25993Y-26327D01*
X25993Y-25477D01*
X24543Y-25477D01*
X24543Y-26327D01*
G37*
G36*
G01X75787Y15781D02*
X76270Y15781D01*
X76270Y15864D01*
G75*
G02X76470Y16064I200J0D01*
G74*
G01*
X76554Y16064D01*
G75*
G02X76754Y15864I0J-200D01*
G74*
G01*
X76754Y15781D01*
X77237Y15781D01*
X77237Y16631D01*
X75787Y16631D01*
X75787Y15781D01*
G37*
G36*
G01X87067Y24958D02*
X87550Y24958D01*
X87550Y25041D01*
G75*
G02X87750Y25241I200J0D01*
G74*
G01*
X87834Y25241D01*
G75*
G02X88034Y25041I0J-200D01*
G74*
G01*
X88034Y24958D01*
X88517Y24958D01*
X88517Y25808D01*
X87067Y25808D01*
X87067Y24958D01*
G37*
G36*
G01X82348Y41615D02*
X82831Y41615D01*
X82831Y41698D01*
G75*
G02X83031Y41898I200J0D01*
G74*
G01*
X83115Y41898D01*
G75*
G02X83315Y41698I0J-200D01*
G74*
G01*
X83315Y41615D01*
X83798Y41615D01*
X83798Y42465D01*
X82348Y42465D01*
X82348Y41615D01*
G37*
G36*
G01X16574Y-22853D02*
X17424Y-22853D01*
X17424Y-22370D01*
X17341Y-22370D01*
G75*
G02X17141Y-22170I0J200D01*
G74*
G01*
X17141Y-22086D01*
G75*
G02X17341Y-21886I200J0D01*
G74*
G01*
X17424Y-21886D01*
X17424Y-21403D01*
X16574Y-21403D01*
X16574Y-22853D01*
G37*
G36*
G01X74557Y38818D02*
X75407Y38818D01*
X75407Y39301D01*
X75324Y39301D01*
G75*
G02X75124Y39501I0J200D01*
G74*
G01*
X75124Y39585D01*
G75*
G02X75324Y39785I200J0D01*
G74*
G01*
X75407Y39785D01*
X75407Y40268D01*
X74557Y40268D01*
X74557Y38818D01*
G37*
G36*
G01X18424Y-22853D02*
X19274Y-22853D01*
X19274Y-21403D01*
X18424Y-21403D01*
X18424Y-21886D01*
X18507Y-21886D01*
G75*
G02X18707Y-22086I0J-200D01*
G74*
G01*
X18707Y-22170D01*
G75*
G02X18507Y-22370I-200J0D01*
G74*
G01*
X18424Y-22370D01*
X18424Y-22853D01*
G37*
G36*
G01X76407Y38818D02*
X77257Y38818D01*
X77257Y40268D01*
X76407Y40268D01*
X76407Y39785D01*
X76490Y39785D01*
G75*
G02X76690Y39585I0J-200D01*
G74*
G01*
X76690Y39501D01*
G75*
G02X76490Y39301I-200J0D01*
G74*
G01*
X76407Y39301D01*
X76407Y38818D01*
G37*
G36*
G01X45300Y27539D02*
X47400Y27539D01*
X47400Y28539D01*
X46700Y28539D01*
X46700Y28456D01*
G75*
G02X46450Y28206I-250J0D01*
G74*
G01*
X46250Y28206D01*
G75*
G02X46000Y28456I0J250D01*
G74*
G01*
X46000Y28539D01*
X45300Y28539D01*
X45300Y27539D01*
G37*
G36*
G01X45300Y29739D02*
X46000Y29739D01*
X46000Y29822D01*
G75*
G02X46250Y30072I250J0D01*
G74*
G01*
X46450Y30072D01*
G75*
G02X46700Y29822I0J-250D01*
G74*
G01*
X46700Y29739D01*
X47400Y29739D01*
X47400Y30739D01*
X45300Y30739D01*
X45300Y29739D01*
G37*
G54D652*
X18493Y-28330D03*
X19443Y-28330D03*
X20393Y-28330D03*
X18493Y-25730D03*
X19443Y-25730D03*
X20393Y-25730D03*
X82618Y21850D03*
X83568Y21850D03*
X84518Y21850D03*
X82618Y24450D03*
X83568Y24450D03*
X84518Y24450D03*
X75333Y33214D03*
X75333Y35814D03*
X76283Y35814D03*
X77233Y35814D03*
X76283Y33214D03*
X77233Y33214D03*
G54D653*
X28869Y-27528D03*
X31469Y-27528D03*
X28869Y-26578D03*
X31469Y-26578D03*
X28869Y-25628D03*
X31469Y-25628D03*
G54D650*
X69442Y15642D03*
X70712Y15642D03*
X71982Y15642D03*
X73252Y15642D03*
X69442Y21092D03*
X70712Y21092D03*
X71982Y21092D03*
X73252Y21092D03*
G54D651*
X70665Y17835D03*
X72028Y17835D03*
X70665Y18898D03*
X72028Y18898D03*
G54D649*
X52849Y-34426D03*
X53799Y-34426D03*
X54748Y-34426D03*
X52849Y-31725D03*
X54748Y-31725D03*
G54D309*
X51765Y35584D03*
X51765Y33784D03*
X49465Y35584D03*
X49465Y33784D03*
G54D643*
X41561Y-31970D03*
X40611Y-29270D03*
X21135Y-23774D03*
X23035Y-23774D03*
X22085Y-21074D03*
X86298Y2203D03*
X85348Y4904D03*
X87248Y4904D03*
G54D644*
X82639Y6434D03*
X82639Y8334D03*
G36*
G01X14993Y-34256D02*
X15743Y-34256D01*
X15743Y-33923D01*
X15613Y-33923D01*
G75*
G02X15493Y-33803I0J120D01*
G74*
G01*
X15493Y-33710D01*
G75*
G02X15613Y-33590I120J0D01*
G74*
G01*
X15743Y-33590D01*
X15743Y-33256D01*
X14993Y-33256D01*
X14993Y-34256D01*
G37*
G36*
G01X14993Y-32859D02*
X15743Y-32859D01*
X15743Y-32526D01*
X15613Y-32526D01*
G75*
G02X15493Y-32406I0J120D01*
G74*
G01*
X15493Y-32313D01*
G75*
G02X15613Y-32193I120J0D01*
G74*
G01*
X15743Y-32193D01*
X15743Y-31859D01*
X14993Y-31859D01*
X14993Y-32859D01*
G37*
G36*
G01X78160Y16980D02*
X78910Y16980D01*
X78910Y17313D01*
X78780Y17313D01*
G75*
G02X78660Y17433I0J120D01*
G74*
G01*
X78660Y17526D01*
G75*
G02X78780Y17646I120J0D01*
G74*
G01*
X78910Y17646D01*
X78910Y17980D01*
X78160Y17980D01*
X78160Y16980D01*
G37*
G36*
G01X78160Y18377D02*
X78910Y18377D01*
X78910Y18710D01*
X78780Y18710D01*
G75*
G02X78660Y18830I0J120D01*
G74*
G01*
X78660Y18923D01*
G75*
G02X78780Y19043I120J0D01*
G74*
G01*
X78910Y19043D01*
X78910Y19377D01*
X78160Y19377D01*
X78160Y18377D01*
G37*
G36*
G01X70337Y27816D02*
X71087Y27816D01*
X71087Y28149D01*
X70957Y28149D01*
G75*
G02X70837Y28269I0J120D01*
G74*
G01*
X70837Y28362D01*
G75*
G02X70957Y28482I120J0D01*
G74*
G01*
X71087Y28482D01*
X71087Y28816D01*
X70337Y28816D01*
X70337Y27816D01*
G37*
G36*
G01X70337Y29213D02*
X71087Y29213D01*
X71087Y29546D01*
X70957Y29546D01*
G75*
G02X70837Y29666I0J120D01*
G74*
G01*
X70837Y29759D01*
G75*
G02X70957Y29879I120J0D01*
G74*
G01*
X71087Y29879D01*
X71087Y30213D01*
X70337Y30213D01*
X70337Y29213D01*
G37*
G36*
G01X16443Y-34256D02*
X17193Y-34256D01*
X17193Y-33256D01*
X16443Y-33256D01*
X16443Y-33590D01*
X16573Y-33590D01*
G75*
G02X16693Y-33710I0J-120D01*
G74*
G01*
X16693Y-33803D01*
G75*
G02X16573Y-33923I-120J0D01*
G74*
G01*
X16443Y-33923D01*
X16443Y-34256D01*
G37*
G36*
G01X16443Y-32859D02*
X17193Y-32859D01*
X17193Y-31859D01*
X16443Y-31859D01*
X16443Y-32193D01*
X16573Y-32193D01*
G75*
G02X16693Y-32313I0J-120D01*
G74*
G01*
X16693Y-32406D01*
G75*
G02X16573Y-32526I-120J0D01*
G74*
G01*
X16443Y-32526D01*
X16443Y-32859D01*
G37*
G36*
G01X79610Y16980D02*
X80360Y16980D01*
X80360Y17980D01*
X79610Y17980D01*
X79610Y17646D01*
X79740Y17646D01*
G75*
G02X79860Y17526I0J-120D01*
G74*
G01*
X79860Y17433D01*
G75*
G02X79740Y17313I-120J0D01*
G74*
G01*
X79610Y17313D01*
X79610Y16980D01*
G37*
G36*
G01X79610Y18377D02*
X80360Y18377D01*
X80360Y19377D01*
X79610Y19377D01*
X79610Y19043D01*
X79740Y19043D01*
G75*
G02X79860Y18923I0J-120D01*
G74*
G01*
X79860Y18830D01*
G75*
G02X79740Y18710I-120J0D01*
G74*
G01*
X79610Y18710D01*
X79610Y18377D01*
G37*
G36*
G01X71787Y27816D02*
X72537Y27816D01*
X72537Y28816D01*
X71787Y28816D01*
X71787Y28482D01*
X71917Y28482D01*
G75*
G02X72037Y28362I0J-120D01*
G74*
G01*
X72037Y28269D01*
G75*
G02X71917Y28149I-120J0D01*
G74*
G01*
X71787Y28149D01*
X71787Y27816D01*
G37*
G36*
G01X71787Y29213D02*
X72537Y29213D01*
X72537Y30213D01*
X71787Y30213D01*
X71787Y29879D01*
X71917Y29879D01*
G75*
G02X72037Y29759I0J-120D01*
G74*
G01*
X72037Y29666D01*
G75*
G02X71917Y29546I-120J0D01*
G74*
G01*
X71787Y29546D01*
X71787Y29213D01*
G37*
G36*
G01X32847Y-30915D02*
X33847Y-30915D01*
X33847Y-30165D01*
X33514Y-30165D01*
X33514Y-30295D01*
G75*
G02X33394Y-30415I-120J0D01*
G74*
G01*
X33300Y-30415D01*
G75*
G02X33180Y-30295I0J120D01*
G74*
G01*
X33180Y-30165D01*
X32847Y-30165D01*
X32847Y-30915D01*
G37*
G36*
G01X34244Y-30915D02*
X35244Y-30915D01*
X35244Y-30165D01*
X34911Y-30165D01*
X34911Y-30295D01*
G75*
G02X34791Y-30415I-120J0D01*
G74*
G01*
X34697Y-30415D01*
G75*
G02X34577Y-30295I0J120D01*
G74*
G01*
X34577Y-30165D01*
X34244Y-30165D01*
X34244Y-30915D01*
G37*
G36*
G01X65707Y11313D02*
X66707Y11313D01*
X66707Y12063D01*
X66374Y12063D01*
X66374Y11933D01*
G75*
G02X66254Y11813I-120J0D01*
G74*
G01*
X66160Y11813D01*
G75*
G02X66040Y11933I0J120D01*
G74*
G01*
X66040Y12063D01*
X65707Y12063D01*
X65707Y11313D01*
G37*
G36*
G01X67127Y11313D02*
X68127Y11313D01*
X68127Y12063D01*
X67794Y12063D01*
X67794Y11933D01*
G75*
G02X67674Y11813I-120J0D01*
G74*
G01*
X67580Y11813D01*
G75*
G02X67460Y11933I0J120D01*
G74*
G01*
X67460Y12063D01*
X67127Y12063D01*
X67127Y11313D01*
G37*
G36*
G01X32847Y-29465D02*
X33180Y-29465D01*
X33180Y-29335D01*
G75*
G02X33300Y-29215I120J0D01*
G74*
G01*
X33394Y-29215D01*
G75*
G02X33514Y-29335I0J-120D01*
G74*
G01*
X33514Y-29465D01*
X33847Y-29465D01*
X33847Y-28715D01*
X32847Y-28715D01*
X32847Y-29465D01*
G37*
G36*
G01X34244Y-29465D02*
X34577Y-29465D01*
X34577Y-29335D01*
G75*
G02X34697Y-29215I120J0D01*
G74*
G01*
X34791Y-29215D01*
G75*
G02X34911Y-29335I0J-120D01*
G74*
G01*
X34911Y-29465D01*
X35244Y-29465D01*
X35244Y-28715D01*
X34244Y-28715D01*
X34244Y-29465D01*
G37*
G36*
G01X65707Y12763D02*
X66040Y12763D01*
X66040Y12893D01*
G75*
G02X66160Y13013I120J0D01*
G74*
G01*
X66254Y13013D01*
G75*
G02X66374Y12893I0J-120D01*
G74*
G01*
X66374Y12763D01*
X66707Y12763D01*
X66707Y13513D01*
X65707Y13513D01*
X65707Y12763D01*
G37*
G36*
G01X67127Y12763D02*
X67460Y12763D01*
X67460Y12893D01*
G75*
G02X67580Y13013I120J0D01*
G74*
G01*
X67674Y13013D01*
G75*
G02X67794Y12893I0J-120D01*
G74*
G01*
X67794Y12763D01*
X68127Y12763D01*
X68127Y13513D01*
X67127Y13513D01*
X67127Y12763D01*
G37*
G36*
G01X50834Y-34302D02*
X51684Y-34302D01*
X51684Y-33502D01*
X51401Y-33502D01*
X51401Y-33649D01*
G75*
G02X51281Y-33769I-120J0D01*
G74*
G01*
X51237Y-33769D01*
G75*
G02X51117Y-33649I0J120D01*
G74*
G01*
X51117Y-33502D01*
X50834Y-33502D01*
X50834Y-34302D01*
G37*
G36*
G01X42642Y-31971D02*
X43492Y-31971D01*
X43492Y-31171D01*
X43209Y-31171D01*
X43209Y-31318D01*
G75*
G02X43089Y-31438I-120J0D01*
G74*
G01*
X43045Y-31438D01*
G75*
G02X42925Y-31318I0J120D01*
G74*
G01*
X42925Y-31171D01*
X42642Y-31171D01*
X42642Y-31971D01*
G37*
G36*
G01X44039Y-31971D02*
X44889Y-31971D01*
X44889Y-31171D01*
X44606Y-31171D01*
X44606Y-31318D01*
G75*
G02X44486Y-31438I-120J0D01*
G74*
G01*
X44442Y-31438D01*
G75*
G02X44322Y-31318I0J120D01*
G74*
G01*
X44322Y-31171D01*
X44039Y-31171D01*
X44039Y-31971D01*
G37*
G36*
G01X25256Y-24381D02*
X26106Y-24381D01*
X26106Y-23581D01*
X25823Y-23581D01*
X25823Y-23728D01*
G75*
G02X25703Y-23848I-120J0D01*
G74*
G01*
X25659Y-23848D01*
G75*
G02X25539Y-23728I0J120D01*
G74*
G01*
X25539Y-23581D01*
X25256Y-23581D01*
X25256Y-24381D01*
G37*
G36*
G01X23859Y-24000D02*
X24709Y-24000D01*
X24709Y-23200D01*
X24426Y-23200D01*
X24426Y-23347D01*
G75*
G02X24306Y-23467I-120J0D01*
G74*
G01*
X24262Y-23467D01*
G75*
G02X24142Y-23347I0J120D01*
G74*
G01*
X24142Y-23200D01*
X23859Y-23200D01*
X23859Y-24000D01*
G37*
G36*
G01X87278Y-12568D02*
X88128Y-12568D01*
X88128Y-11768D01*
X87845Y-11768D01*
X87845Y-11915D01*
G75*
G02X87725Y-12035I-120J0D01*
G74*
G01*
X87681Y-12035D01*
G75*
G02X87561Y-11915I0J120D01*
G74*
G01*
X87561Y-11768D01*
X87278Y-11768D01*
X87278Y-12568D01*
G37*
G36*
G01X64839Y-2624D02*
X65689Y-2624D01*
X65689Y-1824D01*
X65406Y-1824D01*
X65406Y-1971D01*
G75*
G02X65286Y-2091I-120J0D01*
G74*
G01*
X65242Y-2091D01*
G75*
G02X65122Y-1971I0J120D01*
G74*
G01*
X65122Y-1824D01*
X64839Y-1824D01*
X64839Y-2624D01*
G37*
G36*
G01X81885Y3058D02*
X82735Y3058D01*
X82735Y3858D01*
X82452Y3858D01*
X82452Y3711D01*
G75*
G02X82332Y3591I-120J0D01*
G74*
G01*
X82288Y3591D01*
G75*
G02X82168Y3711I0J120D01*
G74*
G01*
X82168Y3858D01*
X81885Y3858D01*
X81885Y3058D01*
G37*
G36*
G01X83282Y3058D02*
X84132Y3058D01*
X84132Y3858D01*
X83849Y3858D01*
X83849Y3711D01*
G75*
G02X83729Y3591I-120J0D01*
G74*
G01*
X83685Y3591D01*
G75*
G02X83565Y3711I0J120D01*
G74*
G01*
X83565Y3858D01*
X83282Y3858D01*
X83282Y3058D01*
G37*
G36*
G01X45173Y33762D02*
X46023Y33762D01*
X46023Y34562D01*
X45740Y34562D01*
X45740Y34415D01*
G75*
G02X45620Y34295I-120J0D01*
G74*
G01*
X45576Y34295D01*
G75*
G02X45456Y34415I0J120D01*
G74*
G01*
X45456Y34562D01*
X45173Y34562D01*
X45173Y33762D01*
G37*
G36*
G01X27901Y42245D02*
X28751Y42245D01*
X28751Y43045D01*
X28468Y43045D01*
X28468Y42898D01*
G75*
G02X28348Y42778I-120J0D01*
G74*
G01*
X28304Y42778D01*
G75*
G02X28184Y42898I0J120D01*
G74*
G01*
X28184Y43045D01*
X27901Y43045D01*
X27901Y42245D01*
G37*
G36*
G01X50834Y-32903D02*
X51117Y-32903D01*
X51117Y-32757D01*
G75*
G02X51237Y-32637I120J0D01*
G74*
G01*
X51281Y-32637D01*
G75*
G02X51401Y-32757I0J-120D01*
G74*
G01*
X51401Y-32903D01*
X51684Y-32903D01*
X51684Y-32103D01*
X50834Y-32103D01*
X50834Y-32903D01*
G37*
G36*
G01X42642Y-30572D02*
X42925Y-30572D01*
X42925Y-30426D01*
G75*
G02X43045Y-30306I120J0D01*
G74*
G01*
X43089Y-30306D01*
G75*
G02X43209Y-30426I0J-120D01*
G74*
G01*
X43209Y-30572D01*
X43492Y-30572D01*
X43492Y-29772D01*
X42642Y-29772D01*
X42642Y-30572D01*
G37*
G36*
G01X44039Y-30572D02*
X44322Y-30572D01*
X44322Y-30426D01*
G75*
G02X44442Y-30306I120J0D01*
G74*
G01*
X44486Y-30306D01*
G75*
G02X44606Y-30426I0J-120D01*
G74*
G01*
X44606Y-30572D01*
X44889Y-30572D01*
X44889Y-29772D01*
X44039Y-29772D01*
X44039Y-30572D01*
G37*
G36*
G01X25256Y-22982D02*
X25539Y-22982D01*
X25539Y-22836D01*
G75*
G02X25659Y-22716I120J0D01*
G74*
G01*
X25703Y-22716D01*
G75*
G02X25823Y-22836I0J-120D01*
G74*
G01*
X25823Y-22982D01*
X26106Y-22982D01*
X26106Y-22182D01*
X25256Y-22182D01*
X25256Y-22982D01*
G37*
G36*
G01X23859Y-22601D02*
X24142Y-22601D01*
X24142Y-22455D01*
G75*
G02X24262Y-22335I120J0D01*
G74*
G01*
X24306Y-22335D01*
G75*
G02X24426Y-22455I0J-120D01*
G74*
G01*
X24426Y-22601D01*
X24709Y-22601D01*
X24709Y-21801D01*
X23859Y-21801D01*
X23859Y-22601D01*
G37*
G36*
G01X87278Y-11169D02*
X87561Y-11169D01*
X87561Y-11023D01*
G75*
G02X87681Y-10903I120J0D01*
G74*
G01*
X87725Y-10903D01*
G75*
G02X87845Y-11023I0J-120D01*
G74*
G01*
X87845Y-11169D01*
X88128Y-11169D01*
X88128Y-10369D01*
X87278Y-10369D01*
X87278Y-11169D01*
G37*
G36*
G01X64839Y-1224D02*
X65122Y-1224D01*
X65122Y-1078D01*
G75*
G02X65242Y-958I120J0D01*
G74*
G01*
X65286Y-958D01*
G75*
G02X65406Y-1078I0J-120D01*
G74*
G01*
X65406Y-1224D01*
X65689Y-1224D01*
X65689Y-424D01*
X64839Y-424D01*
X64839Y-1224D01*
G37*
G36*
G01X81885Y4457D02*
X82168Y4457D01*
X82168Y4603D01*
G75*
G02X82288Y4723I120J0D01*
G74*
G01*
X82332Y4723D01*
G75*
G02X82452Y4603I0J-120D01*
G74*
G01*
X82452Y4457D01*
X82735Y4457D01*
X82735Y5257D01*
X81885Y5257D01*
X81885Y4457D01*
G37*
G36*
G01X83282Y4457D02*
X83565Y4457D01*
X83565Y4603D01*
G75*
G02X83685Y4723I120J0D01*
G74*
G01*
X83729Y4723D01*
G75*
G02X83849Y4603I0J-120D01*
G74*
G01*
X83849Y4457D01*
X84132Y4457D01*
X84132Y5257D01*
X83282Y5257D01*
X83282Y4457D01*
G37*
G36*
G01X45173Y35161D02*
X45456Y35161D01*
X45456Y35307D01*
G75*
G02X45576Y35427I120J0D01*
G74*
G01*
X45620Y35427D01*
G75*
G02X45740Y35307I0J-120D01*
G74*
G01*
X45740Y35161D01*
X46023Y35161D01*
X46023Y35961D01*
X45173Y35961D01*
X45173Y35161D01*
G37*
G36*
G01X27901Y43644D02*
X28184Y43644D01*
X28184Y43790D01*
G75*
G02X28304Y43910I120J0D01*
G74*
G01*
X28348Y43910D01*
G75*
G02X28468Y43790I0J-120D01*
G74*
G01*
X28468Y43644D01*
X28751Y43644D01*
X28751Y44444D01*
X27901Y44444D01*
X27901Y43644D01*
G37*
G36*
G01X20068Y-12526D02*
X20868Y-12526D01*
X20868Y-12242D01*
X20721Y-12242D01*
G75*
G02X20601Y-12122I0J120D01*
G74*
G01*
X20601Y-12079D01*
G75*
G02X20721Y-11959I120J0D01*
G74*
G01*
X20868Y-11959D01*
X20868Y-11676D01*
X20068Y-11676D01*
X20068Y-12526D01*
G37*
G36*
G01X20055Y-11258D02*
X20855Y-11258D01*
X20855Y-10974D01*
X20708Y-10974D01*
G75*
G02X20588Y-10854I0J120D01*
G74*
G01*
X20588Y-10811D01*
G75*
G02X20708Y-10691I120J0D01*
G74*
G01*
X20855Y-10691D01*
X20855Y-10408D01*
X20055Y-10408D01*
X20055Y-11258D01*
G37*
G36*
G01X87040Y-9813D02*
X87840Y-9813D01*
X87840Y-9529D01*
X87693Y-9529D01*
G75*
G02X87573Y-9409I0J120D01*
G74*
G01*
X87573Y-9366D01*
G75*
G02X87693Y-9246I120J0D01*
G74*
G01*
X87840Y-9246D01*
X87840Y-8963D01*
X87040Y-8963D01*
X87040Y-9813D01*
G37*
G36*
G01X87091Y-7245D02*
X87891Y-7245D01*
X87891Y-6961D01*
X87744Y-6961D01*
G75*
G02X87624Y-6841I0J120D01*
G74*
G01*
X87624Y-6798D01*
G75*
G02X87744Y-6678I120J0D01*
G74*
G01*
X87891Y-6678D01*
X87891Y-6395D01*
X87091Y-6395D01*
X87091Y-7245D01*
G37*
G36*
G01X79326Y1523D02*
X80126Y1523D01*
X80126Y1807D01*
X79979Y1807D01*
G75*
G02X79859Y1927I0J120D01*
G74*
G01*
X79859Y1970D01*
G75*
G02X79979Y2090I120J0D01*
G74*
G01*
X80126Y2090D01*
X80126Y2373D01*
X79326Y2373D01*
X79326Y1523D01*
G37*
G36*
G01X28542Y24952D02*
X29342Y24952D01*
X29342Y25236D01*
X29195Y25236D01*
G75*
G02X29075Y25356I0J120D01*
G74*
G01*
X29075Y25399D01*
G75*
G02X29195Y25519I120J0D01*
G74*
G01*
X29342Y25519D01*
X29342Y25802D01*
X28542Y25802D01*
X28542Y24952D01*
G37*
G36*
G01X31258Y25010D02*
X32058Y25010D01*
X32058Y25294D01*
X31911Y25294D01*
G75*
G02X31791Y25414I0J120D01*
G74*
G01*
X31791Y25457D01*
G75*
G02X31911Y25577I120J0D01*
G74*
G01*
X32058Y25577D01*
X32058Y25860D01*
X31258Y25860D01*
X31258Y25010D01*
G37*
G36*
G01X34826Y25228D02*
X35626Y25228D01*
X35626Y25512D01*
X35479Y25512D01*
G75*
G02X35359Y25632I0J120D01*
G74*
G01*
X35359Y25675D01*
G75*
G02X35479Y25795I120J0D01*
G74*
G01*
X35626Y25795D01*
X35626Y26078D01*
X34826Y26078D01*
X34826Y25228D01*
G37*
G36*
G01X5262Y30868D02*
X6062Y30868D01*
X6062Y31152D01*
X5915Y31152D01*
G75*
G02X5795Y31272I0J120D01*
G74*
G01*
X5795Y31315D01*
G75*
G02X5915Y31435I120J0D01*
G74*
G01*
X6062Y31435D01*
X6062Y31718D01*
X5262Y31718D01*
X5262Y30868D01*
G37*
G36*
G01X21467Y-12526D02*
X22267Y-12526D01*
X22267Y-11676D01*
X21467Y-11676D01*
X21467Y-11959D01*
X21614Y-11959D01*
G75*
G02X21734Y-12079I0J-120D01*
G74*
G01*
X21734Y-12122D01*
G75*
G02X21614Y-12242I-120J0D01*
G74*
G01*
X21467Y-12242D01*
X21467Y-12526D01*
G37*
G36*
G01X21454Y-11258D02*
X22254Y-11258D01*
X22254Y-10408D01*
X21454Y-10408D01*
X21454Y-10691D01*
X21601Y-10691D01*
G75*
G02X21721Y-10811I0J-120D01*
G74*
G01*
X21721Y-10854D01*
G75*
G02X21601Y-10974I-120J0D01*
G74*
G01*
X21454Y-10974D01*
X21454Y-11258D01*
G37*
G36*
G01X88439Y-9813D02*
X89239Y-9813D01*
X89239Y-8963D01*
X88439Y-8963D01*
X88439Y-9246D01*
X88586Y-9246D01*
G75*
G02X88706Y-9366I0J-120D01*
G74*
G01*
X88706Y-9409D01*
G75*
G02X88586Y-9529I-120J0D01*
G74*
G01*
X88439Y-9529D01*
X88439Y-9813D01*
G37*
G36*
G01X88490Y-7245D02*
X89290Y-7245D01*
X89290Y-6395D01*
X88490Y-6395D01*
X88490Y-6678D01*
X88637Y-6678D01*
G75*
G02X88757Y-6798I0J-120D01*
G74*
G01*
X88757Y-6841D01*
G75*
G02X88637Y-6961I-120J0D01*
G74*
G01*
X88490Y-6961D01*
X88490Y-7245D01*
G37*
G36*
G01X80725Y1523D02*
X81525Y1523D01*
X81525Y2373D01*
X80725Y2373D01*
X80725Y2090D01*
X80872Y2090D01*
G75*
G02X80992Y1970I0J-120D01*
G74*
G01*
X80992Y1927D01*
G75*
G02X80872Y1807I-120J0D01*
G74*
G01*
X80725Y1807D01*
X80725Y1523D01*
G37*
G36*
G01X29941Y24952D02*
X30741Y24952D01*
X30741Y25802D01*
X29941Y25802D01*
X29941Y25519D01*
X30088Y25519D01*
G75*
G02X30208Y25399I0J-120D01*
G74*
G01*
X30208Y25356D01*
G75*
G02X30088Y25236I-120J0D01*
G74*
G01*
X29941Y25236D01*
X29941Y24952D01*
G37*
G36*
G01X32657Y25010D02*
X33457Y25010D01*
X33457Y25860D01*
X32657Y25860D01*
X32657Y25577D01*
X32804Y25577D01*
G75*
G02X32924Y25457I0J-120D01*
G74*
G01*
X32924Y25414D01*
G75*
G02X32804Y25294I-120J0D01*
G74*
G01*
X32657Y25294D01*
X32657Y25010D01*
G37*
G36*
G01X36225Y25228D02*
X37025Y25228D01*
X37025Y26078D01*
X36225Y26078D01*
X36225Y25795D01*
X36372Y25795D01*
G75*
G02X36492Y25675I0J-120D01*
G74*
G01*
X36492Y25632D01*
G75*
G02X36372Y25512I-120J0D01*
G74*
G01*
X36225Y25512D01*
X36225Y25228D01*
G37*
G36*
G01X6661Y30868D02*
X7461Y30868D01*
X7461Y31718D01*
X6661Y31718D01*
X6661Y31435D01*
X6808Y31435D01*
G75*
G02X6928Y31315I0J-120D01*
G74*
G01*
X6928Y31272D01*
G75*
G02X6808Y31152I-120J0D01*
G74*
G01*
X6661Y31152D01*
X6661Y30868D01*
G37*
G54D629*
X15553Y-35026D03*
X16378Y-35026D03*
X39516Y-34836D03*
X40341Y-34836D03*
X8645Y-27520D03*
X9470Y-27520D03*
X33440Y-27086D03*
X34265Y-27086D03*
X33440Y-26177D03*
X34265Y-26177D03*
X8645Y-26123D03*
X9470Y-26123D03*
X33440Y-25308D03*
X34265Y-25308D03*
X8645Y-25234D03*
X9470Y-25234D03*
X8645Y-24345D03*
X9470Y-24345D03*
X18261Y-23606D03*
X19086Y-23606D03*
X52335Y-21612D03*
X53160Y-21612D03*
X53986Y-21612D03*
X54811Y-21612D03*
X62594Y-20734D03*
X63419Y-20734D03*
X52335Y-20723D03*
X53160Y-20723D03*
X53986Y-20723D03*
X54811Y-20723D03*
X78975Y-14429D03*
X79800Y-14429D03*
X88116Y-13299D03*
X88941Y-13299D03*
X59239Y-13083D03*
X60064Y-13083D03*
X76356Y-12608D03*
X77181Y-12608D03*
X59239Y-11844D03*
X60064Y-11844D03*
X84253Y-8275D03*
X85078Y-8275D03*
X83371Y-7272D03*
X84196Y-7272D03*
X85149Y-7272D03*
X85974Y-7272D03*
X85297Y-5252D03*
X86122Y-5252D03*
X80067Y-2687D03*
X80892Y-2687D03*
X81845Y-2687D03*
X82670Y-2687D03*
X78721Y16211D03*
X79546Y16211D03*
X54379Y16267D03*
X55204Y16267D03*
X45440Y23813D03*
X46265Y23813D03*
X43281Y24067D03*
X44106Y24067D03*
X40559Y24097D03*
X38007Y24100D03*
X45440Y24829D03*
X46265Y24829D03*
X43281Y25083D03*
X44106Y25083D03*
X45440Y25845D03*
X46265Y25845D03*
X45440Y26861D03*
X46265Y26861D03*
X70897Y27046D03*
X71722Y27046D03*
X35396Y29530D03*
X36221Y29530D03*
X31931Y29600D03*
X32756Y29600D03*
X35396Y30419D03*
X36221Y30419D03*
X31931Y30489D03*
X32756Y30489D03*
X27500Y30752D03*
X28325Y30752D03*
X45536Y31466D03*
X46361Y31466D03*
X36001Y32360D03*
X36826Y32360D03*
X45528Y32471D03*
X46353Y32471D03*
X5696Y32436D03*
X6521Y32436D03*
X5696Y33325D03*
X6521Y33325D03*
X27500Y34118D03*
X5696Y34214D03*
X6521Y34214D03*
X27500Y35009D03*
X5696Y35230D03*
X6521Y35230D03*
X41147Y35776D03*
X41972Y35776D03*
X42943Y35781D03*
X43768Y35781D03*
X75510Y37918D03*
X76335Y37918D03*
X81390Y38829D03*
X82215Y38829D03*
X28314Y41598D03*
X29139Y41598D03*
X28314Y45103D03*
X29139Y45103D03*
G54D630*
X56535Y-35145D03*
X67061Y-34957D03*
X67950Y-34957D03*
X56535Y-34320D03*
X67061Y-34132D03*
X67950Y-34132D03*
X45135Y-34233D03*
X46024Y-34233D03*
X39547Y-33852D03*
X40436Y-33852D03*
X45135Y-33408D03*
X46024Y-33408D03*
X39547Y-33027D03*
X40436Y-33027D03*
X56560Y-32574D03*
X57475Y-32574D03*
X56560Y-31749D03*
X57475Y-31749D03*
X45839Y-31391D03*
X18935Y-31126D03*
X19824Y-31126D03*
X20734Y-31126D03*
X45839Y-30566D03*
X18935Y-30301D03*
X19824Y-30301D03*
X20734Y-30301D03*
X35999Y-30098D03*
X35999Y-29273D03*
X26766Y-27352D03*
X26766Y-26527D03*
X26825Y-24075D03*
X42941Y-23814D03*
X43830Y-23814D03*
X44719Y-23814D03*
X45608Y-23814D03*
X46497Y-23814D03*
X47386Y-23814D03*
X26825Y-23250D03*
X42941Y-22989D03*
X43830Y-22989D03*
X44719Y-22989D03*
X45608Y-22989D03*
X46497Y-22989D03*
X47386Y-22989D03*
X50241Y-22142D03*
X55768Y-21528D03*
X56657Y-21528D03*
X57546Y-21528D03*
X58435Y-21528D03*
X59377Y-21528D03*
X60266Y-21528D03*
X61155Y-21528D03*
X51386Y-21528D03*
X50241Y-21317D03*
X55768Y-20703D03*
X56657Y-20703D03*
X57546Y-20703D03*
X58435Y-20703D03*
X59377Y-20703D03*
X60266Y-20703D03*
X61155Y-20703D03*
X51386Y-20703D03*
X74328Y-14418D03*
X75318Y-14418D03*
X76261Y-14418D03*
X77150Y-14418D03*
X78074Y-14413D03*
X74328Y-13593D03*
X75318Y-13593D03*
X76261Y-13593D03*
X77150Y-13593D03*
X78074Y-13588D03*
X79309Y-13402D03*
X80198Y-13402D03*
X81163Y-13402D03*
X82052Y-13402D03*
X79309Y-12577D03*
X80198Y-12577D03*
X81163Y-12577D03*
X82052Y-12577D03*
X38775Y-12511D03*
X88846Y-12008D03*
X38775Y-11686D03*
X88846Y-11183D03*
X60886Y-2813D03*
X60886Y-1988D03*
X80099Y-1754D03*
X80988Y-1754D03*
X81877Y-1754D03*
X83197Y-1754D03*
X80099Y-929D03*
X80988Y-929D03*
X81877Y-929D03*
X83197Y-929D03*
X80099Y24D03*
X80988Y24D03*
X81877Y24D03*
X83197Y24D03*
X80099Y849D03*
X80988Y849D03*
X81877Y849D03*
X83197Y849D03*
X48188Y2468D03*
X48188Y3293D03*
X81168Y3618D03*
X88915Y4126D03*
X81168Y4443D03*
X48188Y4653D03*
X88915Y4951D03*
X48188Y5478D03*
X86375Y6412D03*
X87264Y6412D03*
X88153Y6412D03*
X86375Y7237D03*
X87264Y7237D03*
X88153Y7237D03*
X48188Y7259D03*
X48188Y8084D03*
X86375Y8190D03*
X87264Y8190D03*
X88153Y8190D03*
X35484Y8876D03*
X86375Y9015D03*
X87264Y9015D03*
X88153Y9015D03*
X35484Y9701D03*
X48188Y10942D03*
X48188Y11767D03*
X65064Y12000D03*
X65064Y12825D03*
X47591Y13898D03*
X47591Y14723D03*
X75072Y15048D03*
X75072Y15873D03*
X85857Y19051D03*
X83060Y19054D03*
X84013Y19061D03*
X84902Y19061D03*
X85857Y19876D03*
X83060Y19879D03*
X84013Y19886D03*
X84902Y19886D03*
X72161Y23148D03*
X73050Y23148D03*
X71231Y23151D03*
X68529Y23159D03*
X69418Y23159D03*
X70307Y23159D03*
X72161Y23973D03*
X73050Y23973D03*
X86266Y24357D03*
X71231Y23976D03*
X68529Y23984D03*
X69418Y23984D03*
X70307Y23984D03*
X41377Y24121D03*
X42322Y24121D03*
X86266Y25182D03*
X39751Y24911D03*
X41377Y24946D03*
X42322Y24946D03*
X38818Y24916D03*
X36795Y26765D03*
X36795Y27590D03*
X33632Y28717D03*
X37079Y29557D03*
X33632Y29542D03*
X34493Y29569D03*
X31016Y29672D03*
X29202Y29676D03*
X30122Y29676D03*
X33632Y30368D03*
X37079Y30382D03*
X75775Y30418D03*
X76664Y30418D03*
X77553Y30418D03*
X34493Y30394D03*
X31016Y30497D03*
X29202Y30501D03*
X30122Y30501D03*
X33632Y31193D03*
X75775Y31243D03*
X76664Y31243D03*
X77553Y31243D03*
X42378Y33938D03*
X43313Y33941D03*
X44329Y33941D03*
X37471Y33941D03*
X38487Y33941D03*
X39503Y33941D03*
X40519Y33941D03*
X42378Y34763D03*
X43313Y34766D03*
X44329Y34766D03*
X37471Y34766D03*
X38487Y34766D03*
X39503Y34766D03*
X40519Y34766D03*
X84724Y41083D03*
X85872Y41083D03*
X84724Y41908D03*
X85872Y41908D03*
X4190Y41889D03*
X5206Y41889D03*
X4190Y42714D03*
X5206Y42714D03*
G54D631*
X39749Y24097D03*
G54D632*
X38819Y24100D03*
G36*
G01X28087Y33868D02*
X28562Y33868D01*
X28562Y34368D01*
X28560Y34368D01*
X28560Y34392D01*
X28060Y34392D01*
X28060Y33917D01*
X28087Y33917D01*
X28087Y33868D01*
G37*
G36*
G01X28060Y34742D02*
X28560Y34742D01*
X28560Y34759D01*
X28562Y34759D01*
X28562Y35259D01*
X28087Y35259D01*
X28087Y35217D01*
X28060Y35217D01*
X28060Y34742D01*
G37*
G54D628*
X61706Y-9385D03*
X60506Y-7785D03*
X61706Y-7785D03*
X60506Y-6954D03*
X61706Y-6954D03*
X60506Y-5354D03*
X61706Y-5354D03*
X43502Y16128D03*
X44702Y16128D03*
X47102Y16700D03*
X48302Y16700D03*
X43502Y17728D03*
X44702Y17728D03*
X47102Y18300D03*
X48302Y18300D03*
X60506Y-9385D03*
G54D627*
X61706Y-8835D03*
X60506Y-8335D03*
X61706Y-8335D03*
X60506Y-6404D03*
X61706Y-6404D03*
X60506Y-5904D03*
X61706Y-5904D03*
X43502Y16678D03*
X44702Y16678D03*
X43502Y17178D03*
X44702Y17178D03*
X47102Y17250D03*
X48302Y17250D03*
X47102Y17750D03*
X48302Y17750D03*
X60506Y-8835D03*
G54D624*
X75689Y-34196D03*
X85038Y-34196D03*
X75689Y-32926D03*
X85038Y-32926D03*
X75689Y-31656D03*
X85038Y-31656D03*
X75689Y-30386D03*
X85038Y-30386D03*
X75689Y-29116D03*
X85038Y-29116D03*
X75689Y-27846D03*
X85038Y-27846D03*
X75689Y-26576D03*
X85038Y-26576D03*
X75689Y-25306D03*
X85038Y-25306D03*
G54D622*
X39373Y27027D03*
X39773Y27027D03*
X40973Y27027D03*
X41773Y27027D03*
X42173Y27027D03*
X42573Y27027D03*
X42973Y27027D03*
X39373Y32127D03*
X39773Y32127D03*
X40173Y32127D03*
X40573Y32127D03*
X40973Y32127D03*
X41373Y32127D03*
X41773Y32127D03*
X42173Y32127D03*
X42573Y32127D03*
X42973Y32127D03*
G54D670*
X38622Y27778D03*
X43722Y27778D03*
X43722Y28178D03*
X43722Y28578D03*
X43722Y28978D03*
X43722Y29378D03*
X43722Y29778D03*
X43722Y30178D03*
X43722Y30578D03*
X43722Y30978D03*
X43722Y31378D03*
X38622Y28178D03*
X38622Y28578D03*
X38622Y28978D03*
X38622Y29378D03*
X38622Y29778D03*
X38622Y30178D03*
X38622Y30578D03*
X38622Y30978D03*
X38622Y31378D03*
G54D622*
X41373Y27027D03*
X40173Y27027D03*
X40573Y27027D03*
G54D623*
X40473Y28878D03*
X41873Y28878D03*
X40473Y30278D03*
X41873Y30278D03*
G54D616*
X94095Y6945D03*
X94095Y7445D03*
X94095Y7945D03*
X94095Y8445D03*
X94095Y8945D03*
X94095Y9445D03*
X94095Y9945D03*
X94095Y10445D03*
X94095Y10945D03*
X94095Y11445D03*
X94095Y11945D03*
X94095Y12445D03*
X94095Y12945D03*
X94095Y13445D03*
X94095Y13945D03*
X94095Y14445D03*
X94095Y14945D03*
X94095Y15445D03*
X94095Y15945D03*
G54D617*
X95631Y4095D03*
X95631Y18795D03*
G54D618*
X101591Y4095D03*
X101591Y18795D03*
G54D611*
X60746Y-47655D03*
X76646Y-47655D03*
G54D612*
X60646Y-38355D03*
G54D613*
X75746Y-38105D03*
G54D614*
X62146Y-36555D03*
X63246Y-36555D03*
X64346Y-36555D03*
X65446Y-36555D03*
X69846Y-36555D03*
X70946Y-36555D03*
G36*
G01X68421Y-37855D02*
X69071Y-37855D01*
X69071Y-35519D01*
X68421Y-35519D01*
X68421Y-37855D01*
G37*
G36*
G01X67321Y-37855D02*
X67971Y-37855D01*
X67971Y-35519D01*
X67321Y-35519D01*
X67321Y-37855D01*
G37*
G36*
G01X66221Y-37855D02*
X66871Y-37855D01*
X66871Y-35519D01*
X66221Y-35519D01*
X66221Y-37855D01*
G37*
G54D610*
X70191Y9892D03*
X72516Y9892D03*
X70191Y13292D03*
X72516Y13292D03*
X77135Y21076D03*
X79460Y21076D03*
X77135Y24476D03*
X79460Y24476D03*
G54D608*
X24984Y-33839D03*
X26759Y-33839D03*
X29632Y-33839D03*
X31407Y-33839D03*
X24984Y-30449D03*
X26759Y-30449D03*
X29632Y-30449D03*
X31407Y-30449D03*
G54D609*
X12259Y-30783D03*
X15649Y-30783D03*
X12259Y-29008D03*
X15649Y-29008D03*
X12259Y-26135D03*
X15649Y-26135D03*
X12259Y-24360D03*
X15649Y-24360D03*
X68949Y31330D03*
X72339Y31330D03*
X68949Y33105D03*
X72339Y33105D03*
X68949Y35978D03*
X72339Y35978D03*
X68949Y37753D03*
X72339Y37753D03*
G54D607*
X14672Y1162D03*
X15171Y1162D03*
X15672Y1162D03*
X16171Y1162D03*
X16672Y1162D03*
X17171Y1162D03*
X17672Y1162D03*
X18171Y1162D03*
X18672Y1162D03*
X19171Y1162D03*
X19672Y1162D03*
X20171Y1162D03*
X20672Y1162D03*
X21171Y1162D03*
X14672Y1662D03*
X15171Y1662D03*
X15672Y1662D03*
X16171Y1662D03*
X16672Y1662D03*
X17171Y1662D03*
X17672Y1662D03*
X18171Y1662D03*
X18672Y1662D03*
X19171Y1662D03*
X19672Y1662D03*
X20171Y1662D03*
X20672Y1662D03*
X21171Y1662D03*
X14672Y2162D03*
X15171Y2162D03*
X15672Y2162D03*
X16171Y2162D03*
X16672Y2162D03*
X17171Y2162D03*
X17672Y2162D03*
X18171Y2162D03*
X18672Y2162D03*
X19171Y2162D03*
X19672Y2162D03*
X20171Y2162D03*
X20672Y2162D03*
X21171Y2162D03*
X14672Y2662D03*
X15171Y2662D03*
X15672Y2662D03*
X20171Y2662D03*
X20672Y2662D03*
X21171Y2662D03*
X14672Y3162D03*
X15171Y3162D03*
X15672Y3162D03*
X16672Y3162D03*
X17171Y3162D03*
X17672Y3162D03*
X18171Y3162D03*
X18672Y3162D03*
X19171Y3162D03*
X20171Y3162D03*
X20672Y3162D03*
X21171Y3162D03*
X14672Y3662D03*
X15171Y3662D03*
X15672Y3662D03*
X16672Y3662D03*
X19171Y3662D03*
X20171Y3662D03*
X20672Y3662D03*
X21171Y3662D03*
X14672Y4162D03*
X15171Y4162D03*
X15672Y4162D03*
X16672Y4162D03*
X19171Y4162D03*
X20171Y4162D03*
X20672Y4162D03*
X21171Y4162D03*
X14672Y4662D03*
X15171Y4662D03*
X15672Y4662D03*
X16672Y4662D03*
X19171Y4662D03*
X20171Y4662D03*
X20672Y4662D03*
X21171Y4662D03*
X14672Y5162D03*
X15171Y5162D03*
X15672Y5162D03*
X16672Y5162D03*
X19171Y5162D03*
X20171Y5162D03*
X20672Y5162D03*
X21171Y5162D03*
X14672Y5662D03*
X15171Y5662D03*
X15672Y5662D03*
X16672Y5662D03*
X17171Y5662D03*
X17672Y5662D03*
X18171Y5662D03*
X18672Y5662D03*
X19171Y5662D03*
X20171Y5662D03*
X20672Y5662D03*
X21171Y5662D03*
X14672Y6162D03*
X15171Y6162D03*
X15672Y6162D03*
X16171Y6162D03*
X20171Y6162D03*
X20672Y6162D03*
X21171Y6162D03*
X14672Y6662D03*
X15171Y6662D03*
X15672Y6662D03*
X16171Y6662D03*
X16672Y6662D03*
X17171Y6662D03*
X17672Y6662D03*
X18171Y6662D03*
X18672Y6662D03*
X19171Y6662D03*
X19672Y6662D03*
X20171Y6662D03*
X20672Y6662D03*
X21171Y6662D03*
X14672Y7162D03*
X15171Y7162D03*
X15672Y7162D03*
X16171Y7162D03*
X16672Y7162D03*
X17171Y7162D03*
X17672Y7162D03*
X18171Y7162D03*
X18672Y7162D03*
X19171Y7162D03*
X19672Y7162D03*
X20171Y7162D03*
X20672Y7162D03*
X21171Y7162D03*
X14672Y7662D03*
X15171Y7662D03*
X15672Y7662D03*
X16171Y7662D03*
X16672Y7662D03*
X17171Y7662D03*
X17672Y7662D03*
X18171Y7662D03*
X18672Y7662D03*
X19171Y7662D03*
X19672Y7662D03*
X20171Y7662D03*
X20672Y7662D03*
X21171Y7662D03*
G54D606*
X44908Y-13940D03*
X45558Y-13940D03*
X46208Y-13940D03*
X47508Y-13940D03*
X48158Y-13940D03*
X51409Y-13940D03*
X52059Y-13940D03*
X52709Y-13940D03*
X53359Y-13940D03*
X54009Y-13940D03*
X54659Y-13940D03*
X55309Y-13940D03*
X55959Y-13940D03*
X44908Y-13290D03*
X45558Y-13290D03*
X46208Y-13290D03*
X46858Y-13290D03*
X47508Y-13290D03*
X48158Y-13290D03*
X48808Y-13290D03*
X49458Y-13290D03*
X50108Y-13290D03*
X50759Y-13290D03*
X51409Y-13290D03*
X52059Y-13290D03*
X52709Y-13290D03*
X53359Y-13290D03*
X54009Y-13290D03*
X54659Y-13290D03*
X55309Y-13290D03*
X44908Y-12640D03*
X45558Y-12640D03*
X46208Y-12640D03*
X46858Y-12640D03*
X47508Y-12640D03*
X48158Y-12640D03*
X48808Y-12640D03*
X49458Y-12640D03*
X50108Y-12640D03*
X50759Y-12640D03*
X51409Y-12640D03*
X52059Y-12640D03*
X52709Y-12640D03*
X53359Y-12640D03*
X54009Y-12640D03*
X54659Y-12640D03*
X55309Y-12640D03*
X55959Y-12640D03*
X44908Y-11990D03*
X45558Y-11990D03*
X46208Y-11990D03*
X46858Y-11990D03*
X47508Y-11990D03*
X48158Y-11990D03*
X48808Y-11990D03*
X49458Y-11990D03*
X50108Y-11990D03*
X50759Y-11990D03*
X51409Y-11990D03*
X52059Y-11990D03*
X52709Y-11990D03*
X53359Y-11990D03*
X54009Y-11990D03*
X54659Y-11990D03*
X55309Y-11990D03*
X55959Y-11990D03*
X44908Y-11340D03*
X45558Y-11340D03*
X46208Y-11340D03*
X46858Y-11340D03*
X47508Y-11340D03*
X48158Y-11340D03*
X48808Y-11340D03*
X49458Y-11340D03*
X51409Y-11340D03*
X52059Y-11340D03*
X52709Y-11340D03*
X53359Y-11340D03*
X54009Y-11340D03*
X54659Y-11340D03*
X55309Y-11340D03*
X44908Y-10690D03*
X45558Y-10690D03*
X46208Y-10690D03*
X46858Y-10690D03*
X47508Y-10690D03*
X48158Y-10690D03*
X48808Y-10690D03*
X49458Y-10690D03*
X50108Y-10690D03*
X50759Y-10690D03*
X51409Y-10690D03*
X52059Y-10690D03*
X52709Y-10690D03*
X53359Y-10690D03*
X54009Y-10690D03*
X54659Y-10690D03*
X55309Y-10690D03*
X55959Y-10690D03*
X45558Y-10040D03*
X46208Y-10040D03*
X46858Y-10040D03*
X47508Y-10040D03*
X48158Y-10040D03*
X48808Y-10040D03*
X49458Y-10040D03*
X50108Y-10040D03*
X50759Y-10040D03*
X51409Y-10040D03*
X52059Y-10040D03*
X52709Y-10040D03*
X53359Y-10040D03*
X54009Y-10040D03*
X54659Y-10040D03*
X55309Y-10040D03*
X55959Y-10040D03*
X44908Y-9390D03*
X45558Y-9390D03*
X46208Y-9390D03*
X46858Y-9390D03*
X47508Y-9390D03*
X48158Y-9390D03*
X48808Y-9390D03*
X49458Y-9390D03*
X50108Y-9390D03*
X50759Y-9390D03*
X51409Y-9390D03*
X52059Y-9390D03*
X52709Y-9390D03*
X53359Y-9390D03*
X54009Y-9390D03*
X54659Y-9390D03*
X55309Y-9390D03*
X44908Y-8740D03*
X45558Y-8740D03*
X46208Y-8740D03*
X46858Y-8740D03*
X47508Y-8740D03*
X48158Y-8740D03*
X48808Y-8740D03*
X50759Y-8740D03*
X51409Y-8740D03*
X52059Y-8740D03*
X53359Y-8740D03*
X54009Y-8740D03*
X54659Y-8740D03*
X55309Y-8740D03*
X55959Y-8740D03*
X45558Y-8090D03*
X46208Y-8090D03*
X46858Y-8090D03*
X47508Y-8090D03*
X48158Y-8090D03*
X49458Y-8090D03*
X50108Y-8090D03*
X50759Y-8090D03*
X51409Y-8090D03*
X52059Y-8090D03*
X52709Y-8090D03*
X53359Y-8090D03*
X54009Y-8090D03*
X54659Y-8090D03*
X55309Y-8090D03*
X55959Y-8090D03*
X44908Y-7440D03*
X45558Y-7440D03*
X46208Y-7440D03*
X46858Y-7440D03*
X47508Y-7440D03*
X48158Y-7440D03*
X48808Y-7440D03*
X49458Y-7440D03*
X50108Y-7440D03*
X50759Y-7440D03*
X51409Y-7440D03*
X52059Y-7440D03*
X52709Y-7440D03*
X53359Y-7440D03*
X54009Y-7440D03*
X54659Y-7440D03*
X55309Y-7440D03*
X55959Y-7440D03*
X44908Y-6790D03*
X45558Y-6790D03*
X46208Y-6790D03*
X46858Y-6790D03*
X47508Y-6790D03*
X48158Y-6790D03*
X48808Y-6790D03*
X49458Y-6790D03*
X50108Y-6790D03*
X50759Y-6790D03*
X51409Y-6790D03*
X52059Y-6790D03*
X52709Y-6790D03*
X53359Y-6790D03*
X54009Y-6790D03*
X54659Y-6790D03*
X55309Y-6790D03*
X45558Y-6140D03*
X46208Y-6140D03*
X46858Y-6140D03*
X47508Y-6140D03*
X48158Y-6140D03*
X49458Y-6140D03*
X50108Y-6140D03*
X50759Y-6140D03*
X51409Y-6140D03*
X52059Y-6140D03*
X52709Y-6140D03*
X53359Y-6140D03*
X54009Y-6140D03*
X54659Y-6140D03*
X55309Y-6140D03*
X55959Y-6140D03*
X44908Y-5490D03*
X45558Y-5490D03*
X46208Y-5490D03*
X46858Y-5490D03*
X47508Y-5490D03*
X48158Y-5490D03*
X48808Y-5490D03*
X49458Y-5490D03*
X50108Y-5490D03*
X50759Y-5490D03*
X51409Y-5490D03*
X52059Y-5490D03*
X52709Y-5490D03*
X53359Y-5490D03*
X54659Y-5490D03*
X55309Y-5490D03*
X55959Y-5490D03*
X44908Y-4840D03*
X45558Y-4840D03*
X46208Y-4840D03*
X46858Y-4840D03*
X47508Y-4840D03*
X48158Y-4840D03*
X48808Y-4840D03*
X49458Y-4840D03*
X50108Y-4840D03*
X50759Y-4840D03*
X51409Y-4840D03*
X52059Y-4840D03*
X52709Y-4840D03*
X53359Y-4840D03*
X54009Y-4840D03*
X54659Y-4840D03*
X55309Y-4840D03*
X45558Y-4190D03*
X46208Y-4190D03*
X46858Y-4190D03*
X47508Y-4190D03*
X48158Y-4190D03*
X48808Y-4190D03*
X49458Y-4190D03*
X50108Y-4190D03*
X50759Y-4190D03*
X51409Y-4190D03*
X52059Y-4190D03*
X52709Y-4190D03*
X53359Y-4190D03*
X54009Y-4190D03*
X54659Y-4190D03*
X55309Y-4190D03*
X55959Y-4190D03*
X44908Y-3540D03*
X45558Y-3540D03*
X46208Y-3540D03*
X46858Y-3540D03*
X47508Y-3540D03*
X48158Y-3540D03*
X48808Y-3540D03*
X49458Y-3540D03*
X50108Y-3540D03*
X50759Y-3540D03*
X51409Y-3540D03*
X52059Y-3540D03*
X52709Y-3540D03*
X53359Y-3540D03*
X54009Y-3540D03*
X54659Y-3540D03*
X55309Y-3540D03*
X55959Y-3540D03*
X44908Y-2890D03*
X45558Y-2890D03*
X46208Y-2890D03*
X46858Y-2890D03*
X47508Y-2890D03*
X48158Y-2890D03*
X48808Y-2890D03*
X49458Y-2890D03*
X50108Y-2890D03*
X50759Y-2890D03*
X51409Y-2890D03*
X52059Y-2890D03*
X53359Y-2890D03*
X54009Y-2890D03*
X54659Y-2890D03*
X55309Y-2890D03*
X55959Y-2890D03*
X49458Y-13940D03*
X50108Y-13940D03*
G54D605*
X38834Y2464D03*
X39633Y2464D03*
X40434Y2464D03*
X43633Y2464D03*
X44433Y2464D03*
X45233Y2464D03*
X50634Y2464D03*
X51433Y2464D03*
X52234Y2464D03*
X55433Y2464D03*
X56234Y2464D03*
X57033Y2464D03*
X38834Y3264D03*
X39633Y3264D03*
X40434Y3264D03*
X43633Y3264D03*
X44433Y3264D03*
X45233Y3264D03*
X50634Y3264D03*
X51433Y3264D03*
X52234Y3264D03*
X55433Y3264D03*
X56234Y3264D03*
X57033Y3264D03*
X38834Y4064D03*
X39633Y4064D03*
X40434Y4064D03*
X43633Y4064D03*
X44433Y4064D03*
X45233Y4064D03*
X50634Y4064D03*
X51433Y4064D03*
X52234Y4064D03*
X55433Y4064D03*
X56234Y4064D03*
X57033Y4064D03*
X38834Y4864D03*
X39633Y4864D03*
X40434Y4864D03*
X43633Y4864D03*
X44433Y4864D03*
X45233Y4864D03*
X50634Y4864D03*
X51433Y4864D03*
X52234Y4864D03*
X55433Y4864D03*
X56234Y4864D03*
X57033Y4864D03*
X38834Y5664D03*
X39633Y5664D03*
X40434Y5664D03*
X43633Y5664D03*
X44433Y5664D03*
X45233Y5664D03*
X50634Y5664D03*
X51433Y5664D03*
X52234Y5664D03*
X55433Y5664D03*
X56234Y5664D03*
X57033Y5664D03*
X38834Y6464D03*
X39633Y6464D03*
X40434Y6464D03*
X43633Y6464D03*
X44433Y6464D03*
X45233Y6464D03*
X50634Y6464D03*
X51433Y6464D03*
X52234Y6464D03*
X55433Y6464D03*
X56234Y6464D03*
X57033Y6464D03*
X38834Y7264D03*
X39633Y7264D03*
X40434Y7264D03*
X43633Y7264D03*
X44433Y7264D03*
X45233Y7264D03*
X50634Y7264D03*
X51433Y7264D03*
X52234Y7264D03*
X55433Y7264D03*
X56234Y7264D03*
X57033Y7264D03*
X38834Y8064D03*
X39633Y8064D03*
X40434Y8064D03*
X43633Y8064D03*
X44433Y8064D03*
X45233Y8064D03*
X50634Y8064D03*
X51433Y8064D03*
X52234Y8064D03*
X55433Y8064D03*
X56234Y8064D03*
X57033Y8064D03*
X38834Y8864D03*
X39633Y8864D03*
X40434Y8864D03*
X43633Y8864D03*
X44433Y8864D03*
X45233Y8864D03*
X50634Y8864D03*
X51433Y8864D03*
X52234Y8864D03*
X55433Y8864D03*
X56234Y8864D03*
X57033Y8864D03*
X38834Y9664D03*
X39633Y9664D03*
X40434Y9664D03*
X43633Y9664D03*
X44433Y9664D03*
X45233Y9664D03*
X50634Y9664D03*
X51433Y9664D03*
X52234Y9664D03*
X55433Y9664D03*
X56234Y9664D03*
X57033Y9664D03*
X38834Y10464D03*
X39633Y10464D03*
X40434Y10464D03*
X43633Y10464D03*
X44433Y10464D03*
X45233Y10464D03*
X50634Y10464D03*
X51433Y10464D03*
X52234Y10464D03*
X55433Y10464D03*
X56234Y10464D03*
X57033Y10464D03*
X38834Y11264D03*
X39633Y11264D03*
X40434Y11264D03*
X43633Y11264D03*
X44433Y11264D03*
X45233Y11264D03*
X50634Y11264D03*
X51433Y11264D03*
X52234Y11264D03*
X55433Y11264D03*
X56234Y11264D03*
X57033Y11264D03*
X38834Y12064D03*
X39633Y12064D03*
X40434Y12064D03*
X43633Y12064D03*
X44433Y12064D03*
X45233Y12064D03*
X50634Y12064D03*
X51433Y12064D03*
X52234Y12064D03*
X55433Y12064D03*
X56234Y12064D03*
X57033Y12064D03*
X38834Y12864D03*
X39633Y12864D03*
X40434Y12864D03*
X43633Y12864D03*
X44433Y12864D03*
X45233Y12864D03*
X50634Y12864D03*
X51433Y12864D03*
X52234Y12864D03*
X55433Y12864D03*
X56234Y12864D03*
X57033Y12864D03*
X38834Y13664D03*
X39633Y13664D03*
X40434Y13664D03*
X43633Y13664D03*
X44433Y13664D03*
X45233Y13664D03*
X50634Y13664D03*
X51433Y13664D03*
X52234Y13664D03*
X55433Y13664D03*
X56234Y13664D03*
X57033Y13664D03*
X38834Y14464D03*
X39633Y14464D03*
X40434Y14464D03*
X43633Y14464D03*
X44433Y14464D03*
X45233Y14464D03*
X50634Y14464D03*
X51433Y14464D03*
X52234Y14464D03*
X55433Y14464D03*
X56234Y14464D03*
X57033Y14464D03*
G54D603*
X77671Y-10454D03*
X78321Y-10454D03*
X78971Y-10454D03*
X79621Y-10454D03*
X80271Y-10454D03*
X80921Y-10454D03*
X81571Y-10454D03*
X77671Y-4354D03*
X78321Y-4354D03*
X78971Y-4354D03*
X79621Y-4354D03*
X80271Y-4354D03*
X80921Y-4354D03*
X81571Y-4354D03*
G54D604*
X12298Y-5284D03*
X12799Y-5284D03*
X13298Y-5284D03*
X13799Y-5284D03*
X14298Y-5284D03*
X14799Y-5284D03*
X15298Y-5284D03*
X15799Y-5284D03*
X16298Y-5284D03*
X16799Y-5284D03*
X17298Y-5284D03*
X17799Y-5284D03*
X18298Y-5284D03*
X18799Y-5284D03*
X19298Y-5284D03*
X19799Y-5284D03*
X20298Y-5284D03*
X20799Y-5284D03*
X21298Y-5284D03*
X21799Y-5284D03*
X22298Y-5284D03*
X22799Y-5284D03*
X23298Y-5284D03*
X23799Y-5284D03*
X12298Y14616D03*
X12799Y14616D03*
X13298Y14616D03*
X13799Y14616D03*
X14298Y14616D03*
X14799Y14616D03*
X15298Y14616D03*
X15799Y14616D03*
X16298Y14616D03*
X16799Y14616D03*
X17298Y14616D03*
X17799Y14616D03*
X18298Y14616D03*
X18799Y14616D03*
X19298Y14616D03*
X19799Y14616D03*
X20298Y14616D03*
X20799Y14616D03*
X21298Y14616D03*
X21799Y14616D03*
X22298Y14616D03*
X22799Y14616D03*
X23298Y14616D03*
X23799Y14616D03*
G36*
G01X84704Y6960D02*
X85820Y6960D01*
X85820Y7808D01*
X84704Y7808D01*
X84704Y6960D01*
G37*
G36*
G01X39237Y-32485D02*
X40085Y-32485D01*
X40085Y-31334D01*
X39237Y-31334D01*
X39237Y-32485D01*
G37*
G36*
G01X43563Y-33294D02*
X44585Y-33294D01*
X44585Y-32446D01*
X43563Y-32446D01*
X43563Y-33294D01*
G37*
G36*
G01X43563Y-35194D02*
X44585Y-35194D01*
X44585Y-34346D01*
X43563Y-34346D01*
X43563Y-35194D01*
G37*
G36*
G01X40987Y-34244D02*
X42135Y-34244D01*
X42135Y-33396D01*
X40987Y-33396D01*
X40987Y-34244D01*
G37*
G54D671*
X-13421Y39416D03*
X-86456Y-47678D03*
X13421Y-39416D03*
X86456Y47678D03*
M02*
