G04 Generated by CircuitCAM Version 4.4*
%FSLAX33Y33*%
%MOMM*%
%ADD10C,0.000000*%
%ADD11C,0.100000*%
%AMROUNDED387*21,1,0.380000,0.280000,0,0,0.0*
21,1,0.280000,0.380000,0,0,0.0*
1,1,0.100000,0.140000,0.140000*
1,1,0.100000,0.140000,-0.140000*
1,1,0.100000,-0.140000,-0.140000*
1,1,0.100000,-0.140000,0.140000*%
%ADD387ROUNDED387*%
%AMROUNDED388*21,1,0.480000,0.380000,0,0,0.0*
21,1,0.380000,0.480000,0,0,0.0*
1,1,0.100000,0.190000,0.190000*
1,1,0.100000,0.190000,-0.190000*
1,1,0.100000,-0.190000,-0.190000*
1,1,0.100000,-0.190000,0.190000*%
%ADD388ROUNDED388*%
%ADD276R,0.914400X1.168400*%
%ADD83R,0.450088X0.549910*%
%ADD295R,1.320800X1.117600*%
%ADD389R,1.117600X1.320800*%
%ADD429O,1.300000X0.500000*%
%ADD430O,1.500000X0.500000*%
%ADD431O,1.370000X0.500000*%
%ADD433O,0.500000X1.500000*%
%ADD438R,0.240000X0.700000*%
%ADD439R,1.168400X0.914400*%
%ADD441O,1.300000X0.240000*%
%ADD449O,1.500000X0.240000*%
%ADD451O,0.320000X1.780000*%
%ADD458O,0.190000X0.700000*%
%ADD459O,0.700000X0.190000*%
%ADD457O,0.190000X0.850000*%
%ADD460O,0.850000X0.190000*%
%ADD465O,0.800000X3.000000*%
%ADD474O,0.240000X0.600000*%
%ADD472O,0.240000X0.680000*%
%ADD394O,3.000000X1.400000*%
%ADD412R,1.000000X1.252000*%
%ADD22O,0.635000X1.143000*%
%AMROUNDED425*21,1,0.290000,0.190000,0,0,0.0*
21,1,0.190000,0.290000,0,0,0.0*
1,1,0.100000,0.095000,0.095000*
1,1,0.100000,0.095000,-0.095000*
1,1,0.100000,-0.095000,-0.095000*
1,1,0.100000,-0.095000,0.095000*%
%ADD425ROUNDED425*%
%ADD72C,1.016000*%
%ADD355C,1.000000*%
%LNSolderPasteTop*%
%LPD*%
G36*
G01X-14839Y40919D02*
G75*
G03X-14364Y41394I0J475D01*
G74*
G01*
G75*
G03X-14831Y41869I-475J0D01*
G74*
G01*
X-14831Y41786D01*
G75*
G02X-15064Y41553I-233J0D01*
G74*
G01*
G75*
G02X-15297Y41786I0J233D01*
G74*
G01*
X-15297Y41869D01*
G75*
G03X-15764Y41394I8J-475D01*
G74*
G01*
G75*
G03X-15289Y40919I475J0D01*
G74*
G01*
X-14839Y40919D01*
G37*

G36*
G01X78969Y42919D02*
G75*
G03X79436Y43394I-8J475D01*
G74*
G01*
G75*
G03X78961Y43869I-475J0D01*
G74*
G01*
X78511Y43869D01*
G75*
G03X78036Y43394I0J-475D01*
G74*
G01*
G75*
G03X78503Y42919I475J0D01*
G74*
G01*
X78503Y43002D01*
G75*
G02X78736Y43235I233J0D01*
G74*
G01*
G75*
G02X78969Y43002I0J-233D01*
G74*
G01*
X78969Y42919D01*
G37*

G36*
G01X78961Y40919D02*
G75*
G03X79436Y41394I0J475D01*
G74*
G01*
G75*
G03X78969Y41869I-475J0D01*
G74*
G01*
X78969Y41786D01*
G75*
G02X78736Y41553I-233J0D01*
G74*
G01*
G75*
G02X78503Y41786I0J233D01*
G74*
G01*
X78503Y41869D01*
G75*
G03X78036Y41394I8J-475D01*
G74*
G01*
G75*
G03X78511Y40919I475J0D01*
G74*
G01*
X78961Y40919D01*
G37*

G36*
G01X78839Y58870D02*
G75*
G03X78364Y59337I-475J-8D01*
G74*
G01*
G75*
G03X77889Y58862I0J-475D01*
G74*
G01*
X77889Y58412D01*
G75*
G03X78364Y57937I475J0D01*
G74*
G01*
G75*
G03X78839Y58404I0J475D01*
G74*
G01*
X78756Y58404D01*
G75*
G02X78523Y58637I0J233D01*
G74*
G01*
G75*
G02X78756Y58870I233J0D01*
G74*
G01*
X78839Y58870D01*
G37*

G36*
G01X80839Y58862D02*
G75*
G03X80364Y59337I-475J0D01*
G74*
G01*
G75*
G03X79889Y58870I0J-475D01*
G74*
G01*
X79972Y58870D01*
G75*
G02X80205Y58637I0J-233D01*
G74*
G01*
G75*
G02X79972Y58404I-233J0D01*
G74*
G01*
X79889Y58404D01*
G75*
G03X80364Y57937I475J8D01*
G74*
G01*
G75*
G03X80839Y58412I0J475D01*
G74*
G01*
X80839Y58862D01*
G37*

G36*
G01X-14961Y58870D02*
G75*
G03X-15436Y59337I-475J-8D01*
G74*
G01*
G75*
G03X-15911Y58862I0J-475D01*
G74*
G01*
X-15911Y58412D01*
G75*
G03X-15436Y57937I475J0D01*
G74*
G01*
G75*
G03X-14961Y58404I0J475D01*
G74*
G01*
X-15044Y58404D01*
G75*
G02X-15277Y58637I0J233D01*
G74*
G01*
G75*
G02X-15044Y58870I233J0D01*
G74*
G01*
X-14961Y58870D01*
G37*

G36*
G01X-12961Y58862D02*
G75*
G03X-13436Y59337I-475J0D01*
G74*
G01*
G75*
G03X-13911Y58870I0J-475D01*
G74*
G01*
X-13828Y58870D01*
G75*
G02X-13595Y58637I0J-233D01*
G74*
G01*
G75*
G02X-13828Y58404I-233J0D01*
G74*
G01*
X-13911Y58404D01*
G75*
G03X-13436Y57937I475J8D01*
G74*
G01*
G75*
G03X-12961Y58412I0J475D01*
G74*
G01*
X-12961Y58862D01*
G37*
M02*
G36*
G01X-78838Y-58870D02*
G75*
G03X-78363Y-59337I475J8D01*
G74*
G01*
G75*
G03X-77888Y-58862I0J475D01*
G74*
G01*
X-77888Y-58412D01*
G75*
G03X-78363Y-57937I-475J0D01*
G74*
G01*
G75*
G03X-78838Y-58404I0J-475D01*
G74*
G01*
X-78755Y-58404D01*
G75*
G02X-78522Y-58637I0J-233D01*
G74*
G01*
G75*
G02X-78755Y-58870I-233J0D01*
G74*
G01*
X-78838Y-58870D01*
G37*
G36*
G01X-80838Y-58862D02*
G75*
G03X-80363Y-59337I475J0D01*
G74*
G01*
G75*
G03X-79888Y-58870I0J475D01*
G74*
G01*
X-79971Y-58870D01*
G75*
G02X-80204Y-58637I0J233D01*
G74*
G01*
G75*
G02X-79971Y-58404I233J0D01*
G74*
G01*
X-79888Y-58404D01*
G75*
G03X-80363Y-57937I-475J-8D01*
G74*
G01*
G75*
G03X-80838Y-58412I0J-475D01*
G74*
G01*
X-80838Y-58862D01*
G37*
G54D83*
X9058Y-79970D03*
X9908Y-79970D03*
X-84742Y-79970D03*
X-83892Y-79970D03*
X-9057Y79970D03*
X-9907Y79970D03*
X84743Y79970D03*
X83893Y79970D03*
M02*