G04 CAM350 V10.5 (Build 464) Date:  Mon Aug 14 14:28:41 2017 *
G04 Database: (Untitled) *
G04 Layer 1: 20C04.GBR *
%FSLAX33Y33*%
%MOMM*%
%SFA1.000B1.000*%

%MIA0B0*%
%IPPOS*%
%ADD10C,0.00000*%
%ADD11C,0.10000*%
%LN20C04.GBR*%
%LPD*%
G36*
X-278024Y-197325D02*
G01X-277974Y-197241D01*
X-277838Y-197330*
X-277718Y-197414*
X-277612Y-197494*
X-277522Y-197571*
X-277446Y-197643*
X-277386Y-197711*
X-277340Y-197775*
X-277312Y-197833*
X-277295Y-197894*
X-277289Y-197958*
X-277294Y-198025*
X-277310Y-198094*
X-277336Y-198167*
X-277374Y-198241*
X-277416Y-198300*
X-277456Y-198334*
X-277496Y-198342*
X-277534Y-198326*
X-277571Y-198284*
X-277606Y-198217*
X-277640Y-198125*
X-277673Y-198015*
X-277712Y-197903*
X-277760Y-197790*
X-277814Y-197676*
X-277877Y-197560*
X-277946Y-197443*
X-278024Y-197325*
G37*
G36*
X-263824Y-197091D02*
G01X-263740Y-197041D01*
X-263590Y-197147*
X-263454Y-197245*
X-263333Y-197336*
X-263226Y-197420*
X-263133Y-197495*
X-263054Y-197564*
X-262990Y-197625*
X-262946Y-197683*
X-262917Y-197743*
X-262903Y-197805*
X-262906Y-197870*
X-262924Y-197936*
X-262958Y-198004*
X-263007Y-198075*
X-263066Y-198139*
X-263118Y-198179*
X-263165Y-198196*
X-263205Y-198189*
X-263240Y-198158*
X-263268Y-198103*
X-263290Y-198025*
X-263321Y-197928*
X-263368Y-197819*
X-263429Y-197698*
X-263505Y-197565*
X-263596Y-197419*
X-263702Y-197261*
X-263824Y-197091*
G37*
G36*
X-256873Y-197175D02*
G01X-256823Y-197091D01*
X-256699Y-197136*
X-256581Y-197183*
X-256471Y-197232*
X-256369Y-197285*
X-256274Y-197340*
X-256187Y-197398*
X-256107Y-197458*
X-256041Y-197516*
X-255986Y-197575*
X-255942Y-197636*
X-255908Y-197698*
X-255886Y-197761*
X-255874Y-197825*
Y-197891*
X-255885Y-197951*
X-255902Y-198004*
X-255924Y-198053*
X-255950Y-198095*
X-255981Y-198133*
X-256016Y-198165*
X-256057Y-198191*
X-256102Y-198203*
X-256144Y-198201*
X-256181Y-198184*
X-256215Y-198153*
X-256244Y-198108*
X-256269Y-198049*
X-256290Y-197975*
X-256322Y-197889*
X-256372Y-197794*
X-256438Y-197689*
X-256521Y-197575*
X-256622Y-197451*
X-256739Y-197318*
X-256873Y-197175*
G37*
G36*
X-276274Y-198341D02*
G01X-276144Y-198093D01*
X-276030Y-197872*
X-275933Y-197678*
X-275852Y-197511*
X-275787Y-197372*
X-275739Y-197260*
X-275707Y-197175*
X-275257Y-197475*
X-275322Y-197492*
X-275386Y-197517*
X-275448Y-197548*
X-275507Y-197586*
X-275565Y-197631*
X-275620Y-197683*
X-275674Y-197741*
X-275725Y-197803*
X-275785Y-197873*
X-275853Y-197953*
X-275929Y-198041*
X-276014Y-198138*
X-276106Y-198243*
X-276207Y-198358*
X-276274Y-198341*
G37*
G36*
X-269257Y-201025D02*
G01X-267140D01*
X-266824Y-200708*
X-266390Y-201158*
X-268524*
X-268603Y-201159*
X-268681Y-201163*
X-268757Y-201170*
X-268831Y-201180*
X-268903Y-201192*
X-268972Y-201207*
X-269040Y-201225*
X-269257Y-201025*
G37*
G36*
X-257573Y-199258D02*
G01X-256324D01*
X-256107Y-199025*
X-255690Y-199358*
X-255957Y-199591*
Y-201825*
X-255090Y-200991*
X-255023Y-201075*
X-255105Y-201185*
X-255188Y-201298*
X-255272Y-201412*
X-255358Y-201529*
X-255445Y-201648*
X-255534Y-201769*
X-255623Y-201891*
X-255706Y-202012*
X-255781Y-202127*
X-255850Y-202235*
X-255912Y-202338*
X-255967Y-202434*
X-256015Y-202524*
X-256057Y-202608*
X-256423Y-202175*
X-256397Y-202125*
X-256374Y-202070*
X-256356Y-202010*
X-256342Y-201946*
X-256332Y-201877*
X-256326Y-201803*
X-256324Y-201725*
Y-199375*
X-256840*
X-256920Y-199377*
X-256998Y-199384*
X-257074Y-199396*
X-257148Y-199413*
X-257219Y-199434*
X-257289Y-199460*
X-257357Y-199491*
X-257573Y-199258*
G37*
G36*
X-261757Y-200708D02*
G01X-261752Y-200568D01*
X-261749Y-200394*
X-261746Y-200187*
X-261743Y-199946*
X-261742Y-199672*
X-261741Y-199365*
X-261740Y-199025*
X-261741Y-198687*
X-261742Y-198378*
X-261743Y-198099*
X-261746Y-197849*
X-261749Y-197628*
X-261752Y-197437*
X-261757Y-197275*
X-261340Y-197508*
X-259623*
X-259357Y-197225*
X-258940Y-197591*
X-259174Y-197741*
X-259173Y-198342*
X-259172Y-198869*
X-259170Y-199322*
X-259168Y-199701*
X-259165Y-200005*
X-259161Y-200235*
X-259157Y-200391*
X-259524Y-200625*
Y-197641*
X-261390*
Y-200475*
X-261757Y-200708*
G37*
G36*
X-67637Y90245D02*
G01Y92754D01*
Y92755*
G75*
G02X-67603Y93048I1276J0*
G01X-64509*
G02X-64475Y92755I-1242J-293*
G01Y90245*
G02X-65134Y89129I-1276J1*
G01X-66977*
G02X-67637Y90245I616J1117*
G37*
G36*
X-264574Y-200925D02*
G01X-264370Y-200738D01*
X-264180Y-200549*
X-264003Y-200358*
X-263839Y-200166*
X-263687Y-199971*
X-263549Y-199774*
X-263424Y-199575*
X-263310Y-199385*
X-263207Y-199206*
X-263115Y-199038*
X-263034Y-198881*
X-262964Y-198735*
X-262905Y-198599*
X-262857Y-198475*
X-263740*
X-263820Y-198476*
X-263898Y-198480*
X-263974Y-198487*
X-264048Y-198497*
X-264119Y-198509*
X-264189Y-198524*
X-264257Y-198541*
X-264474Y-198341*
X-262823*
X-262624Y-198075*
X-262157Y-198491*
X-262227Y-198510*
X-262293Y-198538*
X-262356Y-198574*
X-262415Y-198619*
X-262471Y-198673*
X-262524Y-198736*
X-262574Y-198808*
X-262619Y-198888*
X-262670Y-198977*
X-262727Y-199073*
X-262789Y-199178*
X-262856Y-199291*
X-262929Y-199412*
X-263007Y-199541*
Y-199775*
X-262839Y-199863*
X-262686Y-199946*
X-262549Y-200025*
X-262427Y-200099*
X-262322Y-200168*
X-262231Y-200232*
X-262157Y-200291*
X-262103Y-200355*
X-262064Y-200422*
X-262042Y-200492*
X-262034Y-200566*
X-262043Y-200643*
X-262067Y-200724*
X-262107Y-200808*
X-262153Y-200881*
X-262198Y-200929*
X-262240Y-200952*
X-262281Y-200950*
X-262319Y-200922*
X-262356Y-200869*
X-262390Y-200791*
X-262431Y-200697*
X-262488Y-200594*
X-262561Y-200483*
X-262649Y-200364*
X-262752Y-200237*
X-262872Y-200102*
X-263007Y-199958*
Y-200632*
X-263005Y-201217*
X-263004Y-201711*
X-263001Y-202116*
X-262998Y-202431*
X-262995Y-202656*
X-262990Y-202791*
X-263374Y-203025*
X-263365Y-202840*
X-263357Y-202570*
X-263351Y-202217*
X-263346Y-201778*
X-263343Y-201256*
X-263341Y-200649*
X-263340Y-199958*
X-263474Y-200106*
X-263618Y-200253*
X-263772Y-200401*
X-263936Y-200549*
X-264111Y-200696*
X-264295Y-200844*
X-264490Y-200991*
X-264574Y-200925*
G37*
G36*
X-255590Y-199725D02*
G01X-254390D01*
X-254391Y-199362*
X-254393Y-199038*
X-254396Y-198750*
X-254401Y-198500*
X-254407Y-198288*
X-254415Y-198112*
X-254423Y-197975*
X-253823Y-198241*
X-254057Y-198441*
Y-199725*
X-253607*
X-253307Y-199375*
X-252823Y-199858*
X-254057*
X-254056Y-200408*
X-254054Y-200906*
X-254051Y-201351*
X-254046Y-201744*
X-254040Y-202084*
X-254032Y-202372*
X-254023Y-202608*
X-254423Y-202791*
X-254415Y-202450*
X-254407Y-202083*
X-254401Y-201689*
X-254396Y-201270*
X-254393Y-200825*
X-254391Y-200355*
X-254390Y-199858*
X-254740*
X-254834Y-199859*
X-254927Y-199864*
X-255017Y-199870*
X-255105Y-199880*
X-255191Y-199892*
X-255275Y-199907*
X-255357Y-199925*
X-255590Y-199725*
G37*
G36*
X-271590Y-200558D02*
G01X-271475Y-200374D01*
X-271366Y-200185*
X-271264Y-199991*
X-271168Y-199791*
X-271080Y-199585*
X-270998Y-199374*
X-270924Y-199158*
X-270850Y-198938*
X-270781Y-198717*
X-270716Y-198495*
X-270657Y-198271*
X-270602Y-198046*
X-270552Y-197819*
X-270507Y-197591*
X-270740*
X-270820Y-197593*
X-270898Y-197597*
X-270974Y-197604*
X-271048Y-197613*
X-271119Y-197625*
X-271189Y-197640*
X-271257Y-197658*
X-271473Y-197458*
X-269690*
X-269357Y-197108*
X-268890Y-197591*
X-270107*
X-270182Y-197843*
X-270256Y-198085*
X-270329Y-198317*
X-270401Y-198538*
X-270471Y-198750*
X-270539Y-198951*
X-270607Y-199141*
X-270507Y-199191*
X-269824*
X-269640Y-198991*
X-269273Y-199275*
X-269457Y-199408*
Y-199983*
X-269455Y-200487*
X-269454Y-200921*
X-269451Y-201286*
X-269448Y-201580*
X-269445Y-201804*
X-269440Y-201958*
X-269774Y-202091*
Y-201625*
X-270574*
Y-202408*
X-270924Y-202558*
X-270915Y-202272*
X-270907Y-201947*
X-270901Y-201584*
X-270896Y-201181*
X-270893Y-200740*
X-270891Y-200260*
X-270890Y-199741*
X-270969Y-199874*
X-271052Y-200004*
X-271140Y-200132*
X-271233Y-200258*
X-271331Y-200383*
X-271433Y-200505*
X-271540Y-200625*
X-271590Y-200558*
G37*
G36*
X-67637Y83688D02*
G01Y87423D01*
G02X-66996Y88529I1275J0*
G01X-65116*
G02X-64475Y87423I-635J-1107*
G01Y87422*
Y83688*
G02X-65751Y82412I-1276J0*
G01X-66361*
G02X-67637Y83688I0J1276*
G37*
G36*
X-268840Y-200008D02*
G01X-268607Y-199858D01*
X-268340Y-197875*
X-267823Y-198125*
X-268057Y-198291*
X-268290Y-199958*
X-266890*
X-266590Y-197508*
X-268140*
X-268220Y-197510*
X-268298Y-197515*
X-268374Y-197523*
X-268448Y-197535*
X-268519Y-197551*
X-268589Y-197569*
X-268657Y-197591*
X-268857Y-197375*
X-266657*
X-266390Y-197108*
X-265990Y-197475*
X-266257Y-197641*
X-266540Y-199958*
X-266073*
X-265840Y-199691*
X-265507Y-200058*
X-265690Y-200191*
X-265745Y-200687*
X-265796Y-201118*
X-265843Y-201483*
X-265886Y-201783*
X-265925Y-202018*
X-265960Y-202187*
X-265990Y-202291*
X-266015Y-202365*
X-266043Y-202433*
X-266074Y-202495*
X-266107Y-202553*
X-266143Y-202604*
X-266182Y-202651*
X-266224Y-202691*
X-266266Y-202729*
X-266319Y-202765*
X-266381Y-202800*
X-266452Y-202833*
X-266533Y-202865*
X-266624Y-202895*
X-266724Y-202925*
X-266727Y-202851*
X-266737Y-202783*
X-266754Y-202721*
X-266778Y-202663*
X-266809Y-202612*
X-266846Y-202566*
X-266890Y-202525*
X-266948Y-202491*
X-267018Y-202457*
X-267099Y-202422*
X-267192Y-202386*
X-267297Y-202350*
X-267413Y-202312*
X-267540Y-202275*
X-267507Y-202141*
X-267248Y-202198*
X-267025Y-202242*
X-266837Y-202275*
X-266685Y-202296*
X-266568Y-202306*
X-266486Y-202305*
X-266440Y-202291*
X-266413Y-202271*
X-266387Y-202249*
X-266364Y-202225*
X-266342Y-202199*
X-266323Y-202171*
X-266305Y-202140*
X-266290Y-202108*
X-266277Y-202042*
X-266258Y-201903*
X-266231Y-201689*
X-266198Y-201401*
X-266158Y-201038*
X-266111Y-200602*
X-266057Y-200091*
X-268324*
X-268524Y-200341*
X-268840Y-200008*
G37*
G36*
X-278524Y-202791D02*
G01X-278216Y-202694D01*
X-277921Y-202582*
X-277639Y-202456*
X-277370Y-202315*
X-277114Y-202160*
X-276870Y-201991*
X-276640Y-201808*
X-276790Y-201758*
X-276942Y-201711*
X-277098Y-201669*
X-277258Y-201631*
X-277421Y-201597*
X-277587Y-201567*
X-277757Y-201541*
X-277710Y-201489*
X-277653Y-201416*
X-277588Y-201324*
X-277515Y-201212*
X-277432Y-201081*
X-277341Y-200929*
X-277240Y-200758*
X-277990*
X-278240Y-200841*
X-278440Y-200625*
X-277190*
X-277135Y-200527*
X-277085Y-200433*
X-277040Y-200343*
X-277000Y-200257*
X-276964Y-200176*
X-276933Y-200098*
X-276907Y-200025*
X-276857Y-200058*
Y-198991*
X-277061Y-199209*
X-277275Y-199413*
X-277497Y-199605*
X-277728Y-199783*
X-277967Y-199949*
X-278216Y-200102*
X-278474Y-200241*
X-278524Y-200158*
X-278257Y-199965*
X-278009Y-199765*
X-277781Y-199559*
X-277571Y-199347*
X-277381Y-199129*
X-277209Y-198905*
X-277057Y-198675*
X-277657*
X-277737Y-198676*
X-277815Y-198682*
X-277891Y-198690*
X-277964Y-198702*
X-278036Y-198717*
X-278106Y-198736*
X-278174Y-198758*
X-278390Y-198541*
X-276857*
Y-198279*
X-276858Y-198027*
X-276860Y-197784*
X-276862Y-197551*
X-276865Y-197327*
X-276869Y-197113*
X-276873Y-196908*
X-276324Y-197175*
X-276507Y-197325*
Y-198541*
X-275807*
X-275557Y-198258*
X-275140Y-198675*
X-276507*
Y-198941*
X-276344Y-198985*
X-276199Y-199028*
X-276072Y-199073*
X-275963Y-199118*
X-275871Y-199164*
X-275797Y-199211*
X-275740Y-199258*
X-275698Y-199303*
X-275667Y-199352*
X-275646Y-199405*
X-275637Y-199462*
X-275638Y-199523*
X-275650Y-199589*
X-275674Y-199658*
X-275699Y-199718*
X-275729Y-199756*
X-275763Y-199771*
X-275801Y-199764*
X-275844Y-199735*
X-275890Y-199683*
X-275940Y-199608*
X-275997Y-199528*
X-276061Y-199449*
X-276134Y-199371*
X-276215Y-199295*
X-276304Y-199220*
X-276401Y-199147*
X-276507Y-199075*
Y-199875*
X-276823Y-200091*
X-276440Y-200208*
X-276493Y-200245*
X-276545Y-200290*
X-276597Y-200342*
X-276650Y-200401*
X-276702Y-200468*
X-276754Y-200543*
X-276807Y-200625*
X-275974*
X-275790Y-200375*
X-275390Y-200658*
X-275624Y-200808*
X-275699Y-200969*
X-275773Y-201118*
X-275846Y-201256*
X-275917Y-201382*
X-275987Y-201497*
X-276056Y-201600*
X-276123Y-201691*
X-276010Y-201729*
X-275907Y-201766*
X-275815Y-201803*
X-275734Y-201838*
X-275664Y-201873*
X-275605Y-201908*
X-275557Y-201941*
X-275522Y-201977*
X-275494Y-202018*
X-275473Y-202063*
X-275459Y-202113*
X-275451Y-202168*
Y-202227*
X-275457Y-202291*
X-275470Y-202349*
X-275492Y-202388*
X-275522Y-202409*
X-275560Y-202411*
X-275606Y-202395*
X-275661Y-202361*
X-275723Y-202308*
X-275789Y-202248*
X-275861Y-202190*
X-275940Y-202135*
X-276026Y-202082*
X-276118Y-202033*
X-276217Y-201986*
X-276324Y-201941*
X-276588Y-202136*
X-276868Y-202311*
X-277162Y-202467*
X-277472Y-202603*
X-277796Y-202719*
X-278136Y-202815*
X-278490Y-202891*
X-278524Y-202791*
G37*
G36*
X-262807Y-202925D02*
G01X-262519Y-202775D01*
X-262257Y-202621*
X-262020Y-202463*
X-261808Y-202302*
X-261622Y-202136*
X-261460Y-201966*
X-261324Y-201791*
X-261202Y-201611*
X-261094Y-201424*
X-260999Y-201229*
X-260918Y-201027*
X-260851Y-200817*
X-260797Y-200600*
X-260757Y-200375*
X-260726Y-200129*
X-260701Y-199860*
X-260681Y-199568*
X-260667Y-199251*
X-260658Y-198910*
X-260655Y-198546*
X-260657Y-198158*
X-260074Y-198491*
X-260307Y-198658*
X-260309Y-198933*
X-260314Y-199194*
X-260322Y-199443*
X-260334Y-199678*
X-260349Y-199901*
X-260368Y-200111*
X-260389Y-200301*
X-259807Y-200625*
X-260040Y-200791*
Y-202275*
X-260034Y-202328*
X-260017Y-202373*
X-259988Y-202409*
X-259948Y-202438*
X-259896Y-202458*
X-259832Y-202471*
X-259757Y-202475*
X-259174*
X-259111Y-202467*
X-259055Y-202443*
X-259007Y-202404*
X-258967Y-202350*
X-258934Y-202279*
X-258908Y-202193*
X-258890Y-202091*
X-258877Y-201976*
X-258864Y-201860*
X-258853Y-201742*
X-258844Y-201623*
X-258836Y-201503*
X-258829Y-201381*
X-258824Y-201258*
X-258690*
Y-201401*
X-258689Y-201534*
X-258687Y-201658*
X-258685Y-201772*
X-258682Y-201877*
X-258678Y-201972*
X-258674Y-202058*
X-258664Y-202130*
X-258646Y-202193*
X-258619Y-202247*
X-258584Y-202292*
X-258539Y-202328*
X-258486Y-202356*
X-258424Y-202375*
X-258453Y-202447*
X-258485Y-202511*
X-258518Y-202567*
X-258554Y-202614*
X-258592Y-202654*
X-258632Y-202685*
X-258674Y-202708*
X-258717Y-202730*
X-258763Y-202749*
X-258811Y-202764*
X-258861Y-202776*
X-258913Y-202785*
X-258967Y-202790*
X-259024Y-202791*
X-259940*
X-260055Y-202785*
X-260152Y-202764*
X-260232Y-202730*
X-260294Y-202683*
X-260338Y-202621*
X-260365Y-202546*
X-260374Y-202458*
Y-201175*
Y-201087*
X-260376Y-200987*
X-260380Y-200874*
X-260384Y-200748*
X-260391Y-200608*
X-260398Y-200456*
X-260402Y-200381*
X-260421Y-200494*
X-260458Y-200673*
X-260500Y-200843*
X-260548Y-201005*
X-260601Y-201158*
X-260660Y-201304*
X-260724Y-201441*
X-260800Y-201573*
X-260888Y-201701*
X-260987Y-201826*
X-261096Y-201948*
X-261217Y-202066*
X-261348Y-202180*
X-261490Y-202291*
X-261638Y-202396*
X-261795Y-202500*
X-261962Y-202603*
X-262138Y-202705*
X-262324Y-202807*
X-262519Y-202908*
X-262724Y-203008*
X-262807Y-202925*
G37*
G36*
X-255457Y-197558D02*
G01X-252823D01*
X-252590Y-197275*
X-252173Y-197658*
X-252440Y-197825*
Y-199191*
X-252441Y-199821*
X-252416Y-200378*
X-252364Y-200861*
X-252285Y-201270*
X-252180Y-201606*
X-252048Y-201869*
X-251890Y-202058*
X-251657Y-200941*
X-251557Y-200975*
X-251570Y-201181*
X-251580Y-201369*
X-251588Y-201541*
X-251592Y-201696*
X-251594Y-201834*
Y-201954*
X-251590Y-202058*
X-251584Y-202151*
X-251577Y-202250*
X-251567Y-202354*
X-251555Y-202463*
X-251541Y-202578*
X-251525Y-202699*
X-251507Y-202825*
X-251698Y-202748*
X-251873Y-202651*
X-252030Y-202533*
X-252171Y-202395*
X-252294Y-202236*
X-252401Y-202057*
X-252490Y-201858*
X-252566Y-201633*
X-252632Y-201375*
X-252687Y-201086*
X-252732Y-200764*
X-252767Y-200411*
X-252792Y-200025*
X-252807Y-199608*
Y-197691*
X-254740*
X-254820Y-197693*
X-254898Y-197698*
X-254974Y-197707*
X-255048Y-197719*
X-255119Y-197734*
X-255189Y-197753*
X-255257Y-197775*
X-255457Y-197558*
G37*
G36*
X-276257Y-202941D02*
G01X-275903Y-202794D01*
X-275574Y-202628*
X-275270Y-202444*
X-274992Y-202242*
X-274738Y-202021*
X-274510Y-201782*
X-274307Y-201525*
X-274444Y-201176*
X-274561Y-200817*
X-274658Y-200447*
X-274734Y-200066*
X-274790Y-199674*
X-274825Y-199272*
X-274840Y-198858*
X-274929Y-199052*
X-275025Y-199242*
X-275128Y-199428*
X-275237Y-199612*
X-275354Y-199792*
X-275477Y-199968*
X-275607Y-200141*
X-275674Y-200091*
X-275492Y-199769*
X-275320Y-199403*
X-275156Y-198992*
X-275001Y-198538*
X-274855Y-198039*
X-274718Y-197495*
X-274590Y-196908*
X-273990Y-197225*
X-274046Y-197266*
X-274099Y-197312*
X-274149Y-197364*
X-274197Y-197421*
X-274242Y-197483*
X-274284Y-197551*
X-274323Y-197625*
X-274364Y-197709*
X-274411Y-197808*
X-274462Y-197924*
X-274519Y-198055*
X-274582Y-198201*
X-274650Y-198363*
X-274724Y-198541*
X-273240*
X-272890Y-198191*
X-272457Y-198675*
X-273240*
X-273278Y-199210*
X-273335Y-199703*
X-273412Y-200153*
X-273507Y-200560*
X-273621Y-200925*
X-273754Y-201246*
X-273907Y-201525*
X-273714Y-201740*
X-273518Y-201929*
X-273317Y-202091*
X-273112Y-202227*
X-272903Y-202336*
X-272691Y-202419*
X-272474Y-202475*
Y-202558*
X-272593Y-202572*
X-272695Y-202595*
X-272780Y-202626*
X-272846Y-202667*
X-272895Y-202716*
X-272927Y-202774*
X-272940Y-202841*
X-273140Y-202714*
X-273329Y-202577*
X-273509Y-202433*
X-273678Y-202281*
X-273836Y-202120*
X-273985Y-201952*
X-274124Y-201775*
X-274342Y-202012*
X-274587Y-202230*
X-274860Y-202429*
X-275160Y-202607*
X-275487Y-202766*
X-275842Y-202905*
X-276224Y-203025*
X-276257Y-202941*
G37*
%LPC*%
G36*
X-269774Y-201491D02*
G01Y-199325D01*
X-270574*
Y-201491*
X-269774*
G37*
G36*
X-277208Y-201466D02*
G01X-277090Y-201490D01*
X-276968Y-201516*
X-276845Y-201542*
X-276718Y-201569*
X-276589Y-201596*
X-276457Y-201625*
X-276386Y-201517*
X-276317Y-201404*
X-276249Y-201286*
X-276182Y-201162*
X-276117Y-201033*
X-276053Y-200898*
X-275990Y-200758*
X-276873*
X-276936Y-200858*
X-276999Y-200957*
X-277062Y-201055*
X-277127Y-201153*
X-277192Y-201250*
X-277257Y-201346*
X-277324Y-201441*
X-277208Y-201466*
G37*
G36*
X-274695Y-199102D02*
G01X-274635Y-199509D01*
X-274562Y-199894*
X-274474Y-200258*
X-274371Y-200602*
X-274254Y-200924*
X-274124Y-201225*
X-274002Y-200965*
X-273895Y-200670*
X-273802Y-200340*
X-273724Y-199976*
X-273659Y-199577*
X-273609Y-199143*
X-273573Y-198675*
X-274740*
X-274695Y-199102*
G37*
%LPD*%
G54D10*
X-277944Y-217400D02*
G01Y-221900D01*
Y-217400D02*
G01X-276444D01*
X-275801Y-217614*
X-275373Y-218043*
X-275158Y-218472*
X-274944Y-219114*
Y-220186*
X-275158Y-220829*
X-275373Y-221257*
X-275801Y-221686*
X-276444Y-221900*
X-277944*
X-271944Y-217400D02*
G01X-273658Y-221900D01*
X-271944Y-217400D02*
G01X-270230Y-221900D01*
X-273015Y-220400D02*
G01X-270873D01*
X-267444Y-217400D02*
G01Y-221900D01*
X-268944Y-217400D02*
G01X-265944D01*
X-264658D02*
G01Y-221900D01*
Y-217400D02*
G01X-261873D01*
X-264658Y-219543D02*
G01X-262944D01*
X-264658Y-221900D02*
G01X-261873D01*
X-260373Y-218900D02*
G01X-260587Y-219114D01*
X-260373Y-219329*
X-260158Y-219114*
X-260373Y-218900*
Y-221472D02*
G01X-260587Y-221686D01*
X-260373Y-221900*
X-260158Y-221686*
X-260373Y-221472*
G54D11*
X-277921Y-204827D02*
G01Y-209327D01*
Y-204827D02*
G01X-276206Y-209327D01*
X-274492Y-204827D02*
G01X-276206Y-209327D01*
X-274492Y-204827D02*
G01Y-209327D01*
X-271921Y-204827D02*
G01X-272349Y-205041D01*
X-272778Y-205470*
X-272992Y-205899*
X-273207Y-206541*
Y-207613*
X-272992Y-208256*
X-272778Y-208684*
X-272349Y-209113*
X-271921Y-209327*
X-271064*
X-270635Y-209113*
X-270206Y-208684*
X-269992Y-208256*
X-269778Y-207613*
Y-206541*
X-269992Y-205899*
X-270206Y-205470*
X-270635Y-205041*
X-271064Y-204827*
X-271921*
X-268492D02*
G01Y-209327D01*
Y-204827D02*
G01X-266992D01*
X-266349Y-205041*
X-265921Y-205470*
X-265706Y-205899*
X-265492Y-206541*
Y-207613*
X-265706Y-208256*
X-265921Y-208684*
X-266349Y-209113*
X-266992Y-209327*
X-268492*
X-264206Y-204827D02*
G01Y-209327D01*
Y-204827D02*
G01X-261421D01*
X-264206Y-206970D02*
G01X-262492D01*
X-264206Y-209327D02*
G01X-261421D01*
X-260135Y-204827D02*
G01Y-209327D01*
Y-209327D02*
G01X-257564D01*
X-256064Y-206327D02*
G01X-256278Y-206541D01*
X-256064Y-206756*
X-255849Y-206541*
X-256064Y-206327*
Y-208899D02*
G01X-256278Y-209113D01*
X-256064Y-209327*
X-255849Y-209113*
X-256064Y-208899*
X-253278Y-204827D02*
G01X-253706Y-205041D01*
X-254135Y-205470*
X-254349Y-205899*
X-254564Y-206541*
Y-207613*
X-254349Y-208256*
X-254135Y-208684*
X-253706Y-209113*
X-253278Y-209327*
X-252421*
X-251992Y-209113*
X-251564Y-208684*
X-251349Y-208256*
X-251135Y-207613*
Y-206541*
X-251349Y-205899*
X-251564Y-205470*
X-251992Y-205041*
X-252421Y-204827*
X-253278*
X-252635Y-208470D02*
G01X-251349Y-209756D01*
X-247064Y-204827D02*
G01X-249206D01*
X-249421Y-206756*
X-249206Y-206541*
X-248564Y-206327*
X-247921*
X-247278Y-206541*
X-246849Y-206970*
X-246635Y-207613*
Y-208041*
X-247064Y-208684*
X-247492Y-209113*
X-248135Y-209327*
X-248778*
X-249421Y-209113*
X-249635Y-208899*
X-249849Y-208470*
X-245349Y-207399D02*
G01X-241492D01*
X-240207Y-204827D02*
G01Y-209327D01*
Y-204827D02*
G01X-238492Y-209327D01*
X-236778Y-204827D02*
G01X-238492Y-209327D01*
X-236778Y-204827D02*
G01Y-209327D01*
X-235492Y-204827D02*
G01Y-209327D01*
Y-204827D02*
G01X-233564D01*
X-232921Y-205041*
X-232706Y-205256*
X-232492Y-205684*
Y-206113*
X-232706Y-206541*
X-232921Y-206756*
X-233564Y-206970*
X-235492D02*
G01X-233564D01*
X-232921Y-207184*
X-232706Y-207399*
X-232492Y-207827*
Y-208470*
X-232706Y-208899*
X-232921Y-209113*
X-233564Y-209327*
X-235492*
X-230992Y-208899D02*
G01X-231206Y-209113D01*
X-230992Y-209327*
X-230778Y-209113*
X-230992Y-208899*
X-226492Y-205470D02*
G01X-226921Y-205041D01*
X-227564Y-204827*
X-228421*
X-229064Y-205041*
X-229492Y-205470*
Y-205899*
X-229278Y-206327*
X-229064Y-206541*
X-228635Y-206756*
X-227349Y-207184*
X-226921Y-207399*
X-226706Y-207613*
X-226492Y-208041*
Y-208684*
X-226921Y-209113*
X-227564Y-209327*
X-228421*
X-229064Y-209113*
X-229492Y-208684*
X-222421Y-206327D02*
G01X-222635Y-206970D01*
X-223064Y-207399*
X-223706Y-207613*
X-223921*
X-224564Y-207399*
X-224992Y-206970*
X-225206Y-206327*
Y-206113*
X-224992Y-205470*
X-224564Y-205041*
X-223921Y-204827*
X-223706*
X-223064Y-205041*
X-222635Y-205470*
X-222421Y-206327*
Y-207399*
X-222635Y-208470*
X-223064Y-209113*
X-223706Y-209327*
X-224135*
X-224778Y-209113*
X-224992Y-208684*
X-219849Y-204827D02*
G01X-220492Y-205041D01*
X-220921Y-205684*
X-221135Y-206756*
Y-207399*
X-220921Y-208470*
X-220492Y-209113*
X-219849Y-209327*
X-219421*
X-218778Y-209113*
X-218349Y-208470*
X-218135Y-207399*
Y-206756*
X-218349Y-205684*
X-218778Y-205041*
X-219421Y-204827*
X-219849*
X-214064D02*
G01X-216206D01*
X-216421Y-206756*
X-216206Y-206541*
X-215564Y-206327*
X-214921*
X-214278Y-206541*
X-213849Y-206970*
X-213635Y-207613*
Y-208041*
X-214064Y-208684*
X-214492Y-209113*
X-215135Y-209327*
X-215778*
X-216421Y-209113*
X-216635Y-208899*
X-216849Y-208470*
X-212135Y-208899D02*
G01X-212349Y-209113D01*
X-212135Y-209327*
X-211921Y-209113*
X-212135Y-208899*
X-209349Y-204827D02*
G01X-209992Y-205041D01*
X-210421Y-205684*
X-210635Y-206756*
Y-207399*
X-210421Y-208470*
X-209992Y-209113*
X-209349Y-209327*
X-208921*
X-208278Y-209113*
X-207849Y-208470*
X-207635Y-207399*
Y-206756*
X-207849Y-205684*
X-208278Y-205041*
X-208921Y-204827*
X-209349*
X-206349Y-205684D02*
G01X-205921Y-205470D01*
X-205278Y-204827*
Y-209327*
X-203992Y-207399D02*
G01X-200135D01*
X-197349Y-204827D02*
G01Y-209327D01*
X-198849Y-204827D02*
G01X-195849D01*
X-193278D02*
G01X-193706Y-205041D01*
X-194135Y-205470*
X-194349Y-205899*
X-194564Y-206541*
Y-207613*
X-194349Y-208256*
X-194135Y-208684*
X-193706Y-209113*
X-193278Y-209327*
X-192421*
X-191992Y-209113*
X-191563Y-208684*
X-191349Y-208256*
X-191135Y-207613*
Y-206541*
X-191349Y-205899*
X-191563Y-205470*
X-191992Y-205041*
X-192421Y-204827*
X-193278*
X-189849D02*
G01Y-209327D01*
Y-204827D02*
G01X-187921D01*
X-187278Y-205041*
X-187063Y-205256*
X-186849Y-205684*
Y-206327*
X-187063Y-206756*
X-187278Y-206970*
X-187921Y-207184*
X-189849*
X-274921Y-211899D02*
G01X-275349Y-211470D01*
X-275992Y-211256*
X-276849*
X-277492Y-211470*
X-277921Y-211899*
Y-212327*
X-277706Y-212756*
X-277492Y-212970*
X-277064Y-213184*
X-275778Y-213613*
X-275349Y-213827*
X-275135Y-214041*
X-274921Y-214470*
Y-215113*
X-275349Y-215541*
X-275992Y-215756*
X-276849*
X-277492Y-215541*
X-277921Y-215113*
X-273635Y-211256D02*
G01Y-215756D01*
X-269349Y-211256D02*
G01X-272349Y-215756D01*
Y-211256D02*
G01X-269349D01*
X-272349Y-215756D02*
G01X-269349D01*
X-268064Y-211256D02*
G01Y-215756D01*
Y-211256D02*
G01X-265278D01*
X-268064Y-213399D02*
G01X-266349D01*
X-268064Y-215756D02*
G01X-265278D01*
X-263778Y-212756D02*
G01X-263992Y-212970D01*
X-263778Y-213184*
X-263564Y-212970*
X-263778Y-212756*
Y-215327D02*
G01X-263992Y-215541D01*
X-263778Y-215756*
X-263564Y-215541*
X-263778Y-215327*
X-259492Y-211256D02*
G01X-261635D01*
X-261849Y-213184*
X-261635Y-212970*
X-260992Y-212756*
X-260349*
X-259706Y-212970*
X-259278Y-213399*
X-259064Y-214041*
Y-214470*
X-259492Y-215113*
X-259921Y-215541*
X-260564Y-215756*
X-261206*
X-261849Y-215541*
X-262064Y-215327*
X-262278Y-214899*
X-254992Y-211256D02*
G01X-257135D01*
X-257349Y-213184*
X-257135Y-212970*
X-256492Y-212756*
X-255849*
X-255206Y-212970*
X-254778Y-213399*
X-254564Y-214041*
Y-214470*
X-254992Y-215113*
X-255421Y-215541*
X-256064Y-215756*
X-256706*
X-257349Y-215541*
X-257564Y-215327*
X-257778Y-214899*
X-252206Y-212541D02*
G01Y-215113D01*
X-253278Y-213184D02*
G01X-251135Y-214470D01*
Y-213184D02*
G01X-253278Y-214470D01*
X-247278Y-211899D02*
G01X-247492Y-211470D01*
X-248135Y-211256*
X-248564*
X-249206Y-211470*
X-249635Y-212113*
X-249849Y-213184*
Y-214256*
X-249635Y-215113*
X-249206Y-215541*
X-248564Y-215756*
X-248349*
X-247707Y-215541*
X-247278Y-215113*
X-247064Y-214470*
Y-214256*
X-247278Y-213613*
X-247707Y-213184*
X-248349Y-212970*
X-248564*
X-249206Y-213184*
X-249635Y-213613*
X-249849Y-214256*
X-242992Y-211256D02*
G01X-245135D01*
X-245349Y-213184*
X-245135Y-212970*
X-244492Y-212756*
X-243849*
X-243207Y-212970*
X-242778Y-213399*
X-242564Y-214041*
Y-214470*
X-242992Y-215113*
X-243421Y-215541*
X-244064Y-215756*
X-244707*
X-245349Y-215541*
X-245564Y-215327*
X-245778Y-214899*
X-238064Y-212327D02*
G01X-238278Y-211899D01*
X-238707Y-211470*
X-239135Y-211256*
X-239992*
X-240421Y-211470*
X-240849Y-211899*
X-241064Y-212327*
X-241278Y-212970*
Y-214041*
X-241064Y-214684*
X-240849Y-215113*
X-240421Y-215541*
X-239992Y-215756*
X-239135*
X-238707Y-215541*
X-238278Y-215113*
X-238064Y-214684*
X-236778Y-211256D02*
G01Y-215756D01*
Y-211256D02*
G01X-235064Y-215756D01*
X-233349Y-211256D02*
G01X-235064Y-215756D01*
X-233349Y-211256D02*
G01Y-215756D01*
X-217706Y-211256D02*
G01Y-215756D01*
X-219206Y-211256D02*
G01X-216206D01*
X-214706Y-212756D02*
G01X-214921Y-212970D01*
X-214706Y-213184*
X-214492Y-212970*
X-214706Y-212756*
Y-215327D02*
G01X-214921Y-215541D01*
X-214706Y-215756*
X-214492Y-215541*
X-214706Y-215327*
X-211921Y-211256D02*
G01X-212564Y-211470D01*
X-212992Y-212113*
X-213206Y-213184*
Y-213827*
X-212992Y-214899*
X-212564Y-215541*
X-211921Y-215756*
X-211492*
X-210849Y-215541*
X-210421Y-214899*
X-210206Y-213827*
Y-213184*
X-210421Y-212113*
X-210849Y-211470*
X-211492Y-211256*
X-211921*
X-208706Y-215327D02*
G01X-208921Y-215541D01*
X-208706Y-215756*
X-208492Y-215541*
X-208706Y-215327*
X-207206Y-212113D02*
G01X-206778Y-211899D01*
X-206135Y-211256*
Y-215756*
X-203564Y-211256D02*
G01X-204206Y-211470D01*
X-204635Y-212113*
X-204849Y-213184*
Y-213827*
X-204635Y-214899*
X-204206Y-215541*
X-203564Y-215756*
X-203135*
X-202492Y-215541*
X-202064Y-214899*
X-201849Y-213827*
Y-213184*
X-202064Y-212113*
X-202492Y-211470*
X-203135Y-211256*
X-203564*
X-200564D02*
G01Y-215756D01*
Y-211256D02*
G01X-198849Y-215756D01*
X-197135Y-211256D02*
G01X-198849Y-215756D01*
X-197135Y-211256D02*
G01Y-215756D01*
X-195849Y-211256D02*
G01Y-215756D01*
Y-211256D02*
G01X-194135Y-215756D01*
X-192421Y-211256D02*
G01X-194135Y-215756D01*
X-192421Y-211256D02*
G01Y-215756D01*
X-256819Y-218439D02*
G01Y-218225D01*
X-256604Y-217796*
X-256390Y-217582*
X-255961Y-217367*
X-255104*
X-254676Y-217582*
X-254461Y-217796*
X-254247Y-218225*
Y-218653*
X-254461Y-219082*
X-254890Y-219724*
X-257033Y-221867*
X-254033*
X-251461Y-217367D02*
G01X-252104Y-217582D01*
X-252533Y-218225*
X-252747Y-219296*
Y-219939*
X-252533Y-221010*
X-252104Y-221653*
X-251461Y-221867*
X-251033*
X-250390Y-221653*
X-249961Y-221010*
X-249747Y-219939*
Y-219296*
X-249961Y-218225*
X-250390Y-217582*
X-251033Y-217367*
X-251461*
X-248461Y-218225D02*
G01X-248033Y-218010D01*
X-247390Y-217367*
Y-221867*
X-243533Y-218010D02*
G01X-243747Y-217582D01*
X-244390Y-217367*
X-244819*
X-245461Y-217582*
X-245890Y-218225*
X-246104Y-219296*
Y-220367*
X-245890Y-221225*
X-245461Y-221653*
X-244819Y-221867*
X-244604*
X-243961Y-221653*
X-243533Y-221225*
X-243319Y-220582*
Y-220367*
X-243533Y-219724*
X-243961Y-219296*
X-244604Y-219082*
X-244819*
X-245461Y-219296*
X-245890Y-219724*
X-246104Y-220367*
X-240747Y-217367D02*
G01X-241390Y-217582D01*
X-241819Y-218225*
X-242033Y-219296*
Y-219939*
X-241819Y-221010*
X-241390Y-221653*
X-240747Y-221867*
X-240319*
X-239676Y-221653*
X-239247Y-221010*
X-239033Y-219939*
Y-219296*
X-239247Y-218225*
X-239676Y-217582*
X-240319Y-217367*
X-240747*
X-235929Y-217206D02*
G01X-238072Y-220206D01*
X-234858*
X-235929Y-217206D02*
G01Y-221706D01*
X-233572Y-219777D02*
G01X-229715D01*
X-228215Y-218277D02*
G01Y-218063D01*
X-228000Y-217634*
X-227786Y-217420*
X-227358Y-217206*
X-226500*
X-226072Y-217420*
X-225858Y-217634*
X-225643Y-218063*
Y-218491*
X-225858Y-218920*
X-226286Y-219563*
X-228429Y-221706*
X-225429*
X-222858Y-217206D02*
G01X-223500Y-217420D01*
X-223929Y-218063*
X-224143Y-219134*
Y-219777*
X-223929Y-220849*
X-223500Y-221491*
X-222858Y-221706*
X-222429*
X-221786Y-221491*
X-221358Y-220849*
X-221143Y-219777*
Y-219134*
X-221358Y-218063*
X-221786Y-217420*
X-222429Y-217206*
X-222858*
X-208072Y-218277D02*
G01X-208286Y-217849D01*
X-208715Y-217420*
X-209143Y-217206*
X-210000*
X-210429Y-217420*
X-210858Y-217849*
X-211072Y-218277*
X-211286Y-218920*
Y-219991*
X-211072Y-220634*
X-210858Y-221063*
X-210429Y-221491*
X-210000Y-221706*
X-209143*
X-208715Y-221491*
X-208286Y-221063*
X-208072Y-220634*
X-205500Y-217206D02*
G01X-206143Y-217420D01*
X-206572Y-218063*
X-206786Y-219134*
Y-219777*
X-206572Y-220849*
X-206143Y-221491*
X-205500Y-221706*
X-205072*
X-204429Y-221491*
X-204000Y-220849*
X-203786Y-219777*
Y-219134*
X-204000Y-218063*
X-204429Y-217420*
X-205072Y-217206*
X-205500*
X-200358D02*
G01X-202500Y-220206D01*
X-199286*
X-200358Y-217206D02*
G01Y-221706D01*
G54D10*
X-325000Y275000D02*
G01X325000D01*
Y-275000*
X-325000*
Y275000*
M02*
