G04 Generated by CircuitCAM Version 4.4*
%FSLAX44Y44*%
%MOMM*%
%ADD10C,0.000000*%
%ADD11C,1.000000*%
%LNSolderPasteTop_Ready*%
%LPD*%
G36*
G01X1961960Y1258610D02*
X1961930Y1224610D01*
X1975260Y1224600D01*
X1981940Y1235920D01*
X1981950Y1247260D01*
X1975290Y1258600D01*
X1961960Y1258610D01*
G37*
G36*
G01X1582910Y1243060D02*
X1582850Y1243060D01*
X1566170Y1240140D01*
X1575330Y1187940D01*
X1575390Y1187940D01*
X1592070Y1190870D01*
X1582910Y1243060D01*
G37*
G36*
G01X1521350Y1232260D02*
X1521290Y1232260D01*
X1504610Y1229330D01*
X1513770Y1177140D01*
X1513830Y1177140D01*
X1530510Y1180070D01*
X1521350Y1232260D01*
G37*
G36*
G01X2041960Y1258550D02*
X2028640Y1258550D01*
X2021950Y1247230D01*
X2021940Y1235900D01*
X2028600Y1224560D01*
X2041930Y1224550D01*
X2041960Y1258550D01*
G37*
G36*
G01X1868280Y1207990D02*
X1854950Y1207990D01*
X1854920Y1174000D01*
X1868250Y1173980D01*
X1874930Y1185310D01*
X1874940Y1196650D01*
X1868280Y1207990D01*
G37*
G36*
G01X1571540Y1174770D02*
X1571480Y1174770D01*
X1559720Y1172710D01*
X1565250Y1141200D01*
X1565310Y1141200D01*
X1577070Y1143260D01*
X1571540Y1174770D01*
G37*
G36*
G01X1551840Y1171310D02*
X1551780Y1171310D01*
X1540020Y1169250D01*
X1545550Y1137740D01*
X1545610Y1137740D01*
X1557370Y1139800D01*
X1551840Y1171310D01*
G37*
G36*
G01X1921620Y1207940D02*
X1914940Y1196610D01*
X1914930Y1185280D01*
X1921590Y1173940D01*
X1934920Y1173930D01*
X1934950Y1207930D01*
X1921620Y1207940D01*
G37*
G36*
G01X2077480Y1205970D02*
X2077420Y1205970D01*
X2069600Y1204600D01*
X2066120Y1201280D01*
X2066580Y1198650D01*
X2070980Y1196720D01*
X2078860Y1198100D01*
X2077480Y1205970D01*
G37*
G36*
G01X2040050Y1199420D02*
X2032170Y1198030D01*
X2033550Y1190160D01*
X2033610Y1190160D01*
X2041430Y1191540D01*
X2044910Y1194850D01*
X2044450Y1197480D01*
X2040050Y1199420D01*
G37*
G36*
G01X2080060Y1191240D02*
X2080000Y1191240D01*
X2072180Y1189870D01*
X2068710Y1186550D01*
X2069170Y1183920D01*
X2073570Y1181990D01*
X2081450Y1183370D01*
X2080060Y1191240D01*
G37*
G36*
G01X2042640Y1184680D02*
X2034760Y1183300D01*
X2036140Y1175430D01*
X2036200Y1175430D01*
X2044020Y1176800D01*
X2047500Y1180110D01*
X2047040Y1182740D01*
X2042640Y1184680D01*
G37*
G36*
G01X1765890Y1160090D02*
X1752560Y1160090D01*
X1752530Y1126100D01*
X1765860Y1126080D01*
X1772540Y1137410D01*
X1772550Y1148750D01*
X1765890Y1160090D01*
G37*
G36*
G01X1819230Y1160040D02*
X1812550Y1148710D01*
X1812540Y1137380D01*
X1819200Y1126040D01*
X1832530Y1126030D01*
X1832550Y1160030D01*
X1819230Y1160040D01*
G37*
G36*
G01X1585330Y1117250D02*
X1585270Y1117250D01*
X1575320Y1115500D01*
X1571050Y1110450D01*
X1571780Y1106290D01*
X1577510Y1102990D01*
X1587520Y1104750D01*
X1585330Y1117250D01*
G37*
G36*
G01X1557810Y1112430D02*
X1547800Y1110670D01*
X1550000Y1098170D01*
X1550060Y1098170D01*
X1560000Y1099920D01*
X1564270Y1104970D01*
X1563540Y1109140D01*
X1557810Y1112430D01*
G37*
G36*
G01X1892010Y1113120D02*
X1891950Y1113120D01*
X1884130Y1111750D01*
X1880650Y1108430D01*
X1881110Y1105800D01*
X1885510Y1103870D01*
X1893390Y1105250D01*
X1892010Y1113120D01*
G37*
G36*
G01X1854580Y1106560D02*
X1846700Y1105180D01*
X1848080Y1097310D01*
X1848140Y1097310D01*
X1855960Y1098680D01*
X1859440Y1101990D01*
X1858980Y1104620D01*
X1854580Y1106560D01*
G37*
G36*
G01X1647720Y1102540D02*
X1647690Y1068540D01*
X1661020Y1068520D01*
X1667700Y1079850D01*
X1667710Y1091190D01*
X1661050Y1102530D01*
X1647720Y1102540D01*
G37*
G36*
G01X-2059350Y1096950D02*
X-2062980Y1089830D01*
X-2055860Y1086190D01*
X-2051090Y1086740D01*
X-2049870Y1089120D01*
X-2052220Y1093320D01*
X-2059350Y1096950D01*
G37*
G36*
G01X1596990Y1084380D02*
X1596930Y1084380D01*
X1586990Y1082630D01*
X1583450Y1073410D01*
X1584910Y1065080D01*
X1591380Y1057610D01*
X1601380Y1059370D01*
X1596990Y1084380D01*
G37*
G36*
G01X-2066150Y1083630D02*
X-2069790Y1076500D01*
X-2062660Y1072870D01*
X-2057890Y1073420D01*
X-2056680Y1075800D01*
X-2059020Y1079990D01*
X-2066150Y1083630D01*
G37*
G36*
G01X-2025500Y1079670D02*
X-2030280Y1079120D01*
X-2031490Y1076740D01*
X-2029140Y1072550D01*
X-2022020Y1068910D01*
X-2018380Y1076040D01*
X-2025500Y1079670D01*
G37*
G36*
G01X1558220Y1077580D02*
X1548210Y1075830D01*
X1552600Y1050820D01*
X1552660Y1050820D01*
X1562610Y1052560D01*
X1566150Y1061790D01*
X1564680Y1070120D01*
X1558220Y1077580D01*
G37*
G36*
G01X-2032310Y1066350D02*
X-2037080Y1065790D01*
X-2038300Y1063410D01*
X-2035940Y1059230D01*
X-2028820Y1055590D01*
X-2025180Y1062710D01*
X-2032310Y1066350D01*
G37*
G36*
G01X1714390Y1102480D02*
X1707710Y1091160D01*
X1707700Y1079820D01*
X1714360Y1068480D01*
X1727690Y1068480D01*
X1727720Y1102470D01*
X1714390Y1102480D01*
G37*
G36*
G01X1894590Y1098380D02*
X1894530Y1098380D01*
X1886710Y1097010D01*
X1883230Y1093690D01*
X1883700Y1091060D01*
X1888100Y1089130D01*
X1895970Y1090510D01*
X1894590Y1098380D01*
G37*
G36*
G01X1857160Y1091830D02*
X1849280Y1090440D01*
X1850670Y1082570D01*
X1850730Y1082570D01*
X1858550Y1083950D01*
X1862030Y1087260D01*
X1861570Y1089890D01*
X1857160Y1091830D01*
G37*
G36*
G01X1705360Y1025100D02*
X1705300Y1025100D01*
X1697480Y1023730D01*
X1694000Y1020410D01*
X1694460Y1017780D01*
X1698860Y1015850D01*
X1706740Y1017240D01*
X1705360Y1025100D01*
G37*
G36*
G01X1667930Y1018550D02*
X1660050Y1017160D01*
X1661430Y1009290D01*
X1661490Y1009290D01*
X1669310Y1010670D01*
X1672790Y1013980D01*
X1672330Y1016610D01*
X1667930Y1018550D01*
G37*
G36*
G01X1459820Y1013850D02*
X1459790Y979850D01*
X1473120Y979840D01*
X1479800Y991170D01*
X1479810Y1002510D01*
X1473150Y1013840D01*
X1459820Y1013850D01*
G37*
G36*
G01X-1842090Y1000560D02*
X-1845480Y993310D01*
X-1838230Y989920D01*
X-1833480Y990640D01*
X-1832350Y993060D01*
X-1834840Y997170D01*
X-1842090Y1000560D01*
G37*
G36*
G01X-1848430Y987010D02*
X-1851810Y979760D01*
X-1844560Y976370D01*
X-1839810Y977090D01*
X-1838680Y979510D01*
X-1841180Y983620D01*
X-1848430Y987010D01*
G37*
G36*
G01X-1807670Y984470D02*
X-1812420Y983750D01*
X-1813550Y981330D01*
X-1811050Y977220D01*
X-1803800Y973840D01*
X-1800420Y981080D01*
X-1807670Y984470D01*
G37*
G36*
G01X1526490Y1013800D02*
X1519810Y1002470D01*
X1519800Y991130D01*
X1526460Y979800D01*
X1539790Y979790D01*
X1539820Y1013790D01*
X1526490Y1013800D01*
G37*
G36*
G01X1707940Y1010370D02*
X1707880Y1010370D01*
X1700070Y1009000D01*
X1696590Y1005680D01*
X1697050Y1003050D01*
X1701450Y1001120D01*
X1709330Y1002500D01*
X1707940Y1010370D01*
G37*
G36*
G01X1670520Y1003810D02*
X1662640Y1002430D01*
X1664020Y994560D01*
X1664080Y994560D01*
X1671900Y995930D01*
X1675380Y999240D01*
X1674920Y1001870D01*
X1670520Y1003810D01*
G37*
G36*
G01X-1814000Y970920D02*
X-1818750Y970190D01*
X-1819880Y967770D01*
X-1817390Y963670D01*
X-1810140Y960280D01*
X-1806750Y967530D01*
X-1814000Y970920D01*
G37*
G36*
G01X1327950Y952510D02*
X1327920Y918510D01*
X1341250Y918500D01*
X1347930Y929820D01*
X1347940Y941160D01*
X1341280Y952500D01*
X1327950Y952510D01*
G37*
G36*
G01X-1630210Y928260D02*
X-1632950Y920740D01*
X-1625440Y918000D01*
X-1620770Y919130D01*
X-1619850Y921640D01*
X-1622690Y925520D01*
X-1630210Y928260D01*
G37*
G36*
G01X1288520Y926370D02*
X1288460Y926370D01*
X1275390Y924080D01*
X1270780Y911770D01*
X1272740Y900600D01*
X1281270Y890590D01*
X1294400Y892890D01*
X1288520Y926370D01*
G37*
G36*
G01X-1594510Y915230D02*
X-1599180Y914090D01*
X-1600100Y911590D01*
X-1597250Y907720D01*
X-1589740Y904970D01*
X-1587000Y912490D01*
X-1594510Y915230D01*
G37*
G36*
G01X-1635340Y914200D02*
X-1638080Y906690D01*
X-1630560Y903950D01*
X-1625890Y905070D01*
X-1624980Y907580D01*
X-1627820Y911460D01*
X-1635340Y914200D01*
G37*
G36*
G01X1222850Y914860D02*
X1209720Y912560D01*
X1215600Y879080D01*
X1215660Y879080D01*
X1228730Y881370D01*
X1233340Y893680D01*
X1231380Y904850D01*
X1222850Y914860D01*
G37*
G36*
G01X-1599640Y901180D02*
X-1604310Y900040D01*
X-1605230Y897530D01*
X-1602380Y893660D01*
X-1594870Y890920D01*
X-1592120Y898440D01*
X-1599640Y901180D01*
G37*
G36*
G01X1180890Y881060D02*
X1180830Y881060D01*
X1167760Y878760D01*
X1163150Y866450D01*
X1165110Y855280D01*
X1173640Y845280D01*
X1186770Y847580D01*
X1180890Y881060D01*
G37*
G36*
G01X1115230Y869550D02*
X1102100Y867240D01*
X1107970Y833760D01*
X1108030Y833760D01*
X1121100Y836060D01*
X1125710Y848370D01*
X1123750Y859540D01*
X1115230Y869550D01*
G37*
G36*
G01X-1372880Y867280D02*
X-1372940Y867280D01*
X-1380760Y865900D01*
X-1384240Y862580D01*
X-1383780Y859950D01*
X-1379380Y858020D01*
X-1371500Y859410D01*
X-1372880Y867280D01*
G37*
G36*
G01X-1410310Y860720D02*
X-1418190Y859340D01*
X-1416800Y851470D01*
X-1416740Y851470D01*
X-1408920Y852840D01*
X-1405440Y856150D01*
X-1405910Y858780D01*
X-1410310Y860720D01*
G37*
G36*
G01X-1370290Y852540D02*
X-1370350Y852540D01*
X-1378170Y851170D01*
X-1381650Y847850D01*
X-1381190Y845220D01*
X-1376790Y843290D01*
X-1368910Y844670D01*
X-1370290Y852540D01*
G37*
G36*
G01X-1407720Y845980D02*
X-1415600Y844600D01*
X-1414220Y836730D01*
X-1414160Y836730D01*
X-1406340Y838100D01*
X-1402860Y841420D01*
X-1403320Y844050D01*
X-1407720Y845980D01*
G37*
G36*
G01X1067730Y838280D02*
X1067670Y838280D01*
X1054600Y835980D01*
X1049990Y823670D01*
X1051950Y812500D01*
X1060480Y802490D01*
X1073610Y804800D01*
X1067730Y838280D01*
G37*
G36*
G01X1002070Y826760D02*
X988940Y824460D01*
X994810Y790980D01*
X994870Y790980D01*
X1007940Y793270D01*
X1012560Y805590D01*
X1010600Y816760D01*
X1002070Y826760D01*
G37*
G36*
G01X-1167990Y813950D02*
X-1168050Y813950D01*
X-1175870Y812570D01*
X-1179350Y809250D01*
X-1178880Y806620D01*
X-1174490Y804690D01*
X-1166610Y806080D01*
X-1167990Y813950D01*
G37*
G36*
G01X-1205420Y807390D02*
X-1213300Y806010D01*
X-1211910Y798140D01*
X-1211850Y798140D01*
X-1204030Y799510D01*
X-1200550Y802820D01*
X-1201020Y805450D01*
X-1205420Y807390D01*
G37*
G36*
G01X-1165400Y799210D02*
X-1165460Y799210D01*
X-1173280Y797840D01*
X-1176760Y794520D01*
X-1176300Y791890D01*
X-1171900Y789960D01*
X-1164020Y791340D01*
X-1165400Y799210D01*
G37*
G36*
G01X-1202830Y792650D02*
X-1210710Y791270D01*
X-1209330Y783400D01*
X-1209270Y783400D01*
X-1201450Y784770D01*
X-1197970Y788090D01*
X-1198430Y790720D01*
X-1202830Y792650D01*
G37*
G36*
G01X1394620Y952450D02*
X1387940Y941130D01*
X1387930Y929790D01*
X1394590Y918450D01*
X1407920Y918440D01*
X1407950Y952440D01*
X1394620Y952450D01*
G37*
G36*
G01X1518420Y941040D02*
X1518360Y941040D01*
X1510540Y939670D01*
X1507060Y936340D01*
X1507520Y933710D01*
X1511920Y931790D01*
X1519800Y933170D01*
X1518420Y941040D01*
G37*
G36*
G01X1480990Y934480D02*
X1473110Y933100D01*
X1474490Y925230D01*
X1474550Y925230D01*
X1482370Y926600D01*
X1485850Y929910D01*
X1485390Y932540D01*
X1480990Y934480D01*
G37*
G36*
G01X1521000Y926300D02*
X1520940Y926300D01*
X1513120Y924930D01*
X1509640Y921610D01*
X1510100Y918980D01*
X1514500Y917050D01*
X1522380Y918430D01*
X1521000Y926300D01*
G37*
G36*
G01X1483570Y919750D02*
X1475690Y918360D01*
X1477080Y910490D01*
X1477140Y910490D01*
X1484960Y911870D01*
X1488440Y915180D01*
X1487970Y917810D01*
X1483570Y919750D01*
G37*
G36*
G01X1330390Y860470D02*
X1330330Y860470D01*
X1322510Y859090D01*
X1319030Y855770D01*
X1319490Y853140D01*
X1323890Y851210D01*
X1331770Y852600D01*
X1330390Y860470D01*
G37*
G36*
G01X1292960Y853910D02*
X1285080Y852530D01*
X1286470Y844660D01*
X1286530Y844660D01*
X1294350Y846030D01*
X1297830Y849340D01*
X1297360Y851970D01*
X1292960Y853910D01*
G37*
G36*
G01X1332980Y845730D02*
X1332920Y845730D01*
X1325100Y844360D01*
X1321620Y841040D01*
X1322080Y838410D01*
X1326480Y836480D01*
X1334360Y837860D01*
X1332980Y845730D01*
G37*
G36*
G01X1295550Y839170D02*
X1287670Y837790D01*
X1289050Y829920D01*
X1289110Y829920D01*
X1296930Y831290D01*
X1300410Y834610D01*
X1299950Y837240D01*
X1295550Y839170D01*
G37*
G36*
G01X961620Y785760D02*
X961550Y785760D01*
X948420Y783920D01*
X943380Y771780D01*
X944950Y760550D01*
X953130Y750250D01*
X966330Y752100D01*
X961620Y785760D01*
G37*
G36*
G01X895600Y776540D02*
X882390Y774700D01*
X887100Y741040D01*
X887170Y741040D01*
X900300Y742870D01*
X905340Y755020D01*
X903770Y766250D01*
X895600Y776540D01*
G37*
G36*
G01X-955340Y773080D02*
X-955400Y773080D01*
X-963220Y771700D01*
X-966700Y768380D01*
X-966240Y765750D01*
X-961840Y763820D01*
X-953960Y765210D01*
X-955340Y773080D01*
G37*
G36*
G01X-992770Y766520D02*
X-1000650Y765140D01*
X-999270Y757270D01*
X-999210Y757270D01*
X-991390Y758640D01*
X-987910Y761950D01*
X-988370Y764580D01*
X-992770Y766520D01*
G37*
G36*
G01X240900Y771940D02*
X240840Y771940D01*
X207410Y766070D01*
X209710Y752940D01*
X222020Y748330D01*
X233190Y750290D01*
X243200Y758820D01*
X240900Y771940D01*
G37*
G36*
G01X102150Y767960D02*
X102090Y767960D01*
X68660Y762100D01*
X70960Y748970D01*
X83270Y744360D01*
X94440Y746320D01*
X104450Y754850D01*
X102150Y767960D01*
G37*
G36*
G01X32360Y764630D02*
X32300Y764630D01*
X-1130Y758770D01*
X1180Y745640D01*
X13490Y741030D01*
X24660Y742990D01*
X34660Y751510D01*
X32360Y764630D01*
G37*
G36*
G01X-109670Y762950D02*
X-109730Y762950D01*
X-143150Y757080D01*
X-140850Y743950D01*
X-128540Y739340D01*
X-117370Y741300D01*
X-107360Y749830D01*
X-109670Y762950D01*
G37*
G36*
G01X-952760Y758340D02*
X-952820Y758340D01*
X-960640Y756970D01*
X-964120Y753650D01*
X-963650Y751020D01*
X-959260Y749090D01*
X-951380Y750470D01*
X-952760Y758340D01*
G37*
G36*
G01X-990190Y751780D02*
X-998070Y750400D01*
X-996680Y742530D01*
X-996620Y742530D01*
X-988800Y743900D01*
X-985320Y747210D01*
X-985790Y749840D01*
X-990190Y751780D01*
G37*
G36*
G01X-37840Y761870D02*
X-37900Y761870D01*
X-71330Y756000D01*
X-69020Y742870D01*
X-56710Y738260D01*
X-45540Y740220D01*
X-35530Y748750D01*
X-37840Y761870D01*
G37*
G36*
G01X307960Y767150D02*
X307900Y767150D01*
X274480Y761280D01*
X276780Y748150D01*
X289090Y743540D01*
X300260Y745500D01*
X310270Y754030D01*
X307960Y767150D01*
G37*
G36*
G01X400340Y755980D02*
X400280Y755980D01*
X366850Y750120D01*
X369160Y736990D01*
X381470Y732380D01*
X392640Y734340D01*
X402650Y742870D01*
X400340Y755980D01*
G37*
G36*
G01X-741450Y736360D02*
X-741510Y736360D01*
X-749330Y734990D01*
X-752810Y731670D01*
X-752350Y729040D01*
X-747950Y727110D01*
X-740070Y728490D01*
X-741450Y736360D01*
G37*
G36*
G01X-778880Y729800D02*
X-786760Y728420D01*
X-785370Y720550D01*
X-785310Y720550D01*
X-777490Y721920D01*
X-774010Y725240D01*
X-774480Y727870D01*
X-778880Y729800D01*
G37*
G36*
G01X469370Y750900D02*
X469310Y750900D01*
X435880Y745030D01*
X438190Y731900D01*
X450500Y727290D01*
X461670Y729250D01*
X471680Y737780D01*
X469370Y750900D01*
G37*
G36*
G01X1142170Y783230D02*
X1142110Y783230D01*
X1134290Y781860D01*
X1130810Y778540D01*
X1131270Y775910D01*
X1135670Y773980D01*
X1143550Y775360D01*
X1142170Y783230D01*
G37*
G36*
G01X1104740Y776670D02*
X1096860Y775290D01*
X1098240Y767420D01*
X1098300Y767420D01*
X1106120Y768790D01*
X1109600Y772110D01*
X1109140Y774740D01*
X1104740Y776670D01*
G37*
G36*
G01X1144750Y768500D02*
X1144690Y768500D01*
X1136870Y767120D01*
X1133400Y763800D01*
X1133860Y761170D01*
X1138260Y759240D01*
X1146140Y760630D01*
X1144750Y768500D01*
G37*
G36*
G01X1107330Y761940D02*
X1099450Y760560D01*
X1100830Y752690D01*
X1100890Y752690D01*
X1108710Y754060D01*
X1112190Y757370D01*
X1111730Y760000D01*
X1107330Y761940D01*
G37*
G36*
G01X-738860Y721630D02*
X-738920Y721630D01*
X-746740Y720250D01*
X-750220Y716930D01*
X-749760Y714300D01*
X-745360Y712370D01*
X-737480Y713760D01*
X-738860Y721630D01*
G37*
G36*
G01X-776290Y715070D02*
X-784170Y713690D01*
X-782790Y705820D01*
X-782730Y705820D01*
X-774910Y707190D01*
X-771430Y710500D01*
X-771890Y713130D01*
X-776290Y715070D01*
G37*
G36*
G01X240110Y710890D02*
X228940Y708930D01*
X218930Y700400D01*
X221240Y687280D01*
X221300Y687280D01*
X254720Y693150D01*
X252420Y706280D01*
X240110Y710890D01*
G37*
G36*
G01X101360Y706920D02*
X90190Y704960D01*
X80180Y696430D01*
X82480Y683310D01*
X82540Y683310D01*
X115970Y689180D01*
X113670Y702310D01*
X101360Y706920D01*
G37*
G36*
G01X31570Y703590D02*
X20400Y701630D01*
X10400Y693100D01*
X12700Y679980D01*
X12760Y679980D01*
X46190Y685850D01*
X43880Y698980D01*
X31570Y703590D01*
G37*
G36*
G01X-110460Y701900D02*
X-121620Y699940D01*
X-131630Y691420D01*
X-129330Y678300D01*
X-129270Y678300D01*
X-95840Y684160D01*
X-98140Y697290D01*
X-110460Y701900D01*
G37*
G36*
G01X-538000Y699860D02*
X-538060Y699860D01*
X-545880Y698480D01*
X-549360Y695160D01*
X-548890Y692530D01*
X-544490Y690610D01*
X-536610Y691990D01*
X-538000Y699860D01*
G37*
G36*
G01X-575430Y693300D02*
X-583300Y691920D01*
X-581920Y684050D01*
X-581860Y684050D01*
X-574040Y685420D01*
X-570560Y688730D01*
X-571020Y691360D01*
X-575430Y693300D01*
G37*
G36*
G01X-535410Y685120D02*
X-535470Y685120D01*
X-543290Y683750D01*
X-546770Y680430D01*
X-546310Y677800D01*
X-541910Y675870D01*
X-534030Y677250D01*
X-535410Y685120D01*
G37*
G36*
G01X-572840Y678560D02*
X-580720Y677180D01*
X-579340Y669310D01*
X-579280Y669310D01*
X-571460Y670680D01*
X-567980Y674000D01*
X-568440Y676630D01*
X-572840Y678560D01*
G37*
G36*
G01X-38630Y700820D02*
X-49800Y698860D01*
X-59800Y690340D01*
X-57500Y677220D01*
X-57440Y677220D01*
X-24010Y683080D01*
X-26310Y696210D01*
X-38630Y700820D01*
G37*
G36*
G01X953220Y708400D02*
X953160Y708400D01*
X945340Y707030D01*
X941860Y703700D01*
X942320Y701070D01*
X946720Y699150D01*
X954600Y700530D01*
X953220Y708400D01*
G37*
G36*
G01X307170Y706100D02*
X296010Y704140D01*
X286000Y695610D01*
X288300Y682490D01*
X288360Y682490D01*
X321790Y688360D01*
X319490Y701490D01*
X307170Y706100D01*
G37*
G36*
G01X915790Y701840D02*
X907910Y700460D01*
X909290Y692590D01*
X909350Y692590D01*
X917170Y693960D01*
X920650Y697270D01*
X920190Y699900D01*
X915790Y701840D01*
G37*
G36*
G01X399550Y694940D02*
X388380Y692980D01*
X378380Y684450D01*
X380680Y671330D01*
X380740Y671330D01*
X414170Y677200D01*
X411870Y690330D01*
X399550Y694940D01*
G37*
G36*
G01X955800Y693660D02*
X955740Y693660D01*
X947930Y692290D01*
X944450Y688970D01*
X944910Y686340D01*
X949310Y684410D01*
X957190Y685790D01*
X955800Y693660D01*
G37*
G36*
G01X468580Y689850D02*
X457410Y687890D01*
X447410Y679370D01*
X449710Y666250D01*
X449770Y666250D01*
X483200Y672110D01*
X480890Y685240D01*
X468580Y689850D01*
G37*
G36*
G01X-318970Y668680D02*
X-319030Y668680D01*
X-326850Y667310D01*
X-330330Y663990D01*
X-329870Y661360D01*
X-325470Y659430D01*
X-317590Y660810D01*
X-318970Y668680D01*
G37*
G36*
G01X-356400Y662130D02*
X-364280Y660740D01*
X-362900Y652870D01*
X-362840Y652870D01*
X-355020Y654250D01*
X-351540Y657560D01*
X-352000Y660190D01*
X-356400Y662130D01*
G37*
G36*
G01X918380Y687110D02*
X910500Y685720D01*
X911880Y677850D01*
X911940Y677850D01*
X919760Y679230D01*
X923240Y682540D01*
X922780Y685170D01*
X918380Y687110D01*
G37*
G36*
G01X-316390Y653950D02*
X-316450Y653950D01*
X-324270Y652580D01*
X-327750Y649260D01*
X-327280Y646630D01*
X-322880Y644700D01*
X-315000Y646080D01*
X-316390Y653950D01*
G37*
G36*
G01X-353820Y647390D02*
X-361690Y646010D01*
X-360310Y638140D01*
X-360250Y638140D01*
X-352430Y639510D01*
X-348950Y642820D01*
X-349410Y645450D01*
X-353820Y647390D01*
G37*
G36*
G01X-103910Y649690D02*
X-103970Y649690D01*
X-111790Y648320D01*
X-115270Y645000D01*
X-114810Y642370D01*
X-110410Y640440D01*
X-102530Y641820D01*
X-103910Y649690D01*
G37*
G36*
G01X-141340Y643130D02*
X-149220Y641750D01*
X-147840Y633880D01*
X-147780Y633880D01*
X-139960Y635250D01*
X-136480Y638560D01*
X-136940Y641190D01*
X-141340Y643130D01*
G37*
G36*
G01X2055180Y642560D02*
X2048330Y638440D01*
X2046270Y634090D01*
X2047650Y631800D01*
X2052450Y631580D01*
X2059300Y635710D01*
X2055180Y642560D01*
G37*
G36*
G01X746350Y640490D02*
X746290Y640490D01*
X738470Y639120D01*
X734990Y635800D01*
X735460Y633170D01*
X739860Y631240D01*
X747740Y632620D01*
X746350Y640490D01*
G37*
G36*
G01X-101330Y634950D02*
X-101390Y634950D01*
X-109210Y633580D01*
X-112690Y630260D01*
X-112220Y627630D01*
X-107820Y625700D01*
X-99950Y627080D01*
X-101330Y634950D01*
G37*
G36*
G01X-138760Y628400D02*
X-146640Y627010D01*
X-145250Y619140D01*
X-145190Y619140D01*
X-137370Y620520D01*
X-133890Y623830D01*
X-134350Y626460D01*
X-138760Y628400D01*
G37*
G36*
G01X708920Y633930D02*
X701040Y632550D01*
X702430Y624680D01*
X702490Y624680D01*
X710310Y626050D01*
X713790Y629370D01*
X713330Y632000D01*
X708920Y633930D01*
G37*
G36*
G01X100940Y631620D02*
X100880Y631620D01*
X93060Y630240D01*
X89590Y626920D01*
X90050Y624290D01*
X94450Y622360D01*
X102330Y623750D01*
X100940Y631620D01*
G37*
G36*
G01X63520Y625060D02*
X55640Y623670D01*
X57020Y615800D01*
X57080Y615800D01*
X64900Y617180D01*
X68380Y620490D01*
X67920Y623120D01*
X63520Y625060D01*
G37*
G36*
G01X2062890Y629740D02*
X2056040Y625620D01*
X2053980Y621270D01*
X2055360Y618980D01*
X2060160Y618760D01*
X2067020Y622890D01*
X2062890Y629740D01*
G37*
G36*
G01X748940Y625760D02*
X748880Y625760D01*
X741060Y624380D01*
X737580Y621060D01*
X738040Y618430D01*
X742440Y616500D01*
X750320Y617890D01*
X748940Y625760D01*
G37*
G36*
G01X711510Y619200D02*
X703630Y617820D01*
X705010Y609950D01*
X705070Y609950D01*
X712890Y611320D01*
X716370Y614630D01*
X715910Y617260D01*
X711510Y619200D01*
G37*
G36*
G01X304870Y618780D02*
X304810Y618780D01*
X296990Y617410D01*
X293510Y614090D01*
X293970Y611460D01*
X298370Y609530D01*
X306250Y610910D01*
X304870Y618780D01*
G37*
G36*
G01X103530Y616880D02*
X103470Y616880D01*
X95650Y615510D01*
X92170Y612190D01*
X92630Y609560D01*
X97030Y607630D01*
X104910Y609010D01*
X103530Y616880D01*
G37*
G36*
G01X66100Y610320D02*
X58220Y608940D01*
X59600Y601070D01*
X59660Y601070D01*
X67480Y602440D01*
X70960Y605750D01*
X70500Y608380D01*
X66100Y610320D01*
G37*
G36*
G01X267440Y612220D02*
X259560Y610840D01*
X260950Y602970D01*
X261010Y602970D01*
X268830Y604340D01*
X272310Y607650D01*
X271840Y610280D01*
X267440Y612220D01*
G37*
G36*
G01X507850Y610640D02*
X507790Y610640D01*
X499970Y609270D01*
X496500Y605950D01*
X496960Y603320D01*
X501360Y601390D01*
X509240Y602770D01*
X507850Y610640D01*
G37*
G36*
G01X470430Y604080D02*
X462550Y602700D01*
X463930Y594830D01*
X463990Y594830D01*
X471810Y596200D01*
X475290Y599510D01*
X474830Y602140D01*
X470430Y604080D01*
G37*
G36*
G01X307460Y604040D02*
X307400Y604040D01*
X299580Y602670D01*
X296100Y599350D01*
X296560Y596720D01*
X300960Y594790D01*
X308840Y596170D01*
X307460Y604040D01*
G37*
G36*
G01X270030Y597490D02*
X262150Y596100D01*
X263530Y588230D01*
X263590Y588230D01*
X271410Y589610D01*
X274890Y592920D01*
X274430Y595550D01*
X270030Y597490D01*
G37*
G36*
G01X2022620Y622980D02*
X2015760Y618850D01*
X2019890Y612000D01*
X2026740Y616120D01*
X2028800Y620460D01*
X2027420Y622750D01*
X2022620Y622980D01*
G37*
G36*
G01X2030330Y610160D02*
X2023470Y606030D01*
X2027600Y599180D01*
X2034450Y603300D01*
X2036510Y607640D01*
X2035130Y609930D01*
X2030330Y610160D01*
G37*
G36*
G01X510440Y595900D02*
X510380Y595900D01*
X502560Y594530D01*
X499080Y591210D01*
X499540Y588580D01*
X503940Y586650D01*
X511820Y588040D01*
X510440Y595900D01*
G37*
G36*
G01X473010Y589350D02*
X465130Y587960D01*
X466510Y580090D01*
X466570Y580090D01*
X474390Y581470D01*
X477870Y584780D01*
X477410Y587410D01*
X473010Y589350D01*
G37*
G36*
G01X1844510Y531390D02*
X1837520Y527510D01*
X1835310Y523230D01*
X1836610Y520900D01*
X1841400Y520510D01*
X1848390Y524400D01*
X1844510Y531390D01*
G37*
G36*
G01X-1588790Y529750D02*
X-1594300Y477040D01*
X-1577390Y475270D01*
X-1571880Y527980D01*
X-1588790Y529750D01*
G37*
G36*
G01X-1967530Y522400D02*
X-1967670Y522400D01*
X-1980830Y521480D01*
X-1986690Y509700D01*
X-1985890Y498390D01*
X-1978440Y487550D01*
X-1965140Y488490D01*
X-1967530Y522400D01*
G37*
G36*
G01X-2034040Y517720D02*
X-2047330Y516790D01*
X-2044950Y482890D01*
X-2044810Y482890D01*
X-2031650Y483810D01*
X-2025790Y495580D01*
X-2026590Y506890D01*
X-2034040Y517720D01*
G37*
G36*
G01X-1857270Y479330D02*
X-1857410Y479330D01*
X-1870570Y478400D01*
X-1876430Y466630D01*
X-1875630Y455320D01*
X-1868180Y444480D01*
X-1854880Y445420D01*
X-1857270Y479330D01*
G37*
G36*
G01X-1923780Y474650D02*
X-1937070Y473720D01*
X-1934680Y439820D01*
X-1934540Y439820D01*
X-1921380Y440740D01*
X-1915530Y452510D01*
X-1916320Y463820D01*
X-1923780Y474650D01*
G37*
G36*
G01X-2079200Y461830D02*
X-2080030Y453870D01*
X-2072070Y453040D01*
X-2067820Y455270D01*
X-2067540Y457930D01*
X-2071240Y461000D01*
X-2079200Y461830D01*
G37*
G36*
G01X-2041400Y457870D02*
X-2045660Y455640D01*
X-2045940Y452980D01*
X-2042240Y449920D01*
X-2034280Y449080D01*
X-2033450Y457040D01*
X-2041400Y457870D01*
G37*
G36*
G01X-2080750Y446950D02*
X-2081590Y438990D01*
X-2073630Y438160D01*
X-2069370Y440390D01*
X-2069100Y443050D01*
X-2072800Y446120D01*
X-2080750Y446950D01*
G37*
G36*
G01X-2042960Y443000D02*
X-2047220Y440760D01*
X-2047490Y438100D01*
X-2043790Y435040D01*
X-2035840Y434210D01*
X-2035000Y442160D01*
X-2042960Y443000D01*
G37*
G36*
G01X-1526630Y523250D02*
X-1532140Y470530D01*
X-1515230Y468760D01*
X-1509720Y521480D01*
X-1526630Y523250D01*
G37*
G36*
G01X1851770Y518310D02*
X1844770Y514430D01*
X1842570Y510150D01*
X1843870Y507820D01*
X1848660Y507430D01*
X1855650Y511310D01*
X1851770Y518310D01*
G37*
G36*
G01X1811280Y512950D02*
X1804290Y509070D01*
X1808170Y502080D01*
X1815170Y505960D01*
X1817370Y510230D01*
X1816080Y512560D01*
X1811280Y512950D01*
G37*
G36*
G01X1818540Y499870D02*
X1811550Y495990D01*
X1815430Y489000D01*
X1822420Y492880D01*
X1824630Y497140D01*
X1823340Y499480D01*
X1818540Y499870D01*
G37*
G36*
G01X-1572710Y462410D02*
X-1576040Y430590D01*
X-1564100Y429340D01*
X-1560770Y461160D01*
X-1572710Y462410D01*
G37*
G36*
G01X-1751800Y438650D02*
X-1751940Y438650D01*
X-1765100Y437730D01*
X-1770960Y425950D01*
X-1770160Y414640D01*
X-1762710Y403800D01*
X-1749410Y404740D01*
X-1751800Y438650D01*
G37*
G36*
G01X-1818310Y433970D02*
X-1831600Y433040D01*
X-1829210Y399140D01*
X-1829070Y399140D01*
X-1815920Y400060D01*
X-1810060Y411830D01*
X-1810860Y423140D01*
X-1818310Y433970D01*
G37*
G36*
G01X-1552820Y460330D02*
X-1556150Y428500D01*
X-1544210Y427260D01*
X-1540880Y459080D01*
X-1552820Y460330D01*
G37*
G36*
G01X1637190Y444290D02*
X1637170Y444290D01*
X1629890Y441050D01*
X1627320Y436980D01*
X1628410Y434540D01*
X1633140Y433740D01*
X1640450Y437000D01*
X1637190Y444290D01*
G37*
G36*
G01X1643280Y430630D02*
X1643260Y430630D01*
X1635980Y427380D01*
X1633410Y423310D01*
X1634500Y420880D01*
X1639240Y420070D01*
X1646540Y423330D01*
X1643280Y430630D01*
G37*
G36*
G01X1602490Y428830D02*
X1595180Y425570D01*
X1598440Y418280D01*
X1598460Y418280D01*
X1605740Y421520D01*
X1608310Y425580D01*
X1607230Y428020D01*
X1602490Y428830D01*
G37*
G36*
G01X1608580Y415170D02*
X1601270Y411910D01*
X1604530Y404610D01*
X1604550Y404610D01*
X1611830Y407860D01*
X1614400Y411920D01*
X1613320Y414360D01*
X1608580Y415170D01*
G37*
G36*
G01X-1580770Y413740D02*
X-1582100Y401110D01*
X-1571990Y400050D01*
X-1566500Y403740D01*
X-1566060Y407950D01*
X-1570670Y412680D01*
X-1580770Y413740D01*
G37*
G36*
G01X-1552990Y410830D02*
X-1558480Y407150D01*
X-1558920Y402950D01*
X-1554310Y398200D01*
X-1544200Y397140D01*
X-1542880Y409770D01*
X-1552990Y410830D01*
G37*
G36*
G01X-1643220Y388500D02*
X-1643360Y388500D01*
X-1656520Y387580D01*
X-1662380Y375810D01*
X-1661580Y364490D01*
X-1654130Y353660D01*
X-1640830Y354600D01*
X-1643220Y388500D01*
G37*
G36*
G01X-1709730Y383830D02*
X-1723020Y382900D01*
X-1720630Y348990D01*
X-1720490Y348990D01*
X-1707340Y349920D01*
X-1701480Y361690D01*
X-1702280Y372990D01*
X-1709730Y383830D01*
G37*
G36*
G01X-1887560Y382200D02*
X-1888400Y374240D01*
X-1880440Y373410D01*
X-1876180Y375640D01*
X-1875910Y378300D01*
X-1879610Y381370D01*
X-1887560Y382200D01*
G37*
G36*
G01X-1849770Y378250D02*
X-1854030Y376010D01*
X-1854300Y373350D01*
X-1850600Y370290D01*
X-1842650Y369460D01*
X-1841810Y377410D01*
X-1849770Y378250D01*
G37*
G36*
G01X-1889120Y367320D02*
X-1889950Y359370D01*
X-1882000Y358530D01*
X-1877740Y360760D01*
X-1877460Y363420D01*
X-1881160Y366490D01*
X-1889120Y367320D01*
G37*
G36*
G01X-1851330Y363370D02*
X-1855580Y361130D01*
X-1855860Y358470D01*
X-1852160Y355410D01*
X-1844200Y354580D01*
X-1843370Y362530D01*
X-1851330Y363370D01*
G37*
G36*
G01X-1591140Y379270D02*
X-1593780Y354010D01*
X-1583680Y352950D01*
X-1577740Y360850D01*
X-1576860Y369260D01*
X-1581030Y378210D01*
X-1591140Y379270D01*
G37*
G36*
G01X-1551980Y375170D02*
X-1557920Y367280D01*
X-1558800Y358860D01*
X-1554630Y349910D01*
X-1544520Y348850D01*
X-1541880Y374120D01*
X-1551980Y375170D01*
G37*
G36*
G01X1391470Y362860D02*
X1390640Y354910D01*
X1398600Y354080D01*
X1402850Y356300D01*
X1403130Y358960D01*
X1399430Y362030D01*
X1391470Y362860D01*
G37*
G36*
G01X1429270Y358910D02*
X1425010Y356670D01*
X1424730Y354010D01*
X1428440Y350950D01*
X1436390Y350120D01*
X1437220Y358080D01*
X1429270Y358910D01*
G37*
G36*
G01X1389920Y347990D02*
X1389080Y340030D01*
X1397040Y339200D01*
X1401300Y341430D01*
X1401570Y344080D01*
X1397870Y347150D01*
X1389920Y347990D01*
G37*
G36*
G01X1427710Y344030D02*
X1423450Y341790D01*
X1423180Y339140D01*
X1426880Y336070D01*
X1434830Y335240D01*
X1435670Y343200D01*
X1427710Y344030D01*
G37*
G36*
G01X-1449630Y313060D02*
X-1449770Y313060D01*
X-1462930Y312140D01*
X-1468790Y300370D01*
X-1467990Y289050D01*
X-1460540Y278220D01*
X-1447240Y279160D01*
X-1449630Y313060D01*
G37*
G36*
G01X-1516140Y308390D02*
X-1529430Y307460D01*
X-1527040Y273560D01*
X-1526900Y273560D01*
X-1513750Y274480D01*
X-1507890Y286250D01*
X-1508690Y297560D01*
X-1516140Y308390D01*
G37*
G36*
G01X-1695190Y307270D02*
X-1696020Y299310D01*
X-1688060Y298480D01*
X-1683810Y300710D01*
X-1683530Y303370D01*
X-1687230Y306440D01*
X-1695190Y307270D01*
G37*
G36*
G01X-1657390Y303320D02*
X-1661650Y301080D01*
X-1661930Y298420D01*
X-1658230Y295360D01*
X-1650270Y294530D01*
X-1649440Y302480D01*
X-1657390Y303320D01*
G37*
G36*
G01X-1696750Y292390D02*
X-1697580Y284430D01*
X-1689620Y283600D01*
X-1685370Y285830D01*
X-1685090Y288490D01*
X-1688790Y291560D01*
X-1696750Y292390D01*
G37*
G36*
G01X-1658950Y288440D02*
X-1663210Y286200D01*
X-1663490Y283540D01*
X-1659780Y280480D01*
X-1651830Y279650D01*
X-1650990Y287600D01*
X-1658950Y288440D01*
G37*
G36*
G01X1184650Y297050D02*
X1183820Y289100D01*
X1191770Y288260D01*
X1196030Y290490D01*
X1196310Y293150D01*
X1192610Y296220D01*
X1184650Y297050D01*
G37*
G36*
G01X1222440Y293100D02*
X1218190Y290860D01*
X1217910Y288200D01*
X1221610Y285140D01*
X1229570Y284310D01*
X1230400Y292270D01*
X1222440Y293100D01*
G37*
G36*
G01X1183090Y282180D02*
X1182260Y274220D01*
X1190220Y273390D01*
X1194470Y275620D01*
X1194750Y278270D01*
X1191050Y281340D01*
X1183090Y282180D01*
G37*
G36*
G01X1220890Y278220D02*
X1216630Y275980D01*
X1216350Y273330D01*
X1220050Y270260D01*
X1228010Y269430D01*
X1228840Y277390D01*
X1220890Y278220D01*
G37*
G36*
G01X-1313820Y261010D02*
X-1313960Y261010D01*
X-1327120Y260090D01*
X-1332980Y248320D01*
X-1332180Y237000D01*
X-1324730Y226170D01*
X-1311430Y227110D01*
X-1313820Y261010D01*
G37*
G36*
G01X-1380330Y256340D02*
X-1393620Y255410D01*
X-1391230Y221510D01*
X-1391090Y221510D01*
X-1377940Y222430D01*
X-1372080Y234200D01*
X-1372880Y245510D01*
X-1380330Y256340D01*
G37*
G36*
G01X-1502850Y236370D02*
X-1503690Y228410D01*
X-1495730Y227580D01*
X-1491470Y229810D01*
X-1491200Y232460D01*
X-1494900Y235530D01*
X-1502850Y236370D01*
G37*
G36*
G01X-1465060Y232410D02*
X-1469320Y230170D01*
X-1469590Y227520D01*
X-1465890Y224450D01*
X-1457940Y223620D01*
X-1457100Y231580D01*
X-1465060Y232410D01*
G37*
G36*
G01X978960Y240200D02*
X978120Y232240D01*
X986080Y231410D01*
X990330Y233640D01*
X990610Y236290D01*
X986910Y239360D01*
X978960Y240200D01*
G37*
G36*
G01X-1272640Y237690D02*
X-1276180Y203880D01*
X-1262930Y202490D01*
X-1255110Y213060D01*
X-1253930Y224340D01*
X-1259390Y236300D01*
X-1272640Y237690D01*
G37*
G36*
G01X-1504410Y221490D02*
X-1505240Y213530D01*
X-1497290Y212700D01*
X-1493030Y214930D01*
X-1492750Y217580D01*
X-1496450Y220650D01*
X-1504410Y221490D01*
G37*
G36*
G01X-1466620Y217530D02*
X-1470870Y215290D01*
X-1471150Y212640D01*
X-1467450Y209580D01*
X-1459490Y208740D01*
X-1458660Y216700D01*
X-1466620Y217530D01*
G37*
G36*
G01X1016750Y236240D02*
X1012490Y234000D01*
X1012210Y231350D01*
X1015920Y228280D01*
X1023870Y227450D01*
X1024710Y235410D01*
X1016750Y236240D01*
G37*
G36*
G01X-1206340Y230750D02*
X-1214150Y220180D01*
X-1215330Y208900D01*
X-1209880Y196940D01*
X-1196620Y195550D01*
X-1193080Y229370D01*
X-1206340Y230750D01*
G37*
G36*
G01X977400Y225320D02*
X976570Y217360D01*
X984520Y216530D01*
X988780Y218760D01*
X989060Y221410D01*
X985350Y224480D01*
X977400Y225320D01*
G37*
G36*
G01X1015190Y221360D02*
X1010940Y219120D01*
X1010660Y216470D01*
X1014360Y213400D01*
X1022320Y212570D01*
X1023150Y220530D01*
X1015190Y221360D01*
G37*
G36*
G01X-1162130Y199950D02*
X-1165670Y166140D01*
X-1152410Y164750D01*
X-1144600Y175330D01*
X-1143420Y186600D01*
X-1148880Y198570D01*
X-1162130Y199950D01*
G37*
G36*
G01X-1309900Y169060D02*
X-1310730Y161100D01*
X-1302780Y160270D01*
X-1298520Y162500D01*
X-1298240Y165150D01*
X-1301940Y168220D01*
X-1309900Y169060D01*
G37*
G36*
G01X-1272110Y165100D02*
X-1276360Y162860D01*
X-1276640Y160210D01*
X-1272940Y157150D01*
X-1264980Y156310D01*
X-1264150Y164270D01*
X-1272110Y165100D01*
G37*
G36*
G01X-1095830Y193020D02*
X-1103640Y182440D01*
X-1104820Y171160D01*
X-1099360Y159200D01*
X-1086110Y157810D01*
X-1082570Y191630D01*
X-1095830Y193020D01*
G37*
G36*
G01X770370Y188490D02*
X769540Y180530D01*
X777490Y179700D01*
X781750Y181930D01*
X782030Y184580D01*
X778330Y187650D01*
X770370Y188490D01*
G37*
G36*
G01X808160Y184530D02*
X803910Y182290D01*
X803630Y179640D01*
X807330Y176570D01*
X815290Y175740D01*
X816120Y183700D01*
X808160Y184530D01*
G37*
G36*
G01X768810Y173610D02*
X767980Y165650D01*
X775940Y164820D01*
X780190Y167050D01*
X780470Y169700D01*
X776770Y172770D01*
X768810Y173610D01*
G37*
G36*
G01X133490Y171670D02*
X132100Y158420D01*
X142680Y150600D01*
X153960Y149420D01*
X165920Y154880D01*
X167310Y168140D01*
X133490Y171670D01*
G37*
G36*
G01X61910Y165610D02*
X60520Y152350D01*
X71100Y144540D01*
X82380Y143360D01*
X94340Y148810D01*
X95730Y162070D01*
X61910Y165610D01*
G37*
G36*
G01X-1046280Y165130D02*
X-1049820Y131310D01*
X-1036560Y129920D01*
X-1028750Y140500D01*
X-1027570Y151780D01*
X-1033020Y163740D01*
X-1046280Y165130D01*
G37*
G36*
G01X-1311460Y154180D02*
X-1312290Y146220D01*
X-1304330Y145390D01*
X-1300080Y147620D01*
X-1299800Y150270D01*
X-1303500Y153350D01*
X-1311460Y154180D01*
G37*
G36*
G01X-1273660Y150220D02*
X-1277920Y147980D01*
X-1278200Y145330D01*
X-1274500Y142270D01*
X-1266540Y141430D01*
X-1265710Y149390D01*
X-1273660Y150220D01*
G37*
G36*
G01X-8310Y163500D02*
X-9700Y150240D01*
X880Y142430D01*
X12150Y141250D01*
X24120Y146700D01*
X25510Y159960D01*
X-8310Y163500D01*
G37*
G36*
G01X-78160Y161980D02*
X-79550Y148720D01*
X-68970Y140910D01*
X-57690Y139730D01*
X-45730Y145180D01*
X-44340Y158440D01*
X-78160Y161980D01*
G37*
G36*
G01X-979970Y158190D02*
X-987780Y147610D01*
X-988960Y136330D01*
X-983510Y124370D01*
X-970250Y122980D01*
X-966710Y156800D01*
X-979970Y158190D01*
G37*
G36*
G01X-216850Y156320D02*
X-218240Y143060D01*
X-207660Y135250D01*
X-196390Y134070D01*
X-184420Y139520D01*
X-183040Y152780D01*
X-216850Y156320D01*
G37*
G36*
G01X-283420Y146880D02*
X-284810Y133630D01*
X-274240Y125810D01*
X-262960Y124630D01*
X-251000Y130090D01*
X-249610Y143350D01*
X-283420Y146880D01*
G37*
G36*
G01X-374810Y129340D02*
X-376190Y116080D01*
X-365620Y108270D01*
X-354340Y107090D01*
X-342380Y112540D01*
X-340990Y125800D01*
X-374810Y129340D01*
G37*
G36*
G01X-936790Y120100D02*
X-939150Y86180D01*
X-925850Y85260D01*
X-918410Y96100D01*
X-917620Y107410D01*
X-923490Y119170D01*
X-936790Y120100D01*
G37*
G36*
G01X-1116620Y105080D02*
X-1117450Y97120D01*
X-1109500Y96290D01*
X-1105240Y98520D01*
X-1104960Y101180D01*
X-1108660Y104250D01*
X-1116620Y105080D01*
G37*
G36*
G01X-1078830Y101130D02*
X-1083080Y98890D01*
X-1083360Y96230D01*
X-1079660Y93170D01*
X-1071700Y92340D01*
X-1070870Y100290D01*
X-1078830Y101130D01*
G37*
G36*
G01X-1118180Y90200D02*
X-1119010Y82250D01*
X-1111050Y81410D01*
X-1106800Y83640D01*
X-1106520Y86300D01*
X-1110220Y89370D01*
X-1118180Y90200D01*
G37*
G36*
G01X-1080380Y86250D02*
X-1084640Y84010D01*
X-1084920Y81350D01*
X-1081220Y78290D01*
X-1073260Y77460D01*
X-1072430Y85410D01*
X-1080380Y86250D01*
G37*
G36*
G01X-443320Y119480D02*
X-444700Y106220D01*
X-434130Y98410D01*
X-422850Y97230D01*
X-410890Y102680D01*
X-409500Y115940D01*
X-443320Y119480D01*
G37*
G36*
G01X-870280Y115480D02*
X-877720Y104640D01*
X-878510Y93320D01*
X-872640Y81560D01*
X-859340Y80640D01*
X-856980Y114550D01*
X-870280Y115480D01*
G37*
G36*
G01X806610Y169650D02*
X802350Y167410D01*
X802070Y164760D01*
X805770Y161690D01*
X813730Y160860D01*
X814560Y168820D01*
X806610Y169650D01*
G37*
G36*
G01X561910Y138790D02*
X561070Y130840D01*
X569030Y130000D01*
X573280Y132230D01*
X573560Y134890D01*
X569860Y137960D01*
X561910Y138790D01*
G37*
G36*
G01X599700Y134840D02*
X595440Y132600D01*
X595170Y129940D01*
X598870Y126880D01*
X606820Y126050D01*
X607660Y134010D01*
X599700Y134840D01*
G37*
G36*
G01X560350Y123910D02*
X559520Y115960D01*
X567470Y115130D01*
X571730Y117350D01*
X572010Y120010D01*
X568300Y123080D01*
X560350Y123910D01*
G37*
G36*
G01X598140Y119960D02*
X593890Y117720D01*
X593610Y115070D01*
X597310Y112000D01*
X605270Y111170D01*
X606100Y119130D01*
X598140Y119960D01*
G37*
G36*
G01X138510Y110820D02*
X126550Y105370D01*
X125160Y92110D01*
X158980Y88570D01*
X160370Y101830D01*
X149790Y109640D01*
X138510Y110820D01*
G37*
G36*
G01X66930Y104760D02*
X54970Y99300D01*
X53580Y86050D01*
X87400Y82510D01*
X88790Y95760D01*
X78210Y103580D01*
X66930Y104760D01*
G37*
G36*
G01X-3290Y102650D02*
X-15250Y97190D01*
X-16640Y83930D01*
X17180Y80400D01*
X18570Y93650D01*
X7990Y101470D01*
X-3290Y102650D01*
G37*
G36*
G01X-73130Y101130D02*
X-85100Y95670D01*
X-86480Y82420D01*
X-52670Y78880D01*
X-51280Y92130D01*
X-61860Y99950D01*
X-73130Y101130D01*
G37*
G36*
G01X-211830Y95460D02*
X-223790Y90010D01*
X-225180Y76750D01*
X-191360Y73210D01*
X-189970Y86470D01*
X-200550Y94280D01*
X-211830Y95460D01*
G37*
G36*
G01X-278400Y86030D02*
X-290360Y80580D01*
X-291750Y67320D01*
X-257940Y63780D01*
X-256550Y77040D01*
X-267120Y84850D01*
X-278400Y86030D01*
G37*
G36*
G01X-369780Y68490D02*
X-381750Y63030D01*
X-383130Y49780D01*
X-349320Y46240D01*
X-347930Y59490D01*
X-358500Y67310D01*
X-369780Y68490D01*
G37*
G36*
G01X-438290Y58620D02*
X-450250Y53170D01*
X-451640Y39910D01*
X-417830Y36370D01*
X-416440Y49630D01*
X-427010Y57440D01*
X-438290Y58620D01*
G37*
G36*
G01X-923100Y43500D02*
X-923930Y35550D01*
X-915970Y34710D01*
X-911720Y36940D01*
X-911440Y39600D01*
X-915140Y42670D01*
X-923100Y43500D01*
G37*
G36*
G01X-885300Y39550D02*
X-889560Y37310D01*
X-889840Y34650D01*
X-886140Y31590D01*
X-878180Y30760D01*
X-877350Y38720D01*
X-885300Y39550D01*
G37*
G36*
G01X349670Y92080D02*
X348840Y84120D01*
X356790Y83290D01*
X361050Y85520D01*
X361330Y88180D01*
X357630Y91250D01*
X349670Y92080D01*
G37*
G36*
G01X387460Y88130D02*
X383210Y85890D01*
X382930Y83230D01*
X386630Y80170D01*
X394590Y79340D01*
X395420Y87290D01*
X387460Y88130D01*
G37*
G36*
G01X348110Y77200D02*
X347280Y69250D01*
X355240Y68410D01*
X359490Y70640D01*
X359770Y73300D01*
X356070Y76370D01*
X348110Y77200D01*
G37*
G36*
G01X385910Y73250D02*
X381650Y71010D01*
X381370Y68350D01*
X385070Y65290D01*
X393030Y64460D01*
X393860Y72410D01*
X385910Y73250D01*
G37*
G36*
G01X135850Y58260D02*
X135020Y50310D01*
X142970Y49470D01*
X147230Y51700D01*
X147510Y54360D01*
X143810Y57430D01*
X135850Y58260D01*
G37*
G36*
G01X173640Y54310D02*
X169390Y52070D01*
X169110Y49410D01*
X172810Y46350D01*
X180770Y45520D01*
X181600Y53470D01*
X173640Y54310D01*
G37*
G36*
G01X1961960Y45010D02*
X1961930Y11010D01*
X1975260Y11000D01*
X1981940Y22320D01*
X1981950Y33670D01*
X1975290Y45000D01*
X1961960Y45010D01*
G37*
G36*
G01X134290Y43380D02*
X133460Y35430D01*
X141420Y34590D01*
X145670Y36820D01*
X145950Y39480D01*
X142250Y42550D01*
X134290Y43380D01*
G37*
G36*
G01X172090Y39430D02*
X167830Y37190D01*
X167550Y34530D01*
X171250Y31470D01*
X179210Y30640D01*
X180040Y38600D01*
X172090Y39430D01*
G37*
G36*
G01X1582910Y29460D02*
X1582850Y29460D01*
X1566170Y26540D01*
X1575330Y-25660D01*
X1575390Y-25660D01*
X1592070Y-22730D01*
X1582910Y29460D01*
G37*
G36*
G01X-924660Y28620D02*
X-925490Y20670D01*
X-917530Y19840D01*
X-913280Y22060D01*
X-913000Y24720D01*
X-916700Y27790D01*
X-924660Y28620D01*
G37*
G36*
G01X-67430Y26040D02*
X-68260Y18080D01*
X-60310Y17250D01*
X-56050Y19480D01*
X-55770Y22130D01*
X-59470Y25200D01*
X-67430Y26040D01*
G37*
G36*
G01X-886860Y24670D02*
X-891120Y22430D01*
X-891400Y19770D01*
X-887690Y16710D01*
X-879740Y15880D01*
X-878910Y23840D01*
X-886860Y24670D01*
G37*
G36*
G01X-29640Y22080D02*
X-33890Y19840D01*
X-34170Y17190D01*
X-30470Y14120D01*
X-22510Y13290D01*
X-21680Y21250D01*
X-29640Y22080D01*
G37*
G36*
G01X1521350Y18660D02*
X1521290Y18660D01*
X1504610Y15730D01*
X1513770Y-36460D01*
X1513830Y-36460D01*
X1530510Y-33530D01*
X1521350Y18660D01*
G37*
G36*
G01X-68990Y11160D02*
X-69820Y3200D01*
X-61860Y2370D01*
X-57610Y4600D01*
X-57330Y7250D01*
X-61030Y10320D01*
X-68990Y11160D01*
G37*
G36*
G01X-31190Y7200D02*
X-35450Y4960D01*
X-35730Y2310D01*
X-32030Y-750D01*
X-24070Y-1590D01*
X-23240Y6370D01*
X-31190Y7200D01*
G37*
G36*
G01X-270160Y-900D02*
X-271000Y-8860D01*
X-263040Y-9690D01*
X-258790Y-7460D01*
X-258510Y-4800D01*
X-262210Y-1730D01*
X-270160Y-900D01*
G37*
G36*
G01X-232370Y-4850D02*
X-236630Y-7090D01*
X-236900Y-9750D01*
X-233200Y-12810D01*
X-225250Y-13640D01*
X-224410Y-5690D01*
X-232370Y-4850D01*
G37*
G36*
G01X-711870Y-9890D02*
X-712700Y-17850D01*
X-704750Y-18680D01*
X-700490Y-16450D01*
X-700210Y-13800D01*
X-703910Y-10730D01*
X-711870Y-9890D01*
G37*
G36*
G01X-674080Y-13850D02*
X-678330Y-16090D01*
X-678610Y-18740D01*
X-674910Y-21800D01*
X-666950Y-22640D01*
X-666120Y-14680D01*
X-674080Y-13850D01*
G37*
G36*
G01X-271720Y-15780D02*
X-272550Y-23730D01*
X-264600Y-24570D01*
X-260340Y-22340D01*
X-260060Y-19680D01*
X-263760Y-16610D01*
X-271720Y-15780D01*
G37*
G36*
G01X-471900Y-23120D02*
X-472740Y-31080D01*
X-464780Y-31910D01*
X-460520Y-29680D01*
X-460250Y-27030D01*
X-463950Y-23950D01*
X-471900Y-23120D01*
G37*
G36*
G01X-713430Y-24770D02*
X-714260Y-32730D01*
X-706300Y-33560D01*
X-702050Y-31330D01*
X-701770Y-28680D01*
X-705470Y-25600D01*
X-713430Y-24770D01*
G37*
G36*
G01X-675630Y-28730D02*
X-679890Y-30970D01*
X-680170Y-33620D01*
X-676470Y-36680D01*
X-668510Y-37520D01*
X-667680Y-29560D01*
X-675630Y-28730D01*
G37*
G36*
G01X-233930Y-19730D02*
X-238180Y-21970D01*
X-238460Y-24630D01*
X-234760Y-27690D01*
X-226800Y-28520D01*
X-225970Y-20570D01*
X-233930Y-19730D01*
G37*
G36*
G01X-434110Y-27080D02*
X-438370Y-29320D01*
X-438640Y-31970D01*
X-434940Y-35030D01*
X-426990Y-35870D01*
X-426150Y-27910D01*
X-434110Y-27080D01*
G37*
G36*
G01X2041960Y44950D02*
X2028640Y44950D01*
X2021950Y33630D01*
X2021940Y22300D01*
X2028600Y10960D01*
X2041930Y10950D01*
X2041960Y44950D01*
G37*
G36*
G01X1868280Y-5610D02*
X1854950Y-5610D01*
X1854920Y-39600D01*
X1868250Y-39620D01*
X1874930Y-28290D01*
X1874940Y-16950D01*
X1868280Y-5610D01*
G37*
G36*
G01X-473460Y-38000D02*
X-474290Y-45960D01*
X-466340Y-46790D01*
X-462080Y-44560D01*
X-461800Y-41900D01*
X-465500Y-38830D01*
X-473460Y-38000D01*
G37*
G36*
G01X1571540Y-38830D02*
X1571480Y-38830D01*
X1559720Y-40890D01*
X1565250Y-72400D01*
X1565310Y-72400D01*
X1577070Y-70340D01*
X1571540Y-38830D01*
G37*
G36*
G01X-435670Y-41960D02*
X-439920Y-44190D01*
X-440200Y-46850D01*
X-436500Y-49910D01*
X-428540Y-50740D01*
X-427710Y-42790D01*
X-435670Y-41960D01*
G37*
G36*
G01X1551840Y-42290D02*
X1551780Y-42290D01*
X1540020Y-44350D01*
X1545550Y-75860D01*
X1545610Y-75860D01*
X1557370Y-73800D01*
X1551840Y-42290D01*
G37*
G36*
G01X1921620Y-5660D02*
X1914940Y-16990D01*
X1914930Y-28320D01*
X1921590Y-39660D01*
X1934920Y-39670D01*
X1934950Y-5670D01*
X1921620Y-5660D01*
G37*
G36*
G01X2077480Y-7630D02*
X2077420Y-7630D01*
X2069600Y-9000D01*
X2066120Y-12320D01*
X2066580Y-14950D01*
X2070980Y-16880D01*
X2078860Y-15500D01*
X2077480Y-7630D01*
G37*
G36*
G01X2040050Y-14180D02*
X2032170Y-15570D01*
X2033550Y-23440D01*
X2033610Y-23440D01*
X2041430Y-22060D01*
X2044910Y-18750D01*
X2044450Y-16120D01*
X2040050Y-14180D01*
G37*
G36*
G01X2080060Y-22360D02*
X2080000Y-22360D01*
X2072180Y-23730D01*
X2068710Y-27050D01*
X2069170Y-29680D01*
X2073570Y-31610D01*
X2081450Y-30230D01*
X2080060Y-22360D01*
G37*
G36*
G01X2042640Y-28920D02*
X2034760Y-30300D01*
X2036140Y-38170D01*
X2036200Y-38170D01*
X2044020Y-36800D01*
X2047500Y-33490D01*
X2047040Y-30860D01*
X2042640Y-28920D01*
G37*
G36*
G01X1765890Y-53510D02*
X1752560Y-53510D01*
X1752530Y-87500D01*
X1765860Y-87520D01*
X1772540Y-76190D01*
X1772550Y-64850D01*
X1765890Y-53510D01*
G37*
G36*
G01X1819230Y-53560D02*
X1812550Y-64890D01*
X1812540Y-76220D01*
X1819200Y-87560D01*
X1832530Y-87570D01*
X1832550Y-53570D01*
X1819230Y-53560D01*
G37*
G36*
G01X1585330Y-96350D02*
X1585270Y-96350D01*
X1575320Y-98100D01*
X1571050Y-103150D01*
X1571780Y-107310D01*
X1577510Y-110610D01*
X1587520Y-108850D01*
X1585330Y-96350D01*
G37*
G36*
G01X1557810Y-101170D02*
X1547800Y-102930D01*
X1550000Y-115430D01*
X1550060Y-115430D01*
X1560000Y-113680D01*
X1564270Y-108630D01*
X1563540Y-104460D01*
X1557810Y-101170D01*
G37*
G36*
G01X1892010Y-100480D02*
X1891950Y-100480D01*
X1884130Y-101850D01*
X1880650Y-105170D01*
X1881110Y-107800D01*
X1885510Y-109730D01*
X1893390Y-108350D01*
X1892010Y-100480D01*
G37*
G36*
G01X1854580Y-107040D02*
X1846700Y-108420D01*
X1848080Y-116290D01*
X1848140Y-116290D01*
X1855960Y-114920D01*
X1859440Y-111610D01*
X1858980Y-108980D01*
X1854580Y-107040D01*
G37*
G36*
G01X1647720Y-111060D02*
X1647690Y-145060D01*
X1661020Y-145080D01*
X1667700Y-133750D01*
X1667710Y-122410D01*
X1661050Y-111070D01*
X1647720Y-111060D01*
G37*
G36*
G01X-2059350Y-116650D02*
X-2062980Y-123770D01*
X-2055860Y-127410D01*
X-2051090Y-126860D01*
X-2049870Y-124480D01*
X-2052220Y-120280D01*
X-2059350Y-116650D01*
G37*
G36*
G01X1596990Y-129220D02*
X1596930Y-129220D01*
X1586990Y-130970D01*
X1583450Y-140190D01*
X1584910Y-148520D01*
X1591380Y-155990D01*
X1601380Y-154230D01*
X1596990Y-129220D01*
G37*
G36*
G01X-2066150Y-129970D02*
X-2069790Y-137100D01*
X-2062660Y-140730D01*
X-2057890Y-140180D01*
X-2056680Y-137800D01*
X-2059020Y-133610D01*
X-2066150Y-129970D01*
G37*
G36*
G01X-2025500Y-133930D02*
X-2030280Y-134480D01*
X-2031490Y-136860D01*
X-2029140Y-141050D01*
X-2022020Y-144690D01*
X-2018380Y-137560D01*
X-2025500Y-133930D01*
G37*
G36*
G01X1558220Y-136020D02*
X1548210Y-137770D01*
X1552600Y-162780D01*
X1552660Y-162780D01*
X1562610Y-161040D01*
X1566150Y-151810D01*
X1564680Y-143480D01*
X1558220Y-136020D01*
G37*
G36*
G01X-2032310Y-147250D02*
X-2037080Y-147810D01*
X-2038300Y-150190D01*
X-2035940Y-154370D01*
X-2028820Y-158010D01*
X-2025180Y-150890D01*
X-2032310Y-147250D01*
G37*
G36*
G01X1714390Y-111120D02*
X1707710Y-122440D01*
X1707700Y-133780D01*
X1714360Y-145120D01*
X1727690Y-145120D01*
X1727720Y-111130D01*
X1714390Y-111120D01*
G37*
G36*
G01X1894590Y-115220D02*
X1894530Y-115220D01*
X1886710Y-116590D01*
X1883230Y-119910D01*
X1883700Y-122540D01*
X1888100Y-124470D01*
X1895970Y-123090D01*
X1894590Y-115220D01*
G37*
G36*
G01X1857160Y-121770D02*
X1849280Y-123160D01*
X1850670Y-131030D01*
X1850730Y-131030D01*
X1858550Y-129650D01*
X1862030Y-126340D01*
X1861570Y-123710D01*
X1857160Y-121770D01*
G37*
G36*
G01X1705360Y-188490D02*
X1705300Y-188490D01*
X1697480Y-189870D01*
X1694000Y-193190D01*
X1694460Y-195820D01*
X1698860Y-197750D01*
X1706740Y-196360D01*
X1705360Y-188490D01*
G37*
G36*
G01X1667930Y-195050D02*
X1660050Y-196440D01*
X1661430Y-204310D01*
X1661490Y-204310D01*
X1669310Y-202930D01*
X1672790Y-199620D01*
X1672330Y-196990D01*
X1667930Y-195050D01*
G37*
G36*
G01X1459820Y-199750D02*
X1459790Y-233750D01*
X1473120Y-233760D01*
X1479800Y-222430D01*
X1479810Y-211090D01*
X1473150Y-199760D01*
X1459820Y-199750D01*
G37*
G36*
G01X-1842090Y-213040D02*
X-1845480Y-220290D01*
X-1838230Y-223680D01*
X-1833480Y-222960D01*
X-1832350Y-220540D01*
X-1834840Y-216430D01*
X-1842090Y-213040D01*
G37*
G36*
G01X-1848430Y-226590D02*
X-1851810Y-233840D01*
X-1844560Y-237230D01*
X-1839810Y-236510D01*
X-1838680Y-234090D01*
X-1841180Y-229980D01*
X-1848430Y-226590D01*
G37*
G36*
G01X-1807670Y-229130D02*
X-1812420Y-229850D01*
X-1813550Y-232270D01*
X-1811050Y-236380D01*
X-1803800Y-239760D01*
X-1800420Y-232520D01*
X-1807670Y-229130D01*
G37*
G36*
G01X1526490Y-199800D02*
X1519810Y-211120D01*
X1519800Y-222460D01*
X1526460Y-233800D01*
X1539790Y-233810D01*
X1539820Y-199810D01*
X1526490Y-199800D01*
G37*
G36*
G01X1707940Y-203230D02*
X1707880Y-203230D01*
X1700070Y-204600D01*
X1696590Y-207920D01*
X1697050Y-210550D01*
X1701450Y-212480D01*
X1709330Y-211100D01*
X1707940Y-203230D01*
G37*
G36*
G01X1670520Y-209790D02*
X1662640Y-211170D01*
X1664020Y-219040D01*
X1664080Y-219040D01*
X1671900Y-217670D01*
X1675380Y-214360D01*
X1674920Y-211730D01*
X1670520Y-209790D01*
G37*
G36*
G01X-1814000Y-242680D02*
X-1818750Y-243410D01*
X-1819880Y-245830D01*
X-1817390Y-249930D01*
X-1810140Y-253320D01*
X-1806750Y-246070D01*
X-1814000Y-242680D01*
G37*
G36*
G01X1327950Y-261090D02*
X1327920Y-295090D01*
X1341250Y-295100D01*
X1347930Y-283780D01*
X1347940Y-272440D01*
X1341280Y-261100D01*
X1327950Y-261090D01*
G37*
G36*
G01X-1630210Y-285340D02*
X-1632950Y-292860D01*
X-1625440Y-295600D01*
X-1620770Y-294470D01*
X-1619850Y-291960D01*
X-1622690Y-288080D01*
X-1630210Y-285340D01*
G37*
G36*
G01X1288520Y-287230D02*
X1288460Y-287230D01*
X1275390Y-289520D01*
X1270780Y-301830D01*
X1272740Y-313000D01*
X1281270Y-323010D01*
X1294400Y-320710D01*
X1288520Y-287230D01*
G37*
G36*
G01X-1594510Y-298370D02*
X-1599180Y-299510D01*
X-1600100Y-302010D01*
X-1597250Y-305880D01*
X-1589740Y-308630D01*
X-1587000Y-301110D01*
X-1594510Y-298370D01*
G37*
G36*
G01X-1635340Y-299400D02*
X-1638080Y-306910D01*
X-1630560Y-309650D01*
X-1625890Y-308530D01*
X-1624980Y-306020D01*
X-1627820Y-302140D01*
X-1635340Y-299400D01*
G37*
G36*
G01X1222850Y-298740D02*
X1209720Y-301040D01*
X1215600Y-334520D01*
X1215660Y-334520D01*
X1228730Y-332230D01*
X1233340Y-319920D01*
X1231380Y-308750D01*
X1222850Y-298740D01*
G37*
G36*
G01X-1599640Y-312420D02*
X-1604310Y-313560D01*
X-1605230Y-316070D01*
X-1602380Y-319940D01*
X-1594870Y-322680D01*
X-1592120Y-315160D01*
X-1599640Y-312420D01*
G37*
G36*
G01X1180890Y-332540D02*
X1180830Y-332540D01*
X1167760Y-334840D01*
X1163150Y-347150D01*
X1165110Y-358320D01*
X1173640Y-368320D01*
X1186770Y-366020D01*
X1180890Y-332540D01*
G37*
G36*
G01X1115230Y-344050D02*
X1102100Y-346360D01*
X1107970Y-379840D01*
X1108030Y-379840D01*
X1121100Y-377540D01*
X1125710Y-365230D01*
X1123750Y-354060D01*
X1115230Y-344050D01*
G37*
G36*
G01X-1372880Y-346320D02*
X-1372940Y-346320D01*
X-1380760Y-347700D01*
X-1384240Y-351020D01*
X-1383780Y-353650D01*
X-1379380Y-355580D01*
X-1371500Y-354190D01*
X-1372880Y-346320D01*
G37*
G36*
G01X-1410310Y-352880D02*
X-1418190Y-354260D01*
X-1416800Y-362130D01*
X-1416740Y-362130D01*
X-1408920Y-360760D01*
X-1405440Y-357450D01*
X-1405910Y-354820D01*
X-1410310Y-352880D01*
G37*
G36*
G01X-1370290Y-361060D02*
X-1370350Y-361060D01*
X-1378170Y-362430D01*
X-1381650Y-365750D01*
X-1381190Y-368380D01*
X-1376790Y-370310D01*
X-1368910Y-368930D01*
X-1370290Y-361060D01*
G37*
G36*
G01X-1407720Y-367620D02*
X-1415600Y-369000D01*
X-1414220Y-376870D01*
X-1414160Y-376870D01*
X-1406340Y-375500D01*
X-1402860Y-372180D01*
X-1403320Y-369550D01*
X-1407720Y-367620D01*
G37*
G36*
G01X1067730Y-375320D02*
X1067670Y-375320D01*
X1054600Y-377620D01*
X1049990Y-389930D01*
X1051950Y-401100D01*
X1060480Y-411110D01*
X1073610Y-408800D01*
X1067730Y-375320D01*
G37*
G36*
G01X1002070Y-386840D02*
X988940Y-389140D01*
X994810Y-422620D01*
X994870Y-422620D01*
X1007940Y-420330D01*
X1012560Y-408010D01*
X1010600Y-396840D01*
X1002070Y-386840D01*
G37*
G36*
G01X-1167990Y-399650D02*
X-1168050Y-399650D01*
X-1175870Y-401030D01*
X-1179350Y-404350D01*
X-1178880Y-406980D01*
X-1174490Y-408910D01*
X-1166610Y-407520D01*
X-1167990Y-399650D01*
G37*
G36*
G01X-1205420Y-406210D02*
X-1213300Y-407590D01*
X-1211910Y-415460D01*
X-1211850Y-415460D01*
X-1204030Y-414090D01*
X-1200550Y-410780D01*
X-1201020Y-408150D01*
X-1205420Y-406210D01*
G37*
G36*
G01X-1165400Y-414390D02*
X-1165460Y-414390D01*
X-1173280Y-415760D01*
X-1176760Y-419080D01*
X-1176300Y-421710D01*
X-1171900Y-423640D01*
X-1164020Y-422260D01*
X-1165400Y-414390D01*
G37*
G36*
G01X-1202830Y-420950D02*
X-1210710Y-422330D01*
X-1209330Y-430200D01*
X-1209270Y-430200D01*
X-1201450Y-428830D01*
X-1197970Y-425510D01*
X-1198430Y-422880D01*
X-1202830Y-420950D01*
G37*
G36*
G01X1394620Y-261150D02*
X1387940Y-272470D01*
X1387930Y-283810D01*
X1394590Y-295150D01*
X1407920Y-295160D01*
X1407950Y-261160D01*
X1394620Y-261150D01*
G37*
G36*
G01X1518420Y-272560D02*
X1518360Y-272560D01*
X1510540Y-273930D01*
X1507060Y-277260D01*
X1507520Y-279890D01*
X1511920Y-281810D01*
X1519800Y-280430D01*
X1518420Y-272560D01*
G37*
G36*
G01X1480990Y-279120D02*
X1473110Y-280500D01*
X1474490Y-288370D01*
X1474550Y-288370D01*
X1482370Y-287000D01*
X1485850Y-283690D01*
X1485390Y-281060D01*
X1480990Y-279120D01*
G37*
G36*
G01X1521000Y-287300D02*
X1520940Y-287300D01*
X1513120Y-288670D01*
X1509640Y-291990D01*
X1510100Y-294620D01*
X1514500Y-296550D01*
X1522380Y-295170D01*
X1521000Y-287300D01*
G37*
G36*
G01X1483570Y-293850D02*
X1475690Y-295240D01*
X1477080Y-303110D01*
X1477140Y-303110D01*
X1484960Y-301730D01*
X1488440Y-298420D01*
X1487970Y-295790D01*
X1483570Y-293850D01*
G37*
G36*
G01X1330390Y-353130D02*
X1330330Y-353130D01*
X1322510Y-354510D01*
X1319030Y-357830D01*
X1319490Y-360460D01*
X1323890Y-362380D01*
X1331770Y-361000D01*
X1330390Y-353130D01*
G37*
G36*
G01X1292960Y-359690D02*
X1285080Y-361070D01*
X1286470Y-368940D01*
X1286530Y-368940D01*
X1294350Y-367570D01*
X1297830Y-364260D01*
X1297360Y-361630D01*
X1292960Y-359690D01*
G37*
G36*
G01X1332980Y-367870D02*
X1332920Y-367870D01*
X1325100Y-369240D01*
X1321620Y-372560D01*
X1322080Y-375190D01*
X1326480Y-377120D01*
X1334360Y-375740D01*
X1332980Y-367870D01*
G37*
G36*
G01X1295550Y-374430D02*
X1287670Y-375810D01*
X1289050Y-383680D01*
X1289110Y-383680D01*
X1296930Y-382310D01*
X1300410Y-378990D01*
X1299950Y-376360D01*
X1295550Y-374430D01*
G37*
G36*
G01X961620Y-427840D02*
X961550Y-427840D01*
X948420Y-429680D01*
X943380Y-441820D01*
X944950Y-453050D01*
X953130Y-463350D01*
X966330Y-461500D01*
X961620Y-427840D01*
G37*
G36*
G01X895600Y-437060D02*
X882390Y-438900D01*
X887100Y-472560D01*
X887170Y-472560D01*
X900300Y-470730D01*
X905340Y-458580D01*
X903770Y-447350D01*
X895600Y-437060D01*
G37*
G36*
G01X-955340Y-440520D02*
X-955400Y-440520D01*
X-963220Y-441900D01*
X-966700Y-445220D01*
X-966240Y-447850D01*
X-961840Y-449780D01*
X-953960Y-448390D01*
X-955340Y-440520D01*
G37*
G36*
G01X-992770Y-447080D02*
X-1000650Y-448460D01*
X-999270Y-456330D01*
X-999210Y-456330D01*
X-991390Y-454960D01*
X-987910Y-451650D01*
X-988370Y-449020D01*
X-992770Y-447080D01*
G37*
G36*
G01X240900Y-441660D02*
X240840Y-441660D01*
X207410Y-447530D01*
X209710Y-460660D01*
X222020Y-465270D01*
X233190Y-463310D01*
X243200Y-454780D01*
X240900Y-441660D01*
G37*
G36*
G01X102150Y-445640D02*
X102090Y-445640D01*
X68660Y-451500D01*
X70960Y-464630D01*
X83270Y-469240D01*
X94440Y-467280D01*
X104450Y-458750D01*
X102150Y-445640D01*
G37*
G36*
G01X32360Y-448970D02*
X32300Y-448970D01*
X-1130Y-454830D01*
X1180Y-467960D01*
X13490Y-472570D01*
X24660Y-470610D01*
X34660Y-462090D01*
X32360Y-448970D01*
G37*
G36*
G01X-109670Y-450650D02*
X-109730Y-450650D01*
X-143150Y-456520D01*
X-140850Y-469650D01*
X-128540Y-474260D01*
X-117370Y-472300D01*
X-107360Y-463770D01*
X-109670Y-450650D01*
G37*
G36*
G01X-952760Y-455260D02*
X-952820Y-455260D01*
X-960640Y-456630D01*
X-964120Y-459950D01*
X-963650Y-462580D01*
X-959260Y-464510D01*
X-951380Y-463130D01*
X-952760Y-455260D01*
G37*
G36*
G01X-990190Y-461820D02*
X-998070Y-463200D01*
X-996680Y-471070D01*
X-996620Y-471070D01*
X-988800Y-469700D01*
X-985320Y-466390D01*
X-985790Y-463760D01*
X-990190Y-461820D01*
G37*
G36*
G01X-37840Y-451730D02*
X-37900Y-451730D01*
X-71330Y-457600D01*
X-69020Y-470730D01*
X-56710Y-475340D01*
X-45540Y-473380D01*
X-35530Y-464850D01*
X-37840Y-451730D01*
G37*
G36*
G01X307960Y-446450D02*
X307900Y-446450D01*
X274480Y-452320D01*
X276780Y-465450D01*
X289090Y-470060D01*
X300260Y-468100D01*
X310270Y-459570D01*
X307960Y-446450D01*
G37*
G36*
G01X400340Y-457620D02*
X400280Y-457620D01*
X366850Y-463480D01*
X369160Y-476610D01*
X381470Y-481220D01*
X392640Y-479260D01*
X402650Y-470730D01*
X400340Y-457620D01*
G37*
G36*
G01X-741450Y-477240D02*
X-741510Y-477240D01*
X-749330Y-478610D01*
X-752810Y-481930D01*
X-752350Y-484560D01*
X-747950Y-486490D01*
X-740070Y-485110D01*
X-741450Y-477240D01*
G37*
G36*
G01X-778880Y-483800D02*
X-786760Y-485180D01*
X-785370Y-493050D01*
X-785310Y-493050D01*
X-777490Y-491680D01*
X-774010Y-488360D01*
X-774480Y-485730D01*
X-778880Y-483800D01*
G37*
G36*
G01X469370Y-462700D02*
X469310Y-462700D01*
X435880Y-468570D01*
X438190Y-481700D01*
X450500Y-486310D01*
X461670Y-484350D01*
X471680Y-475820D01*
X469370Y-462700D01*
G37*
G36*
G01X1142170Y-430370D02*
X1142110Y-430370D01*
X1134290Y-431740D01*
X1130810Y-435060D01*
X1131270Y-437690D01*
X1135670Y-439620D01*
X1143550Y-438240D01*
X1142170Y-430370D01*
G37*
G36*
G01X1104740Y-436930D02*
X1096860Y-438310D01*
X1098240Y-446180D01*
X1098300Y-446180D01*
X1106120Y-444800D01*
X1109600Y-441490D01*
X1109140Y-438860D01*
X1104740Y-436930D01*
G37*
G36*
G01X1144750Y-445100D02*
X1144690Y-445100D01*
X1136870Y-446470D01*
X1133400Y-449800D01*
X1133860Y-452430D01*
X1138260Y-454350D01*
X1146140Y-452970D01*
X1144750Y-445100D01*
G37*
G36*
G01X1107330Y-451660D02*
X1099450Y-453040D01*
X1100830Y-460910D01*
X1100890Y-460910D01*
X1108710Y-459540D01*
X1112190Y-456230D01*
X1111730Y-453600D01*
X1107330Y-451660D01*
G37*
G36*
G01X-738860Y-491970D02*
X-738920Y-491970D01*
X-746740Y-493350D01*
X-750220Y-496670D01*
X-749760Y-499300D01*
X-745360Y-501220D01*
X-737480Y-499840D01*
X-738860Y-491970D01*
G37*
G36*
G01X-776290Y-498530D02*
X-784170Y-499910D01*
X-782790Y-507780D01*
X-782730Y-507780D01*
X-774910Y-506410D01*
X-771430Y-503100D01*
X-771890Y-500470D01*
X-776290Y-498530D01*
G37*
G36*
G01X240110Y-502710D02*
X228940Y-504670D01*
X218930Y-513200D01*
X221240Y-526320D01*
X221300Y-526320D01*
X254720Y-520450D01*
X252420Y-507320D01*
X240110Y-502710D01*
G37*
G36*
G01X101360Y-506680D02*
X90190Y-508640D01*
X80180Y-517170D01*
X82480Y-530290D01*
X82540Y-530290D01*
X115970Y-524420D01*
X113670Y-511290D01*
X101360Y-506680D01*
G37*
G36*
G01X31570Y-510010D02*
X20400Y-511970D01*
X10400Y-520500D01*
X12700Y-533620D01*
X12760Y-533620D01*
X46190Y-527750D01*
X43880Y-514620D01*
X31570Y-510010D01*
G37*
G36*
G01X-110460Y-511700D02*
X-121620Y-513660D01*
X-131630Y-522180D01*
X-129330Y-535300D01*
X-129270Y-535300D01*
X-95840Y-529440D01*
X-98140Y-516310D01*
X-110460Y-511700D01*
G37*
G36*
G01X-538000Y-513740D02*
X-538060Y-513740D01*
X-545880Y-515120D01*
X-549360Y-518440D01*
X-548890Y-521070D01*
X-544490Y-522990D01*
X-536610Y-521610D01*
X-538000Y-513740D01*
G37*
G36*
G01X-575430Y-520300D02*
X-583300Y-521680D01*
X-581920Y-529550D01*
X-581860Y-529550D01*
X-574040Y-528180D01*
X-570560Y-524870D01*
X-571020Y-522240D01*
X-575430Y-520300D01*
G37*
G36*
G01X-535410Y-528480D02*
X-535470Y-528480D01*
X-543290Y-529850D01*
X-546770Y-533170D01*
X-546310Y-535800D01*
X-541910Y-537730D01*
X-534030Y-536350D01*
X-535410Y-528480D01*
G37*
G36*
G01X-572840Y-535040D02*
X-580720Y-536420D01*
X-579340Y-544290D01*
X-579280Y-544290D01*
X-571460Y-542920D01*
X-567980Y-539600D01*
X-568440Y-536970D01*
X-572840Y-535040D01*
G37*
G36*
G01X-38630Y-512780D02*
X-49800Y-514740D01*
X-59800Y-523260D01*
X-57500Y-536380D01*
X-57440Y-536380D01*
X-24010Y-530520D01*
X-26310Y-517390D01*
X-38630Y-512780D01*
G37*
G36*
G01X953220Y-505200D02*
X953160Y-505200D01*
X945340Y-506570D01*
X941860Y-509900D01*
X942320Y-512530D01*
X946720Y-514450D01*
X954600Y-513070D01*
X953220Y-505200D01*
G37*
G36*
G01X307170Y-507500D02*
X296010Y-509460D01*
X286000Y-517990D01*
X288300Y-531110D01*
X288360Y-531110D01*
X321790Y-525240D01*
X319490Y-512110D01*
X307170Y-507500D01*
G37*
G36*
G01X915790Y-511760D02*
X907910Y-513140D01*
X909290Y-521010D01*
X909350Y-521010D01*
X917170Y-519640D01*
X920650Y-516330D01*
X920190Y-513700D01*
X915790Y-511760D01*
G37*
G36*
G01X399550Y-518660D02*
X388380Y-520620D01*
X378380Y-529150D01*
X380680Y-542270D01*
X380740Y-542270D01*
X414170Y-536400D01*
X411870Y-523270D01*
X399550Y-518660D01*
G37*
G36*
G01X955800Y-519940D02*
X955740Y-519940D01*
X947930Y-521310D01*
X944450Y-524630D01*
X944910Y-527260D01*
X949310Y-529190D01*
X957190Y-527810D01*
X955800Y-519940D01*
G37*
G36*
G01X468580Y-523750D02*
X457410Y-525710D01*
X447410Y-534230D01*
X449710Y-547350D01*
X449770Y-547350D01*
X483200Y-541490D01*
X480890Y-528360D01*
X468580Y-523750D01*
G37*
G36*
G01X-318970Y-544920D02*
X-319030Y-544920D01*
X-326850Y-546290D01*
X-330330Y-549610D01*
X-329870Y-552240D01*
X-325470Y-554170D01*
X-317590Y-552780D01*
X-318970Y-544920D01*
G37*
G36*
G01X-356400Y-551470D02*
X-364280Y-552860D01*
X-362900Y-560730D01*
X-362840Y-560730D01*
X-355020Y-559350D01*
X-351540Y-556040D01*
X-352000Y-553410D01*
X-356400Y-551470D01*
G37*
G36*
G01X918380Y-526490D02*
X910500Y-527880D01*
X911880Y-535750D01*
X911940Y-535750D01*
X919760Y-534370D01*
X923240Y-531060D01*
X922780Y-528430D01*
X918380Y-526490D01*
G37*
G36*
G01X-316390Y-559650D02*
X-316450Y-559650D01*
X-324270Y-561020D01*
X-327750Y-564340D01*
X-327280Y-566970D01*
X-322880Y-568900D01*
X-315000Y-567520D01*
X-316390Y-559650D01*
G37*
G36*
G01X-353820Y-566210D02*
X-361690Y-567590D01*
X-360310Y-575460D01*
X-360250Y-575460D01*
X-352430Y-574090D01*
X-348950Y-570780D01*
X-349410Y-568150D01*
X-353820Y-566210D01*
G37*
G36*
G01X-103910Y-563910D02*
X-103970Y-563910D01*
X-111790Y-565280D01*
X-115270Y-568600D01*
X-114810Y-571230D01*
X-110410Y-573160D01*
X-102530Y-571780D01*
X-103910Y-563910D01*
G37*
G36*
G01X-141340Y-570470D02*
X-149220Y-571850D01*
X-147840Y-579720D01*
X-147780Y-579720D01*
X-139960Y-578350D01*
X-136480Y-575040D01*
X-136940Y-572410D01*
X-141340Y-570470D01*
G37*
G36*
G01X2055180Y-571040D02*
X2048330Y-575160D01*
X2046270Y-579510D01*
X2047650Y-581800D01*
X2052450Y-582020D01*
X2059300Y-577890D01*
X2055180Y-571040D01*
G37*
G36*
G01X746350Y-573110D02*
X746290Y-573110D01*
X738470Y-574480D01*
X734990Y-577800D01*
X735460Y-580430D01*
X739860Y-582360D01*
X747740Y-580980D01*
X746350Y-573110D01*
G37*
G36*
G01X-101330Y-578650D02*
X-101390Y-578650D01*
X-109210Y-580020D01*
X-112690Y-583340D01*
X-112220Y-585970D01*
X-107820Y-587900D01*
X-99950Y-586520D01*
X-101330Y-578650D01*
G37*
G36*
G01X-138760Y-585200D02*
X-146640Y-586590D01*
X-145250Y-594460D01*
X-145190Y-594460D01*
X-137370Y-593080D01*
X-133890Y-589770D01*
X-134350Y-587140D01*
X-138760Y-585200D01*
G37*
G36*
G01X708920Y-579670D02*
X701040Y-581050D01*
X702430Y-588920D01*
X702490Y-588920D01*
X710310Y-587550D01*
X713790Y-584230D01*
X713330Y-581600D01*
X708920Y-579670D01*
G37*
G36*
G01X100940Y-581980D02*
X100880Y-581980D01*
X93060Y-583360D01*
X89590Y-586680D01*
X90050Y-589310D01*
X94450Y-591240D01*
X102330Y-589850D01*
X100940Y-581980D01*
G37*
G36*
G01X63520Y-588540D02*
X55640Y-589930D01*
X57020Y-597800D01*
X57080Y-597800D01*
X64900Y-596420D01*
X68380Y-593110D01*
X67920Y-590480D01*
X63520Y-588540D01*
G37*
G36*
G01X2062890Y-583860D02*
X2056040Y-587980D01*
X2053980Y-592330D01*
X2055360Y-594620D01*
X2060160Y-594840D01*
X2067020Y-590710D01*
X2062890Y-583860D01*
G37*
G36*
G01X748940Y-587840D02*
X748880Y-587840D01*
X741060Y-589220D01*
X737580Y-592540D01*
X738040Y-595170D01*
X742440Y-597100D01*
X750320Y-595710D01*
X748940Y-587840D01*
G37*
G36*
G01X711510Y-594400D02*
X703630Y-595780D01*
X705010Y-603650D01*
X705070Y-603650D01*
X712890Y-602280D01*
X716370Y-598970D01*
X715910Y-596340D01*
X711510Y-594400D01*
G37*
G36*
G01X304870Y-594820D02*
X304810Y-594820D01*
X296990Y-596190D01*
X293510Y-599510D01*
X293970Y-602140D01*
X298370Y-604070D01*
X306250Y-602690D01*
X304870Y-594820D01*
G37*
G36*
G01X103530Y-596720D02*
X103470Y-596720D01*
X95650Y-598090D01*
X92170Y-601410D01*
X92630Y-604040D01*
X97030Y-605970D01*
X104910Y-604590D01*
X103530Y-596720D01*
G37*
G36*
G01X66100Y-603280D02*
X58220Y-604660D01*
X59600Y-612530D01*
X59660Y-612530D01*
X67480Y-611160D01*
X70960Y-607850D01*
X70500Y-605220D01*
X66100Y-603280D01*
G37*
G36*
G01X267440Y-601380D02*
X259560Y-602760D01*
X260950Y-610630D01*
X261010Y-610630D01*
X268830Y-609260D01*
X272310Y-605950D01*
X271840Y-603320D01*
X267440Y-601380D01*
G37*
G36*
G01X507850Y-602960D02*
X507790Y-602960D01*
X499970Y-604330D01*
X496500Y-607650D01*
X496960Y-610280D01*
X501360Y-612210D01*
X509240Y-610830D01*
X507850Y-602960D01*
G37*
G36*
G01X470430Y-609520D02*
X462550Y-610900D01*
X463930Y-618770D01*
X463990Y-618770D01*
X471810Y-617400D01*
X475290Y-614090D01*
X474830Y-611460D01*
X470430Y-609520D01*
G37*
G36*
G01X307460Y-609560D02*
X307400Y-609560D01*
X299580Y-610930D01*
X296100Y-614250D01*
X296560Y-616880D01*
X300960Y-618810D01*
X308840Y-617430D01*
X307460Y-609560D01*
G37*
G36*
G01X270030Y-616110D02*
X262150Y-617500D01*
X263530Y-625370D01*
X263590Y-625370D01*
X271410Y-623990D01*
X274890Y-620680D01*
X274430Y-618050D01*
X270030Y-616110D01*
G37*
G36*
G01X2022620Y-590620D02*
X2015760Y-594750D01*
X2019890Y-601600D01*
X2026740Y-597480D01*
X2028800Y-593140D01*
X2027420Y-590850D01*
X2022620Y-590620D01*
G37*
G36*
G01X2030330Y-603440D02*
X2023470Y-607570D01*
X2027600Y-614420D01*
X2034450Y-610300D01*
X2036510Y-605960D01*
X2035130Y-603670D01*
X2030330Y-603440D01*
G37*
G36*
G01X510440Y-617690D02*
X510380Y-617690D01*
X502560Y-619070D01*
X499080Y-622390D01*
X499540Y-625020D01*
X503940Y-626950D01*
X511820Y-625560D01*
X510440Y-617690D01*
G37*
G36*
G01X473010Y-624250D02*
X465130Y-625640D01*
X466510Y-633510D01*
X466570Y-633510D01*
X474390Y-632130D01*
X477870Y-628820D01*
X477410Y-626190D01*
X473010Y-624250D01*
G37*
G36*
G01X1844510Y-682210D02*
X1837520Y-686090D01*
X1835310Y-690370D01*
X1836610Y-692700D01*
X1841400Y-693090D01*
X1848390Y-689200D01*
X1844510Y-682210D01*
G37*
G36*
G01X-1588790Y-683850D02*
X-1594300Y-736560D01*
X-1577390Y-738330D01*
X-1571880Y-685620D01*
X-1588790Y-683850D01*
G37*
G36*
G01X-1967530Y-691200D02*
X-1967670Y-691200D01*
X-1980830Y-692120D01*
X-1986690Y-703900D01*
X-1985890Y-715210D01*
X-1978440Y-726050D01*
X-1965140Y-725110D01*
X-1967530Y-691200D01*
G37*
G36*
G01X-2034040Y-695880D02*
X-2047330Y-696810D01*
X-2044950Y-730710D01*
X-2044810Y-730710D01*
X-2031650Y-729790D01*
X-2025790Y-718020D01*
X-2026590Y-706710D01*
X-2034040Y-695880D01*
G37*
G36*
G01X-1857270Y-734270D02*
X-1857410Y-734270D01*
X-1870570Y-735200D01*
X-1876430Y-746970D01*
X-1875630Y-758280D01*
X-1868180Y-769120D01*
X-1854880Y-768180D01*
X-1857270Y-734270D01*
G37*
G36*
G01X-1923780Y-738950D02*
X-1937070Y-739880D01*
X-1934680Y-773780D01*
X-1934540Y-773780D01*
X-1921380Y-772860D01*
X-1915530Y-761090D01*
X-1916320Y-749780D01*
X-1923780Y-738950D01*
G37*
G36*
G01X-2079200Y-751770D02*
X-2080030Y-759730D01*
X-2072070Y-760560D01*
X-2067820Y-758330D01*
X-2067540Y-755670D01*
X-2071240Y-752600D01*
X-2079200Y-751770D01*
G37*
G36*
G01X-2041400Y-755730D02*
X-2045660Y-757960D01*
X-2045940Y-760620D01*
X-2042240Y-763680D01*
X-2034280Y-764510D01*
X-2033450Y-756560D01*
X-2041400Y-755730D01*
G37*
G36*
G01X-2080750Y-766650D02*
X-2081590Y-774610D01*
X-2073630Y-775440D01*
X-2069370Y-773210D01*
X-2069100Y-770550D01*
X-2072800Y-767480D01*
X-2080750Y-766650D01*
G37*
G36*
G01X-2042960Y-770600D02*
X-2047220Y-772840D01*
X-2047490Y-775500D01*
X-2043790Y-778560D01*
X-2035840Y-779390D01*
X-2035000Y-771440D01*
X-2042960Y-770600D01*
G37*
G36*
G01X-1526630Y-690350D02*
X-1532140Y-743070D01*
X-1515230Y-744840D01*
X-1509720Y-692120D01*
X-1526630Y-690350D01*
G37*
G36*
G01X1851770Y-695290D02*
X1844770Y-699170D01*
X1842570Y-703450D01*
X1843870Y-705780D01*
X1848660Y-706170D01*
X1855650Y-702290D01*
X1851770Y-695290D01*
G37*
G36*
G01X1811280Y-700650D02*
X1804290Y-704530D01*
X1808170Y-711520D01*
X1815170Y-707640D01*
X1817370Y-703370D01*
X1816080Y-701040D01*
X1811280Y-700650D01*
G37*
G36*
G01X1818540Y-713730D02*
X1811550Y-717610D01*
X1815430Y-724600D01*
X1822420Y-720720D01*
X1824630Y-716460D01*
X1823340Y-714120D01*
X1818540Y-713730D01*
G37*
G36*
G01X-1572710Y-751190D02*
X-1576040Y-783010D01*
X-1564100Y-784260D01*
X-1560770Y-752440D01*
X-1572710Y-751190D01*
G37*
G36*
G01X-1751800Y-774950D02*
X-1751940Y-774950D01*
X-1765100Y-775870D01*
X-1770960Y-787650D01*
X-1770160Y-798960D01*
X-1762710Y-809800D01*
X-1749410Y-808860D01*
X-1751800Y-774950D01*
G37*
G36*
G01X-1818310Y-779630D02*
X-1831600Y-780560D01*
X-1829210Y-814460D01*
X-1829070Y-814460D01*
X-1815920Y-813540D01*
X-1810060Y-801770D01*
X-1810860Y-790460D01*
X-1818310Y-779630D01*
G37*
G36*
G01X-1552820Y-753270D02*
X-1556150Y-785100D01*
X-1544210Y-786340D01*
X-1540880Y-754520D01*
X-1552820Y-753270D01*
G37*
G36*
G01X1637190Y-769310D02*
X1637170Y-769310D01*
X1629890Y-772550D01*
X1627320Y-776620D01*
X1628410Y-779060D01*
X1633140Y-779860D01*
X1640450Y-776600D01*
X1637190Y-769310D01*
G37*
G36*
G01X1643280Y-782970D02*
X1643260Y-782970D01*
X1635980Y-786220D01*
X1633410Y-790290D01*
X1634500Y-792720D01*
X1639240Y-793530D01*
X1646540Y-790270D01*
X1643280Y-782970D01*
G37*
G36*
G01X1602490Y-784770D02*
X1595180Y-788030D01*
X1598440Y-795320D01*
X1598460Y-795320D01*
X1605740Y-792080D01*
X1608310Y-788020D01*
X1607230Y-785580D01*
X1602490Y-784770D01*
G37*
G36*
G01X1608580Y-798430D02*
X1601270Y-801690D01*
X1604530Y-808990D01*
X1604550Y-808990D01*
X1611830Y-805740D01*
X1614400Y-801680D01*
X1613320Y-799240D01*
X1608580Y-798430D01*
G37*
G36*
G01X-1580770Y-799860D02*
X-1582100Y-812490D01*
X-1571990Y-813550D01*
X-1566500Y-809860D01*
X-1566060Y-805650D01*
X-1570670Y-800920D01*
X-1580770Y-799860D01*
G37*
G36*
G01X-1552990Y-802770D02*
X-1558480Y-806450D01*
X-1558920Y-810650D01*
X-1554310Y-815400D01*
X-1544200Y-816460D01*
X-1542880Y-803830D01*
X-1552990Y-802770D01*
G37*
G36*
G01X-1643220Y-825100D02*
X-1643360Y-825100D01*
X-1656520Y-826020D01*
X-1662380Y-837790D01*
X-1661580Y-849110D01*
X-1654130Y-859940D01*
X-1640830Y-859000D01*
X-1643220Y-825100D01*
G37*
G36*
G01X-1709730Y-829770D02*
X-1723020Y-830700D01*
X-1720630Y-864610D01*
X-1720490Y-864610D01*
X-1707340Y-863680D01*
X-1701480Y-851910D01*
X-1702280Y-840610D01*
X-1709730Y-829770D01*
G37*
G36*
G01X-1887560Y-831400D02*
X-1888400Y-839360D01*
X-1880440Y-840190D01*
X-1876180Y-837960D01*
X-1875910Y-835300D01*
X-1879610Y-832230D01*
X-1887560Y-831400D01*
G37*
G36*
G01X-1849770Y-835350D02*
X-1854030Y-837590D01*
X-1854300Y-840250D01*
X-1850600Y-843310D01*
X-1842650Y-844140D01*
X-1841810Y-836190D01*
X-1849770Y-835350D01*
G37*
G36*
G01X-1889120Y-846280D02*
X-1889950Y-854230D01*
X-1882000Y-855070D01*
X-1877740Y-852840D01*
X-1877460Y-850180D01*
X-1881160Y-847110D01*
X-1889120Y-846280D01*
G37*
G36*
G01X-1851330Y-850230D02*
X-1855580Y-852470D01*
X-1855860Y-855130D01*
X-1852160Y-858190D01*
X-1844200Y-859020D01*
X-1843370Y-851070D01*
X-1851330Y-850230D01*
G37*
G36*
G01X-1591140Y-834330D02*
X-1593780Y-859590D01*
X-1583680Y-860650D01*
X-1577740Y-852750D01*
X-1576860Y-844340D01*
X-1581030Y-835390D01*
X-1591140Y-834330D01*
G37*
G36*
G01X-1551980Y-838430D02*
X-1557920Y-846320D01*
X-1558800Y-854740D01*
X-1554630Y-863690D01*
X-1544520Y-864750D01*
X-1541880Y-839480D01*
X-1551980Y-838430D01*
G37*
G36*
G01X1391470Y-850740D02*
X1390640Y-858690D01*
X1398600Y-859520D01*
X1402850Y-857300D01*
X1403130Y-854640D01*
X1399430Y-851570D01*
X1391470Y-850740D01*
G37*
G36*
G01X1429270Y-854690D02*
X1425010Y-856930D01*
X1424730Y-859590D01*
X1428440Y-862650D01*
X1436390Y-863480D01*
X1437220Y-855520D01*
X1429270Y-854690D01*
G37*
G36*
G01X1389920Y-865610D02*
X1389080Y-873570D01*
X1397040Y-874400D01*
X1401300Y-872170D01*
X1401570Y-869520D01*
X1397870Y-866450D01*
X1389920Y-865610D01*
G37*
G36*
G01X1427710Y-869570D02*
X1423450Y-871810D01*
X1423180Y-874460D01*
X1426880Y-877530D01*
X1434830Y-878360D01*
X1435670Y-870400D01*
X1427710Y-869570D01*
G37*
G36*
G01X-1449630Y-900540D02*
X-1449770Y-900540D01*
X-1462930Y-901460D01*
X-1468790Y-913230D01*
X-1467990Y-924550D01*
X-1460540Y-935380D01*
X-1447240Y-934440D01*
X-1449630Y-900540D01*
G37*
G36*
G01X-1516140Y-905210D02*
X-1529430Y-906140D01*
X-1527040Y-940040D01*
X-1526900Y-940040D01*
X-1513750Y-939120D01*
X-1507890Y-927350D01*
X-1508690Y-916040D01*
X-1516140Y-905210D01*
G37*
G36*
G01X-1695190Y-906330D02*
X-1696020Y-914290D01*
X-1688060Y-915120D01*
X-1683810Y-912890D01*
X-1683530Y-910230D01*
X-1687230Y-907160D01*
X-1695190Y-906330D01*
G37*
G36*
G01X-1657390Y-910280D02*
X-1661650Y-912520D01*
X-1661930Y-915180D01*
X-1658230Y-918240D01*
X-1650270Y-919070D01*
X-1649440Y-911120D01*
X-1657390Y-910280D01*
G37*
G36*
G01X-1696750Y-921210D02*
X-1697580Y-929170D01*
X-1689620Y-930000D01*
X-1685370Y-927770D01*
X-1685090Y-925110D01*
X-1688790Y-922040D01*
X-1696750Y-921210D01*
G37*
G36*
G01X-1658950Y-925160D02*
X-1663210Y-927400D01*
X-1663490Y-930060D01*
X-1659780Y-933120D01*
X-1651830Y-933950D01*
X-1650990Y-926000D01*
X-1658950Y-925160D01*
G37*
G36*
G01X1184650Y-916550D02*
X1183820Y-924500D01*
X1191770Y-925330D01*
X1196030Y-923110D01*
X1196310Y-920450D01*
X1192610Y-917380D01*
X1184650Y-916550D01*
G37*
G36*
G01X1222440Y-920500D02*
X1218190Y-922740D01*
X1217910Y-925400D01*
X1221610Y-928460D01*
X1229570Y-929290D01*
X1230400Y-921330D01*
X1222440Y-920500D01*
G37*
G36*
G01X1183090Y-931420D02*
X1182260Y-939380D01*
X1190220Y-940210D01*
X1194470Y-937980D01*
X1194750Y-935330D01*
X1191050Y-932260D01*
X1183090Y-931420D01*
G37*
G36*
G01X1220890Y-935380D02*
X1216630Y-937620D01*
X1216350Y-940270D01*
X1220050Y-943340D01*
X1228010Y-944170D01*
X1228840Y-936210D01*
X1220890Y-935380D01*
G37*
G36*
G01X-1313820Y-952590D02*
X-1313960Y-952590D01*
X-1327120Y-953510D01*
X-1332980Y-965280D01*
X-1332180Y-976600D01*
X-1324730Y-987430D01*
X-1311430Y-986490D01*
X-1313820Y-952590D01*
G37*
G36*
G01X-1380330Y-957260D02*
X-1393620Y-958190D01*
X-1391230Y-992090D01*
X-1391090Y-992090D01*
X-1377940Y-991170D01*
X-1372080Y-979400D01*
X-1372880Y-968090D01*
X-1380330Y-957260D01*
G37*
G36*
G01X-1502850Y-977230D02*
X-1503690Y-985190D01*
X-1495730Y-986020D01*
X-1491470Y-983790D01*
X-1491200Y-981140D01*
X-1494900Y-978070D01*
X-1502850Y-977230D01*
G37*
G36*
G01X-1465060Y-981190D02*
X-1469320Y-983430D01*
X-1469590Y-986080D01*
X-1465890Y-989150D01*
X-1457940Y-989980D01*
X-1457100Y-982020D01*
X-1465060Y-981190D01*
G37*
G36*
G01X978960Y-973400D02*
X978120Y-981360D01*
X986080Y-982190D01*
X990330Y-979960D01*
X990610Y-977310D01*
X986910Y-974240D01*
X978960Y-973400D01*
G37*
G36*
G01X-1272640Y-975910D02*
X-1276180Y-1009720D01*
X-1262930Y-1011110D01*
X-1255110Y-1000540D01*
X-1253930Y-989260D01*
X-1259390Y-977300D01*
X-1272640Y-975910D01*
G37*
G36*
G01X-1504410Y-992110D02*
X-1505240Y-1000070D01*
X-1497290Y-1000900D01*
X-1493030Y-998670D01*
X-1492750Y-996020D01*
X-1496450Y-992950D01*
X-1504410Y-992110D01*
G37*
G36*
G01X-1466620Y-996070D02*
X-1470870Y-998310D01*
X-1471150Y-1000960D01*
X-1467450Y-1004020D01*
X-1459490Y-1004860D01*
X-1458660Y-996900D01*
X-1466620Y-996070D01*
G37*
G36*
G01X1016750Y-977360D02*
X1012490Y-979600D01*
X1012210Y-982250D01*
X1015920Y-985320D01*
X1023870Y-986150D01*
X1024710Y-978190D01*
X1016750Y-977360D01*
G37*
G36*
G01X-1206340Y-982850D02*
X-1214150Y-993420D01*
X-1215330Y-1004700D01*
X-1209880Y-1016660D01*
X-1196620Y-1018050D01*
X-1193080Y-984230D01*
X-1206340Y-982850D01*
G37*
G36*
G01X977400Y-988280D02*
X976570Y-996240D01*
X984520Y-997070D01*
X988780Y-994840D01*
X989060Y-992190D01*
X985350Y-989120D01*
X977400Y-988280D01*
G37*
G36*
G01X1015190Y-992240D02*
X1010940Y-994480D01*
X1010660Y-997130D01*
X1014360Y-1000200D01*
X1022320Y-1001030D01*
X1023150Y-993070D01*
X1015190Y-992240D01*
G37*
G36*
G01X-1162130Y-1013650D02*
X-1165670Y-1047460D01*
X-1152410Y-1048850D01*
X-1144600Y-1038270D01*
X-1143420Y-1027000D01*
X-1148880Y-1015030D01*
X-1162130Y-1013650D01*
G37*
G36*
G01X-1309900Y-1044540D02*
X-1310730Y-1052500D01*
X-1302780Y-1053330D01*
X-1298520Y-1051100D01*
X-1298240Y-1048450D01*
X-1301940Y-1045380D01*
X-1309900Y-1044540D01*
G37*
G36*
G01X-1272110Y-1048500D02*
X-1276360Y-1050740D01*
X-1276640Y-1053390D01*
X-1272940Y-1056450D01*
X-1264980Y-1057290D01*
X-1264150Y-1049330D01*
X-1272110Y-1048500D01*
G37*
G36*
G01X-1095830Y-1020580D02*
X-1103640Y-1031160D01*
X-1104820Y-1042440D01*
X-1099360Y-1054400D01*
X-1086110Y-1055790D01*
X-1082570Y-1021970D01*
X-1095830Y-1020580D01*
G37*
G36*
G01X770370Y-1025110D02*
X769540Y-1033070D01*
X777490Y-1033900D01*
X781750Y-1031670D01*
X782030Y-1029020D01*
X778330Y-1025950D01*
X770370Y-1025110D01*
G37*
G36*
G01X808160Y-1029070D02*
X803910Y-1031310D01*
X803630Y-1033960D01*
X807330Y-1037030D01*
X815290Y-1037860D01*
X816120Y-1029900D01*
X808160Y-1029070D01*
G37*
G36*
G01X768810Y-1039990D02*
X767980Y-1047950D01*
X775940Y-1048780D01*
X780190Y-1046550D01*
X780470Y-1043900D01*
X776770Y-1040830D01*
X768810Y-1039990D01*
G37*
G36*
G01X133490Y-1041930D02*
X132100Y-1055180D01*
X142680Y-1063000D01*
X153960Y-1064180D01*
X165920Y-1058720D01*
X167310Y-1045460D01*
X133490Y-1041930D01*
G37*
G36*
G01X61910Y-1047990D02*
X60520Y-1061250D01*
X71100Y-1069060D01*
X82380Y-1070240D01*
X94340Y-1064780D01*
X95730Y-1051530D01*
X61910Y-1047990D01*
G37*
G36*
G01X-1046280Y-1048470D02*
X-1049820Y-1082290D01*
X-1036560Y-1083680D01*
X-1028750Y-1073100D01*
X-1027570Y-1061820D01*
X-1033020Y-1049860D01*
X-1046280Y-1048470D01*
G37*
G36*
G01X-1311460Y-1059420D02*
X-1312290Y-1067380D01*
X-1304330Y-1068210D01*
X-1300080Y-1065980D01*
X-1299800Y-1063330D01*
X-1303500Y-1060250D01*
X-1311460Y-1059420D01*
G37*
G36*
G01X-1273660Y-1063380D02*
X-1277920Y-1065620D01*
X-1278200Y-1068270D01*
X-1274500Y-1071330D01*
X-1266540Y-1072170D01*
X-1265710Y-1064210D01*
X-1273660Y-1063380D01*
G37*
G36*
G01X-8310Y-1050100D02*
X-9700Y-1063360D01*
X880Y-1071170D01*
X12150Y-1072350D01*
X24120Y-1066900D01*
X25510Y-1053640D01*
X-8310Y-1050100D01*
G37*
G36*
G01X-78160Y-1051620D02*
X-79550Y-1064880D01*
X-68970Y-1072690D01*
X-57690Y-1073870D01*
X-45730Y-1068420D01*
X-44340Y-1055160D01*
X-78160Y-1051620D01*
G37*
G36*
G01X-979970Y-1055410D02*
X-987780Y-1065990D01*
X-988960Y-1077270D01*
X-983510Y-1089230D01*
X-970250Y-1090620D01*
X-966710Y-1056800D01*
X-979970Y-1055410D01*
G37*
G36*
G01X-216850Y-1057280D02*
X-218240Y-1070540D01*
X-207660Y-1078350D01*
X-196390Y-1079530D01*
X-184420Y-1074080D01*
X-183040Y-1060820D01*
X-216850Y-1057280D01*
G37*
G36*
G01X-283420Y-1066720D02*
X-284810Y-1079970D01*
X-274240Y-1087790D01*
X-262960Y-1088970D01*
X-251000Y-1083510D01*
X-249610Y-1070250D01*
X-283420Y-1066720D01*
G37*
G36*
G01X-374810Y-1084260D02*
X-376190Y-1097520D01*
X-365620Y-1105330D01*
X-354340Y-1106510D01*
X-342380Y-1101060D01*
X-340990Y-1087800D01*
X-374810Y-1084260D01*
G37*
G36*
G01X-936790Y-1093500D02*
X-939150Y-1127420D01*
X-925850Y-1128340D01*
X-918410Y-1117500D01*
X-917620Y-1106190D01*
X-923490Y-1094420D01*
X-936790Y-1093500D01*
G37*
G36*
G01X-1116620Y-1108520D02*
X-1117450Y-1116480D01*
X-1109500Y-1117310D01*
X-1105240Y-1115080D01*
X-1104960Y-1112420D01*
X-1108660Y-1109350D01*
X-1116620Y-1108520D01*
G37*
G36*
G01X-1078830Y-1112470D02*
X-1083080Y-1114710D01*
X-1083360Y-1117370D01*
X-1079660Y-1120430D01*
X-1071700Y-1121260D01*
X-1070870Y-1113310D01*
X-1078830Y-1112470D01*
G37*
G36*
G01X-1118180Y-1123400D02*
X-1119010Y-1131350D01*
X-1111050Y-1132190D01*
X-1106800Y-1129960D01*
X-1106520Y-1127300D01*
X-1110220Y-1124230D01*
X-1118180Y-1123400D01*
G37*
G36*
G01X-1080380Y-1127350D02*
X-1084640Y-1129590D01*
X-1084920Y-1132250D01*
X-1081220Y-1135310D01*
X-1073260Y-1136140D01*
X-1072430Y-1128190D01*
X-1080380Y-1127350D01*
G37*
G36*
G01X-443320Y-1094120D02*
X-444700Y-1107380D01*
X-434130Y-1115190D01*
X-422850Y-1116370D01*
X-410890Y-1110920D01*
X-409500Y-1097660D01*
X-443320Y-1094120D01*
G37*
G36*
G01X-870280Y-1098120D02*
X-877720Y-1108960D01*
X-878510Y-1120280D01*
X-872640Y-1132040D01*
X-859340Y-1132960D01*
X-856980Y-1099050D01*
X-870280Y-1098120D01*
G37*
G36*
G01X806610Y-1043950D02*
X802350Y-1046190D01*
X802070Y-1048840D01*
X805770Y-1051910D01*
X813730Y-1052740D01*
X814560Y-1044780D01*
X806610Y-1043950D01*
G37*
G36*
G01X561910Y-1074810D02*
X561070Y-1082760D01*
X569030Y-1083600D01*
X573280Y-1081370D01*
X573560Y-1078710D01*
X569860Y-1075640D01*
X561910Y-1074810D01*
G37*
G36*
G01X599700Y-1078760D02*
X595440Y-1081000D01*
X595170Y-1083660D01*
X598870Y-1086720D01*
X606820Y-1087550D01*
X607660Y-1079590D01*
X599700Y-1078760D01*
G37*
G36*
G01X560350Y-1089680D02*
X559520Y-1097640D01*
X567470Y-1098470D01*
X571730Y-1096240D01*
X572010Y-1093590D01*
X568300Y-1090520D01*
X560350Y-1089680D01*
G37*
G36*
G01X598140Y-1093640D02*
X593890Y-1095880D01*
X593610Y-1098530D01*
X597310Y-1101600D01*
X605270Y-1102430D01*
X606100Y-1094470D01*
X598140Y-1093640D01*
G37*
G36*
G01X138510Y-1102780D02*
X126550Y-1108230D01*
X125160Y-1121490D01*
X158980Y-1125030D01*
X160370Y-1111770D01*
X149790Y-1103960D01*
X138510Y-1102780D01*
G37*
G36*
G01X66930Y-1108840D02*
X54970Y-1114300D01*
X53580Y-1127550D01*
X87400Y-1131090D01*
X88790Y-1117830D01*
X78210Y-1110020D01*
X66930Y-1108840D01*
G37*
G36*
G01X-3290Y-1110950D02*
X-15250Y-1116410D01*
X-16640Y-1129670D01*
X17180Y-1133200D01*
X18570Y-1119950D01*
X7990Y-1112130D01*
X-3290Y-1110950D01*
G37*
G36*
G01X-73130Y-1112470D02*
X-85100Y-1117930D01*
X-86480Y-1131180D01*
X-52670Y-1134720D01*
X-51280Y-1121470D01*
X-61860Y-1113650D01*
X-73130Y-1112470D01*
G37*
G36*
G01X-211830Y-1118140D02*
X-223790Y-1123590D01*
X-225180Y-1136850D01*
X-191360Y-1140390D01*
X-189970Y-1127130D01*
X-200550Y-1119320D01*
X-211830Y-1118140D01*
G37*
G36*
G01X-278400Y-1127570D02*
X-290360Y-1133020D01*
X-291750Y-1146280D01*
X-257940Y-1149820D01*
X-256550Y-1136560D01*
X-267120Y-1128750D01*
X-278400Y-1127570D01*
G37*
G36*
G01X-369780Y-1145110D02*
X-381750Y-1150570D01*
X-383130Y-1163820D01*
X-349320Y-1167360D01*
X-347930Y-1154110D01*
X-358500Y-1146290D01*
X-369780Y-1145110D01*
G37*
G36*
G01X-438290Y-1154980D02*
X-450250Y-1160430D01*
X-451640Y-1173690D01*
X-417830Y-1177230D01*
X-416440Y-1163970D01*
X-427010Y-1156160D01*
X-438290Y-1154980D01*
G37*
G36*
G01X-923100Y-1170100D02*
X-923930Y-1178050D01*
X-915970Y-1178890D01*
X-911720Y-1176660D01*
X-911440Y-1174000D01*
X-915140Y-1170930D01*
X-923100Y-1170100D01*
G37*
G36*
G01X-885300Y-1174050D02*
X-889560Y-1176290D01*
X-889840Y-1178950D01*
X-886140Y-1182010D01*
X-878180Y-1182840D01*
X-877350Y-1174880D01*
X-885300Y-1174050D01*
G37*
G36*
G01X349670Y-1121520D02*
X348840Y-1129480D01*
X356790Y-1130310D01*
X361050Y-1128080D01*
X361330Y-1125420D01*
X357630Y-1122350D01*
X349670Y-1121520D01*
G37*
G36*
G01X387460Y-1125470D02*
X383210Y-1127710D01*
X382930Y-1130370D01*
X386630Y-1133430D01*
X394590Y-1134260D01*
X395420Y-1126310D01*
X387460Y-1125470D01*
G37*
G36*
G01X348110Y-1136400D02*
X347280Y-1144350D01*
X355240Y-1145190D01*
X359490Y-1142960D01*
X359770Y-1140300D01*
X356070Y-1137230D01*
X348110Y-1136400D01*
G37*
G36*
G01X385910Y-1140350D02*
X381650Y-1142590D01*
X381370Y-1145250D01*
X385070Y-1148310D01*
X393030Y-1149140D01*
X393860Y-1141190D01*
X385910Y-1140350D01*
G37*
G36*
G01X135850Y-1155340D02*
X135020Y-1163290D01*
X142970Y-1164130D01*
X147230Y-1161900D01*
X147510Y-1159240D01*
X143810Y-1156170D01*
X135850Y-1155340D01*
G37*
G36*
G01X173640Y-1159290D02*
X169390Y-1161530D01*
X169110Y-1164190D01*
X172810Y-1167250D01*
X180770Y-1168080D01*
X181600Y-1160120D01*
X173640Y-1159290D01*
G37*
G36*
G01X134290Y-1170220D02*
X133460Y-1178170D01*
X141420Y-1179010D01*
X145670Y-1176780D01*
X145950Y-1174120D01*
X142250Y-1171050D01*
X134290Y-1170220D01*
G37*
G36*
G01X172090Y-1174170D02*
X167830Y-1176410D01*
X167550Y-1179070D01*
X171250Y-1182130D01*
X179210Y-1182960D01*
X180040Y-1175000D01*
X172090Y-1174170D01*
G37*
G36*
G01X-924660Y-1184980D02*
X-925490Y-1192930D01*
X-917530Y-1193760D01*
X-913280Y-1191540D01*
X-913000Y-1188880D01*
X-916700Y-1185810D01*
X-924660Y-1184980D01*
G37*
G36*
G01X-67430Y-1187560D02*
X-68260Y-1195520D01*
X-60310Y-1196350D01*
X-56050Y-1194120D01*
X-55770Y-1191470D01*
X-59470Y-1188400D01*
X-67430Y-1187560D01*
G37*
G36*
G01X-886860Y-1188930D02*
X-891120Y-1191170D01*
X-891400Y-1193820D01*
X-887690Y-1196890D01*
X-879740Y-1197720D01*
X-878910Y-1189760D01*
X-886860Y-1188930D01*
G37*
G36*
G01X-29640Y-1191520D02*
X-33890Y-1193760D01*
X-34170Y-1196410D01*
X-30470Y-1199480D01*
X-22510Y-1200310D01*
X-21680Y-1192350D01*
X-29640Y-1191520D01*
G37*
G36*
G01X-68990Y-1202440D02*
X-69820Y-1210400D01*
X-61860Y-1211230D01*
X-57610Y-1209000D01*
X-57330Y-1206350D01*
X-61030Y-1203280D01*
X-68990Y-1202440D01*
G37*
G36*
G01X-31190Y-1206400D02*
X-35450Y-1208640D01*
X-35730Y-1211290D01*
X-32030Y-1214350D01*
X-24070Y-1215190D01*
X-23240Y-1207230D01*
X-31190Y-1206400D01*
G37*
G36*
G01X-270160Y-1214500D02*
X-271000Y-1222450D01*
X-263040Y-1223290D01*
X-258790Y-1221060D01*
X-258510Y-1218400D01*
X-262210Y-1215330D01*
X-270160Y-1214500D01*
G37*
G36*
G01X-232370Y-1218450D02*
X-236630Y-1220690D01*
X-236900Y-1223350D01*
X-233200Y-1226410D01*
X-225250Y-1227240D01*
X-224410Y-1219290D01*
X-232370Y-1218450D01*
G37*
G36*
G01X-711870Y-1223490D02*
X-712700Y-1231450D01*
X-704750Y-1232280D01*
X-700490Y-1230050D01*
X-700210Y-1227400D01*
X-703910Y-1224320D01*
X-711870Y-1223490D01*
G37*
G36*
G01X-674080Y-1227450D02*
X-678330Y-1229690D01*
X-678610Y-1232340D01*
X-674910Y-1235400D01*
X-666950Y-1236240D01*
X-666120Y-1228280D01*
X-674080Y-1227450D01*
G37*
G36*
G01X-271720Y-1229380D02*
X-272550Y-1237330D01*
X-264600Y-1238170D01*
X-260340Y-1235940D01*
X-260060Y-1233280D01*
X-263760Y-1230210D01*
X-271720Y-1229380D01*
G37*
G36*
G01X-471900Y-1236720D02*
X-472740Y-1244680D01*
X-464780Y-1245510D01*
X-460520Y-1243280D01*
X-460250Y-1240630D01*
X-463950Y-1237550D01*
X-471900Y-1236720D01*
G37*
G36*
G01X-713430Y-1238370D02*
X-714260Y-1246330D01*
X-706300Y-1247160D01*
X-702050Y-1244930D01*
X-701770Y-1242280D01*
X-705470Y-1239200D01*
X-713430Y-1238370D01*
G37*
G36*
G01X-675630Y-1242330D02*
X-679890Y-1244570D01*
X-680170Y-1247220D01*
X-676470Y-1250280D01*
X-668510Y-1251120D01*
X-667680Y-1243160D01*
X-675630Y-1242330D01*
G37*
G36*
G01X-233930Y-1233330D02*
X-238180Y-1235570D01*
X-238460Y-1238230D01*
X-234760Y-1241290D01*
X-226800Y-1242120D01*
X-225970Y-1234170D01*
X-233930Y-1233330D01*
G37*
G36*
G01X-434110Y-1240680D02*
X-438370Y-1242920D01*
X-438640Y-1245570D01*
X-434940Y-1248630D01*
X-426990Y-1249470D01*
X-426150Y-1241510D01*
X-434110Y-1240680D01*
G37*
G36*
G01X-473460Y-1251600D02*
X-474290Y-1259560D01*
X-466340Y-1260390D01*
X-462080Y-1258160D01*
X-461800Y-1255500D01*
X-465500Y-1252430D01*
X-473460Y-1251600D01*
G37*
G36*
G01X-435670Y-1255560D02*
X-439920Y-1257790D01*
X-440200Y-1260450D01*
X-436500Y-1263510D01*
X-428540Y-1264340D01*
X-427710Y-1256390D01*
X-435670Y-1255560D01*
G37*
G54D10*
X-2500000Y1249998D02*
X-2500000Y1399998D01*
X-2350000Y1399998D01*
X-100000Y1399998D02*
X-10000Y1399998D01*
X0Y1369998D01*
X10000Y1399998D01*
X100000Y1399998D01*
X2350000Y1399998D02*
X2500000Y1399998D01*
X2500000Y1249998D01*
X2500000Y99998D02*
X2500000Y9998D01*
X2470000Y-2D01*
X2500000Y-10002D01*
X2500000Y-100002D01*
X2500000Y-1250002D02*
X2500000Y-1400002D01*
X2350000Y-1400002D01*
X100000Y-1400002D02*
X10000Y-1400002D01*
X0Y-1370002D01*
X-10000Y-1400002D01*
X-100000Y-1400002D01*
X-2350000Y-1400002D02*
X-2500000Y-1400002D01*
X-2500000Y-1250002D01*
X-2500000Y-100002D02*
X-2500000Y-10002D01*
X-2470000Y-2D01*
X-2500000Y9998D01*
X-2500000Y99998D01*
X-2850003Y2849998D02*
X-10002Y2849998D01*
X-2Y2819998D01*
X9997Y2849998D01*
X2849998Y2849998D01*
X2849998Y9998D01*
X2819997Y-2D01*
X2849998Y-10002D01*
X2849998Y-2850002D01*
X9997Y-2850002D01*
X-2Y-2820002D01*
X-10002Y-2850002D01*
X-2850003Y-2850002D01*
X-2850003Y-10002D01*
X-2820002Y-2D01*
X-2850003Y9998D01*
X-2850003Y2849998D01*
X-2480245Y-1476591D02*
X-2480245Y-1514091D01*
X-2480245Y-1476591D02*
X-2465959Y-1514091D01*
X-2451673Y-1476591D02*
X-2465959Y-1514091D01*
X-2451673Y-1476591D02*
X-2451673Y-1514091D01*
X-2430245Y-1476591D02*
X-2433816Y-1478376D01*
X-2437388Y-1481948D01*
X-2439173Y-1485519D01*
X-2440959Y-1490876D01*
X-2440959Y-1499805D01*
X-2439173Y-1505162D01*
X-2437388Y-1508734D01*
X-2433816Y-1512305D01*
X-2430245Y-1514091D01*
X-2423102Y-1514091D01*
X-2419530Y-1512305D01*
X-2415959Y-1508734D01*
X-2414173Y-1505162D01*
X-2412388Y-1499805D01*
X-2412388Y-1490876D01*
X-2414173Y-1485519D01*
X-2415959Y-1481948D01*
X-2419530Y-1478376D01*
X-2423102Y-1476591D01*
X-2430245Y-1476591D01*
X-2401673Y-1476591D02*
X-2401673Y-1514091D01*
X-2401673Y-1476591D02*
X-2389173Y-1476591D01*
X-2383816Y-1478376D01*
X-2380245Y-1481948D01*
X-2378459Y-1485519D01*
X-2376673Y-1490876D01*
X-2376673Y-1499805D01*
X-2378459Y-1505162D01*
X-2380245Y-1508734D01*
X-2383816Y-1512305D01*
X-2389173Y-1514091D01*
X-2401673Y-1514091D01*
X-2365959Y-1476591D02*
X-2365959Y-1514091D01*
X-2365959Y-1476591D02*
X-2342745Y-1476591D01*
X-2365959Y-1494448D02*
X-2351673Y-1494448D01*
X-2365959Y-1514091D02*
X-2342745Y-1514091D01*
X-2332030Y-1476591D02*
X-2332030Y-1514091D01*
X-2332030Y-1514091D02*
X-2310602Y-1514091D01*
X-2298102Y-1489091D02*
X-2299888Y-1490876D01*
X-2298102Y-1492662D01*
X-2296316Y-1490876D01*
X-2298102Y-1489091D01*
X-2298102Y-1510519D02*
X-2299888Y-1512305D01*
X-2298102Y-1514091D01*
X-2296316Y-1512305D01*
X-2298102Y-1510519D01*
X-2260602Y-1481948D02*
X-2264173Y-1478376D01*
X-2269530Y-1476591D01*
X-2276673Y-1476591D01*
X-2282030Y-1478376D01*
X-2285602Y-1481948D01*
X-2285602Y-1485519D01*
X-2283816Y-1489091D01*
X-2282030Y-1490876D01*
X-2278459Y-1492662D01*
X-2267745Y-1496234D01*
X-2264173Y-1498019D01*
X-2262388Y-1499805D01*
X-2260602Y-1503376D01*
X-2260602Y-1508734D01*
X-2264173Y-1512305D01*
X-2269530Y-1514091D01*
X-2276673Y-1514091D01*
X-2282030Y-1512305D01*
X-2285602Y-1508734D01*
X-2235602Y-1476591D02*
X-2249887Y-1514091D01*
X-2235602Y-1476591D02*
X-2221316Y-1514091D01*
X-2244530Y-1501591D02*
X-2226673Y-1501591D01*
X-2210602Y-1476591D02*
X-2210602Y-1514091D01*
X-2210602Y-1514091D02*
X-2189173Y-1514091D01*
X-2178459Y-1483734D02*
X-2174888Y-1481948D01*
X-2169530Y-1476591D01*
X-2169530Y-1514091D01*
X-2135602Y-1489091D02*
X-2137388Y-1494448D01*
X-2140959Y-1498019D01*
X-2146316Y-1499805D01*
X-2148102Y-1499805D01*
X-2153459Y-1498019D01*
X-2157030Y-1494448D01*
X-2158816Y-1489091D01*
X-2158816Y-1487305D01*
X-2157030Y-1481948D01*
X-2153459Y-1478376D01*
X-2148102Y-1476591D01*
X-2146316Y-1476591D01*
X-2140959Y-1478376D01*
X-2137388Y-1481948D01*
X-2135602Y-1489091D01*
X-2135602Y-1498019D01*
X-2137388Y-1506948D01*
X-2140959Y-1512305D01*
X-2146316Y-1514091D01*
X-2149888Y-1514091D01*
X-2155245Y-1512305D01*
X-2157030Y-1508734D01*
X-2099888Y-1476591D02*
X-2117745Y-1514091D01*
X-2124888Y-1476591D02*
X-2099888Y-1476591D01*
X-2089173Y-1483734D02*
X-2085602Y-1481948D01*
X-2080245Y-1476591D01*
X-2080245Y-1514091D01*
X-2065959Y-1476591D02*
X-2046316Y-1476591D01*
X-2057030Y-1490876D01*
X-2051673Y-1490876D01*
X-2048102Y-1492662D01*
X-2046316Y-1494448D01*
X-2044530Y-1499805D01*
X-2044530Y-1503376D01*
X-2046316Y-1508734D01*
X-2049887Y-1512305D01*
X-2055245Y-1514091D01*
X-2060602Y-1514091D01*
X-2065959Y-1512305D01*
X-2067745Y-1510519D01*
X-2069530Y-1506948D01*
X-2033816Y-1483734D02*
X-2030245Y-1481948D01*
X-2024888Y-1476591D01*
X-2024888Y-1514091D01*
X-2014173Y-1483734D02*
X-2010602Y-1481948D01*
X-2005245Y-1476591D01*
X-2005245Y-1514091D01*
X-1994530Y-1483734D02*
X-1990959Y-1481948D01*
X-1985602Y-1476591D01*
X-1985602Y-1514091D01*
X-1953459Y-1481948D02*
X-1955245Y-1478376D01*
X-1960602Y-1476591D01*
X-1964173Y-1476591D01*
X-1969530Y-1478376D01*
X-1973102Y-1483734D01*
X-1974888Y-1492662D01*
X-1974888Y-1501591D01*
X-1973102Y-1508734D01*
X-1969530Y-1512305D01*
X-1964173Y-1514091D01*
X-1962388Y-1514091D01*
X-1957030Y-1512305D01*
X-1953459Y-1508734D01*
X-1951673Y-1503376D01*
X-1951673Y-1501591D01*
X-1953459Y-1496234D01*
X-1957030Y-1492662D01*
X-1962388Y-1490876D01*
X-1964173Y-1490876D01*
X-1969530Y-1492662D01*
X-1973102Y-1496234D01*
X-1974888Y-1501591D01*
X-1940959Y-1476591D02*
X-1926673Y-1514091D01*
X-1912387Y-1476591D02*
X-1926673Y-1514091D01*
X-1890959Y-1476591D02*
X-1896316Y-1478376D01*
X-1899887Y-1483734D01*
X-1901673Y-1492662D01*
X-1901673Y-1498019D01*
X-1899887Y-1506948D01*
X-1896316Y-1512305D01*
X-1890959Y-1514091D01*
X-1887387Y-1514091D01*
X-1882030Y-1512305D01*
X-1878459Y-1506948D01*
X-1876673Y-1498019D01*
X-1876673Y-1492662D01*
X-1878459Y-1483734D01*
X-1882030Y-1478376D01*
X-1887387Y-1476591D01*
X-1890959Y-1476591D01*
X-1864173Y-1510519D02*
X-1865959Y-1512305D01*
X-1864173Y-1514091D01*
X-1862388Y-1512305D01*
X-1864173Y-1510519D01*
X-1848102Y-1476591D02*
X-1828459Y-1476591D01*
X-1839173Y-1490876D01*
X-1833816Y-1490876D01*
X-1830245Y-1492662D01*
X-1828459Y-1494448D01*
X-1826673Y-1499805D01*
X-1826673Y-1503376D01*
X-1828459Y-1508734D01*
X-1832030Y-1512305D01*
X-1837388Y-1514091D01*
X-1842745Y-1514091D01*
X-1848102Y-1512305D01*
X-1849888Y-1510519D01*
X-1851673Y-1506948D01*
X-1815959Y-1498019D02*
X-1783816Y-1498019D01*
X-1771316Y-1485519D02*
X-1771316Y-1483734D01*
X-1769530Y-1480162D01*
X-1767745Y-1478376D01*
X-1764173Y-1476591D01*
X-1757030Y-1476591D01*
X-1753459Y-1478376D01*
X-1751673Y-1480162D01*
X-1749887Y-1483734D01*
X-1749887Y-1487305D01*
X-1751673Y-1490876D01*
X-1755245Y-1496234D01*
X-1773102Y-1514091D01*
X-1748102Y-1514091D01*
X-1737387Y-1476591D02*
X-1737387Y-1514091D01*
X-1737387Y-1514091D02*
X-1715959Y-1514091D01*
X-1669530Y-1492662D02*
X-1669530Y-1490876D01*
X-1671316Y-1489091D01*
X-1673102Y-1489091D01*
X-1674888Y-1490876D01*
X-1676673Y-1494448D01*
X-1680245Y-1503376D01*
X-1683816Y-1508734D01*
X-1687388Y-1512305D01*
X-1690959Y-1514091D01*
X-1698102Y-1514091D01*
X-1701673Y-1512305D01*
X-1703459Y-1510519D01*
X-1705245Y-1506948D01*
X-1705245Y-1503376D01*
X-1703459Y-1499805D01*
X-1701673Y-1498019D01*
X-1689173Y-1490876D01*
X-1687388Y-1489091D01*
X-1685602Y-1485519D01*
X-1685602Y-1481948D01*
X-1687388Y-1478376D01*
X-1690959Y-1476591D01*
X-1694530Y-1478376D01*
X-1696316Y-1481948D01*
X-1696316Y-1485519D01*
X-1694530Y-1490876D01*
X-1690959Y-1496234D01*
X-1682030Y-1508734D01*
X-1678459Y-1512305D01*
X-1674888Y-1514091D01*
X-1671316Y-1514091D01*
X-1669530Y-1512305D01*
X-1669530Y-1510519D01*
X-1633816Y-1481948D02*
X-1637388Y-1478376D01*
X-1642745Y-1476591D01*
X-1649888Y-1476591D01*
X-1655245Y-1478376D01*
X-1658816Y-1481948D01*
X-1658816Y-1485519D01*
X-1657030Y-1489091D01*
X-1655245Y-1490876D01*
X-1651673Y-1492662D01*
X-1640959Y-1496234D01*
X-1637388Y-1498019D01*
X-1635602Y-1499805D01*
X-1633816Y-1503376D01*
X-1633816Y-1508734D01*
X-1637388Y-1512305D01*
X-1642745Y-1514091D01*
X-1649888Y-1514091D01*
X-1655245Y-1512305D01*
X-1658816Y-1508734D01*
X-1608816Y-1476591D02*
X-1623102Y-1514091D01*
X-1608816Y-1476591D02*
X-1594530Y-1514091D01*
X-1617745Y-1501591D02*
X-1599887Y-1501591D01*
X-1583816Y-1476591D02*
X-1583816Y-1514091D01*
X-1583816Y-1514091D02*
X-1562387Y-1514091D01*
X-1551673Y-1483734D02*
X-1548102Y-1481948D01*
X-1542745Y-1476591D01*
X-1542745Y-1514091D01*
X-1508816Y-1489091D02*
X-1510602Y-1494448D01*
X-1514173Y-1498019D01*
X-1519530Y-1499805D01*
X-1521316Y-1499805D01*
X-1526673Y-1498019D01*
X-1530245Y-1494448D01*
X-1532030Y-1489091D01*
X-1532030Y-1487305D01*
X-1530245Y-1481948D01*
X-1526673Y-1478376D01*
X-1521316Y-1476591D01*
X-1519530Y-1476591D01*
X-1514173Y-1478376D01*
X-1510602Y-1481948D01*
X-1508816Y-1489091D01*
X-1508816Y-1498019D01*
X-1510602Y-1506948D01*
X-1514173Y-1512305D01*
X-1519530Y-1514091D01*
X-1523102Y-1514091D01*
X-1528459Y-1512305D01*
X-1530245Y-1508734D01*
X-1473102Y-1476591D02*
X-1490959Y-1514091D01*
X-1498102Y-1476591D02*
X-1473102Y-1476591D01*
X-1462388Y-1483734D02*
X-1458816Y-1481948D01*
X-1453459Y-1476591D01*
X-1453459Y-1514091D01*
X-1439173Y-1476591D02*
X-1419530Y-1476591D01*
X-1430245Y-1490876D01*
X-1424887Y-1490876D01*
X-1421316Y-1492662D01*
X-1419530Y-1494448D01*
X-1417745Y-1499805D01*
X-1417745Y-1503376D01*
X-1419530Y-1508734D01*
X-1423102Y-1512305D01*
X-1428459Y-1514091D01*
X-1433816Y-1514091D01*
X-1439173Y-1512305D01*
X-1440959Y-1510519D01*
X-1442745Y-1506948D01*
X-1407030Y-1483734D02*
X-1403459Y-1481948D01*
X-1398102Y-1476591D01*
X-1398102Y-1514091D01*
X-1387388Y-1483734D02*
X-1383816Y-1481948D01*
X-1378459Y-1476591D01*
X-1378459Y-1514091D01*
X-1367745Y-1483734D02*
X-1364173Y-1481948D01*
X-1358816Y-1476591D01*
X-1358816Y-1514091D01*
X-1326673Y-1481948D02*
X-1328459Y-1478376D01*
X-1333816Y-1476591D01*
X-1337388Y-1476591D01*
X-1342745Y-1478376D01*
X-1346316Y-1483734D01*
X-1348102Y-1492662D01*
X-1348102Y-1501591D01*
X-1346316Y-1508734D01*
X-1342745Y-1512305D01*
X-1337388Y-1514091D01*
X-1335602Y-1514091D01*
X-1330245Y-1512305D01*
X-1326673Y-1508734D01*
X-1324888Y-1503376D01*
X-1324888Y-1501591D01*
X-1326673Y-1496234D01*
X-1330245Y-1492662D01*
X-1335602Y-1490876D01*
X-1337388Y-1490876D01*
X-1342745Y-1492662D01*
X-1346316Y-1496234D01*
X-1348102Y-1501591D01*
X-1314173Y-1476591D02*
X-1299888Y-1514091D01*
X-1285602Y-1476591D02*
X-1299888Y-1514091D01*
X-1264173Y-1476591D02*
X-1269530Y-1478376D01*
X-1273102Y-1483734D01*
X-1274887Y-1492662D01*
X-1274887Y-1498019D01*
X-1273102Y-1506948D01*
X-1269530Y-1512305D01*
X-1264173Y-1514091D01*
X-1260602Y-1514091D01*
X-1255245Y-1512305D01*
X-1251673Y-1506948D01*
X-1249887Y-1498019D01*
X-1249887Y-1492662D01*
X-1251673Y-1483734D01*
X-1255245Y-1478376D01*
X-1260602Y-1476591D01*
X-1264173Y-1476591D01*
X-1237388Y-1510519D02*
X-1239173Y-1512305D01*
X-1237388Y-1514091D01*
X-1235602Y-1512305D01*
X-1237388Y-1510519D01*
X-1221316Y-1476591D02*
X-1201673Y-1476591D01*
X-1212388Y-1490876D01*
X-1207030Y-1490876D01*
X-1203459Y-1492662D01*
X-1201673Y-1494448D01*
X-1199888Y-1499805D01*
X-1199888Y-1503376D01*
X-1201673Y-1508734D01*
X-1205245Y-1512305D01*
X-1210602Y-1514091D01*
X-1215959Y-1514091D01*
X-1221316Y-1512305D01*
X-1223102Y-1510519D01*
X-1224888Y-1506948D01*
X-1189173Y-1498019D02*
X-1157030Y-1498019D01*
X-1144530Y-1485519D02*
X-1144530Y-1483734D01*
X-1142745Y-1480162D01*
X-1140959Y-1478376D01*
X-1137387Y-1476591D01*
X-1130245Y-1476591D01*
X-1126673Y-1478376D01*
X-1124887Y-1480162D01*
X-1123102Y-1483734D01*
X-1123102Y-1487305D01*
X-1124887Y-1490876D01*
X-1128459Y-1496234D01*
X-1146316Y-1514091D01*
X-1121316Y-1514091D01*
X-1110602Y-1476591D02*
X-1110602Y-1514091D01*
X-1110602Y-1476591D02*
X-1094530Y-1476591D01*
X-1089173Y-1478376D01*
X-1087388Y-1480162D01*
X-1085602Y-1483734D01*
X-1085602Y-1487305D01*
X-1087388Y-1490876D01*
X-1089173Y-1492662D01*
X-1094530Y-1494448D01*
X-1110602Y-1494448D01*
X-1098102Y-1494448D02*
X-1085602Y-1514091D01*
X-2467745Y-1530162D02*
X-2467745Y-1567662D01*
X-2480245Y-1530162D02*
X-2455245Y-1530162D01*
X-2442745Y-1542662D02*
X-2444530Y-1544448D01*
X-2442745Y-1546234D01*
X-2440959Y-1544448D01*
X-2442745Y-1542662D01*
X-2442745Y-1564091D02*
X-2444530Y-1565876D01*
X-2442745Y-1567662D01*
X-2440959Y-1565876D01*
X-2442745Y-1564091D01*
X-2419530Y-1530162D02*
X-2424888Y-1531948D01*
X-2428459Y-1537305D01*
X-2430245Y-1546234D01*
X-2430245Y-1551591D01*
X-2428459Y-1560519D01*
X-2424888Y-1565876D01*
X-2419530Y-1567662D01*
X-2415959Y-1567662D01*
X-2410602Y-1565876D01*
X-2407030Y-1560519D01*
X-2405245Y-1551591D01*
X-2405245Y-1546234D01*
X-2407030Y-1537305D01*
X-2410602Y-1531948D01*
X-2415959Y-1530162D01*
X-2419530Y-1530162D01*
X-2392745Y-1564091D02*
X-2394530Y-1565876D01*
X-2392745Y-1567662D01*
X-2390959Y-1565876D01*
X-2392745Y-1564091D01*
X-2380245Y-1537305D02*
X-2376673Y-1535519D01*
X-2371316Y-1530162D01*
X-2371316Y-1567662D01*
X-2357030Y-1530162D02*
X-2337388Y-1530162D01*
X-2348102Y-1544448D01*
X-2342745Y-1544448D01*
X-2339173Y-1546234D01*
X-2337388Y-1548019D01*
X-2335602Y-1553376D01*
X-2335602Y-1556948D01*
X-2337388Y-1562305D01*
X-2340959Y-1565876D01*
X-2346316Y-1567662D01*
X-2351673Y-1567662D01*
X-2357030Y-1565876D01*
X-2358816Y-1564091D01*
X-2360602Y-1560519D01*
X-2324888Y-1530162D02*
X-2324888Y-1567662D01*
X-2324888Y-1530162D02*
X-2310602Y-1567662D01*
X-2296316Y-1530162D02*
X-2310602Y-1567662D01*
X-2296316Y-1530162D02*
X-2296316Y-1567662D01*
X-2285602Y-1530162D02*
X-2285602Y-1567662D01*
X-2285602Y-1530162D02*
X-2271316Y-1567662D01*
X-2257030Y-1530162D02*
X-2271316Y-1567662D01*
X-2257030Y-1530162D02*
X-2257030Y-1567662D01*
X-2078459Y-1535519D02*
X-2082030Y-1531948D01*
X-2087387Y-1530162D01*
X-2094530Y-1530162D01*
X-2099888Y-1531948D01*
X-2103459Y-1535519D01*
X-2103459Y-1539091D01*
X-2101673Y-1542662D01*
X-2099888Y-1544448D01*
X-2096316Y-1546234D01*
X-2085602Y-1549805D01*
X-2082030Y-1551591D01*
X-2080245Y-1553376D01*
X-2078459Y-1556948D01*
X-2078459Y-1562305D01*
X-2082030Y-1565876D01*
X-2087387Y-1567662D01*
X-2094530Y-1567662D01*
X-2099888Y-1565876D01*
X-2103459Y-1562305D01*
X-2067745Y-1530162D02*
X-2067745Y-1567662D01*
X-2032030Y-1530162D02*
X-2057030Y-1567662D01*
X-2057030Y-1530162D02*
X-2032030Y-1530162D01*
X-2057030Y-1567662D02*
X-2032030Y-1567662D01*
X-2021316Y-1530162D02*
X-2021316Y-1567662D01*
X-2021316Y-1530162D02*
X-1998102Y-1530162D01*
X-2021316Y-1548019D02*
X-2007030Y-1548019D01*
X-2021316Y-1567662D02*
X-1998102Y-1567662D01*
X-1985602Y-1542662D02*
X-1987388Y-1544448D01*
X-1985602Y-1546234D01*
X-1983816Y-1544448D01*
X-1985602Y-1542662D01*
X-1985602Y-1564091D02*
X-1987388Y-1565876D01*
X-1985602Y-1567662D01*
X-1983816Y-1565876D01*
X-1985602Y-1564091D01*
X-1948102Y-1530162D02*
X-1965959Y-1567662D01*
X-1973102Y-1530162D02*
X-1948102Y-1530162D01*
X-1933816Y-1530162D02*
X-1914173Y-1530162D01*
X-1924887Y-1544448D01*
X-1919530Y-1544448D01*
X-1915959Y-1546234D01*
X-1914173Y-1548019D01*
X-1912387Y-1553376D01*
X-1912387Y-1556948D01*
X-1914173Y-1562305D01*
X-1917745Y-1565876D01*
X-1923102Y-1567662D01*
X-1928459Y-1567662D01*
X-1933816Y-1565876D01*
X-1935602Y-1564091D01*
X-1937388Y-1560519D01*
X-1880245Y-1535519D02*
X-1882030Y-1531948D01*
X-1887387Y-1530162D01*
X-1890959Y-1530162D01*
X-1896316Y-1531948D01*
X-1899887Y-1537305D01*
X-1901673Y-1546234D01*
X-1901673Y-1555162D01*
X-1899887Y-1562305D01*
X-1896316Y-1565876D01*
X-1890959Y-1567662D01*
X-1889173Y-1567662D01*
X-1883816Y-1565876D01*
X-1880245Y-1562305D01*
X-1878459Y-1556948D01*
X-1878459Y-1555162D01*
X-1880245Y-1549805D01*
X-1883816Y-1546234D01*
X-1889173Y-1544448D01*
X-1890959Y-1544448D01*
X-1896316Y-1546234D01*
X-1899887Y-1549805D01*
X-1901673Y-1555162D01*
X-1858816Y-1540876D02*
X-1858816Y-1562305D01*
X-1867745Y-1546234D02*
X-1849888Y-1556948D01*
X-1849888Y-1546234D02*
X-1867745Y-1556948D01*
X-1814173Y-1530162D02*
X-1832030Y-1567662D01*
X-1839173Y-1530162D02*
X-1814173Y-1530162D01*
X-1799888Y-1530162D02*
X-1780245Y-1530162D01*
X-1790959Y-1544448D01*
X-1785602Y-1544448D01*
X-1782030Y-1546234D01*
X-1780245Y-1548019D01*
X-1778459Y-1553376D01*
X-1778459Y-1556948D01*
X-1780245Y-1562305D01*
X-1783816Y-1565876D01*
X-1789173Y-1567662D01*
X-1794530Y-1567662D01*
X-1799888Y-1565876D01*
X-1801673Y-1564091D01*
X-1803459Y-1560519D01*
X-1746316Y-1535519D02*
X-1748102Y-1531948D01*
X-1753459Y-1530162D01*
X-1757030Y-1530162D01*
X-1762388Y-1531948D01*
X-1765959Y-1537305D01*
X-1767745Y-1546234D01*
X-1767745Y-1555162D01*
X-1765959Y-1562305D01*
X-1762388Y-1565876D01*
X-1757030Y-1567662D01*
X-1755245Y-1567662D01*
X-1749887Y-1565876D01*
X-1746316Y-1562305D01*
X-1744530Y-1556948D01*
X-1744530Y-1555162D01*
X-1746316Y-1549805D01*
X-1749887Y-1546234D01*
X-1755245Y-1544448D01*
X-1757030Y-1544448D01*
X-1762388Y-1546234D01*
X-1765959Y-1549805D01*
X-1767745Y-1555162D01*
X-1733816Y-1530162D02*
X-1733816Y-1567662D01*
X-1733816Y-1530162D02*
X-1719530Y-1567662D01*
X-1705245Y-1530162D02*
X-1719530Y-1567662D01*
X-1705245Y-1530162D02*
X-1705245Y-1567662D01*
X-1694530Y-1530162D02*
X-1694530Y-1567662D01*
X-1694530Y-1530162D02*
X-1680245Y-1567662D01*
X-1665959Y-1530162D02*
X-1680245Y-1567662D01*
X-1665959Y-1530162D02*
X-1665959Y-1567662D01*
X-2480245Y-1583734D02*
X-2480245Y-1621234D01*
X-2480245Y-1583734D02*
X-2464173Y-1583734D01*
X-2458816Y-1585519D01*
X-2457030Y-1587305D01*
X-2455245Y-1590876D01*
X-2455245Y-1596234D01*
X-2457030Y-1599805D01*
X-2458816Y-1601591D01*
X-2464173Y-1603376D01*
X-2480245Y-1603376D01*
X-2423102Y-1583734D02*
X-2444530Y-1623019D01*
X-2374887Y-1592662D02*
X-2376673Y-1589091D01*
X-2380245Y-1585519D01*
X-2383816Y-1583734D01*
X-2390959Y-1583734D01*
X-2394530Y-1585519D01*
X-2398102Y-1589091D01*
X-2399887Y-1592662D01*
X-2401673Y-1598019D01*
X-2401673Y-1606948D01*
X-2399887Y-1612305D01*
X-2398102Y-1615876D01*
X-2394530Y-1619448D01*
X-2390959Y-1621234D01*
X-2383816Y-1621234D01*
X-2380245Y-1619448D01*
X-2376673Y-1615876D01*
X-2374887Y-1612305D01*
X-2362387Y-1596234D02*
X-2364173Y-1598019D01*
X-2362387Y-1599805D01*
X-2360602Y-1598019D01*
X-2362387Y-1596234D01*
X-2362387Y-1617662D02*
X-2364173Y-1619448D01*
X-2362387Y-1621234D01*
X-2360602Y-1619448D01*
X-2362387Y-1617662D01*
X-2349887Y-1583734D02*
X-2349887Y-1621234D01*
X-2349887Y-1583734D02*
X-2337388Y-1583734D01*
X-2332030Y-1585519D01*
X-2328459Y-1589091D01*
X-2326673Y-1592662D01*
X-2324888Y-1598019D01*
X-2324888Y-1606948D01*
X-2326673Y-1612305D01*
X-2328459Y-1615876D01*
X-2332030Y-1619448D01*
X-2337388Y-1621234D01*
X-2349887Y-1621234D01*
X-2296316Y-1583734D02*
X-2296316Y-1612305D01*
X-2298102Y-1617662D01*
X-2299888Y-1619448D01*
X-2303459Y-1621234D01*
X-2307030Y-1621234D01*
X-2310602Y-1619448D01*
X-2312388Y-1617662D01*
X-2314173Y-1612305D01*
X-2314173Y-1608734D01*
X-2285602Y-1583734D02*
X-2285602Y-1610519D01*
X-2283816Y-1615876D01*
X-2280245Y-1619448D01*
X-2274888Y-1621234D01*
X-2271316Y-1621234D01*
X-2265959Y-1619448D01*
X-2262388Y-1615876D01*
X-2260602Y-1610519D01*
X-2260602Y-1583734D01*
X-2239173Y-1583734D02*
X-2244530Y-1585519D01*
X-2248102Y-1590876D01*
X-2249887Y-1599805D01*
X-2249887Y-1605162D01*
X-2248102Y-1614091D01*
X-2244530Y-1619448D01*
X-2239173Y-1621234D01*
X-2235602Y-1621234D01*
X-2230245Y-1619448D01*
X-2226673Y-1614091D01*
X-2224887Y-1605162D01*
X-2224887Y-1599805D01*
X-2226673Y-1590876D01*
X-2230245Y-1585519D01*
X-2235602Y-1583734D01*
X-2239173Y-1583734D01*
X-2192745Y-1589091D02*
X-2194530Y-1585519D01*
X-2199887Y-1583734D01*
X-2203459Y-1583734D01*
X-2208816Y-1585519D01*
X-2212387Y-1590876D01*
X-2214173Y-1599805D01*
X-2214173Y-1608734D01*
X-2212387Y-1615876D01*
X-2208816Y-1619448D01*
X-2203459Y-1621234D01*
X-2201673Y-1621234D01*
X-2196316Y-1619448D01*
X-2192745Y-1615876D01*
X-2190959Y-1610519D01*
X-2190959Y-1608734D01*
X-2192745Y-1603376D01*
X-2196316Y-1599805D01*
X-2201673Y-1598019D01*
X-2203459Y-1598019D01*
X-2208816Y-1599805D01*
X-2212387Y-1603376D01*
X-2214173Y-1608734D01*
X-2157030Y-1583734D02*
X-2174888Y-1583734D01*
X-2176673Y-1599805D01*
X-2174888Y-1598019D01*
X-2169530Y-1596234D01*
X-2164173Y-1596234D01*
X-2158816Y-1598019D01*
X-2155245Y-1601591D01*
X-2153459Y-1606948D01*
X-2153459Y-1610519D01*
X-2157030Y-1615876D01*
X-2160602Y-1619448D01*
X-2165959Y-1621234D01*
X-2171316Y-1621234D01*
X-2176673Y-1619448D01*
X-2178459Y-1617662D01*
X-2180245Y-1614091D01*
X-2117745Y-1589091D02*
X-2121316Y-1585519D01*
X-2126673Y-1583734D01*
X-2133816Y-1583734D01*
X-2139173Y-1585519D01*
X-2142745Y-1589091D01*
X-2142745Y-1592662D01*
X-2140959Y-1596234D01*
X-2139173Y-1598019D01*
X-2135602Y-1599805D01*
X-2124888Y-1603376D01*
X-2121316Y-1605162D01*
X-2119530Y-1606948D01*
X-2117745Y-1610519D01*
X-2117745Y-1615876D01*
X-2121316Y-1619448D01*
X-2126673Y-1621234D01*
X-2133816Y-1621234D01*
X-2139173Y-1619448D01*
X-2142745Y-1615876D01*
X-2107030Y-1590876D02*
X-2103459Y-1589091D01*
X-2098102Y-1583734D01*
X-2098102Y-1621234D01*
X-2065959Y-1589091D02*
X-2067745Y-1585519D01*
X-2073102Y-1583734D01*
X-2076673Y-1583734D01*
X-2082030Y-1585519D01*
X-2085602Y-1590876D01*
X-2087387Y-1599805D01*
X-2087387Y-1608734D01*
X-2085602Y-1615876D01*
X-2082030Y-1619448D01*
X-2076673Y-1621234D01*
X-2074887Y-1621234D01*
X-2069530Y-1619448D01*
X-2065959Y-1615876D01*
X-2064173Y-1610519D01*
X-2064173Y-1608734D01*
X-2065959Y-1603376D01*
X-2069530Y-1599805D01*
X-2074887Y-1598019D01*
X-2076673Y-1598019D01*
X-2082030Y-1599805D01*
X-2085602Y-1603376D01*
X-2087387Y-1608734D01*
X-2042745Y-1583734D02*
X-2048102Y-1585519D01*
X-2051673Y-1590876D01*
X-2053459Y-1599805D01*
X-2053459Y-1605162D01*
X-2051673Y-1614091D01*
X-2048102Y-1619448D01*
X-2042745Y-1621234D01*
X-2039173Y-1621234D01*
X-2033816Y-1619448D01*
X-2030245Y-1614091D01*
X-2028459Y-1605162D01*
X-2028459Y-1599805D01*
X-2030245Y-1590876D01*
X-2033816Y-1585519D01*
X-2039173Y-1583734D01*
X-2042745Y-1583734D01*
X-2017745Y-1590876D02*
X-2014173Y-1589091D01*
X-2008816Y-1583734D01*
X-2008816Y-1621234D01*
X-1996316Y-1592662D02*
X-1996316Y-1590876D01*
X-1994530Y-1587305D01*
X-1992745Y-1585519D01*
X-1989173Y-1583734D01*
X-1982030Y-1583734D01*
X-1978459Y-1585519D01*
X-1976673Y-1587305D01*
X-1974888Y-1590876D01*
X-1974888Y-1594448D01*
X-1976673Y-1598019D01*
X-1980245Y-1603376D01*
X-1998102Y-1621234D01*
X-1973102Y-1621234D01*
X-1939173Y-1583734D02*
X-1957030Y-1583734D01*
X-1958816Y-1599805D01*
X-1957030Y-1598019D01*
X-1951673Y-1596234D01*
X-1946316Y-1596234D01*
X-1940959Y-1598019D01*
X-1937388Y-1601591D01*
X-1935602Y-1606948D01*
X-1935602Y-1610519D01*
X-1939173Y-1615876D01*
X-1942745Y-1619448D01*
X-1948102Y-1621234D01*
X-1953459Y-1621234D01*
X-1958816Y-1619448D01*
X-1960602Y-1617662D01*
X-1962388Y-1614091D01*
X-1914173Y-1583734D02*
X-1919530Y-1585519D01*
X-1923102Y-1590876D01*
X-1924887Y-1599805D01*
X-1924887Y-1605162D01*
X-1923102Y-1614091D01*
X-1919530Y-1619448D01*
X-1914173Y-1621234D01*
X-1910602Y-1621234D01*
X-1905245Y-1619448D01*
X-1901673Y-1614091D01*
X-1899887Y-1605162D01*
X-1899887Y-1599805D01*
X-1901673Y-1590876D01*
X-1905245Y-1585519D01*
X-1910602Y-1583734D01*
X-1914173Y-1583734D01*
X-1878459Y-1583734D02*
X-1883816Y-1585519D01*
X-1887387Y-1590876D01*
X-1889173Y-1599805D01*
X-1889173Y-1605162D01*
X-1887387Y-1614091D01*
X-1883816Y-1619448D01*
X-1878459Y-1621234D01*
X-1874887Y-1621234D01*
X-1869530Y-1619448D01*
X-1865959Y-1614091D01*
X-1864173Y-1605162D01*
X-1864173Y-1599805D01*
X-1865959Y-1590876D01*
X-1869530Y-1585519D01*
X-1874887Y-1583734D01*
X-1878459Y-1583734D01*
X-1853459Y-1590876D02*
X-1849888Y-1589091D01*
X-1844530Y-1583734D01*
X-1844530Y-1621234D01*
X-1833816Y-1605162D02*
X-1801673Y-1605162D01*
X-1765959Y-1589091D02*
X-1769530Y-1585519D01*
X-1774888Y-1583734D01*
X-1782030Y-1583734D01*
X-1787388Y-1585519D01*
X-1790959Y-1589091D01*
X-1790959Y-1592662D01*
X-1789173Y-1596234D01*
X-1787388Y-1598019D01*
X-1783816Y-1599805D01*
X-1773102Y-1603376D01*
X-1769530Y-1605162D01*
X-1767745Y-1606948D01*
X-1765959Y-1610519D01*
X-1765959Y-1615876D01*
X-1769530Y-1619448D01*
X-1774888Y-1621234D01*
X-1782030Y-1621234D01*
X-1787388Y-1619448D01*
X-1790959Y-1615876D01*
X-2480245Y-1637305D02*
X-2480245Y-1674805D01*
X-2480245Y-1637305D02*
X-2467745Y-1637305D01*
X-2462388Y-1639091D01*
X-2458816Y-1642662D01*
X-2457030Y-1646233D01*
X-2455245Y-1651591D01*
X-2455245Y-1660519D01*
X-2457030Y-1665876D01*
X-2458816Y-1669448D01*
X-2462388Y-1673019D01*
X-2467745Y-1674805D01*
X-2480245Y-1674805D01*
X-2430245Y-1637305D02*
X-2444530Y-1674805D01*
X-2430245Y-1637305D02*
X-2415959Y-1674805D01*
X-2439173Y-1662305D02*
X-2421316Y-1662305D01*
X-2392745Y-1637305D02*
X-2392745Y-1674805D01*
X-2405245Y-1637305D02*
X-2380245Y-1637305D01*
X-2369530Y-1637305D02*
X-2369530Y-1674805D01*
X-2369530Y-1637305D02*
X-2346316Y-1637305D01*
X-2369530Y-1655162D02*
X-2355245Y-1655162D01*
X-2369530Y-1674805D02*
X-2346316Y-1674805D01*
X-2333816Y-1649805D02*
X-2335602Y-1651591D01*
X-2333816Y-1653376D01*
X-2332030Y-1651591D01*
X-2333816Y-1649805D01*
X-2333816Y-1671234D02*
X-2335602Y-1673019D01*
X-2333816Y-1674805D01*
X-2332030Y-1673019D01*
X-2333816Y-1671234D01*
X-2319530Y-1646233D02*
X-2319530Y-1644448D01*
X-2317745Y-1640876D01*
X-2315959Y-1639091D01*
X-2312388Y-1637305D01*
X-2305245Y-1637305D01*
X-2301673Y-1639091D01*
X-2299888Y-1640876D01*
X-2298102Y-1644448D01*
X-2298102Y-1648019D01*
X-2299888Y-1651591D01*
X-2303459Y-1656948D01*
X-2321316Y-1674805D01*
X-2296316Y-1674805D01*
X-2274888Y-1637305D02*
X-2280245Y-1639091D01*
X-2283816Y-1644448D01*
X-2285602Y-1653376D01*
X-2285602Y-1658734D01*
X-2283816Y-1667662D01*
X-2280245Y-1673019D01*
X-2274888Y-1674805D01*
X-2271316Y-1674805D01*
X-2265959Y-1673019D01*
X-2262388Y-1667662D01*
X-2260602Y-1658734D01*
X-2260602Y-1653376D01*
X-2262388Y-1644448D01*
X-2265959Y-1639091D01*
X-2271316Y-1637305D01*
X-2274888Y-1637305D01*
X-2249887Y-1644448D02*
X-2246316Y-1642662D01*
X-2240959Y-1637305D01*
X-2240959Y-1674805D01*
X-2208816Y-1642662D02*
X-2210602Y-1639091D01*
X-2215959Y-1637305D01*
X-2219530Y-1637305D01*
X-2224887Y-1639091D01*
X-2228459Y-1644448D01*
X-2230245Y-1653376D01*
X-2230245Y-1662305D01*
X-2228459Y-1669448D01*
X-2224887Y-1673019D01*
X-2219530Y-1674805D01*
X-2217745Y-1674805D01*
X-2212387Y-1673019D01*
X-2208816Y-1669448D01*
X-2207030Y-1664091D01*
X-2207030Y-1662305D01*
X-2208816Y-1656948D01*
X-2212387Y-1653376D01*
X-2217745Y-1651591D01*
X-2219530Y-1651591D01*
X-2224887Y-1653376D01*
X-2228459Y-1656948D01*
X-2230245Y-1662305D01*
X-2196316Y-1658734D02*
X-2164173Y-1658734D01*
X-2153459Y-1644448D02*
X-2149888Y-1642662D01*
X-2144530Y-1637305D01*
X-2144530Y-1674805D01*
X-2133816Y-1658734D02*
X-2101673Y-1658734D01*
X-2089173Y-1646233D02*
X-2089173Y-1644448D01*
X-2087387Y-1640876D01*
X-2085602Y-1639091D01*
X-2082030Y-1637305D01*
X-2074887Y-1637305D01*
X-2071316Y-1639091D01*
X-2069530Y-1640876D01*
X-2067745Y-1644448D01*
X-2067745Y-1648019D01*
X-2069530Y-1651591D01*
X-2073102Y-1656948D01*
X-2090959Y-1674805D01*
X-2065959Y-1674805D01*
X-2033816Y-1642662D02*
X-2035602Y-1639091D01*
X-2040959Y-1637305D01*
X-2044530Y-1637305D01*
X-2049887Y-1639091D01*
X-2053459Y-1644448D01*
X-2055245Y-1653376D01*
X-2055245Y-1662305D01*
X-2053459Y-1669448D01*
X-2049887Y-1673019D01*
X-2044530Y-1674805D01*
X-2042745Y-1674805D01*
X-2037387Y-1673019D01*
X-2033816Y-1669448D01*
X-2032030Y-1664091D01*
X-2032030Y-1662305D01*
X-2033816Y-1656948D01*
X-2037387Y-1653376D01*
X-2042745Y-1651591D01*
X-2044530Y-1651591D01*
X-2049887Y-1653376D01*
X-2053459Y-1656948D01*
X-2055245Y-1662305D01*
G36*
G01X-2009748Y-782678D02*
X-2012813Y-785162D01*
X-2013444Y-791189D01*
X-2005129Y-792050D01*
X-2004497Y-786013D01*
X-2006983Y-782967D01*
X-2009748Y-782678D01*
G37*
G36*
G01X-2011154Y-769017D02*
X-2011786Y-775054D01*
X-2009299Y-778100D01*
X-2006525Y-778400D01*
X-2003469Y-775905D01*
X-2002838Y-769878D01*
X-2011154Y-769017D01*
G37*
G36*
G01X-1820839Y-862202D02*
X-1823904Y-864687D01*
X-1824535Y-870714D01*
X-1816220Y-871574D01*
X-1815588Y-865537D01*
X-1818074Y-862492D01*
X-1820839Y-862202D01*
G37*
G36*
G01X-1822245Y-848542D02*
X-1822877Y-854579D01*
X-1820390Y-857624D01*
X-1817616Y-857925D01*
X-1814560Y-855429D01*
X-1813929Y-849402D01*
X-1822245Y-848542D01*
G37*
G36*
G01X-1625202Y-939113D02*
X-1628267Y-941598D01*
X-1628898Y-947625D01*
X-1620582Y-948485D01*
X-1619950Y-942448D01*
X-1622437Y-939403D01*
X-1625202Y-939113D01*
G37*
G36*
G01X-1626607Y-925453D02*
X-1627239Y-931490D01*
X-1624753Y-934535D01*
X-1621979Y-934836D01*
X-1618923Y-932340D01*
X-1618292Y-926313D01*
X-1626607Y-925453D01*
G37*
G36*
G01X-1436875Y-1009116D02*
X-1439940Y-1011600D01*
X-1440571Y-1017627D01*
X-1432255Y-1018487D01*
X-1431623Y-1012450D01*
X-1434110Y-1009405D01*
X-1436875Y-1009116D01*
G37*
G36*
G01X-1438280Y-995455D02*
X-1438912Y-1001492D01*
X-1436426Y-1004537D01*
X-1433652Y-1004838D01*
X-1430595Y-1002342D01*
X-1429965Y-996315D01*
X-1438280Y-995455D01*
G37*
G36*
G01X90448Y-1183153D02*
X87383Y-1185638D01*
X86752Y-1191665D01*
X95067Y-1192525D01*
X95699Y-1186488D01*
X93213Y-1183443D01*
X90448Y-1183153D01*
G37*
G36*
G01X89042Y-1169493D02*
X88410Y-1175530D01*
X90897Y-1178575D01*
X93671Y-1178876D01*
X96727Y-1176380D01*
X97358Y-1170353D01*
X89042Y-1169493D01*
G37*
G36*
G01X5229Y-1195983D02*
X2164Y-1198468D01*
X1533Y-1204495D01*
X9849Y-1205355D01*
X10480Y-1199318D01*
X7994Y-1196272D01*
X5229Y-1195983D01*
G37*
G36*
G01X3823Y-1182323D02*
X3191Y-1188360D01*
X5678Y-1191405D01*
X8452Y-1191705D01*
X11508Y-1189210D01*
X12139Y-1183183D01*
X3823Y-1182323D01*
G37*
G36*
G01X-1240959Y-1080385D02*
X-1244024Y-1082869D01*
X-1244655Y-1088896D01*
X-1236339Y-1089756D01*
X-1235707Y-1083719D01*
X-1238194Y-1080674D01*
X-1240959Y-1080385D01*
G37*
G36*
G01X-1242364Y-1066724D02*
X-1242996Y-1072761D01*
X-1240510Y-1075806D01*
X-1237736Y-1076107D01*
X-1234680Y-1073611D01*
X-1234049Y-1067584D01*
X-1242364Y-1066724D01*
G37*
G36*
G01X-195806Y-1214358D02*
X-198871Y-1216843D01*
X-199502Y-1222870D01*
X-191186Y-1223730D01*
X-190554Y-1217693D01*
X-193041Y-1214648D01*
X-195806Y-1214358D01*
G37*
G36*
G01X-197211Y-1200698D02*
X-197843Y-1206735D01*
X-195357Y-1209780D01*
X-192583Y-1210081D01*
X-189526Y-1207585D01*
X-188896Y-1201558D01*
X-197211Y-1200698D01*
G37*
G36*
G01X-1047723Y-1144125D02*
X-1050788Y-1146609D01*
X-1051419Y-1152636D01*
X-1043104Y-1153496D01*
X-1042472Y-1147459D01*
X-1044958Y-1144414D01*
X-1047723Y-1144125D01*
G37*
G36*
G01X-1049129Y-1130464D02*
X-1049761Y-1136501D01*
X-1047274Y-1139546D01*
X-1044500Y-1139847D01*
X-1041444Y-1137351D01*
X-1040813Y-1131324D01*
X-1049129Y-1130464D01*
G37*
G36*
G01X-950403Y-1179848D02*
X-953468Y-1182333D01*
X-954099Y-1188360D01*
X-945783Y-1189220D01*
X-945151Y-1183183D01*
X-947638Y-1180138D01*
X-950403Y-1179848D01*
G37*
G36*
G01X-951809Y-1166188D02*
X-952440Y-1172225D01*
X-949954Y-1175270D01*
X-947180Y-1175571D01*
X-944124Y-1173075D01*
X-943493Y-1167048D01*
X-951809Y-1166188D01*
G37*
G36*
G01X-394643Y-1244788D02*
X-397708Y-1247272D01*
X-398339Y-1253300D01*
X-390023Y-1254160D01*
X-389392Y-1248123D01*
X-391878Y-1245077D01*
X-394643Y-1244788D01*
G37*
G36*
G01X-396049Y-1231128D02*
X-396681Y-1237165D01*
X-394194Y-1240210D01*
X-391420Y-1240510D01*
X-388364Y-1238015D01*
X-387733Y-1231988D01*
X-396049Y-1231128D01*
G37*
G36*
G01X1414862Y-822970D02*
X1412378Y-819904D01*
X1406351Y-819274D01*
X1405491Y-827589D01*
X1411528Y-828221D01*
X1414573Y-825735D01*
X1414862Y-822970D01*
G37*
G36*
G01X1428523Y-821564D02*
X1422486Y-820932D01*
X1419441Y-823419D01*
X1419140Y-826192D01*
X1421636Y-829249D01*
X1427663Y-829879D01*
X1428523Y-821564D01*
G37*
G36*
G01X1208510Y-890609D02*
X1206026Y-887543D01*
X1199999Y-886913D01*
X1199139Y-895228D01*
X1205176Y-895860D01*
X1208221Y-893374D01*
X1208510Y-890609D01*
G37*
G36*
G01X1222171Y-889203D02*
X1216134Y-888571D01*
X1213089Y-891058D01*
X1212788Y-893831D01*
X1215284Y-896888D01*
X1221311Y-897519D01*
X1222171Y-889203D01*
G37*
G36*
G01X1002181Y-945943D02*
X999696Y-942878D01*
X993669Y-942247D01*
X992809Y-950563D01*
X998846Y-951195D01*
X1001891Y-948708D01*
X1002181Y-945943D01*
G37*
G36*
G01X1015841Y-944538D02*
X1009804Y-943906D01*
X1006759Y-946392D01*
X1006458Y-949166D01*
X1008954Y-952222D01*
X1014981Y-952853D01*
X1015841Y-944538D01*
G37*
G36*
G01X792144Y-997592D02*
X789659Y-994527D01*
X783632Y-993896D01*
X782772Y-1002212D01*
X788809Y-1002843D01*
X791854Y-1000357D01*
X792144Y-997592D01*
G37*
G36*
G01X805804Y-996186D02*
X799767Y-995554D01*
X796722Y-998041D01*
X796422Y-1000815D01*
X798917Y-1003871D01*
X804944Y-1004502D01*
X805804Y-996186D01*
G37*
G36*
G01X584355Y-1047264D02*
X581870Y-1044199D01*
X575843Y-1043568D01*
X574983Y-1051884D01*
X581020Y-1052515D01*
X584065Y-1050029D01*
X584355Y-1047264D01*
G37*
G36*
G01X598015Y-1045858D02*
X591978Y-1045226D01*
X588933Y-1047713D01*
X588633Y-1050487D01*
X591128Y-1053543D01*
X597155Y-1054174D01*
X598015Y-1045858D01*
G37*
G36*
G01X373020Y-1087104D02*
X370535Y-1084038D01*
X364508Y-1083408D01*
X363648Y-1091723D01*
X369685Y-1092355D01*
X372730Y-1089869D01*
X373020Y-1087104D01*
G37*
G36*
G01X386680Y-1085698D02*
X380643Y-1085066D01*
X377598Y-1087553D01*
X377298Y-1090326D01*
X379793Y-1093383D01*
X385820Y-1094014D01*
X386680Y-1085698D01*
G37*
G36*
G01X-687294Y-1183886D02*
X-689778Y-1180821D01*
X-695805Y-1180190D01*
X-696666Y-1188506D01*
X-690629Y-1189138D01*
X-687583Y-1186651D01*
X-687294Y-1183886D01*
G37*
G36*
G01X-673633Y-1182480D02*
X-679670Y-1181849D01*
X-682716Y-1184335D01*
X-683016Y-1187109D01*
X-680521Y-1190165D01*
X-674494Y-1190796D01*
X-673633Y-1182480D01*
G37*
G36*
G01X1567758Y-783667D02*
X1566345Y-787351D01*
X1568813Y-792886D01*
X1576444Y-789473D01*
X1573973Y-783929D01*
X1570297Y-782535D01*
X1567758Y-783667D01*
G37*
G36*
G01X1559710Y-772540D02*
X1562181Y-778084D01*
X1565857Y-779478D01*
X1568410Y-778351D01*
X1569809Y-774662D01*
X1567342Y-769127D01*
X1559710Y-772540D01*
G37*
G36*
G01X1771635Y-699224D02*
X1770516Y-703007D01*
X1773410Y-708332D01*
X1780750Y-704331D01*
X1777851Y-698998D01*
X1774077Y-697896D01*
X1771635Y-699224D01*
G37*
G36*
G01X1762739Y-688762D02*
X1765637Y-694095D01*
X1769412Y-695196D01*
X1771868Y-693873D01*
X1772973Y-690085D01*
X1770079Y-684761D01*
X1762739Y-688762D01*
G37*
G36*
G01X1989888Y-605695D02*
X1988902Y-609515D01*
X1991980Y-614735D01*
X1999177Y-610481D01*
X1996093Y-605252D01*
X1992283Y-604283D01*
X1989888Y-605695D01*
G37*
G36*
G01X1980633Y-595550D02*
X1983716Y-600779D01*
X1987526Y-601748D01*
X1989935Y-600339D01*
X1990907Y-596515D01*
X1987829Y-591295D01*
X1980633Y-595550D01*
G37*
G36*
G01X26287Y-595899D02*
X24021Y-599129D01*
X25068Y-605098D01*
X33301Y-603643D01*
X32252Y-597664D01*
X29025Y-595418D01*
X26287Y-595899D01*
G37*
G36*
G01X21186Y-583148D02*
X22235Y-589127D01*
X25462Y-591373D01*
X28212Y-590901D01*
X30466Y-587662D01*
X29419Y-581694D01*
X21186Y-583148D01*
G37*
G36*
G01X-2009748Y430923D02*
X-2012813Y428439D01*
X-2013444Y422412D01*
X-2005129Y421552D01*
X-2004497Y427589D01*
X-2006983Y430634D01*
X-2009748Y430923D01*
G37*
G36*
G01X-2011154Y444584D02*
X-2011786Y438547D01*
X-2009299Y435502D01*
X-2006525Y435201D01*
X-2003469Y437697D01*
X-2002838Y443724D01*
X-2011154Y444584D01*
G37*
G36*
G01X26287Y617703D02*
X24021Y614472D01*
X25068Y608504D01*
X33301Y609958D01*
X32252Y615937D01*
X29025Y618183D01*
X26287Y617703D01*
G37*
G36*
G01X21186Y630453D02*
X22235Y624474D01*
X25462Y622228D01*
X28212Y622701D01*
X30466Y625939D01*
X29419Y631908D01*
X21186Y630453D01*
G37*
G36*
G01X2007734Y1169806D02*
X2005468Y1166576D01*
X2006516Y1160607D01*
X2014748Y1162062D01*
X2013699Y1168040D01*
X2010472Y1170286D01*
X2007734Y1169806D01*
G37*
G36*
G01X2002634Y1182556D02*
X2003683Y1176578D01*
X2006910Y1174331D01*
X2009659Y1174804D01*
X2011913Y1178042D01*
X2010866Y1184011D01*
X2002634Y1182556D01*
G37*
G36*
G01X1824798Y1077366D02*
X1822532Y1074135D01*
X1823579Y1068167D01*
X1831812Y1069621D01*
X1830763Y1075600D01*
X1827536Y1077846D01*
X1824798Y1077366D01*
G37*
G36*
G01X1819697Y1090116D02*
X1820746Y1084137D01*
X1823973Y1081891D01*
X1826723Y1082364D01*
X1828977Y1085602D01*
X1827930Y1091571D01*
X1819697Y1090116D01*
G37*
G36*
G01X1634968Y987066D02*
X1632702Y983836D01*
X1633749Y977867D01*
X1641982Y979322D01*
X1640932Y985300D01*
X1637706Y987547D01*
X1634968Y987066D01*
G37*
G36*
G01X1629867Y999816D02*
X1630916Y993838D01*
X1634143Y991592D01*
X1636893Y992064D01*
X1639147Y995302D01*
X1638099Y1001271D01*
X1629867Y999816D01*
G37*
G36*
G01X1451951Y904166D02*
X1449685Y900936D01*
X1450733Y894967D01*
X1458965Y896422D01*
X1457916Y902401D01*
X1454689Y904647D01*
X1451951Y904166D01*
G37*
G36*
G01X1446851Y916917D02*
X1447900Y910938D01*
X1451127Y908692D01*
X1453876Y909164D01*
X1456131Y912403D01*
X1455083Y918371D01*
X1446851Y916917D01*
G37*
G36*
G01X-59615Y624579D02*
X-61881Y621348D01*
X-60833Y615380D01*
X-52601Y616834D01*
X-53650Y622813D01*
X-56877Y625059D01*
X-59615Y624579D01*
G37*
G36*
G01X-64716Y637329D02*
X-63666Y631350D01*
X-60440Y629104D01*
X-57690Y629577D01*
X-55436Y632815D01*
X-56483Y638784D01*
X-64716Y637329D01*
G37*
G36*
G01X1261452Y819476D02*
X1259186Y816246D01*
X1260234Y810277D01*
X1268466Y811732D01*
X1267417Y817710D01*
X1264190Y819956D01*
X1261452Y819476D01*
G37*
G36*
G01X1256352Y832226D02*
X1257401Y826248D01*
X1260628Y824001D01*
X1263377Y824474D01*
X1265632Y827712D01*
X1264584Y833681D01*
X1256352Y832226D01*
G37*
G36*
G01X228112Y613320D02*
X225846Y610090D01*
X226893Y604121D01*
X235126Y605576D01*
X234077Y611554D01*
X230850Y613800D01*
X228112Y613320D01*
G37*
G36*
G01X223011Y626070D02*
X224060Y620092D01*
X227287Y617845D01*
X230037Y618318D01*
X232291Y621556D01*
X231244Y627525D01*
X223011Y626070D01*
G37*
G36*
G01X1073105Y742483D02*
X1070839Y739253D01*
X1071887Y733284D01*
X1080119Y734739D01*
X1079070Y740717D01*
X1075843Y742963D01*
X1073105Y742483D01*
G37*
G36*
G01X1068005Y755233D02*
X1069054Y749255D01*
X1072281Y747009D01*
X1075030Y747481D01*
X1077285Y750719D01*
X1076237Y756688D01*
X1068005Y755233D01*
G37*
G36*
G01X978498Y700093D02*
X976232Y696863D01*
X977280Y690894D01*
X985512Y692349D01*
X984463Y698327D01*
X981236Y700573D01*
X978498Y700093D01*
G37*
G36*
G01X973397Y712843D02*
X974447Y706865D01*
X977673Y704619D01*
X980423Y705091D01*
X982677Y708329D01*
X981630Y714298D01*
X973397Y712843D01*
G37*
G36*
G01X428583Y596750D02*
X426317Y593520D01*
X427365Y587551D01*
X435597Y589006D01*
X434548Y594984D01*
X431321Y597231D01*
X428583Y596750D01*
G37*
G36*
G01X423483Y609500D02*
X424532Y603522D01*
X427759Y601276D01*
X430508Y601748D01*
X432763Y604986D01*
X431715Y610955D01*
X423483Y609500D01*
G37*
G36*
G01X-1407680Y891679D02*
X-1410910Y893945D01*
X-1416879Y892897D01*
X-1415424Y884665D01*
X-1409445Y885714D01*
X-1407199Y888941D01*
X-1407680Y891679D01*
G37*
G36*
G01X-1394929Y896779D02*
X-1400908Y895730D01*
X-1403154Y892504D01*
X-1402682Y889754D01*
X-1399443Y887500D01*
X-1393475Y888547D01*
X-1394929Y896779D01*
G37*
G36*
G01X-1197133Y838520D02*
X-1200363Y840786D01*
X-1206332Y839739D01*
X-1204877Y831506D01*
X-1198899Y832555D01*
X-1196653Y835782D01*
X-1197133Y838520D01*
G37*
G36*
G01X-1184383Y843621D02*
X-1190361Y842572D01*
X-1192607Y839345D01*
X-1192135Y836595D01*
X-1188897Y834341D01*
X-1182928Y835388D01*
X-1184383Y843621D01*
G37*
G36*
G01X-987461Y797635D02*
X-990691Y799901D01*
X-996660Y798853D01*
X-995205Y790621D01*
X-989226Y791670D01*
X-986980Y794897D01*
X-987461Y797635D01*
G37*
G36*
G01X-974710Y802735D02*
X-980689Y801686D01*
X-982935Y798459D01*
X-982463Y795710D01*
X-979224Y793455D01*
X-973256Y794503D01*
X-974710Y802735D01*
G37*
G36*
G01X-774347Y760683D02*
X-777578Y762949D01*
X-783546Y761902D01*
X-782092Y753669D01*
X-776113Y754719D01*
X-773867Y757945D01*
X-774347Y760683D01*
G37*
G36*
G01X-761597Y765784D02*
X-767576Y764735D01*
X-769822Y761508D01*
X-769349Y758758D01*
X-766111Y756504D01*
X-760142Y757552D01*
X-761597Y765784D01*
G37*
G36*
G01X-563612Y725548D02*
X-566842Y727813D01*
X-572811Y726766D01*
X-571356Y718534D01*
X-565378Y719583D01*
X-563132Y722810D01*
X-563612Y725548D01*
G37*
G36*
G01X-550862Y730648D02*
X-556840Y729599D01*
X-559086Y726372D01*
X-558614Y723623D01*
X-555376Y721368D01*
X-549407Y722416D01*
X-550862Y730648D01*
G37*
G36*
G01X-350022Y700467D02*
X-353252Y702733D01*
X-359221Y701685D01*
X-357766Y693453D01*
X-351788Y694502D01*
X-349542Y697729D01*
X-350022Y700467D01*
G37*
G36*
G01X-337272Y705567D02*
X-343251Y704518D01*
X-345497Y701292D01*
X-345024Y698542D01*
X-341786Y696288D01*
X-335817Y697335D01*
X-337272Y705567D01*
G37*
G36*
G01X714439Y677493D02*
X711209Y679759D01*
X705240Y678712D01*
X706695Y670479D01*
X712674Y671528D01*
X714920Y674755D01*
X714439Y677493D01*
G37*
G36*
G01X727190Y682594D02*
X721211Y681545D01*
X718965Y678318D01*
X719437Y675568D01*
X722676Y673314D01*
X728644Y674361D01*
X727190Y682594D01*
G37*
G36*
G01X-1558385Y921093D02*
X-1556720Y917515D01*
X-1558797Y911822D01*
X-1566647Y914698D01*
X-1564567Y920400D01*
X-1560996Y922046D01*
X-1558385Y921093D01*
G37*
G36*
G01X-1551128Y932752D02*
X-1553209Y927049D01*
X-1556780Y925404D01*
X-1559404Y926351D01*
X-1561056Y929934D01*
X-1558978Y935627D01*
X-1551128Y932752D01*
G37*
G36*
G01X-1767616Y991169D02*
X-1766237Y987472D01*
X-1768754Y981960D01*
X-1776355Y985442D01*
X-1773833Y990964D01*
X-1770144Y992324D01*
X-1767616Y991169D01*
G37*
G36*
G01X-1759467Y1002223D02*
X-1761989Y996702D01*
X-1765677Y995341D01*
X-1768219Y996491D01*
X-1769585Y1000193D01*
X-1767067Y1005705D01*
X-1759467Y1002223D01*
G37*
G36*
G01X-1991847Y1069342D02*
X-1990598Y1065599D01*
X-1993307Y1060178D01*
X-2000781Y1063924D01*
X-1998068Y1069354D01*
X-1994334Y1070585D01*
X-1991847Y1069342D01*
G37*
G36*
G01X-1983318Y1080105D02*
X-1986030Y1074675D01*
X-1989764Y1073444D01*
X-1992265Y1074682D01*
X-1993500Y1078429D01*
X-1990792Y1083850D01*
X-1983318Y1080105D01*
G37*
G36*
G01X-1820839Y351399D02*
X-1823904Y348914D01*
X-1824535Y342887D01*
X-1816220Y342027D01*
X-1815588Y348064D01*
X-1818074Y351109D01*
X-1820839Y351399D01*
G37*
G36*
G01X-1822245Y365059D02*
X-1822877Y359022D01*
X-1820390Y355977D01*
X-1817616Y355676D01*
X-1814560Y358172D01*
X-1813929Y364199D01*
X-1822245Y365059D01*
G37*
G36*
G01X-1625202Y274488D02*
X-1628267Y272003D01*
X-1628898Y265976D01*
X-1620582Y265116D01*
X-1619950Y271153D01*
X-1622437Y274199D01*
X-1625202Y274488D01*
G37*
G36*
G01X-1626607Y288148D02*
X-1627239Y282111D01*
X-1624753Y279066D01*
X-1621979Y278766D01*
X-1618923Y281261D01*
X-1618292Y287288D01*
X-1626607Y288148D01*
G37*
G36*
G01X-1436875Y204485D02*
X-1439940Y202001D01*
X-1440571Y195974D01*
X-1432255Y195114D01*
X-1431623Y201151D01*
X-1434110Y204196D01*
X-1436875Y204485D01*
G37*
G36*
G01X-1438280Y218146D02*
X-1438912Y212109D01*
X-1436426Y209064D01*
X-1433652Y208763D01*
X-1430595Y211259D01*
X-1429965Y217286D01*
X-1438280Y218146D01*
G37*
G36*
G01X90448Y30447D02*
X87383Y27963D01*
X86752Y21936D01*
X95067Y21076D01*
X95699Y27113D01*
X93213Y30158D01*
X90448Y30447D01*
G37*
G36*
G01X89042Y44108D02*
X88410Y38071D01*
X90897Y35026D01*
X93671Y34725D01*
X96727Y37221D01*
X97358Y43248D01*
X89042Y44108D01*
G37*
G36*
G01X5229Y17618D02*
X2164Y15133D01*
X1533Y9106D01*
X9849Y8246D01*
X10480Y14283D01*
X7994Y17328D01*
X5229Y17618D01*
G37*
G36*
G01X3823Y31278D02*
X3191Y25241D01*
X5678Y22196D01*
X8452Y21896D01*
X11508Y24391D01*
X12139Y30418D01*
X3823Y31278D01*
G37*
G36*
G01X-1240959Y133216D02*
X-1244024Y130732D01*
X-1244655Y124705D01*
X-1236339Y123845D01*
X-1235707Y129882D01*
X-1238194Y132927D01*
X-1240959Y133216D01*
G37*
G36*
G01X-1242364Y146877D02*
X-1242996Y140840D01*
X-1240510Y137795D01*
X-1237736Y137494D01*
X-1234680Y139990D01*
X-1234049Y146017D01*
X-1242364Y146877D01*
G37*
G36*
G01X-195806Y-757D02*
X-198871Y-3242D01*
X-199502Y-9269D01*
X-191186Y-10129D01*
X-190554Y-4092D01*
X-193041Y-1046D01*
X-195806Y-757D01*
G37*
G36*
G01X-197211Y12903D02*
X-197843Y6866D01*
X-195357Y3821D01*
X-192583Y3521D01*
X-189526Y6016D01*
X-188896Y12043D01*
X-197211Y12903D01*
G37*
G36*
G01X-1047723Y69476D02*
X-1050788Y66992D01*
X-1051419Y60965D01*
X-1043104Y60105D01*
X-1042472Y66142D01*
X-1044958Y69187D01*
X-1047723Y69476D01*
G37*
G36*
G01X-1049129Y83137D02*
X-1049761Y77100D01*
X-1047274Y74054D01*
X-1044500Y73754D01*
X-1041444Y76250D01*
X-1040813Y82277D01*
X-1049129Y83137D01*
G37*
G36*
G01X-950403Y33753D02*
X-953468Y31268D01*
X-954099Y25241D01*
X-945783Y24381D01*
X-945151Y30418D01*
X-947638Y33463D01*
X-950403Y33753D01*
G37*
G36*
G01X-951809Y47413D02*
X-952440Y41376D01*
X-949954Y38331D01*
X-947180Y38031D01*
X-944124Y40526D01*
X-943493Y46553D01*
X-951809Y47413D01*
G37*
G36*
G01X-394643Y-31187D02*
X-397708Y-33671D01*
X-398339Y-39698D01*
X-390023Y-40559D01*
X-389392Y-34521D01*
X-391878Y-31476D01*
X-394643Y-31187D01*
G37*
G36*
G01X-396049Y-17526D02*
X-396681Y-23563D01*
X-394194Y-26609D01*
X-391420Y-26909D01*
X-388364Y-24414D01*
X-387733Y-18386D01*
X-396049Y-17526D01*
G37*
G36*
G01X1414862Y390631D02*
X1412378Y393697D01*
X1406351Y394327D01*
X1405491Y386012D01*
X1411528Y385380D01*
X1414573Y387866D01*
X1414862Y390631D01*
G37*
G36*
G01X1428523Y392037D02*
X1422486Y392669D01*
X1419441Y390182D01*
X1419140Y387409D01*
X1421636Y384352D01*
X1427663Y383722D01*
X1428523Y392037D01*
G37*
G36*
G01X1208510Y322992D02*
X1206026Y326057D01*
X1199999Y326688D01*
X1199139Y318373D01*
X1205176Y317741D01*
X1208221Y320227D01*
X1208510Y322992D01*
G37*
G36*
G01X1222171Y324398D02*
X1216134Y325030D01*
X1213089Y322543D01*
X1212788Y319769D01*
X1215284Y316713D01*
X1221311Y316082D01*
X1222171Y324398D01*
G37*
G36*
G01X1002181Y267658D02*
X999696Y270723D01*
X993669Y271354D01*
X992809Y263038D01*
X998846Y262406D01*
X1001891Y264893D01*
X1002181Y267658D01*
G37*
G36*
G01X1015841Y269064D02*
X1009804Y269695D01*
X1006759Y267209D01*
X1006458Y264435D01*
X1008954Y261379D01*
X1014981Y260748D01*
X1015841Y269064D01*
G37*
G36*
G01X792144Y216009D02*
X789659Y219074D01*
X783632Y219705D01*
X782772Y211390D01*
X788809Y210758D01*
X791854Y213244D01*
X792144Y216009D01*
G37*
G36*
G01X805804Y217415D02*
X799767Y218047D01*
X796722Y215560D01*
X796422Y212786D01*
X798917Y209730D01*
X804944Y209099D01*
X805804Y217415D01*
G37*
G36*
G01X584355Y166337D02*
X581870Y169402D01*
X575843Y170033D01*
X574983Y161717D01*
X581020Y161086D01*
X584065Y163572D01*
X584355Y166337D01*
G37*
G36*
G01X598015Y167743D02*
X591978Y168375D01*
X588933Y165888D01*
X588633Y163114D01*
X591128Y160058D01*
X597155Y159427D01*
X598015Y167743D01*
G37*
G36*
G01X373020Y126497D02*
X370535Y129563D01*
X364508Y130193D01*
X363648Y121878D01*
X369685Y121246D01*
X372730Y123732D01*
X373020Y126497D01*
G37*
G36*
G01X386680Y127903D02*
X380643Y128535D01*
X377598Y126048D01*
X377298Y123275D01*
X379793Y120218D01*
X385820Y119587D01*
X386680Y127903D01*
G37*
G36*
G01X-687294Y29715D02*
X-689778Y32780D01*
X-695805Y33411D01*
X-696666Y25095D01*
X-690629Y24463D01*
X-687583Y26950D01*
X-687294Y29715D01*
G37*
G36*
G01X-673633Y31121D02*
X-679670Y31752D01*
X-682716Y29266D01*
X-683016Y26492D01*
X-680521Y23436D01*
X-674494Y22805D01*
X-673633Y31121D01*
G37*
G36*
G01X1567758Y429934D02*
X1566345Y426250D01*
X1568813Y420715D01*
X1576444Y424128D01*
X1573973Y429672D01*
X1570297Y431066D01*
X1567758Y429934D01*
G37*
G36*
G01X1559710Y441061D02*
X1562181Y435517D01*
X1565857Y434123D01*
X1568410Y435250D01*
X1569809Y438939D01*
X1567342Y444474D01*
X1559710Y441061D01*
G37*
G36*
G01X1771635Y514378D02*
X1770516Y510594D01*
X1773410Y505270D01*
X1780750Y509271D01*
X1777851Y514604D01*
X1774077Y515705D01*
X1771635Y514378D01*
G37*
G36*
G01X1762739Y524839D02*
X1765637Y519506D01*
X1769412Y518405D01*
X1771868Y519728D01*
X1772973Y523516D01*
X1770079Y528840D01*
X1762739Y524839D01*
G37*
G36*
G01X1989888Y607906D02*
X1988902Y604086D01*
X1991980Y598866D01*
X1999177Y603121D01*
X1996093Y608349D01*
X1992283Y609318D01*
X1989888Y607906D01*
G37*
G36*
G01X1980633Y618051D02*
X1983716Y612822D01*
X1987526Y611854D01*
X1989935Y613262D01*
X1990907Y617086D01*
X1987829Y622306D01*
X1980633Y618051D01*
G37*
G36*
G01X2007734Y-43795D02*
X2005468Y-47025D01*
X2006516Y-52994D01*
X2014748Y-51539D01*
X2013699Y-45561D01*
X2010472Y-43315D01*
X2007734Y-43795D01*
G37*
G36*
G01X2002634Y-31045D02*
X2003683Y-37024D01*
X2006910Y-39270D01*
X2009659Y-38797D01*
X2011913Y-35559D01*
X2010866Y-29590D01*
X2002634Y-31045D01*
G37*
G36*
G01X1824798Y-136236D02*
X1822532Y-139466D01*
X1823579Y-145435D01*
X1831812Y-143980D01*
X1830763Y-138001D01*
X1827536Y-135755D01*
X1824798Y-136236D01*
G37*
G36*
G01X1819697Y-123485D02*
X1820746Y-129464D01*
X1823973Y-131710D01*
X1826723Y-131238D01*
X1828977Y-127999D01*
X1827930Y-122030D01*
X1819697Y-123485D01*
G37*
G36*
G01X1634968Y-226535D02*
X1632702Y-229765D01*
X1633749Y-235734D01*
X1641982Y-234279D01*
X1640932Y-228301D01*
X1637706Y-226055D01*
X1634968Y-226535D01*
G37*
G36*
G01X1629867Y-213785D02*
X1630916Y-219763D01*
X1634143Y-222010D01*
X1636893Y-221537D01*
X1639147Y-218299D01*
X1638099Y-212330D01*
X1629867Y-213785D01*
G37*
G36*
G01X1451951Y-309435D02*
X1449685Y-312665D01*
X1450733Y-318634D01*
X1458965Y-317179D01*
X1457916Y-311200D01*
X1454689Y-308954D01*
X1451951Y-309435D01*
G37*
G36*
G01X1446851Y-296685D02*
X1447900Y-302663D01*
X1451127Y-304909D01*
X1453876Y-304437D01*
X1456131Y-301199D01*
X1455083Y-295230D01*
X1446851Y-296685D01*
G37*
G36*
G01X-59615Y-589022D02*
X-61881Y-592253D01*
X-60833Y-598221D01*
X-52601Y-596767D01*
X-53650Y-590788D01*
X-56877Y-588542D01*
X-59615Y-589022D01*
G37*
G36*
G01X-64716Y-576272D02*
X-63666Y-582251D01*
X-60440Y-584497D01*
X-57690Y-584024D01*
X-55436Y-580786D01*
X-56483Y-574817D01*
X-64716Y-576272D01*
G37*
G36*
G01X1261452Y-394125D02*
X1259186Y-397356D01*
X1260234Y-403324D01*
X1268466Y-401870D01*
X1267417Y-395891D01*
X1264190Y-393645D01*
X1261452Y-394125D01*
G37*
G36*
G01X1256352Y-381375D02*
X1257401Y-387354D01*
X1260628Y-389600D01*
X1263377Y-389127D01*
X1265632Y-385889D01*
X1264584Y-379920D01*
X1256352Y-381375D01*
G37*
G36*
G01X228112Y-600281D02*
X225846Y-603512D01*
X226893Y-609480D01*
X235126Y-608026D01*
X234077Y-602047D01*
X230850Y-599801D01*
X228112Y-600281D01*
G37*
G36*
G01X223011Y-587531D02*
X224060Y-593510D01*
X227287Y-595756D01*
X230037Y-595283D01*
X232291Y-592045D01*
X231244Y-586076D01*
X223011Y-587531D01*
G37*
G36*
G01X1073105Y-471118D02*
X1070839Y-474349D01*
X1071887Y-480317D01*
X1080119Y-478863D01*
X1079070Y-472884D01*
X1075843Y-470638D01*
X1073105Y-471118D01*
G37*
G36*
G01X1068005Y-458368D02*
X1069054Y-464347D01*
X1072281Y-466593D01*
X1075030Y-466120D01*
X1077285Y-462882D01*
X1076237Y-456913D01*
X1068005Y-458368D01*
G37*
G36*
G01X978498Y-513508D02*
X976232Y-516738D01*
X977280Y-522707D01*
X985512Y-521252D01*
X984463Y-515274D01*
X981236Y-513027D01*
X978498Y-513508D01*
G37*
G36*
G01X973397Y-500758D02*
X974447Y-506736D01*
X977673Y-508982D01*
X980423Y-508510D01*
X982677Y-505272D01*
X981630Y-499303D01*
X973397Y-500758D01*
G37*
G36*
G01X428583Y-616851D02*
X426317Y-620081D01*
X427365Y-626050D01*
X435597Y-624595D01*
X434548Y-618616D01*
X431321Y-616370D01*
X428583Y-616851D01*
G37*
G36*
G01X423483Y-604101D02*
X424532Y-610079D01*
X427759Y-612325D01*
X430508Y-611853D01*
X432763Y-608615D01*
X431715Y-602646D01*
X423483Y-604101D01*
G37*
G36*
G01X-1407680Y-321922D02*
X-1410910Y-319656D01*
X-1416879Y-320704D01*
X-1415424Y-328936D01*
X-1409445Y-327887D01*
X-1407199Y-324660D01*
X-1407680Y-321922D01*
G37*
G36*
G01X-1394929Y-316822D02*
X-1400908Y-317871D01*
X-1403154Y-321097D01*
X-1402682Y-323847D01*
X-1399443Y-326101D01*
X-1393475Y-325054D01*
X-1394929Y-316822D01*
G37*
G36*
G01X-1197133Y-375081D02*
X-1200363Y-372815D01*
X-1206332Y-373862D01*
X-1204877Y-382095D01*
X-1198899Y-381045D01*
X-1196653Y-377819D01*
X-1197133Y-375081D01*
G37*
G36*
G01X-1184383Y-369980D02*
X-1190361Y-371029D01*
X-1192607Y-374256D01*
X-1192135Y-377006D01*
X-1188897Y-379260D01*
X-1182928Y-378212D01*
X-1184383Y-369980D01*
G37*
G36*
G01X-987461Y-415966D02*
X-990691Y-413701D01*
X-996660Y-414748D01*
X-995205Y-422980D01*
X-989226Y-421931D01*
X-986980Y-418705D01*
X-987461Y-415966D01*
G37*
G36*
G01X-974710Y-410866D02*
X-980689Y-411915D01*
X-982935Y-415142D01*
X-982463Y-417892D01*
X-979224Y-420146D01*
X-973256Y-419098D01*
X-974710Y-410866D01*
G37*
G36*
G01X-774347Y-452917D02*
X-777578Y-450652D01*
X-783546Y-451699D01*
X-782092Y-459932D01*
X-776113Y-458882D01*
X-773867Y-455656D01*
X-774347Y-452917D01*
G37*
G36*
G01X-761597Y-447817D02*
X-767576Y-448866D01*
X-769822Y-452093D01*
X-769349Y-454843D01*
X-766111Y-457097D01*
X-760142Y-456049D01*
X-761597Y-447817D01*
G37*
G36*
G01X-563612Y-488054D02*
X-566842Y-485788D01*
X-572811Y-486835D01*
X-571356Y-495068D01*
X-565378Y-494018D01*
X-563132Y-490792D01*
X-563612Y-488054D01*
G37*
G36*
G01X-550862Y-482953D02*
X-556840Y-484002D01*
X-559086Y-487229D01*
X-558614Y-489979D01*
X-555376Y-492233D01*
X-549407Y-491185D01*
X-550862Y-482953D01*
G37*
G36*
G01X-350022Y-513134D02*
X-353252Y-510868D01*
X-359221Y-511916D01*
X-357766Y-520148D01*
X-351788Y-519099D01*
X-349542Y-515872D01*
X-350022Y-513134D01*
G37*
G36*
G01X-337272Y-508033D02*
X-343251Y-509083D01*
X-345497Y-512309D01*
X-345024Y-515059D01*
X-341786Y-517313D01*
X-335817Y-516266D01*
X-337272Y-508033D01*
G37*
G36*
G01X714439Y-536108D02*
X711209Y-533842D01*
X705240Y-534890D01*
X706695Y-543122D01*
X712674Y-542073D01*
X714920Y-538846D01*
X714439Y-536108D01*
G37*
G36*
G01X727190Y-531008D02*
X721211Y-532057D01*
X718965Y-535283D01*
X719437Y-538033D01*
X722676Y-540287D01*
X728644Y-539240D01*
X727190Y-531008D01*
G37*
G36*
G01X-1558385Y-292509D02*
X-1556720Y-296086D01*
X-1558797Y-301779D01*
X-1566647Y-298904D01*
X-1564567Y-293201D01*
X-1560996Y-291556D01*
X-1558385Y-292509D01*
G37*
G36*
G01X-1551128Y-280850D02*
X-1553209Y-286552D01*
X-1556780Y-288198D01*
X-1559404Y-287251D01*
X-1561056Y-283667D01*
X-1558978Y-277974D01*
X-1551128Y-280850D01*
G37*
G36*
G01X-1767616Y-222432D02*
X-1766237Y-226129D01*
X-1768754Y-231641D01*
X-1776355Y-228159D01*
X-1773833Y-222638D01*
X-1770144Y-221277D01*
X-1767616Y-222432D01*
G37*
G36*
G01X-1759467Y-211378D02*
X-1761989Y-216900D01*
X-1765677Y-218260D01*
X-1768219Y-217110D01*
X-1769585Y-213408D01*
X-1767067Y-207896D01*
X-1759467Y-211378D01*
G37*
G36*
G01X-1991847Y-144259D02*
X-1990598Y-148002D01*
X-1993307Y-153423D01*
X-2000781Y-149678D01*
X-1998068Y-144248D01*
X-1994334Y-143017D01*
X-1991847Y-144259D01*
G37*
G36*
G01X-1983318Y-133496D02*
X-1986030Y-138926D01*
X-1989764Y-140157D01*
X-1992265Y-138919D01*
X-1993500Y-135172D01*
X-1990792Y-129751D01*
X-1983318Y-133496D01*
G37*
G54D11*
X943966Y-866816D03*
X-2073639Y-647143D03*
X2064765Y1309922D03*
X-930324Y881413D03*
X-2203580Y1360370D03*
X2196420Y1360371D03*
X2196420Y-1319631D03*
X-2203580Y-1319630D03*
M02*
