G04 CAM350 V9.5 (Build 208) Date:  Tue Jan 03 16:28:30 2017 *
G04 Database: C:\Documents and Settings\Administrator\×ÀÃæ\0103-26.cam *
G04 Layer 8: wokao *
%FSLAX26Y26*%
%MOIN*%
%SFA1.000B1.000*%

%MIA0B0*%
%IPPOS*%
%AMacap0015*
4,1,8,0.03331,0.02594,0.01111,0.02594,0.01111,0.04539,-0.01110,0.04539,-0.01110,0.02594,-0.03331,0.02594,-0.03331,0.08429,0.03331,0.08429,0.03331,0.02594,0.00000*
4,1,8,0.03331,-0.08429,-0.03331,-0.08429,-0.03331,-0.02594,-0.01110,-0.02594,-0.01110,-0.04539,0.01111,-0.04539,0.01111,-0.02594,0.03331,-0.02594,0.03331,-0.08429,0.00000*
%
%AMacap0016*
4,1,8,0.03253,0.02594,0.01084,0.02594,0.01084,0.04539,-0.01084,0.04539,-0.01084,0.02594,-0.03253,0.02594,-0.03253,0.08429,0.03253,0.08429,0.03253,0.02594,0.00000*
4,1,8,0.03253,-0.08429,-0.03253,-0.08429,-0.03253,-0.02594,-0.01084,-0.02594,-0.01084,-0.04539,0.01084,-0.04539,0.01084,-0.02594,0.03253,-0.02594,0.03253,-0.08429,0.00000*
%
%AMacap0017*
4,1,8,0.04042,0.02057,0.01347,0.02057,0.01347,0.03310,-0.01347,0.03310,-0.01347,0.02057,-0.04042,0.02057,-0.04042,0.05817,0.04042,0.05817,0.04042,0.02057,0.00000*
4,1,8,0.04042,-0.05817,-0.04042,-0.05817,-0.04042,-0.02057,-0.01347,-0.02057,-0.01347,-0.03310,0.01347,-0.03310,0.01347,-0.02057,0.04042,-0.02057,0.04042,-0.05817,0.00000*
%
%ADD38C,0.04055*%
%ADD244R,0.02409X0.02609*%
%ADD245R,0.02609X0.02409*%
%ADD246R,0.02009X0.04559*%
%ADD250R,0.04184X0.03184*%
%ADD251R,0.04160X0.03166*%
%ADD259R,0.02609X0.02409*%
%ADD261R,0.02984X0.03784*%
%ADD265R,0.05759X0.04556*%
%ADD266R,0.03784X0.02984*%
%ADD270R,0.04959X0.02609*%
%ADD271R,0.02609X0.04959*%
%ADD275R,0.07134X0.10084*%
%ADD289R,0.02609X0.04959*%
%ADD306R,0.04134X0.05118*%
%ADD307R,0.05118X0.04134*%
%ADD309C,0.00787*%
%ADD310O,0.00906X0.04921*%
%ADD311O,0.04921X0.00906*%
%ADD312O,0.00906X0.04930*%
%ADD313O,0.04930X0.00906*%
%ADD314R,0.04959X0.00906*%
%ADD316O,0.01299X0.03534*%
%ADD318R,0.01299X0.03584*%
%ADD328R,0.00827X0.07709*%
%ADD330R,0.00827X0.05759*%
%ADD332R,0.00913X0.05759*%
%ADD334R,0.00866X0.07709*%
%ADD336R,0.01102X0.07709*%
%ADD338R,0.01102X0.05759*%
%ADD340R,0.03384X0.00827*%
%ADD342R,0.03384X0.00866*%
%ADD345R,0.06009X0.02638*%
%ADD410R,0.03197X0.03609*%
%ADD411R,0.03609X0.03197*%
%ADD412R,0.04153X0.03384*%
%ADD413R,0.03384X0.04153*%
%ADD422acap0015*%
%ADD425acap0016*%
%ADD428acap0017*%
%LNwokao*%
%LPD*%
G36*
X5313965Y9737368D02*
G01X5311972Y9737693D01*
X5309937Y9738537*
X5307945Y9739815*
X5306126Y9741417*
X5304502Y9743280*
X5303246Y9745250*
X5302402Y9747285*
X5302120Y9749213*
X5302402Y9751205*
X5303246Y9753240*
X5304502Y9755232*
X5306126Y9757051*
X5307945Y9758675*
X5309937Y9759931*
X5311972Y9760776*
X5313965Y9761057*
X5315892Y9760776*
X5317927Y9759931*
X5319898Y9758675*
X5321760Y9757051*
X5323362Y9755232*
X5324640Y9753240*
X5325484Y9751205*
X5325809Y9749213*
X5325484Y9747286*
X5324640Y9745250*
X5323362Y9743280*
X5321760Y9741417*
X5319898Y9739815*
X5317927Y9738537*
X5315892Y9737693*
X5313965Y9737368*
G37*
G36*
X5393476D02*
G01X5391484Y9737693D01*
X5389449Y9738537*
X5387457Y9739815*
X5385638Y9741417*
X5384014Y9743280*
X5382758Y9745250*
X5381913Y9747286*
X5381632Y9749213*
X5381913Y9751205*
X5382758Y9753240*
X5384014Y9755232*
X5385638Y9757051*
X5387457Y9758675*
X5389449Y9759931*
X5391484Y9760776*
X5393476Y9761057*
X5395404Y9760776*
X5397439Y9759931*
X5399409Y9758675*
X5401272Y9757051*
X5402874Y9755232*
X5404152Y9753240*
X5404996Y9751205*
X5405321Y9749213*
X5404996Y9747286*
X5404152Y9745250*
X5402874Y9743280*
X5401272Y9741417*
X5399409Y9739815*
X5397439Y9738537*
X5395404Y9737693*
X5393476Y9737368*
G37*
G36*
X5580500Y9629100D02*
G01X5578508Y9629425D01*
X5576472Y9630270*
X5574480Y9631547*
X5572661Y9633150*
X5571037Y9635012*
X5569781Y9636982*
X5568937Y9639018*
X5568656Y9640945*
X5568937Y9642937*
X5569781Y9644972*
X5571037Y9646965*
X5572661Y9648783*
X5574480Y9650408*
X5576472Y9651663*
X5578508Y9652508*
X5580500Y9652789*
X5582427Y9652508*
X5584463Y9651663*
X5586433Y9650408*
X5588295Y9648784*
X5589898Y9646965*
X5591175Y9644973*
X5592020Y9642937*
X5592344Y9640945*
X5592020Y9639018*
X5591175Y9636982*
X5589898Y9635012*
X5588295Y9633150*
X5586433Y9631547*
X5584463Y9630270*
X5582427Y9629425*
X5580500Y9629100*
G37*
G36*
X5660012D02*
G01X5658020Y9629425D01*
X5655984Y9630270*
X5653992Y9631547*
X5652173Y9633150*
X5650549Y9635012*
X5649293Y9636982*
X5648449Y9639018*
X5648167Y9640945*
X5648449Y9642937*
X5649293Y9644973*
X5650549Y9646965*
X5652173Y9648784*
X5653992Y9650408*
X5655984Y9651663*
X5658020Y9652508*
X5660012Y9652789*
X5661939Y9652508*
X5663974Y9651663*
X5665945Y9650408*
X5667807Y9648784*
X5669409Y9646965*
X5670687Y9644973*
X5671531Y9642937*
X5671856Y9640945*
X5671531Y9639018*
X5670687Y9636982*
X5669409Y9635012*
X5667807Y9633150*
X5665945Y9631547*
X5663974Y9630270*
X5661939Y9629425*
X5660012Y9629100*
G37*
G36*
X5847035Y9520833D02*
G01X5845043Y9521158D01*
X5843008Y9522002*
X5841016Y9523280*
X5839197Y9524882*
X5837573Y9526744*
X5836317Y9528715*
X5835472Y9530750*
X5835191Y9532677*
X5835472Y9534669*
X5836317Y9536705*
X5837573Y9538697*
X5839197Y9540516*
X5841016Y9542140*
X5843008Y9543396*
X5845043Y9544240*
X5847035Y9544522*
X5848963Y9544240*
X5850998Y9543396*
X5852969Y9542140*
X5854831Y9540516*
X5856433Y9538697*
X5857711Y9536705*
X5858555Y9534669*
X5858880Y9532677*
X5858555Y9530750*
X5857711Y9528715*
X5856433Y9526744*
X5854831Y9524882*
X5852969Y9523280*
X5850998Y9522002*
X5848963Y9521158*
X5847035Y9520833*
G37*
G36*
X5926547D02*
G01X5924555Y9521158D01*
X5922520Y9522002*
X5920528Y9523280*
X5918709Y9524882*
X5917085Y9526744*
X5915829Y9528715*
X5914984Y9530750*
X5914703Y9532677*
X5914984Y9534669*
X5915829Y9536705*
X5917085Y9538697*
X5918709Y9540516*
X5920528Y9542140*
X5922520Y9543396*
X5924555Y9544240*
X5926547Y9544522*
X5928474Y9544240*
X5930510Y9543396*
X5932480Y9542140*
X5934343Y9540516*
X5935945Y9538697*
X5937222Y9536705*
X5938067Y9534669*
X5938392Y9532677*
X5938067Y9530750*
X5937222Y9528715*
X5935945Y9526744*
X5934343Y9524882*
X5932480Y9523280*
X5930510Y9522002*
X5928474Y9521158*
X5926547Y9520833*
G37*
G36*
X10253519Y347386D02*
G01Y373480D01*
X10277154*
Y347386*
X10253519*
G37*
G36*
X7615680D02*
G01Y373480D01*
X7639315*
Y347386*
X7615680*
G37*
G36*
X10253519Y1134828D02*
G01Y1160922D01*
X10277154*
Y1134828*
X10253519*
G37*
G36*
X7615680D02*
G01Y1160922D01*
X7639315*
Y1134828*
X7615680*
G37*
G36*
X10253519Y1922270D02*
G01Y1948364D01*
X10277154*
Y1922270*
X10253519*
G37*
G36*
X7615680D02*
G01Y1948364D01*
X7639315*
Y1922270*
X7615680*
G37*
G36*
X10253519Y2709711D02*
G01Y2735805D01*
X10277154*
Y2709711*
X10253519*
G37*
G36*
X7615680D02*
G01Y2735805D01*
X7639315*
Y2709711*
X7615680*
G37*
G36*
X10253519Y3497153D02*
G01Y3523247D01*
X10277154*
Y3497153*
X10253519*
G37*
G36*
X7615680D02*
G01Y3523247D01*
X7639315*
Y3497153*
X7615680*
G37*
G36*
X10253519Y4284594D02*
G01Y4310688D01*
X10277154*
Y4284594*
X10253519*
G37*
G36*
X7615680D02*
G01Y4310688D01*
X7639315*
Y4284594*
X7615680*
G37*
G36*
X5568656Y8042307D02*
G01X5568937Y8044343D01*
X5569781Y8046465*
X5571081Y8048587*
X5572770Y8050579*
X5574697Y8052376*
X5576841Y8053762*
X5579071Y8054693*
X5581344Y8054996*
X5583553Y8054693*
X5585783Y8053762*
X5587906Y8052376*
X5589876Y8050579*
X5591543Y8048587*
X5592864Y8046465*
X5593709Y8044343*
X5594033Y8042307*
X5593687Y8040337*
X5592756Y8038215*
X5591327Y8036093*
X5589573Y8034079*
X5587559Y8032325*
X5585437Y8030896*
X5583315Y8029965*
X5581344Y8029618*
X5579071Y8029965*
X5576841Y8030896*
X5574697Y8032325*
X5572770Y8034079*
X5571081Y8036093*
X5569781Y8038215*
X5568937Y8040337*
X5568656Y8042307*
G37*
G36*
X5835191Y8258843D02*
G01X5835472Y8260878D01*
X5836317Y8263000*
X5837616Y8265122*
X5839305Y8267114*
X5841232Y8268911*
X5843376Y8270297*
X5845606Y8271228*
X5847880Y8271532*
X5850089Y8271228*
X5852319Y8270297*
X5854441Y8268911*
X5856411Y8267114*
X5858079Y8265122*
X5859400Y8263000*
X5860244Y8260878*
X5860569Y8258843*
X5860222Y8256872*
X5859291Y8254750*
X5857862Y8252628*
X5856108Y8250614*
X5854094Y8248860*
X5851972Y8247431*
X5849850Y8246500*
X5847880Y8246154*
X5845606Y8246500*
X5843376Y8247431*
X5841232Y8248860*
X5839305Y8250614*
X5837616Y8252628*
X5836317Y8254750*
X5835472Y8256872*
X5835191Y8258843*
G37*
G36*
X5620234Y8279132D02*
G01X5627856D01*
Y8185242*
X5620234*
Y8279132*
G37*
G36*
X5663390D02*
G01X5671012D01*
Y8185242*
X5663390*
Y8279132*
G37*
G36*
X5909636Y9253541D02*
G01X5917258D01*
Y9159652*
X5909636*
Y9253541*
G37*
G36*
X10299823Y924986D02*
G01X10282458D01*
Y940684*
X10265094*
Y924986*
X10247729*
Y972080*
X10299823*
Y924986*
G37*
G36*
Y848986D02*
G01X10247729D01*
Y896080*
X10265094*
Y880382*
X10282458*
Y896080*
X10299823*
Y848986*
G37*
G36*
X11511143Y631986D02*
G01X11493778D01*
Y647684*
X11476414*
Y631986*
X11459049*
Y679080*
X11511143*
Y631986*
G37*
G36*
Y555986D02*
G01X11459049D01*
Y603080*
X11476414*
Y587382*
X11493778*
Y603080*
X11511143*
Y555986*
G37*
G36*
X10236593Y384866D02*
G01X10219228D01*
Y400564*
X10201864*
Y384866*
X10184499*
Y431960*
X10236593*
Y384866*
G37*
G36*
Y308866D02*
G01X10184499D01*
Y355960*
X10201864*
Y340262*
X10219228*
Y355960*
X10236593*
Y308866*
G37*
G36*
X10407303Y507976D02*
G01X10389938D01*
Y523674*
X10372574*
Y507976*
X10355209*
Y555070*
X10407303*
Y507976*
G37*
G36*
Y431976D02*
G01X10355209D01*
Y479070*
X10372574*
Y463372*
X10389938*
Y479070*
X10407303*
Y431976*
G37*
G36*
X10996959Y398116D02*
G01Y415481D01*
X11012657*
Y432846*
X10996959*
Y450210*
X11044053*
Y398116*
X10996959*
G37*
G36*
X10920959D02*
G01Y450210D01*
X10968053*
Y432846*
X10952355*
Y415481*
X10968053*
Y398116*
X10920959*
G37*
G36*
X7661984Y924986D02*
G01X7644619D01*
Y940684*
X7627255*
Y924986*
X7609890*
Y972080*
X7661984*
Y924986*
G37*
G36*
Y848986D02*
G01X7609890D01*
Y896080*
X7627255*
Y880382*
X7644619*
Y896080*
X7661984*
Y848986*
G37*
G36*
X8873304Y631986D02*
G01X8855939D01*
Y647684*
X8838575*
Y631986*
X8821210*
Y679080*
X8873304*
Y631986*
G37*
G36*
Y555986D02*
G01X8821210D01*
Y603080*
X8838575*
Y587382*
X8855939*
Y603080*
X8873304*
Y555986*
G37*
G36*
X7598754Y384866D02*
G01X7581389D01*
Y400564*
X7564025*
Y384866*
X7546660*
Y431960*
X7598754*
Y384866*
G37*
G36*
Y308866D02*
G01X7546660D01*
Y355960*
X7564025*
Y340262*
X7581389*
Y355960*
X7598754*
Y308866*
G37*
G36*
X7769464Y507976D02*
G01X7752099D01*
Y523674*
X7734735*
Y507976*
X7717370*
Y555070*
X7769464*
Y507976*
G37*
G36*
Y431976D02*
G01X7717370D01*
Y479070*
X7734735*
Y463372*
X7752099*
Y479070*
X7769464*
Y431976*
G37*
G36*
X8359120Y398116D02*
G01Y415481D01*
X8374818*
Y432846*
X8359120*
Y450210*
X8406214*
Y398116*
X8359120*
G37*
G36*
X8283120D02*
G01Y450210D01*
X8330214*
Y432846*
X8314516*
Y415481*
X8330214*
Y398116*
X8283120*
G37*
G36*
X10299823Y1712428D02*
G01X10282458D01*
Y1728126*
X10265094*
Y1712428*
X10247729*
Y1759522*
X10299823*
Y1712428*
G37*
G36*
Y1636428D02*
G01X10247729D01*
Y1683522*
X10265094*
Y1667824*
X10282458*
Y1683522*
X10299823*
Y1636428*
G37*
G36*
X11511143Y1419428D02*
G01X11493778D01*
Y1435126*
X11476414*
Y1419428*
X11459049*
Y1466522*
X11511143*
Y1419428*
G37*
G36*
Y1343428D02*
G01X11459049D01*
Y1390522*
X11476414*
Y1374824*
X11493778*
Y1390522*
X11511143*
Y1343428*
G37*
G36*
X10236593Y1172308D02*
G01X10219228D01*
Y1188006*
X10201864*
Y1172308*
X10184499*
Y1219402*
X10236593*
Y1172308*
G37*
G36*
Y1096308D02*
G01X10184499D01*
Y1143402*
X10201864*
Y1127704*
X10219228*
Y1143402*
X10236593*
Y1096308*
G37*
G36*
X10407303Y1295418D02*
G01X10389938D01*
Y1311116*
X10372574*
Y1295418*
X10355209*
Y1342512*
X10407303*
Y1295418*
G37*
G36*
Y1219418D02*
G01X10355209D01*
Y1266512*
X10372574*
Y1250814*
X10389938*
Y1266512*
X10407303*
Y1219418*
G37*
G36*
X10996959Y1185558D02*
G01Y1202923D01*
X11012657*
Y1220288*
X10996959*
Y1237652*
X11044053*
Y1185558*
X10996959*
G37*
G36*
X10920959D02*
G01Y1237652D01*
X10968053*
Y1220288*
X10952355*
Y1202923*
X10968053*
Y1185558*
X10920959*
G37*
G36*
X7661984Y1712428D02*
G01X7644619D01*
Y1728126*
X7627255*
Y1712428*
X7609890*
Y1759522*
X7661984*
Y1712428*
G37*
G36*
Y1636428D02*
G01X7609890D01*
Y1683522*
X7627255*
Y1667824*
X7644619*
Y1683522*
X7661984*
Y1636428*
G37*
G36*
X8873304Y1419428D02*
G01X8855939D01*
Y1435126*
X8838575*
Y1419428*
X8821210*
Y1466522*
X8873304*
Y1419428*
G37*
G36*
Y1343428D02*
G01X8821210D01*
Y1390522*
X8838575*
Y1374824*
X8855939*
Y1390522*
X8873304*
Y1343428*
G37*
G36*
X7598754Y1172308D02*
G01X7581389D01*
Y1188006*
X7564025*
Y1172308*
X7546660*
Y1219402*
X7598754*
Y1172308*
G37*
G36*
Y1096308D02*
G01X7546660D01*
Y1143402*
X7564025*
Y1127704*
X7581389*
Y1143402*
X7598754*
Y1096308*
G37*
G36*
X7769464Y1295418D02*
G01X7752099D01*
Y1311116*
X7734735*
Y1295418*
X7717370*
Y1342512*
X7769464*
Y1295418*
G37*
G36*
Y1219418D02*
G01X7717370D01*
Y1266512*
X7734735*
Y1250814*
X7752099*
Y1266512*
X7769464*
Y1219418*
G37*
G36*
X8359120Y1185558D02*
G01Y1202923D01*
X8374818*
Y1220288*
X8359120*
Y1237652*
X8406214*
Y1185558*
X8359120*
G37*
G36*
X8283120D02*
G01Y1237652D01*
X8330214*
Y1220288*
X8314516*
Y1202923*
X8330214*
Y1185558*
X8283120*
G37*
G36*
X10299823Y2499870D02*
G01X10282458D01*
Y2515568*
X10265094*
Y2499870*
X10247729*
Y2546964*
X10299823*
Y2499870*
G37*
G36*
Y2423870D02*
G01X10247729D01*
Y2470964*
X10265094*
Y2455266*
X10282458*
Y2470964*
X10299823*
Y2423870*
G37*
G36*
X11511143Y2206870D02*
G01X11493778D01*
Y2222568*
X11476414*
Y2206870*
X11459049*
Y2253964*
X11511143*
Y2206870*
G37*
G36*
Y2130870D02*
G01X11459049D01*
Y2177964*
X11476414*
Y2162266*
X11493778*
Y2177964*
X11511143*
Y2130870*
G37*
G36*
X10236593Y1959750D02*
G01X10219228D01*
Y1975448*
X10201864*
Y1959750*
X10184499*
Y2006844*
X10236593*
Y1959750*
G37*
G36*
Y1883750D02*
G01X10184499D01*
Y1930844*
X10201864*
Y1915146*
X10219228*
Y1930844*
X10236593*
Y1883750*
G37*
G36*
X10407303Y2082860D02*
G01X10389938D01*
Y2098558*
X10372574*
Y2082860*
X10355209*
Y2129954*
X10407303*
Y2082860*
G37*
G36*
Y2006860D02*
G01X10355209D01*
Y2053954*
X10372574*
Y2038256*
X10389938*
Y2053954*
X10407303*
Y2006860*
G37*
G36*
X10996959Y1973000D02*
G01Y1990364D01*
X11012657*
Y2007729*
X10996959*
Y2025094*
X11044053*
Y1973000*
X10996959*
G37*
G36*
X10920959D02*
G01Y2025094D01*
X10968053*
Y2007729*
X10952355*
Y1990364*
X10968053*
Y1973000*
X10920959*
G37*
G36*
X7661984Y2499870D02*
G01X7644619D01*
Y2515568*
X7627255*
Y2499870*
X7609890*
Y2546964*
X7661984*
Y2499870*
G37*
G36*
Y2423870D02*
G01X7609890D01*
Y2470964*
X7627255*
Y2455266*
X7644619*
Y2470964*
X7661984*
Y2423870*
G37*
G36*
X8873304Y2206870D02*
G01X8855939D01*
Y2222568*
X8838575*
Y2206870*
X8821210*
Y2253964*
X8873304*
Y2206870*
G37*
G36*
Y2130870D02*
G01X8821210D01*
Y2177964*
X8838575*
Y2162266*
X8855939*
Y2177964*
X8873304*
Y2130870*
G37*
G36*
X7598754Y1959750D02*
G01X7581389D01*
Y1975448*
X7564025*
Y1959750*
X7546660*
Y2006844*
X7598754*
Y1959750*
G37*
G36*
Y1883750D02*
G01X7546660D01*
Y1930844*
X7564025*
Y1915146*
X7581389*
Y1930844*
X7598754*
Y1883750*
G37*
G36*
X7769464Y2082860D02*
G01X7752099D01*
Y2098558*
X7734735*
Y2082860*
X7717370*
Y2129954*
X7769464*
Y2082860*
G37*
G36*
Y2006860D02*
G01X7717370D01*
Y2053954*
X7734735*
Y2038256*
X7752099*
Y2053954*
X7769464*
Y2006860*
G37*
G36*
X8359120Y1973000D02*
G01Y1990364D01*
X8374818*
Y2007729*
X8359120*
Y2025094*
X8406214*
Y1973000*
X8359120*
G37*
G36*
X8283120D02*
G01Y2025094D01*
X8330214*
Y2007729*
X8314516*
Y1990364*
X8330214*
Y1973000*
X8283120*
G37*
G36*
X10299823Y3287311D02*
G01X10282458D01*
Y3303009*
X10265094*
Y3287311*
X10247729*
Y3334405*
X10299823*
Y3287311*
G37*
G36*
Y3211311D02*
G01X10247729D01*
Y3258405*
X10265094*
Y3242707*
X10282458*
Y3258405*
X10299823*
Y3211311*
G37*
G36*
X11511143Y2994311D02*
G01X11493778D01*
Y3010009*
X11476414*
Y2994311*
X11459049*
Y3041405*
X11511143*
Y2994311*
G37*
G36*
Y2918311D02*
G01X11459049D01*
Y2965405*
X11476414*
Y2949707*
X11493778*
Y2965405*
X11511143*
Y2918311*
G37*
G36*
X10236593Y2747191D02*
G01X10219228D01*
Y2762889*
X10201864*
Y2747191*
X10184499*
Y2794285*
X10236593*
Y2747191*
G37*
G36*
Y2671191D02*
G01X10184499D01*
Y2718285*
X10201864*
Y2702587*
X10219228*
Y2718285*
X10236593*
Y2671191*
G37*
G36*
X10407303Y2870301D02*
G01X10389938D01*
Y2885999*
X10372574*
Y2870301*
X10355209*
Y2917395*
X10407303*
Y2870301*
G37*
G36*
Y2794301D02*
G01X10355209D01*
Y2841395*
X10372574*
Y2825697*
X10389938*
Y2841395*
X10407303*
Y2794301*
G37*
G36*
X10996959Y2760441D02*
G01Y2777806D01*
X11012657*
Y2795171*
X10996959*
Y2812535*
X11044053*
Y2760441*
X10996959*
G37*
G36*
X10920959D02*
G01Y2812535D01*
X10968053*
Y2795171*
X10952355*
Y2777806*
X10968053*
Y2760441*
X10920959*
G37*
G36*
X7661984Y3287311D02*
G01X7644619D01*
Y3303009*
X7627255*
Y3287311*
X7609890*
Y3334405*
X7661984*
Y3287311*
G37*
G36*
Y3211311D02*
G01X7609890D01*
Y3258405*
X7627255*
Y3242707*
X7644619*
Y3258405*
X7661984*
Y3211311*
G37*
G36*
X8873304Y2994311D02*
G01X8855939D01*
Y3010009*
X8838575*
Y2994311*
X8821210*
Y3041405*
X8873304*
Y2994311*
G37*
G36*
Y2918311D02*
G01X8821210D01*
Y2965405*
X8838575*
Y2949707*
X8855939*
Y2965405*
X8873304*
Y2918311*
G37*
G36*
X7598754Y2747191D02*
G01X7581389D01*
Y2762889*
X7564025*
Y2747191*
X7546660*
Y2794285*
X7598754*
Y2747191*
G37*
G36*
Y2671191D02*
G01X7546660D01*
Y2718285*
X7564025*
Y2702587*
X7581389*
Y2718285*
X7598754*
Y2671191*
G37*
G36*
X7769464Y2870301D02*
G01X7752099D01*
Y2885999*
X7734735*
Y2870301*
X7717370*
Y2917395*
X7769464*
Y2870301*
G37*
G36*
Y2794301D02*
G01X7717370D01*
Y2841395*
X7734735*
Y2825697*
X7752099*
Y2841395*
X7769464*
Y2794301*
G37*
G36*
X8359120Y2760441D02*
G01Y2777806D01*
X8374818*
Y2795171*
X8359120*
Y2812535*
X8406214*
Y2760441*
X8359120*
G37*
G36*
X8283120D02*
G01Y2812535D01*
X8330214*
Y2795171*
X8314516*
Y2777806*
X8330214*
Y2760441*
X8283120*
G37*
G36*
X10299823Y4074753D02*
G01X10282458D01*
Y4090451*
X10265094*
Y4074753*
X10247729*
Y4121847*
X10299823*
Y4074753*
G37*
G36*
Y3998753D02*
G01X10247729D01*
Y4045847*
X10265094*
Y4030149*
X10282458*
Y4045847*
X10299823*
Y3998753*
G37*
G36*
X11511143Y3781753D02*
G01X11493778D01*
Y3797451*
X11476414*
Y3781753*
X11459049*
Y3828847*
X11511143*
Y3781753*
G37*
G36*
Y3705753D02*
G01X11459049D01*
Y3752847*
X11476414*
Y3737149*
X11493778*
Y3752847*
X11511143*
Y3705753*
G37*
G36*
X10236593Y3534633D02*
G01X10219228D01*
Y3550331*
X10201864*
Y3534633*
X10184499*
Y3581727*
X10236593*
Y3534633*
G37*
G36*
Y3458633D02*
G01X10184499D01*
Y3505727*
X10201864*
Y3490029*
X10219228*
Y3505727*
X10236593*
Y3458633*
G37*
G36*
X10407303Y3657743D02*
G01X10389938D01*
Y3673441*
X10372574*
Y3657743*
X10355209*
Y3704837*
X10407303*
Y3657743*
G37*
G36*
Y3581743D02*
G01X10355209D01*
Y3628837*
X10372574*
Y3613139*
X10389938*
Y3628837*
X10407303*
Y3581743*
G37*
G36*
X10996959Y3547883D02*
G01Y3565247D01*
X11012657*
Y3582612*
X10996959*
Y3599977*
X11044053*
Y3547883*
X10996959*
G37*
G36*
X10920959D02*
G01Y3599977D01*
X10968053*
Y3582612*
X10952355*
Y3565247*
X10968053*
Y3547883*
X10920959*
G37*
G36*
X7661984Y4074753D02*
G01X7644619D01*
Y4090451*
X7627255*
Y4074753*
X7609890*
Y4121847*
X7661984*
Y4074753*
G37*
G36*
Y3998753D02*
G01X7609890D01*
Y4045847*
X7627255*
Y4030149*
X7644619*
Y4045847*
X7661984*
Y3998753*
G37*
G36*
X8873304Y3781753D02*
G01X8855939D01*
Y3797451*
X8838575*
Y3781753*
X8821210*
Y3828847*
X8873304*
Y3781753*
G37*
G36*
Y3705753D02*
G01X8821210D01*
Y3752847*
X8838575*
Y3737149*
X8855939*
Y3752847*
X8873304*
Y3705753*
G37*
G36*
X7598754Y3534633D02*
G01X7581389D01*
Y3550331*
X7564025*
Y3534633*
X7546660*
Y3581727*
X7598754*
Y3534633*
G37*
G36*
Y3458633D02*
G01X7546660D01*
Y3505727*
X7564025*
Y3490029*
X7581389*
Y3505727*
X7598754*
Y3458633*
G37*
G36*
X7769464Y3657743D02*
G01X7752099D01*
Y3673441*
X7734735*
Y3657743*
X7717370*
Y3704837*
X7769464*
Y3657743*
G37*
G36*
Y3581743D02*
G01X7717370D01*
Y3628837*
X7734735*
Y3613139*
X7752099*
Y3628837*
X7769464*
Y3581743*
G37*
G36*
X8359120Y3547883D02*
G01Y3565247D01*
X8374818*
Y3582612*
X8359120*
Y3599977*
X8406214*
Y3547883*
X8359120*
G37*
G36*
X8283120D02*
G01Y3599977D01*
X8330214*
Y3582612*
X8314516*
Y3565247*
X8330214*
Y3547883*
X8283120*
G37*
G36*
X10299823Y4862194D02*
G01X10282458D01*
Y4877892*
X10265094*
Y4862194*
X10247729*
Y4909288*
X10299823*
Y4862194*
G37*
G36*
Y4786194D02*
G01X10247729D01*
Y4833288*
X10265094*
Y4817590*
X10282458*
Y4833288*
X10299823*
Y4786194*
G37*
G36*
X11511143Y4569194D02*
G01X11493778D01*
Y4584892*
X11476414*
Y4569194*
X11459049*
Y4616288*
X11511143*
Y4569194*
G37*
G36*
Y4493194D02*
G01X11459049D01*
Y4540288*
X11476414*
Y4524590*
X11493778*
Y4540288*
X11511143*
Y4493194*
G37*
G36*
X10236593Y4322074D02*
G01X10219228D01*
Y4337772*
X10201864*
Y4322074*
X10184499*
Y4369168*
X10236593*
Y4322074*
G37*
G36*
Y4246074D02*
G01X10184499D01*
Y4293168*
X10201864*
Y4277470*
X10219228*
Y4293168*
X10236593*
Y4246074*
G37*
G36*
X10407303Y4445184D02*
G01X10389938D01*
Y4460882*
X10372574*
Y4445184*
X10355209*
Y4492278*
X10407303*
Y4445184*
G37*
G36*
Y4369184D02*
G01X10355209D01*
Y4416278*
X10372574*
Y4400580*
X10389938*
Y4416278*
X10407303*
Y4369184*
G37*
G36*
X10996959Y4335324D02*
G01Y4352689D01*
X11012657*
Y4370054*
X10996959*
Y4387418*
X11044053*
Y4335324*
X10996959*
G37*
G36*
X10920959D02*
G01Y4387418D01*
X10968053*
Y4370054*
X10952355*
Y4352689*
X10968053*
Y4335324*
X10920959*
G37*
G36*
X7661984Y4862194D02*
G01X7644619D01*
Y4877892*
X7627255*
Y4862194*
X7609890*
Y4909288*
X7661984*
Y4862194*
G37*
G36*
Y4786194D02*
G01X7609890D01*
Y4833288*
X7627255*
Y4817590*
X7644619*
Y4833288*
X7661984*
Y4786194*
G37*
G36*
X8873304Y4569194D02*
G01X8855939D01*
Y4584892*
X8838575*
Y4569194*
X8821210*
Y4616288*
X8873304*
Y4569194*
G37*
G36*
Y4493194D02*
G01X8821210D01*
Y4540288*
X8838575*
Y4524590*
X8855939*
Y4540288*
X8873304*
Y4493194*
G37*
G36*
X7598754Y4322074D02*
G01X7581389D01*
Y4337772*
X7564025*
Y4322074*
X7546660*
Y4369168*
X7598754*
Y4322074*
G37*
G36*
Y4246074D02*
G01X7546660D01*
Y4293168*
X7564025*
Y4277470*
X7581389*
Y4293168*
X7598754*
Y4246074*
G37*
G36*
X7769464Y4445184D02*
G01X7752099D01*
Y4460882*
X7734735*
Y4445184*
X7717370*
Y4492278*
X7769464*
Y4445184*
G37*
G36*
Y4369184D02*
G01X7717370D01*
Y4416278*
X7734735*
Y4400580*
X7752099*
Y4416278*
X7769464*
Y4369184*
G37*
G36*
X8359120Y4335324D02*
G01Y4352689D01*
X8374818*
Y4370054*
X8359120*
Y4387418*
X8406214*
Y4335324*
X8359120*
G37*
G36*
X8283120D02*
G01Y4387418D01*
X8330214*
Y4370054*
X8314516*
Y4352689*
X8330214*
Y4335324*
X8283120*
G37*
G36*
X9658953Y462986D02*
G01Y520580D01*
X9680185*
Y501382*
X9701967*
Y520580*
X9723749*
Y462986*
X9658953*
G37*
G36*
Y596846D02*
G01Y654440D01*
X9723749*
Y596846*
X9701967*
Y616044*
X9680185*
Y596846*
X9658953*
G37*
G36*
X7021114Y462986D02*
G01Y520580D01*
X7042346*
Y501382*
X7064128*
Y520580*
X7085910*
Y462986*
X7021114*
G37*
G36*
Y596846D02*
G01Y654440D01*
X7085910*
Y596846*
X7064128*
Y616044*
X7042346*
Y596846*
X7021114*
G37*
G36*
X9658953Y1250428D02*
G01Y1308022D01*
X9680185*
Y1288824*
X9701967*
Y1308022*
X9723749*
Y1250428*
X9658953*
G37*
G36*
Y1384288D02*
G01Y1441882D01*
X9723749*
Y1384288*
X9701967*
Y1403486*
X9680185*
Y1384288*
X9658953*
G37*
G36*
X7021114Y1250428D02*
G01Y1308022D01*
X7042346*
Y1288824*
X7064128*
Y1308022*
X7085910*
Y1250428*
X7021114*
G37*
G36*
Y1384288D02*
G01Y1441882D01*
X7085910*
Y1384288*
X7064128*
Y1403486*
X7042346*
Y1384288*
X7021114*
G37*
G36*
X9658953Y2037870D02*
G01Y2095464D01*
X9680185*
Y2076266*
X9701967*
Y2095464*
X9723749*
Y2037870*
X9658953*
G37*
G36*
Y2171730D02*
G01Y2229324D01*
X9723749*
Y2171730*
X9701967*
Y2190928*
X9680185*
Y2171730*
X9658953*
G37*
G36*
X7021114Y2037870D02*
G01Y2095464D01*
X7042346*
Y2076266*
X7064128*
Y2095464*
X7085910*
Y2037870*
X7021114*
G37*
G36*
Y2171730D02*
G01Y2229324D01*
X7085910*
Y2171730*
X7064128*
Y2190928*
X7042346*
Y2171730*
X7021114*
G37*
G36*
X9658953Y2825311D02*
G01Y2882905D01*
X9680185*
Y2863707*
X9701967*
Y2882905*
X9723749*
Y2825311*
X9658953*
G37*
G36*
Y2959171D02*
G01Y3016765D01*
X9723749*
Y2959171*
X9701967*
Y2978369*
X9680185*
Y2959171*
X9658953*
G37*
G36*
X7021114Y2825311D02*
G01Y2882905D01*
X7042346*
Y2863707*
X7064128*
Y2882905*
X7085910*
Y2825311*
X7021114*
G37*
G36*
Y2959171D02*
G01Y3016765D01*
X7085910*
Y2959171*
X7064128*
Y2978369*
X7042346*
Y2959171*
X7021114*
G37*
G36*
X9658953Y3612753D02*
G01Y3670347D01*
X9680185*
Y3651149*
X9701967*
Y3670347*
X9723749*
Y3612753*
X9658953*
G37*
G36*
Y3746613D02*
G01Y3804207D01*
X9723749*
Y3746613*
X9701967*
Y3765811*
X9680185*
Y3746613*
X9658953*
G37*
G36*
X7021114Y3612753D02*
G01Y3670347D01*
X7042346*
Y3651149*
X7064128*
Y3670347*
X7085910*
Y3612753*
X7021114*
G37*
G36*
Y3746613D02*
G01Y3804207D01*
X7085910*
Y3746613*
X7064128*
Y3765811*
X7042346*
Y3746613*
X7021114*
G37*
G36*
X9658953Y4400194D02*
G01Y4457788D01*
X9680185*
Y4438590*
X9701967*
Y4457788*
X9723749*
Y4400194*
X9658953*
G37*
G36*
Y4534054D02*
G01Y4591648D01*
X9723749*
Y4534054*
X9701967*
Y4553252*
X9680185*
Y4534054*
X9658953*
G37*
G36*
X7021114Y4400194D02*
G01Y4457788D01*
X7042346*
Y4438590*
X7064128*
Y4457788*
X7085910*
Y4400194*
X7021114*
G37*
G36*
Y4534054D02*
G01Y4591648D01*
X7085910*
Y4534054*
X7064128*
Y4553252*
X7042346*
Y4534054*
X7021114*
G37*
G36*
X9806429Y462986D02*
G01X9741083D01*
Y520580*
X9762865*
Y501382*
X9784647*
Y520580*
X9806429*
Y462986*
G37*
G36*
Y596846D02*
G01X9784647D01*
Y616044*
X9762865*
Y596846*
X9741083*
Y654440*
X9806429*
Y596846*
G37*
G36*
X7168590Y462986D02*
G01X7103244D01*
Y520580*
X7125026*
Y501382*
X7146808*
Y520580*
X7168590*
Y462986*
G37*
G36*
Y596846D02*
G01X7146808D01*
Y616044*
X7125026*
Y596846*
X7103244*
Y654440*
X7168590*
Y596846*
G37*
G36*
X9806429Y1250428D02*
G01X9741083D01*
Y1308022*
X9762865*
Y1288824*
X9784647*
Y1308022*
X9806429*
Y1250428*
G37*
G36*
Y1384288D02*
G01X9784647D01*
Y1403486*
X9762865*
Y1384288*
X9741083*
Y1441882*
X9806429*
Y1384288*
G37*
G36*
X7168590Y1250428D02*
G01X7103244D01*
Y1308022*
X7125026*
Y1288824*
X7146808*
Y1308022*
X7168590*
Y1250428*
G37*
G36*
Y1384288D02*
G01X7146808D01*
Y1403486*
X7125026*
Y1384288*
X7103244*
Y1441882*
X7168590*
Y1384288*
G37*
G36*
X9806429Y2037870D02*
G01X9741083D01*
Y2095464*
X9762865*
Y2076266*
X9784647*
Y2095464*
X9806429*
Y2037870*
G37*
G36*
Y2171730D02*
G01X9784647D01*
Y2190928*
X9762865*
Y2171730*
X9741083*
Y2229324*
X9806429*
Y2171730*
G37*
G36*
X7168590Y2037870D02*
G01X7103244D01*
Y2095464*
X7125026*
Y2076266*
X7146808*
Y2095464*
X7168590*
Y2037870*
G37*
G36*
Y2171730D02*
G01X7146808D01*
Y2190928*
X7125026*
Y2171730*
X7103244*
Y2229324*
X7168590*
Y2171730*
G37*
G36*
X9806429Y2825311D02*
G01X9741083D01*
Y2882905*
X9762865*
Y2863707*
X9784647*
Y2882905*
X9806429*
Y2825311*
G37*
G36*
Y2959171D02*
G01X9784647D01*
Y2978369*
X9762865*
Y2959171*
X9741083*
Y3016765*
X9806429*
Y2959171*
G37*
G36*
X7168590Y2825311D02*
G01X7103244D01*
Y2882905*
X7125026*
Y2863707*
X7146808*
Y2882905*
X7168590*
Y2825311*
G37*
G36*
Y2959171D02*
G01X7146808D01*
Y2978369*
X7125026*
Y2959171*
X7103244*
Y3016765*
X7168590*
Y2959171*
G37*
G36*
X9806429Y3612753D02*
G01X9741083D01*
Y3670347*
X9762865*
Y3651149*
X9784647*
Y3670347*
X9806429*
Y3612753*
G37*
G36*
Y3746613D02*
G01X9784647D01*
Y3765811*
X9762865*
Y3746613*
X9741083*
Y3804207*
X9806429*
Y3746613*
G37*
G36*
X7168590Y3612753D02*
G01X7103244D01*
Y3670347*
X7125026*
Y3651149*
X7146808*
Y3670347*
X7168590*
Y3612753*
G37*
G36*
Y3746613D02*
G01X7146808D01*
Y3765811*
X7125026*
Y3746613*
X7103244*
Y3804207*
X7168590*
Y3746613*
G37*
G36*
X9806429Y4400194D02*
G01X9741083D01*
Y4457788*
X9762865*
Y4438590*
X9784647*
Y4457788*
X9806429*
Y4400194*
G37*
G36*
Y4534054D02*
G01X9784647D01*
Y4553252*
X9762865*
Y4534054*
X9741083*
Y4591648*
X9806429*
Y4534054*
G37*
G36*
X7168590Y4400194D02*
G01X7103244D01*
Y4457788*
X7125026*
Y4438590*
X7146808*
Y4457788*
X7168590*
Y4400194*
G37*
G36*
Y4534054D02*
G01X7146808D01*
Y4553252*
X7125026*
Y4534054*
X7103244*
Y4591648*
X7168590*
Y4534054*
G37*
G36*
X9454099Y781510D02*
G01X9384753D01*
Y839856*
X9407868*
Y820408*
X9430984*
Y839856*
X9454099*
Y781510*
G37*
G36*
Y891750D02*
G01X9430984D01*
Y911199*
X9407868*
Y891750*
X9384753*
Y950096*
X9454099*
Y891750*
G37*
G36*
X9363549Y781510D02*
G01X9294203D01*
Y839856*
X9317318*
Y820408*
X9340434*
Y839856*
X9363549*
Y781510*
G37*
G36*
Y891750D02*
G01X9340434D01*
Y911199*
X9317318*
Y891750*
X9294203*
Y950096*
X9363549*
Y891750*
G37*
G36*
X10644779Y789320D02*
G01X10575433D01*
Y847666*
X10598548*
Y828218*
X10621664*
Y847666*
X10644779*
Y789320*
G37*
G36*
Y899560D02*
G01X10621664D01*
Y919009*
X10598548*
Y899560*
X10575433*
Y957906*
X10644779*
Y899560*
G37*
G36*
X10920989Y789320D02*
G01X10851643D01*
Y847666*
X10874758*
Y828218*
X10897874*
Y847666*
X10920989*
Y789320*
G37*
G36*
Y899560D02*
G01X10897874D01*
Y919009*
X10874758*
Y899560*
X10851643*
Y957906*
X10920989*
Y899560*
G37*
G36*
X10828879Y789320D02*
G01X10759533D01*
Y847666*
X10782648*
Y828218*
X10805764*
Y847666*
X10828879*
Y789320*
G37*
G36*
Y899560D02*
G01X10805764D01*
Y919009*
X10782648*
Y899560*
X10759533*
Y957906*
X10828879*
Y899560*
G37*
G36*
X10736879Y789320D02*
G01X10667533D01*
Y847666*
X10690648*
Y828218*
X10713764*
Y847666*
X10736879*
Y789320*
G37*
G36*
Y899560D02*
G01X10713764D01*
Y919009*
X10690648*
Y899560*
X10667533*
Y957906*
X10736879*
Y899560*
G37*
G36*
X11218294Y742576D02*
G01Y673230D01*
X11159948*
Y696346*
X11179397*
Y719461*
X11159948*
Y742576*
X11218294*
G37*
G36*
X11108054D02*
G01Y719461D01*
X11088605*
Y696346*
X11108054*
Y673230*
X11049708*
Y742576*
X11108054*
G37*
G36*
X11432579Y634640D02*
G01X11363233D01*
Y692986*
X11386348*
Y673538*
X11409464*
Y692986*
X11432579*
Y634640*
G37*
G36*
Y744880D02*
G01X11409464D01*
Y764329*
X11386348*
Y744880*
X11363233*
Y803226*
X11432579*
Y744880*
G37*
G36*
X6816260Y781510D02*
G01X6746914D01*
Y839856*
X6770029*
Y820408*
X6793145*
Y839856*
X6816260*
Y781510*
G37*
G36*
Y891750D02*
G01X6793145D01*
Y911199*
X6770029*
Y891750*
X6746914*
Y950096*
X6816260*
Y891750*
G37*
G36*
X6725710Y781510D02*
G01X6656364D01*
Y839856*
X6679479*
Y820408*
X6702595*
Y839856*
X6725710*
Y781510*
G37*
G36*
Y891750D02*
G01X6702595D01*
Y911199*
X6679479*
Y891750*
X6656364*
Y950096*
X6725710*
Y891750*
G37*
G36*
X8006940Y789320D02*
G01X7937594D01*
Y847666*
X7960709*
Y828218*
X7983825*
Y847666*
X8006940*
Y789320*
G37*
G36*
Y899560D02*
G01X7983825D01*
Y919009*
X7960709*
Y899560*
X7937594*
Y957906*
X8006940*
Y899560*
G37*
G36*
X8283150Y789320D02*
G01X8213804D01*
Y847666*
X8236919*
Y828218*
X8260035*
Y847666*
X8283150*
Y789320*
G37*
G36*
Y899560D02*
G01X8260035D01*
Y919009*
X8236919*
Y899560*
X8213804*
Y957906*
X8283150*
Y899560*
G37*
G36*
X8191040Y789320D02*
G01X8121694D01*
Y847666*
X8144809*
Y828218*
X8167925*
Y847666*
X8191040*
Y789320*
G37*
G36*
Y899560D02*
G01X8167925D01*
Y919009*
X8144809*
Y899560*
X8121694*
Y957906*
X8191040*
Y899560*
G37*
G36*
X8099040Y789320D02*
G01X8029694D01*
Y847666*
X8052809*
Y828218*
X8075925*
Y847666*
X8099040*
Y789320*
G37*
G36*
Y899560D02*
G01X8075925D01*
Y919009*
X8052809*
Y899560*
X8029694*
Y957906*
X8099040*
Y899560*
G37*
G36*
X8580455Y742576D02*
G01Y673230D01*
X8522109*
Y696346*
X8541558*
Y719461*
X8522109*
Y742576*
X8580455*
G37*
G36*
X8470215D02*
G01Y719461D01*
X8450766*
Y696346*
X8470215*
Y673230*
X8411869*
Y742576*
X8470215*
G37*
G36*
X8794740Y634640D02*
G01X8725394D01*
Y692986*
X8748509*
Y673538*
X8771625*
Y692986*
X8794740*
Y634640*
G37*
G36*
Y744880D02*
G01X8771625D01*
Y764329*
X8748509*
Y744880*
X8725394*
Y803226*
X8794740*
Y744880*
G37*
G36*
X9454099Y1568952D02*
G01X9384753D01*
Y1627298*
X9407868*
Y1607850*
X9430984*
Y1627298*
X9454099*
Y1568952*
G37*
G36*
Y1679192D02*
G01X9430984D01*
Y1698641*
X9407868*
Y1679192*
X9384753*
Y1737538*
X9454099*
Y1679192*
G37*
G36*
X9363549Y1568952D02*
G01X9294203D01*
Y1627298*
X9317318*
Y1607850*
X9340434*
Y1627298*
X9363549*
Y1568952*
G37*
G36*
Y1679192D02*
G01X9340434D01*
Y1698641*
X9317318*
Y1679192*
X9294203*
Y1737538*
X9363549*
Y1679192*
G37*
G36*
X10644779Y1576762D02*
G01X10575433D01*
Y1635108*
X10598548*
Y1615660*
X10621664*
Y1635108*
X10644779*
Y1576762*
G37*
G36*
Y1687002D02*
G01X10621664D01*
Y1706451*
X10598548*
Y1687002*
X10575433*
Y1745348*
X10644779*
Y1687002*
G37*
G36*
X10920989Y1576762D02*
G01X10851643D01*
Y1635108*
X10874758*
Y1615660*
X10897874*
Y1635108*
X10920989*
Y1576762*
G37*
G36*
Y1687002D02*
G01X10897874D01*
Y1706451*
X10874758*
Y1687002*
X10851643*
Y1745348*
X10920989*
Y1687002*
G37*
G36*
X10828879Y1576762D02*
G01X10759533D01*
Y1635108*
X10782648*
Y1615660*
X10805764*
Y1635108*
X10828879*
Y1576762*
G37*
G36*
Y1687002D02*
G01X10805764D01*
Y1706451*
X10782648*
Y1687002*
X10759533*
Y1745348*
X10828879*
Y1687002*
G37*
G36*
X10736879Y1576762D02*
G01X10667533D01*
Y1635108*
X10690648*
Y1615660*
X10713764*
Y1635108*
X10736879*
Y1576762*
G37*
G36*
Y1687002D02*
G01X10713764D01*
Y1706451*
X10690648*
Y1687002*
X10667533*
Y1745348*
X10736879*
Y1687002*
G37*
G36*
X11218294Y1530018D02*
G01Y1460672D01*
X11159948*
Y1483787*
X11179397*
Y1506903*
X11159948*
Y1530018*
X11218294*
G37*
G36*
X11108054D02*
G01Y1506903D01*
X11088605*
Y1483787*
X11108054*
Y1460672*
X11049708*
Y1530018*
X11108054*
G37*
G36*
X11432579Y1422082D02*
G01X11363233D01*
Y1480428*
X11386348*
Y1460980*
X11409464*
Y1480428*
X11432579*
Y1422082*
G37*
G36*
Y1532322D02*
G01X11409464D01*
Y1551771*
X11386348*
Y1532322*
X11363233*
Y1590668*
X11432579*
Y1532322*
G37*
G36*
X6816260Y1568952D02*
G01X6746914D01*
Y1627298*
X6770029*
Y1607850*
X6793145*
Y1627298*
X6816260*
Y1568952*
G37*
G36*
Y1679192D02*
G01X6793145D01*
Y1698641*
X6770029*
Y1679192*
X6746914*
Y1737538*
X6816260*
Y1679192*
G37*
G36*
X6725710Y1568952D02*
G01X6656364D01*
Y1627298*
X6679479*
Y1607850*
X6702595*
Y1627298*
X6725710*
Y1568952*
G37*
G36*
Y1679192D02*
G01X6702595D01*
Y1698641*
X6679479*
Y1679192*
X6656364*
Y1737538*
X6725710*
Y1679192*
G37*
G36*
X8006940Y1576762D02*
G01X7937594D01*
Y1635108*
X7960709*
Y1615660*
X7983825*
Y1635108*
X8006940*
Y1576762*
G37*
G36*
Y1687002D02*
G01X7983825D01*
Y1706451*
X7960709*
Y1687002*
X7937594*
Y1745348*
X8006940*
Y1687002*
G37*
G36*
X8283150Y1576762D02*
G01X8213804D01*
Y1635108*
X8236919*
Y1615660*
X8260035*
Y1635108*
X8283150*
Y1576762*
G37*
G36*
Y1687002D02*
G01X8260035D01*
Y1706451*
X8236919*
Y1687002*
X8213804*
Y1745348*
X8283150*
Y1687002*
G37*
G36*
X8191040Y1576762D02*
G01X8121694D01*
Y1635108*
X8144809*
Y1615660*
X8167925*
Y1635108*
X8191040*
Y1576762*
G37*
G36*
Y1687002D02*
G01X8167925D01*
Y1706451*
X8144809*
Y1687002*
X8121694*
Y1745348*
X8191040*
Y1687002*
G37*
G36*
X8099040Y1576762D02*
G01X8029694D01*
Y1635108*
X8052809*
Y1615660*
X8075925*
Y1635108*
X8099040*
Y1576762*
G37*
G36*
Y1687002D02*
G01X8075925D01*
Y1706451*
X8052809*
Y1687002*
X8029694*
Y1745348*
X8099040*
Y1687002*
G37*
G36*
X8580455Y1530018D02*
G01Y1460672D01*
X8522109*
Y1483787*
X8541558*
Y1506903*
X8522109*
Y1530018*
X8580455*
G37*
G36*
X8470215D02*
G01Y1506903D01*
X8450766*
Y1483787*
X8470215*
Y1460672*
X8411869*
Y1530018*
X8470215*
G37*
G36*
X8794740Y1422082D02*
G01X8725394D01*
Y1480428*
X8748509*
Y1460980*
X8771625*
Y1480428*
X8794740*
Y1422082*
G37*
G36*
Y1532322D02*
G01X8771625D01*
Y1551771*
X8748509*
Y1532322*
X8725394*
Y1590668*
X8794740*
Y1532322*
G37*
G36*
X9454099Y2356394D02*
G01X9384753D01*
Y2414740*
X9407868*
Y2395291*
X9430984*
Y2414740*
X9454099*
Y2356394*
G37*
G36*
Y2466634D02*
G01X9430984D01*
Y2486082*
X9407868*
Y2466634*
X9384753*
Y2524980*
X9454099*
Y2466634*
G37*
G36*
X9363549Y2356394D02*
G01X9294203D01*
Y2414740*
X9317318*
Y2395291*
X9340434*
Y2414740*
X9363549*
Y2356394*
G37*
G36*
Y2466634D02*
G01X9340434D01*
Y2486082*
X9317318*
Y2466634*
X9294203*
Y2524980*
X9363549*
Y2466634*
G37*
G36*
X10644779Y2364204D02*
G01X10575433D01*
Y2422550*
X10598548*
Y2403101*
X10621664*
Y2422550*
X10644779*
Y2364204*
G37*
G36*
Y2474444D02*
G01X10621664D01*
Y2493892*
X10598548*
Y2474444*
X10575433*
Y2532790*
X10644779*
Y2474444*
G37*
G36*
X10920989Y2364204D02*
G01X10851643D01*
Y2422550*
X10874758*
Y2403101*
X10897874*
Y2422550*
X10920989*
Y2364204*
G37*
G36*
Y2474444D02*
G01X10897874D01*
Y2493892*
X10874758*
Y2474444*
X10851643*
Y2532790*
X10920989*
Y2474444*
G37*
G36*
X10828879Y2364204D02*
G01X10759533D01*
Y2422550*
X10782648*
Y2403101*
X10805764*
Y2422550*
X10828879*
Y2364204*
G37*
G36*
Y2474444D02*
G01X10805764D01*
Y2493892*
X10782648*
Y2474444*
X10759533*
Y2532790*
X10828879*
Y2474444*
G37*
G36*
X10736879Y2364204D02*
G01X10667533D01*
Y2422550*
X10690648*
Y2403101*
X10713764*
Y2422550*
X10736879*
Y2364204*
G37*
G36*
Y2474444D02*
G01X10713764D01*
Y2493892*
X10690648*
Y2474444*
X10667533*
Y2532790*
X10736879*
Y2474444*
G37*
G36*
X11218294Y2317460D02*
G01Y2248114D01*
X11159948*
Y2271229*
X11179397*
Y2294345*
X11159948*
Y2317460*
X11218294*
G37*
G36*
X11108054D02*
G01Y2294345D01*
X11088605*
Y2271229*
X11108054*
Y2248114*
X11049708*
Y2317460*
X11108054*
G37*
G36*
X11432579Y2209524D02*
G01X11363233D01*
Y2267870*
X11386348*
Y2248421*
X11409464*
Y2267870*
X11432579*
Y2209524*
G37*
G36*
Y2319764D02*
G01X11409464D01*
Y2339212*
X11386348*
Y2319764*
X11363233*
Y2378110*
X11432579*
Y2319764*
G37*
G36*
X6816260Y2356394D02*
G01X6746914D01*
Y2414740*
X6770029*
Y2395291*
X6793145*
Y2414740*
X6816260*
Y2356394*
G37*
G36*
Y2466634D02*
G01X6793145D01*
Y2486082*
X6770029*
Y2466634*
X6746914*
Y2524980*
X6816260*
Y2466634*
G37*
G36*
X6725710Y2356394D02*
G01X6656364D01*
Y2414740*
X6679479*
Y2395291*
X6702595*
Y2414740*
X6725710*
Y2356394*
G37*
G36*
Y2466634D02*
G01X6702595D01*
Y2486082*
X6679479*
Y2466634*
X6656364*
Y2524980*
X6725710*
Y2466634*
G37*
G36*
X8006940Y2364204D02*
G01X7937594D01*
Y2422550*
X7960709*
Y2403101*
X7983825*
Y2422550*
X8006940*
Y2364204*
G37*
G36*
Y2474444D02*
G01X7983825D01*
Y2493892*
X7960709*
Y2474444*
X7937594*
Y2532790*
X8006940*
Y2474444*
G37*
G36*
X8283150Y2364204D02*
G01X8213804D01*
Y2422550*
X8236919*
Y2403101*
X8260035*
Y2422550*
X8283150*
Y2364204*
G37*
G36*
Y2474444D02*
G01X8260035D01*
Y2493892*
X8236919*
Y2474444*
X8213804*
Y2532790*
X8283150*
Y2474444*
G37*
G36*
X8191040Y2364204D02*
G01X8121694D01*
Y2422550*
X8144809*
Y2403101*
X8167925*
Y2422550*
X8191040*
Y2364204*
G37*
G36*
Y2474444D02*
G01X8167925D01*
Y2493892*
X8144809*
Y2474444*
X8121694*
Y2532790*
X8191040*
Y2474444*
G37*
G36*
X8099040Y2364204D02*
G01X8029694D01*
Y2422550*
X8052809*
Y2403101*
X8075925*
Y2422550*
X8099040*
Y2364204*
G37*
G36*
Y2474444D02*
G01X8075925D01*
Y2493892*
X8052809*
Y2474444*
X8029694*
Y2532790*
X8099040*
Y2474444*
G37*
G36*
X8580455Y2317460D02*
G01Y2248114D01*
X8522109*
Y2271229*
X8541558*
Y2294345*
X8522109*
Y2317460*
X8580455*
G37*
G36*
X8470215D02*
G01Y2294345D01*
X8450766*
Y2271229*
X8470215*
Y2248114*
X8411869*
Y2317460*
X8470215*
G37*
G36*
X8794740Y2209524D02*
G01X8725394D01*
Y2267870*
X8748509*
Y2248421*
X8771625*
Y2267870*
X8794740*
Y2209524*
G37*
G36*
Y2319764D02*
G01X8771625D01*
Y2339212*
X8748509*
Y2319764*
X8725394*
Y2378110*
X8794740*
Y2319764*
G37*
G36*
X9454099Y3143835D02*
G01X9384753D01*
Y3202181*
X9407868*
Y3182733*
X9430984*
Y3202181*
X9454099*
Y3143835*
G37*
G36*
Y3254075D02*
G01X9430984D01*
Y3273524*
X9407868*
Y3254075*
X9384753*
Y3312421*
X9454099*
Y3254075*
G37*
G36*
X9363549Y3143835D02*
G01X9294203D01*
Y3202181*
X9317318*
Y3182733*
X9340434*
Y3202181*
X9363549*
Y3143835*
G37*
G36*
Y3254075D02*
G01X9340434D01*
Y3273524*
X9317318*
Y3254075*
X9294203*
Y3312421*
X9363549*
Y3254075*
G37*
G36*
X10644779Y3151645D02*
G01X10575433D01*
Y3209991*
X10598548*
Y3190543*
X10621664*
Y3209991*
X10644779*
Y3151645*
G37*
G36*
Y3261885D02*
G01X10621664D01*
Y3281334*
X10598548*
Y3261885*
X10575433*
Y3320231*
X10644779*
Y3261885*
G37*
G36*
X10920989Y3151645D02*
G01X10851643D01*
Y3209991*
X10874758*
Y3190543*
X10897874*
Y3209991*
X10920989*
Y3151645*
G37*
G36*
Y3261885D02*
G01X10897874D01*
Y3281334*
X10874758*
Y3261885*
X10851643*
Y3320231*
X10920989*
Y3261885*
G37*
G36*
X10828879Y3151645D02*
G01X10759533D01*
Y3209991*
X10782648*
Y3190543*
X10805764*
Y3209991*
X10828879*
Y3151645*
G37*
G36*
Y3261885D02*
G01X10805764D01*
Y3281334*
X10782648*
Y3261885*
X10759533*
Y3320231*
X10828879*
Y3261885*
G37*
G36*
X10736879Y3151645D02*
G01X10667533D01*
Y3209991*
X10690648*
Y3190543*
X10713764*
Y3209991*
X10736879*
Y3151645*
G37*
G36*
Y3261885D02*
G01X10713764D01*
Y3281334*
X10690648*
Y3261885*
X10667533*
Y3320231*
X10736879*
Y3261885*
G37*
G36*
X11218294Y3104901D02*
G01Y3035555D01*
X11159948*
Y3058670*
X11179397*
Y3081786*
X11159948*
Y3104901*
X11218294*
G37*
G36*
X11108054D02*
G01Y3081786D01*
X11088605*
Y3058670*
X11108054*
Y3035555*
X11049708*
Y3104901*
X11108054*
G37*
G36*
X11432579Y2996965D02*
G01X11363233D01*
Y3055311*
X11386348*
Y3035863*
X11409464*
Y3055311*
X11432579*
Y2996965*
G37*
G36*
Y3107205D02*
G01X11409464D01*
Y3126654*
X11386348*
Y3107205*
X11363233*
Y3165551*
X11432579*
Y3107205*
G37*
G36*
X6816260Y3143835D02*
G01X6746914D01*
Y3202181*
X6770029*
Y3182733*
X6793145*
Y3202181*
X6816260*
Y3143835*
G37*
G36*
Y3254075D02*
G01X6793145D01*
Y3273524*
X6770029*
Y3254075*
X6746914*
Y3312421*
X6816260*
Y3254075*
G37*
G36*
X6725710Y3143835D02*
G01X6656364D01*
Y3202181*
X6679479*
Y3182733*
X6702595*
Y3202181*
X6725710*
Y3143835*
G37*
G36*
Y3254075D02*
G01X6702595D01*
Y3273524*
X6679479*
Y3254075*
X6656364*
Y3312421*
X6725710*
Y3254075*
G37*
G36*
X8006940Y3151645D02*
G01X7937594D01*
Y3209991*
X7960709*
Y3190543*
X7983825*
Y3209991*
X8006940*
Y3151645*
G37*
G36*
Y3261885D02*
G01X7983825D01*
Y3281334*
X7960709*
Y3261885*
X7937594*
Y3320231*
X8006940*
Y3261885*
G37*
G36*
X8283150Y3151645D02*
G01X8213804D01*
Y3209991*
X8236919*
Y3190543*
X8260035*
Y3209991*
X8283150*
Y3151645*
G37*
G36*
Y3261885D02*
G01X8260035D01*
Y3281334*
X8236919*
Y3261885*
X8213804*
Y3320231*
X8283150*
Y3261885*
G37*
G36*
X8191040Y3151645D02*
G01X8121694D01*
Y3209991*
X8144809*
Y3190543*
X8167925*
Y3209991*
X8191040*
Y3151645*
G37*
G36*
Y3261885D02*
G01X8167925D01*
Y3281334*
X8144809*
Y3261885*
X8121694*
Y3320231*
X8191040*
Y3261885*
G37*
G36*
X8099040Y3151645D02*
G01X8029694D01*
Y3209991*
X8052809*
Y3190543*
X8075925*
Y3209991*
X8099040*
Y3151645*
G37*
G36*
Y3261885D02*
G01X8075925D01*
Y3281334*
X8052809*
Y3261885*
X8029694*
Y3320231*
X8099040*
Y3261885*
G37*
G36*
X8580455Y3104901D02*
G01Y3035555D01*
X8522109*
Y3058670*
X8541558*
Y3081786*
X8522109*
Y3104901*
X8580455*
G37*
G36*
X8470215D02*
G01Y3081786D01*
X8450766*
Y3058670*
X8470215*
Y3035555*
X8411869*
Y3104901*
X8470215*
G37*
G36*
X8794740Y2996965D02*
G01X8725394D01*
Y3055311*
X8748509*
Y3035863*
X8771625*
Y3055311*
X8794740*
Y2996965*
G37*
G36*
Y3107205D02*
G01X8771625D01*
Y3126654*
X8748509*
Y3107205*
X8725394*
Y3165551*
X8794740*
Y3107205*
G37*
G36*
X9454099Y3931277D02*
G01X9384753D01*
Y3989623*
X9407868*
Y3970174*
X9430984*
Y3989623*
X9454099*
Y3931277*
G37*
G36*
Y4041517D02*
G01X9430984D01*
Y4060965*
X9407868*
Y4041517*
X9384753*
Y4099863*
X9454099*
Y4041517*
G37*
G36*
X9363549Y3931277D02*
G01X9294203D01*
Y3989623*
X9317318*
Y3970174*
X9340434*
Y3989623*
X9363549*
Y3931277*
G37*
G36*
Y4041517D02*
G01X9340434D01*
Y4060965*
X9317318*
Y4041517*
X9294203*
Y4099863*
X9363549*
Y4041517*
G37*
G36*
X10644779Y3939087D02*
G01X10575433D01*
Y3997433*
X10598548*
Y3977984*
X10621664*
Y3997433*
X10644779*
Y3939087*
G37*
G36*
Y4049327D02*
G01X10621664D01*
Y4068775*
X10598548*
Y4049327*
X10575433*
Y4107673*
X10644779*
Y4049327*
G37*
G36*
X10920989Y3939087D02*
G01X10851643D01*
Y3997433*
X10874758*
Y3977984*
X10897874*
Y3997433*
X10920989*
Y3939087*
G37*
G36*
Y4049327D02*
G01X10897874D01*
Y4068775*
X10874758*
Y4049327*
X10851643*
Y4107673*
X10920989*
Y4049327*
G37*
G36*
X10828879Y3939087D02*
G01X10759533D01*
Y3997433*
X10782648*
Y3977984*
X10805764*
Y3997433*
X10828879*
Y3939087*
G37*
G36*
Y4049327D02*
G01X10805764D01*
Y4068775*
X10782648*
Y4049327*
X10759533*
Y4107673*
X10828879*
Y4049327*
G37*
G36*
X10736879Y3939087D02*
G01X10667533D01*
Y3997433*
X10690648*
Y3977984*
X10713764*
Y3997433*
X10736879*
Y3939087*
G37*
G36*
Y4049327D02*
G01X10713764D01*
Y4068775*
X10690648*
Y4049327*
X10667533*
Y4107673*
X10736879*
Y4049327*
G37*
G36*
X11218294Y3892343D02*
G01Y3822997D01*
X11159948*
Y3846112*
X11179397*
Y3869228*
X11159948*
Y3892343*
X11218294*
G37*
G36*
X11108054D02*
G01Y3869228D01*
X11088605*
Y3846112*
X11108054*
Y3822997*
X11049708*
Y3892343*
X11108054*
G37*
G36*
X11432579Y3784407D02*
G01X11363233D01*
Y3842753*
X11386348*
Y3823304*
X11409464*
Y3842753*
X11432579*
Y3784407*
G37*
G36*
Y3894647D02*
G01X11409464D01*
Y3914095*
X11386348*
Y3894647*
X11363233*
Y3952993*
X11432579*
Y3894647*
G37*
G36*
X6816260Y3931277D02*
G01X6746914D01*
Y3989623*
X6770029*
Y3970174*
X6793145*
Y3989623*
X6816260*
Y3931277*
G37*
G36*
Y4041517D02*
G01X6793145D01*
Y4060965*
X6770029*
Y4041517*
X6746914*
Y4099863*
X6816260*
Y4041517*
G37*
G36*
X6725710Y3931277D02*
G01X6656364D01*
Y3989623*
X6679479*
Y3970174*
X6702595*
Y3989623*
X6725710*
Y3931277*
G37*
G36*
Y4041517D02*
G01X6702595D01*
Y4060965*
X6679479*
Y4041517*
X6656364*
Y4099863*
X6725710*
Y4041517*
G37*
G36*
X8006940Y3939087D02*
G01X7937594D01*
Y3997433*
X7960709*
Y3977984*
X7983825*
Y3997433*
X8006940*
Y3939087*
G37*
G36*
Y4049327D02*
G01X7983825D01*
Y4068775*
X7960709*
Y4049327*
X7937594*
Y4107673*
X8006940*
Y4049327*
G37*
G36*
X8283150Y3939087D02*
G01X8213804D01*
Y3997433*
X8236919*
Y3977984*
X8260035*
Y3997433*
X8283150*
Y3939087*
G37*
G36*
Y4049327D02*
G01X8260035D01*
Y4068775*
X8236919*
Y4049327*
X8213804*
Y4107673*
X8283150*
Y4049327*
G37*
G36*
X8191040Y3939087D02*
G01X8121694D01*
Y3997433*
X8144809*
Y3977984*
X8167925*
Y3997433*
X8191040*
Y3939087*
G37*
G36*
Y4049327D02*
G01X8167925D01*
Y4068775*
X8144809*
Y4049327*
X8121694*
Y4107673*
X8191040*
Y4049327*
G37*
G36*
X8099040Y3939087D02*
G01X8029694D01*
Y3997433*
X8052809*
Y3977984*
X8075925*
Y3997433*
X8099040*
Y3939087*
G37*
G36*
Y4049327D02*
G01X8075925D01*
Y4068775*
X8052809*
Y4049327*
X8029694*
Y4107673*
X8099040*
Y4049327*
G37*
G36*
X8580455Y3892343D02*
G01Y3822997D01*
X8522109*
Y3846112*
X8541558*
Y3869228*
X8522109*
Y3892343*
X8580455*
G37*
G36*
X8470215D02*
G01Y3869228D01*
X8450766*
Y3846112*
X8470215*
Y3822997*
X8411869*
Y3892343*
X8470215*
G37*
G36*
X8794740Y3784407D02*
G01X8725394D01*
Y3842753*
X8748509*
Y3823304*
X8771625*
Y3842753*
X8794740*
Y3784407*
G37*
G36*
Y3894647D02*
G01X8771625D01*
Y3914095*
X8748509*
Y3894647*
X8725394*
Y3952993*
X8794740*
Y3894647*
G37*
G36*
X9454099Y4718718D02*
G01X9384753D01*
Y4777064*
X9407868*
Y4757616*
X9430984*
Y4777064*
X9454099*
Y4718718*
G37*
G36*
Y4828958D02*
G01X9430984D01*
Y4848407*
X9407868*
Y4828958*
X9384753*
Y4887304*
X9454099*
Y4828958*
G37*
G36*
X9363549Y4718718D02*
G01X9294203D01*
Y4777064*
X9317318*
Y4757616*
X9340434*
Y4777064*
X9363549*
Y4718718*
G37*
G36*
Y4828958D02*
G01X9340434D01*
Y4848407*
X9317318*
Y4828958*
X9294203*
Y4887304*
X9363549*
Y4828958*
G37*
G36*
X10644779Y4726528D02*
G01X10575433D01*
Y4784874*
X10598548*
Y4765426*
X10621664*
Y4784874*
X10644779*
Y4726528*
G37*
G36*
Y4836768D02*
G01X10621664D01*
Y4856217*
X10598548*
Y4836768*
X10575433*
Y4895114*
X10644779*
Y4836768*
G37*
G36*
X10920989Y4726528D02*
G01X10851643D01*
Y4784874*
X10874758*
Y4765426*
X10897874*
Y4784874*
X10920989*
Y4726528*
G37*
G36*
Y4836768D02*
G01X10897874D01*
Y4856217*
X10874758*
Y4836768*
X10851643*
Y4895114*
X10920989*
Y4836768*
G37*
G36*
X10828879Y4726528D02*
G01X10759533D01*
Y4784874*
X10782648*
Y4765426*
X10805764*
Y4784874*
X10828879*
Y4726528*
G37*
G36*
Y4836768D02*
G01X10805764D01*
Y4856217*
X10782648*
Y4836768*
X10759533*
Y4895114*
X10828879*
Y4836768*
G37*
G36*
X10736879Y4726528D02*
G01X10667533D01*
Y4784874*
X10690648*
Y4765426*
X10713764*
Y4784874*
X10736879*
Y4726528*
G37*
G36*
Y4836768D02*
G01X10713764D01*
Y4856217*
X10690648*
Y4836768*
X10667533*
Y4895114*
X10736879*
Y4836768*
G37*
G36*
X11218294Y4679784D02*
G01Y4610438D01*
X11159948*
Y4633553*
X11179397*
Y4656669*
X11159948*
Y4679784*
X11218294*
G37*
G36*
X11108054D02*
G01Y4656669D01*
X11088605*
Y4633553*
X11108054*
Y4610438*
X11049708*
Y4679784*
X11108054*
G37*
G36*
X11432579Y4571848D02*
G01X11363233D01*
Y4630194*
X11386348*
Y4610746*
X11409464*
Y4630194*
X11432579*
Y4571848*
G37*
G36*
Y4682088D02*
G01X11409464D01*
Y4701537*
X11386348*
Y4682088*
X11363233*
Y4740434*
X11432579*
Y4682088*
G37*
G36*
X6816260Y4718718D02*
G01X6746914D01*
Y4777064*
X6770029*
Y4757616*
X6793145*
Y4777064*
X6816260*
Y4718718*
G37*
G36*
Y4828958D02*
G01X6793145D01*
Y4848407*
X6770029*
Y4828958*
X6746914*
Y4887304*
X6816260*
Y4828958*
G37*
G36*
X6725710Y4718718D02*
G01X6656364D01*
Y4777064*
X6679479*
Y4757616*
X6702595*
Y4777064*
X6725710*
Y4718718*
G37*
G36*
Y4828958D02*
G01X6702595D01*
Y4848407*
X6679479*
Y4828958*
X6656364*
Y4887304*
X6725710*
Y4828958*
G37*
G36*
X8006940Y4726528D02*
G01X7937594D01*
Y4784874*
X7960709*
Y4765426*
X7983825*
Y4784874*
X8006940*
Y4726528*
G37*
G36*
Y4836768D02*
G01X7983825D01*
Y4856217*
X7960709*
Y4836768*
X7937594*
Y4895114*
X8006940*
Y4836768*
G37*
G36*
X8283150Y4726528D02*
G01X8213804D01*
Y4784874*
X8236919*
Y4765426*
X8260035*
Y4784874*
X8283150*
Y4726528*
G37*
G36*
Y4836768D02*
G01X8260035D01*
Y4856217*
X8236919*
Y4836768*
X8213804*
Y4895114*
X8283150*
Y4836768*
G37*
G36*
X8191040Y4726528D02*
G01X8121694D01*
Y4784874*
X8144809*
Y4765426*
X8167925*
Y4784874*
X8191040*
Y4726528*
G37*
G36*
Y4836768D02*
G01X8167925D01*
Y4856217*
X8144809*
Y4836768*
X8121694*
Y4895114*
X8191040*
Y4836768*
G37*
G36*
X8099040Y4726528D02*
G01X8029694D01*
Y4784874*
X8052809*
Y4765426*
X8075925*
Y4784874*
X8099040*
Y4726528*
G37*
G36*
Y4836768D02*
G01X8075925D01*
Y4856217*
X8052809*
Y4836768*
X8029694*
Y4895114*
X8099040*
Y4836768*
G37*
G36*
X8580455Y4679784D02*
G01Y4610438D01*
X8522109*
Y4633553*
X8541558*
Y4656669*
X8522109*
Y4679784*
X8580455*
G37*
G36*
X8470215D02*
G01Y4656669D01*
X8450766*
Y4633553*
X8470215*
Y4610438*
X8411869*
Y4679784*
X8470215*
G37*
G36*
X8794740Y4571848D02*
G01X8725394D01*
Y4630194*
X8748509*
Y4610746*
X8771625*
Y4630194*
X8794740*
Y4571848*
G37*
G36*
Y4682088D02*
G01X8771625D01*
Y4701537*
X8748509*
Y4682088*
X8725394*
Y4740434*
X8794740*
Y4682088*
G37*
G36*
X9713353Y869052D02*
G01Y893500D01*
X9736468*
Y917947*
X9713353*
Y942394*
X9782699*
Y869052*
X9713353*
G37*
G36*
X9614933D02*
G01Y942394D01*
X9684279*
Y917947*
X9661164*
Y893500*
X9684279*
Y869052*
X9614933*
G37*
G36*
X7075514D02*
G01Y893500D01*
X7098629*
Y917947*
X7075514*
Y942394*
X7144860*
Y869052*
X7075514*
G37*
G36*
X6977094D02*
G01Y942394D01*
X7046440*
Y917947*
X7023325*
Y893500*
X7046440*
Y869052*
X6977094*
G37*
G36*
X9713353Y1656494D02*
G01Y1680941D01*
X9736468*
Y1705389*
X9713353*
Y1729836*
X9782699*
Y1656494*
X9713353*
G37*
G36*
X9614933D02*
G01Y1729836D01*
X9684279*
Y1705389*
X9661164*
Y1680941*
X9684279*
Y1656494*
X9614933*
G37*
G36*
X7075514D02*
G01Y1680941D01*
X7098629*
Y1705389*
X7075514*
Y1729836*
X7144860*
Y1656494*
X7075514*
G37*
G36*
X6977094D02*
G01Y1729836D01*
X7046440*
Y1705389*
X7023325*
Y1680941*
X7046440*
Y1656494*
X6977094*
G37*
G36*
X9713353Y2443936D02*
G01Y2468383D01*
X9736468*
Y2492831*
X9713353*
Y2517278*
X9782699*
Y2443936*
X9713353*
G37*
G36*
X9614933D02*
G01Y2517278D01*
X9684279*
Y2492831*
X9661164*
Y2468383*
X9684279*
Y2443936*
X9614933*
G37*
G36*
X7075514D02*
G01Y2468383D01*
X7098629*
Y2492831*
X7075514*
Y2517278*
X7144860*
Y2443936*
X7075514*
G37*
G36*
X6977094D02*
G01Y2517278D01*
X7046440*
Y2492831*
X7023325*
Y2468383*
X7046440*
Y2443936*
X6977094*
G37*
G36*
X9713353Y3231377D02*
G01Y3255824D01*
X9736468*
Y3280272*
X9713353*
Y3304719*
X9782699*
Y3231377*
X9713353*
G37*
G36*
X9614933D02*
G01Y3304719D01*
X9684279*
Y3280272*
X9661164*
Y3255824*
X9684279*
Y3231377*
X9614933*
G37*
G36*
X7075514D02*
G01Y3255824D01*
X7098629*
Y3280272*
X7075514*
Y3304719*
X7144860*
Y3231377*
X7075514*
G37*
G36*
X6977094D02*
G01Y3304719D01*
X7046440*
Y3280272*
X7023325*
Y3255824*
X7046440*
Y3231377*
X6977094*
G37*
G36*
X9713353Y4018819D02*
G01Y4043266D01*
X9736468*
Y4067714*
X9713353*
Y4092161*
X9782699*
Y4018819*
X9713353*
G37*
G36*
X9614933D02*
G01Y4092161D01*
X9684279*
Y4067714*
X9661164*
Y4043266*
X9684279*
Y4018819*
X9614933*
G37*
G36*
X7075514D02*
G01Y4043266D01*
X7098629*
Y4067714*
X7075514*
Y4092161*
X7144860*
Y4018819*
X7075514*
G37*
G36*
X6977094D02*
G01Y4092161D01*
X7046440*
Y4067714*
X7023325*
Y4043266*
X7046440*
Y4018819*
X6977094*
G37*
G36*
X9713353Y4806260D02*
G01Y4830707D01*
X9736468*
Y4855155*
X9713353*
Y4879602*
X9782699*
Y4806260*
X9713353*
G37*
G36*
X9614933D02*
G01Y4879602D01*
X9684279*
Y4855155*
X9661164*
Y4830707*
X9684279*
Y4806260*
X9614933*
G37*
G36*
X7075514D02*
G01Y4830707D01*
X7098629*
Y4855155*
X7075514*
Y4879602*
X7144860*
Y4806260*
X7075514*
G37*
G36*
X6977094D02*
G01Y4879602D01*
X7046440*
Y4855155*
X7023325*
Y4830707*
X7046440*
Y4806260*
X6977094*
G37*
G36*
X5451833Y9090295D02*
G01X5323254D01*
X5320699Y9089927*
X5318252Y9088888*
X5315957Y9087264*
X5313943Y9085142*
X5312189Y9082695*
X5310868Y9079967*
X5310002Y9077130*
X5309720Y9074228*
Y9065762*
X5304654*
Y9127518*
X5309720*
Y9119917*
X5310002Y9116821*
X5310868Y9113854*
X5312189Y9111148*
X5313943Y9108701*
X5315957Y9106709*
X5318252Y9105171*
X5320699Y9104197*
X5323254Y9103829*
X5425610*
X5426888Y9104045*
X5428209Y9104587*
X5430677Y9106492*
X5432496Y9109221*
X5433016Y9110758*
X5433232Y9112295*
Y9127518*
X5438299*
Y9119917*
X5438581Y9116041*
X5439447Y9112036*
X5440768Y9108073*
X5442522Y9104284*
X5444535Y9100841*
X5446831Y9097809*
X5449278Y9095384*
X5451833Y9093695*
Y9090295*
G37*
G36*
Y9415099D02*
G01X5323254D01*
X5320699Y9414730*
X5318252Y9413691*
X5315957Y9412067*
X5313943Y9409945*
X5312189Y9407498*
X5310868Y9404770*
X5310002Y9401933*
X5309720Y9399032*
Y9390565*
X5304654*
Y9452321*
X5309720*
Y9444721*
X5310002Y9441624*
X5310868Y9438658*
X5312189Y9435951*
X5313943Y9433504*
X5315957Y9431512*
X5318252Y9429974*
X5320699Y9429000*
X5323254Y9428632*
X5425610*
X5426888Y9428849*
X5428209Y9429390*
X5430677Y9431295*
X5432496Y9434024*
X5433016Y9435561*
X5433232Y9437099*
Y9452321*
X5438299*
Y9444721*
X5438581Y9440845*
X5439447Y9436839*
X5440768Y9432876*
X5442522Y9429087*
X5444535Y9425644*
X5446831Y9422612*
X5449278Y9420187*
X5451833Y9418498*
Y9415099*
G37*
G36*
X5718368Y7899350D02*
G01X5589789D01*
X5587234Y7898982*
X5584787Y7897943*
X5582492Y7896319*
X5580478Y7894197*
X5578724Y7891750*
X5577404Y7889022*
X5576537Y7886185*
X5576256Y7883284*
Y7874817*
X5571189*
Y7936573*
X5576256*
Y7928973*
X5576537Y7925876*
X5577404Y7922910*
X5578724Y7920203*
X5580478Y7917756*
X5582492Y7915764*
X5584787Y7914226*
X5587234Y7913252*
X5589789Y7912884*
X5692146*
X5693423Y7913100*
X5694744Y7913642*
X5697213Y7915547*
X5699031Y7918276*
X5699551Y7919813*
X5699768Y7921350*
Y7936573*
X5704835*
Y7928973*
X5705116Y7925097*
X5705982Y7921091*
X5707303Y7917128*
X5709057Y7913339*
X5711071Y7909896*
X5713366Y7906864*
X5715813Y7904439*
X5718368Y7902750*
Y7899350*
G37*
G36*
X5984904Y8115886D02*
G01X5856325D01*
X5853770Y8115518*
X5851323Y8114478*
X5849028Y8112854*
X5847014Y8110732*
X5845260Y8108286*
X5843939Y8105557*
X5843073Y8102721*
X5842791Y8099819*
Y8091352*
X5837724*
Y8153108*
X5842791*
Y8145508*
X5843073Y8142411*
X5843939Y8139445*
X5845260Y8136738*
X5847014Y8134291*
X5849028Y8132299*
X5851323Y8130762*
X5853770Y8129787*
X5856325Y8129419*
X5958681*
X5959959Y8129636*
X5961280Y8130177*
X5963748Y8132083*
X5965567Y8134811*
X5966087Y8136349*
X5966303Y8137886*
Y8153108*
X5971370*
Y8145508*
X5971652Y8141632*
X5972518Y8137626*
X5973839Y8133663*
X5975593Y8129874*
X5977606Y8126431*
X5979902Y8123400*
X5982348Y8120974*
X5984904Y8119286*
Y8115886*
G37*
G36*
Y8332421D02*
G01X5856325D01*
X5853770Y8332053*
X5851323Y8331014*
X5849028Y8329390*
X5847014Y8327268*
X5845260Y8324821*
X5843939Y8322093*
X5843073Y8319256*
X5842791Y8316354*
Y8307888*
X5837724*
Y8369644*
X5842791*
Y8362043*
X5843073Y8358947*
X5843939Y8355980*
X5845260Y8353274*
X5847014Y8350827*
X5849028Y8348835*
X5851323Y8347297*
X5853770Y8346323*
X5856325Y8345955*
X5958681*
X5959959Y8346171*
X5961280Y8346713*
X5963748Y8348618*
X5965567Y8351347*
X5966087Y8352884*
X5966303Y8354421*
Y8369644*
X5971370*
Y8362043*
X5971652Y8358167*
X5972518Y8354161*
X5973839Y8350199*
X5975593Y8346410*
X5977606Y8342967*
X5979902Y8339935*
X5982348Y8337510*
X5984904Y8335821*
Y8332421*
G37*
G36*
X5710768Y9997882D02*
G01X5715835D01*
Y9930215*
X5710768*
Y9949681*
X5710161Y9952323*
X5708624Y9954770*
X5706459Y9956589*
X5705224Y9957108*
X5703990Y9957282*
X5583012*
X5581734Y9957108*
X5580522Y9956589*
X5578356Y9954770*
X5576819Y9952323*
X5576256Y9949681*
Y9930215*
X5571189*
Y9997882*
X5576256*
Y9978437*
X5576819Y9975492*
X5578356Y9973067*
X5580522Y9971421*
X5583012Y9970815*
X5703990*
X5706459Y9971421*
X5708624Y9973067*
X5710161Y9975492*
X5710768Y9978437*
Y9997882*
G37*
G36*
X5656612Y9174896D02*
G01X5645634Y9203652D01*
X5634634Y9174896*
X5632988Y9171128*
X5631321Y9168010*
X5629654Y9165541*
X5628051Y9163593*
X5625085Y9161211*
X5622789Y9160496*
X5620451Y9160734*
X5618567Y9161341*
X5617073Y9162250*
X5615990Y9163333*
X5614669Y9165801*
X5614323Y9167988*
X5614734Y9170284*
X5615904Y9173077*
X5617506Y9176065*
X5619411Y9178772*
X5643079Y9204518*
X5607567Y9198715*
X5603106Y9197978*
X5599945Y9197870*
X5598061Y9198108*
X5596329Y9198715*
X5593384Y9200793*
X5591370Y9203500*
X5590656Y9206185*
X5591262Y9208654*
X5593081Y9211490*
X5594380Y9212811*
X5595982Y9213850*
X5597801Y9214565*
X5599945Y9214803*
X5603409Y9214370*
X5607567Y9213937*
X5643079Y9207051*
X5619411Y9233750*
X5616207Y9239380*
X5614864Y9242520*
X5614323Y9244945*
X5614907Y9247284*
X5616640Y9249817*
X5617831Y9250965*
X5619303Y9251874*
X5620949Y9252502*
X5622789Y9252697*
X5624089Y9252480*
X5625561Y9251787*
X5628679Y9249016*
X5631797Y9244512*
X5634634Y9238319*
X5645634Y9209563*
X5656612Y9238319*
X5658799Y9243083*
X5661571Y9247738*
X5663108Y9249730*
X5664797Y9251311*
X5666573Y9252329*
X5668457Y9252697*
X5669994Y9252502*
X5671531Y9251896*
X5674260Y9249860*
X5676165Y9247392*
X5676923Y9245097*
X5676469Y9242693*
X5675321Y9239618*
X5673675Y9236543*
X5671835Y9234097*
X5648167Y9207874*
X5683679Y9213807*
X5687793Y9214240*
X5691301Y9214652*
X5692644Y9214457*
X5694159Y9213829*
X5697213Y9211707*
X5699616Y9208957*
X5700331Y9207549*
X5700612Y9206185*
X5700309Y9204410*
X5699486Y9202764*
X5698295Y9201313*
X5696888Y9200079*
X5693791Y9198347*
X5691301Y9197719*
X5687469Y9197827*
X5685325Y9198108*
X5683679Y9198563*
X5648167Y9205341*
X5671835Y9179118*
X5674043Y9176368*
X5675646Y9173315*
X5676598Y9170457*
X5676923Y9168118*
X5676685Y9166841*
X5676057Y9165520*
X5673935Y9163051*
X5671185Y9161232*
X5669756Y9160713*
X5668457Y9160496*
X5667136Y9160691*
X5665750Y9161211*
X5664299Y9162185*
X5662848Y9163593*
X5661289Y9165541*
X5659752Y9168010*
X5656612Y9174896*
G37*
G36*
X5443366Y9273008D02*
G01X5431457Y9279829D01*
X5417815Y9286628*
X5403134Y9293189*
X5388171Y9299165*
X5373555Y9304341*
X5360087Y9308368*
X5348415Y9311010*
X5343500Y9311724*
X5339321Y9311941*
X5328949Y9311508*
X5314787Y9311075*
X5312319Y9311291*
X5310067Y9311833*
X5308053Y9312721*
X5306321Y9313846*
X5304870Y9315254*
X5303831Y9316813*
X5303181Y9318567*
X5302965Y9320386*
X5303224Y9322053*
X5304004Y9323785*
X5305217Y9325496*
X5306862Y9327055*
X5308833Y9328463*
X5311150Y9329545*
X5313705Y9330282*
X5316498Y9330520*
X5323925Y9329870*
X5334059Y9327791*
X5346575Y9324349*
X5361299Y9319433*
X5377886Y9313089*
X5396161Y9305228*
X5415801Y9295831*
X5436610Y9284852*
Y9327142*
X5436047Y9330736*
X5434553Y9334309*
X5432193Y9337839*
X5429183Y9341130*
X5425567Y9344140*
X5421583Y9346695*
X5417317Y9348687*
X5412921Y9349986*
X5413766Y9355053*
X5449299Y9349142*
Y9273008*
X5443366*
G37*
G36*
X5664234Y9093695D02*
G01X5663931Y9090663D01*
X5663130Y9087545*
X5661809Y9084406*
X5660055Y9081244*
X5657868Y9078169*
X5655356Y9075160*
X5649402Y9069486*
X5642472Y9064614*
X5634937Y9060760*
X5631018Y9059331*
X5627120Y9058248*
X5623222Y9057577*
X5619390Y9057317*
X5615037Y9057577*
X5610663Y9058291*
X5606268Y9059461*
X5601937Y9060998*
X5597650Y9062947*
X5593535Y9065199*
X5589573Y9067797*
X5585870Y9070656*
X5582384Y9073817*
X5579244Y9077173*
X5576451Y9080768*
X5574069Y9084470*
X5572120Y9088368*
X5570691Y9092331*
X5569781Y9096380*
X5569500Y9100472*
X5569673Y9103439*
X5570258Y9106557*
X5572467Y9113010*
X5575758Y9119506*
X5579959Y9125634*
X5584701Y9131112*
X5589811Y9135443*
X5592388Y9137110*
X5594965Y9138323*
X5597476Y9139102*
X5599945Y9139362*
X5601915Y9139124*
X5604037Y9138366*
X5606159Y9137262*
X5608173Y9135789*
X5609927Y9134122*
X5611356Y9132260*
X5612287Y9130333*
X5612634Y9128384*
X5612331Y9126608*
X5611508Y9124963*
X5610317Y9123512*
X5608909Y9122278*
X5605813Y9120545*
X5603323Y9119917*
X5601352Y9120156*
X5599382Y9120740*
X5595484Y9122473*
X5591890Y9124226*
X5588945Y9125006*
X5587646Y9124854*
X5586390Y9124313*
X5583943Y9122364*
X5581648Y9119463*
X5579634Y9115825*
X5577880Y9111776*
X5576559Y9107532*
X5575693Y9103417*
X5575411Y9099628*
X5575628Y9097095*
X5576364Y9094561*
X5577533Y9092071*
X5579136Y9089581*
X5583402Y9084882*
X5588923Y9080616*
X5595354Y9077000*
X5602500Y9074185*
X5610014Y9072366*
X5613846Y9071890*
X5617701Y9071695*
X5624154Y9072301*
X5630758Y9073904*
X5637124Y9076415*
X5643057Y9079642*
X5648146Y9083518*
X5652173Y9087805*
X5653667Y9090100*
X5654793Y9092396*
X5655508Y9094756*
X5655768Y9097095*
X5655443Y9100776*
X5654512Y9104695*
X5652996Y9108744*
X5650982Y9112750*
X5648406Y9116626*
X5645374Y9120177*
X5641888Y9123317*
X5638012Y9125850*
X5638856Y9133451*
X5715835Y9129228*
Y9059850*
X5703146Y9062406*
Y9123620*
X5647301Y9126695*
X5651394Y9123230*
X5654902Y9119203*
X5657803Y9114807*
X5660185Y9110217*
X5661961Y9105669*
X5663238Y9101252*
X5663974Y9097224*
X5664234Y9093695*
G37*
G36*
X5343565Y8840782D02*
G01X5340425Y8841085D01*
X5337156Y8841864*
X5333778Y8843142*
X5330400Y8844831*
X5323600Y8849421*
X5317213Y8855289*
X5311518Y8862175*
X5309093Y8865878*
X5307014Y8869711*
X5305281Y8873673*
X5304026Y8877657*
X5303224Y8881663*
X5302965Y8885626*
X5303138Y8888571*
X5303701Y8891624*
X5305758Y8897882*
X5308854Y8904118*
X5312774Y8909965*
X5317148Y8915118*
X5321846Y8919189*
X5324163Y8920748*
X5326480Y8921874*
X5328732Y8922610*
X5330876Y8922827*
X5332846Y8922567*
X5334969Y8921744*
X5339104Y8919037*
X5342287Y8915724*
X5343219Y8914122*
X5343565Y8912693*
X5343219Y8910874*
X5342331Y8909120*
X5340988Y8907561*
X5339429Y8906154*
X5336030Y8904140*
X5333409Y8903382*
X5329967Y8903923*
X5326394Y8905093*
X5323146Y8906284*
X5320720Y8906782*
X5318728Y8906240*
X5316693Y8904703*
X5314701Y8902408*
X5312882Y8899506*
X5311258Y8896301*
X5310002Y8892880*
X5309157Y8889545*
X5308876Y8886471*
X5309071Y8883656*
X5309656Y8880819*
X5310608Y8878047*
X5311929Y8875297*
X5315459Y8870165*
X5320071Y8865532*
X5325528Y8861656*
X5331699Y8858624*
X5338325Y8856697*
X5341746Y8856199*
X5345254Y8856004*
X5348112Y8856199*
X5351035Y8856762*
X5353959Y8857671*
X5356925Y8858884*
X5362620Y8862284*
X5367882Y8866809*
X5370220Y8869494*
X5372364Y8872417*
X5374270Y8875557*
X5375937Y8878892*
X5377258Y8882443*
X5378254Y8886167*
X5378860Y8890065*
X5379098Y8894071*
X5385010*
X5385161Y8890953*
X5385703Y8887835*
X5387717Y8881815*
X5390813Y8876228*
X5394819Y8871248*
X5399453Y8867091*
X5404606Y8863864*
X5409998Y8861807*
X5412726Y8861266*
X5415455Y8861071*
X5420089Y8861677*
X5425047Y8863280*
X5429984Y8865835*
X5434683Y8869126*
X5438797Y8873089*
X5442089Y8877528*
X5444276Y8882335*
X5444860Y8884825*
X5445077Y8887315*
X5444774Y8889892*
X5444016Y8892880*
X5442803Y8896106*
X5441244Y8899289*
X5439317Y8902234*
X5437173Y8904595*
X5434835Y8906219*
X5432366Y8906782*
X5427862Y8906284*
X5424441Y8905093*
X5421778Y8903923*
X5419677Y8903382*
X5416407Y8903988*
X5413441Y8905634*
X5411232Y8908059*
X5410583Y8909488*
X5410388Y8911004*
X5410604Y8912411*
X5411254Y8913906*
X5413744Y8916937*
X5415476Y8918280*
X5417490Y8919341*
X5419742Y8920055*
X5422211Y8920293*
X5424593Y8920077*
X5427061Y8919341*
X5429530Y8918215*
X5432041Y8916656*
X5436870Y8912628*
X5441352Y8907518*
X5445185Y8901801*
X5448260Y8895695*
X5450252Y8889654*
X5450793Y8886730*
X5450988Y8883937*
X5450728Y8880754*
X5450035Y8877506*
X5448909Y8874258*
X5447459Y8870988*
X5443626Y8864730*
X5438906Y8858971*
X5433600Y8854055*
X5428100Y8850158*
X5422774Y8847624*
X5420283Y8846953*
X5417988Y8846693*
X5413008Y8847299*
X5407789Y8848902*
X5402528Y8851457*
X5397461Y8854748*
X5392762Y8858711*
X5388713Y8863150*
X5385486Y8867957*
X5383321Y8872937*
X5381848Y8869559*
X5380094Y8866246*
X5375764Y8860097*
X5370610Y8854618*
X5365002Y8849898*
X5359156Y8846087*
X5353417Y8843207*
X5348112Y8841410*
X5343565Y8840782*
G37*
G36*
X5413766Y8748581D02*
G01X5419439Y8749209D01*
X5425047Y8750941*
X5430331Y8753626*
X5435116Y8757069*
X5439165Y8761183*
X5442305Y8765752*
X5444341Y8770646*
X5444882Y8773158*
X5445077Y8775669*
X5444579Y8779675*
X5443215Y8783811*
X5441114Y8787925*
X5438494Y8791758*
X5435463Y8795136*
X5432193Y8797821*
X5428837Y8799597*
X5425610Y8800203*
X5423596Y8799965*
X5421539Y8799293*
X5417339Y8797258*
X5413441Y8795223*
X5411752Y8794551*
X5410366Y8794270*
X5408764Y8794486*
X5407248Y8795028*
X5404541Y8796933*
X5402636Y8799661*
X5402094Y8801199*
X5401921Y8802736*
X5402181Y8804685*
X5402939Y8806612*
X5404108Y8808474*
X5405711Y8810142*
X5407573Y8811614*
X5409738Y8812719*
X5412077Y8813476*
X5414610Y8813715*
X5417923Y8813455*
X5421258Y8812610*
X5424528Y8811311*
X5427776Y8809536*
X5430894Y8807435*
X5433904Y8804967*
X5439447Y8799250*
X5444124Y8792906*
X5447783Y8786280*
X5450144Y8779827*
X5450750Y8776817*
X5450988Y8773959*
X5450728Y8770191*
X5450057Y8766445*
X5448974Y8762786*
X5447545Y8759213*
X5445748Y8755791*
X5443713Y8752500*
X5438906Y8746480*
X5433341Y8741457*
X5427407Y8737581*
X5424354Y8736173*
X5421323Y8735112*
X5418313Y8734463*
X5415455Y8734203*
X5411167Y8734636*
X5406230Y8735827*
X5400817Y8737711*
X5395230Y8740136*
X5389665Y8743081*
X5384382Y8746372*
X5379618Y8749945*
X5375699Y8753669*
X5357272Y8772010*
X5339516Y8788575*
X5325246Y8801026*
X5320309Y8804967*
X5317343Y8806937*
Y8757047*
X5317862Y8754146*
X5319356Y8751071*
X5321673Y8748039*
X5324726Y8745116*
X5328299Y8742539*
X5332305Y8740309*
X5336571Y8738642*
X5341031Y8737602*
Y8732514*
X5304654Y8737602*
Y8816248*
X5315632*
X5319183Y8814018*
X5323969Y8810553*
X5336138Y8800831*
X5349866Y8788921*
X5363010Y8776514*
X5368835Y8771209*
X5375439Y8766099*
X5382455Y8761378*
X5389644Y8757177*
X5396638Y8753669*
X5403199Y8750941*
X5409002Y8749209*
X5413766Y8748581*
G37*
G36*
Y9614723D02*
G01X5419439Y9615350D01*
X5425047Y9617083*
X5430331Y9619768*
X5435116Y9623211*
X5439165Y9627325*
X5442305Y9631894*
X5444341Y9636787*
X5444882Y9639299*
X5445077Y9641811*
X5444579Y9645817*
X5443215Y9649953*
X5441114Y9654067*
X5438494Y9657900*
X5435463Y9661278*
X5432193Y9663963*
X5428837Y9665738*
X5425610Y9666345*
X5423596Y9666106*
X5421539Y9665435*
X5417339Y9663400*
X5413441Y9661364*
X5411752Y9660693*
X5410366Y9660411*
X5408764Y9660628*
X5407248Y9661169*
X5404541Y9663075*
X5402636Y9665803*
X5402094Y9667341*
X5401921Y9668878*
X5402181Y9670827*
X5402939Y9672754*
X5404108Y9674616*
X5405711Y9676284*
X5407573Y9677756*
X5409738Y9678860*
X5412077Y9679618*
X5414610Y9679856*
X5417923Y9679597*
X5421258Y9678752*
X5424528Y9677453*
X5427776Y9675677*
X5430894Y9673577*
X5433904Y9671108*
X5439447Y9665392*
X5444124Y9659047*
X5447783Y9652421*
X5450144Y9645969*
X5450750Y9642959*
X5450988Y9640100*
X5450728Y9636333*
X5450057Y9632587*
X5448974Y9628927*
X5447545Y9625354*
X5445748Y9621933*
X5443713Y9618642*
X5438906Y9612622*
X5433341Y9607599*
X5427407Y9603723*
X5424354Y9602315*
X5421323Y9601254*
X5418313Y9600604*
X5415455Y9600345*
X5411167Y9600778*
X5406230Y9601969*
X5400817Y9603852*
X5395230Y9606278*
X5389665Y9609223*
X5384382Y9612514*
X5379618Y9616087*
X5375699Y9619811*
X5357272Y9638152*
X5339516Y9654717*
X5325246Y9667167*
X5320309Y9671108*
X5317343Y9673079*
Y9623189*
X5317862Y9620287*
X5319356Y9617213*
X5321673Y9614181*
X5324726Y9611258*
X5328299Y9608681*
X5332305Y9606451*
X5336571Y9604784*
X5341031Y9603744*
Y9598656*
X5304654Y9603744*
Y9682390*
X5315632*
X5319183Y9680160*
X5323969Y9676695*
X5336138Y9666973*
X5349866Y9655063*
X5363010Y9642656*
X5368835Y9637350*
X5375439Y9632240*
X5382455Y9627520*
X5389644Y9623319*
X5396638Y9619811*
X5403199Y9617083*
X5409002Y9615350*
X5413766Y9614723*
G37*
G36*
X5680301Y8965116D02*
G01X5685974Y8965744D01*
X5691583Y8967476*
X5696866Y8970161*
X5701652Y8973604*
X5705701Y8977719*
X5708841Y8982287*
X5710876Y8987181*
X5711417Y8989693*
X5711612Y8992205*
X5711114Y8996211*
X5709750Y9000347*
X5707650Y9004461*
X5705030Y9008293*
X5701998Y9011671*
X5698728Y9014356*
X5695372Y9016132*
X5692146Y9016738*
X5690132Y9016500*
X5688075Y9015829*
X5683874Y9013793*
X5679976Y9011758*
X5678287Y9011087*
X5676902Y9010805*
X5675299Y9011022*
X5673783Y9011563*
X5671077Y9013469*
X5669171Y9016197*
X5668630Y9017734*
X5668457Y9019272*
X5668717Y9021221*
X5669474Y9023148*
X5670644Y9025010*
X5672246Y9026677*
X5674108Y9028150*
X5676274Y9029254*
X5678612Y9030012*
X5681146Y9030250*
X5684459Y9029990*
X5687793Y9029146*
X5691063Y9027847*
X5694311Y9026071*
X5697429Y9023971*
X5700439Y9021502*
X5705982Y9015786*
X5710659Y9009441*
X5714319Y9002815*
X5716679Y8996362*
X5717285Y8993352*
X5717524Y8990494*
X5717264Y8986726*
X5716593Y8982980*
X5715510Y8979321*
X5714081Y8975748*
X5712283Y8972327*
X5710248Y8969036*
X5705441Y8963016*
X5699876Y8957992*
X5693943Y8954116*
X5690890Y8952709*
X5687858Y8951648*
X5684848Y8950998*
X5681990Y8950738*
X5677703Y8951171*
X5672766Y8952362*
X5667352Y8954246*
X5661766Y8956671*
X5656201Y8959616*
X5650917Y8962908*
X5646154Y8966480*
X5642234Y8970205*
X5623807Y8988545*
X5606051Y9005110*
X5591781Y9017561*
X5586844Y9021502*
X5583878Y9023473*
Y8973583*
X5584398Y8970681*
X5585892Y8967606*
X5588209Y8964575*
X5591262Y8961652*
X5594835Y8959075*
X5598841Y8956845*
X5603106Y8955177*
X5607567Y8954138*
Y8949049*
X5571189Y8954138*
Y9032784*
X5582167*
X5585719Y9030553*
X5590504Y9027089*
X5602673Y9017366*
X5616402Y9005457*
X5629545Y8993049*
X5635370Y8987744*
X5641974Y8982634*
X5648990Y8977913*
X5656179Y8973713*
X5663173Y8970205*
X5669734Y8967476*
X5675537Y8965744*
X5680301Y8965116*
G37*
G36*
Y9398187D02*
G01X5685974Y9398815D01*
X5691583Y9400547*
X5696866Y9403232*
X5701652Y9406675*
X5705701Y9410789*
X5708841Y9415358*
X5710876Y9420252*
X5711417Y9422764*
X5711612Y9425276*
X5711114Y9429282*
X5709750Y9433417*
X5707650Y9437532*
X5705030Y9441364*
X5701998Y9444742*
X5698728Y9447427*
X5695372Y9449203*
X5692146Y9449809*
X5690132Y9449571*
X5688075Y9448900*
X5683874Y9446864*
X5679976Y9444829*
X5678287Y9444158*
X5676902Y9443876*
X5675299Y9444093*
X5673783Y9444634*
X5671077Y9446539*
X5669171Y9449268*
X5668630Y9450805*
X5668457Y9452343*
X5668717Y9454291*
X5669474Y9456219*
X5670644Y9458081*
X5672246Y9459748*
X5674108Y9461221*
X5676274Y9462325*
X5678612Y9463083*
X5681146Y9463321*
X5684459Y9463061*
X5687793Y9462217*
X5691063Y9460917*
X5694311Y9459142*
X5697429Y9457041*
X5700439Y9454573*
X5705982Y9448856*
X5710659Y9442512*
X5714319Y9435886*
X5716679Y9429433*
X5717285Y9426423*
X5717524Y9423565*
X5717264Y9419797*
X5716593Y9416051*
X5715510Y9412392*
X5714081Y9408819*
X5712283Y9405398*
X5710248Y9402106*
X5705441Y9396087*
X5699876Y9391063*
X5693943Y9387187*
X5690890Y9385780*
X5687858Y9384719*
X5684848Y9384069*
X5681990Y9383809*
X5677703Y9384242*
X5672766Y9385433*
X5667352Y9387317*
X5661766Y9389742*
X5656201Y9392687*
X5650917Y9395978*
X5646154Y9399551*
X5642234Y9403276*
X5623807Y9421616*
X5606051Y9438181*
X5591781Y9450632*
X5586844Y9454573*
X5583878Y9456543*
Y9406654*
X5584398Y9403752*
X5585892Y9400677*
X5588209Y9397646*
X5591262Y9394723*
X5594835Y9392146*
X5598841Y9389915*
X5603106Y9388248*
X5607567Y9387209*
Y9382120*
X5571189Y9387209*
Y9465854*
X5582167*
X5585719Y9463624*
X5590504Y9460160*
X5602673Y9450437*
X5616402Y9438528*
X5629545Y9426120*
X5635370Y9420815*
X5641974Y9415705*
X5648990Y9410984*
X5656179Y9406784*
X5663173Y9403276*
X5669734Y9400547*
X5675537Y9398815*
X5680301Y9398187*
G37*
G36*
X5946837Y8856849D02*
G01X5952510Y8857476D01*
X5958118Y8859209*
X5963402Y8861894*
X5968187Y8865337*
X5972236Y8869451*
X5975376Y8874020*
X5977411Y8878913*
X5977953Y8881425*
X5978148Y8883937*
X5977650Y8887943*
X5976285Y8892079*
X5974185Y8896193*
X5971565Y8900026*
X5968533Y8903404*
X5965264Y8906089*
X5961907Y8907864*
X5958681Y8908471*
X5956667Y8908232*
X5954610Y8907561*
X5950409Y8905526*
X5946512Y8903490*
X5944823Y8902819*
X5943437Y8902537*
X5941835Y8902754*
X5940319Y8903295*
X5937612Y8905201*
X5935707Y8907929*
X5935165Y8909467*
X5934992Y8911004*
X5935252Y8912953*
X5936010Y8914880*
X5937179Y8916742*
X5938781Y8918410*
X5940644Y8919882*
X5942809Y8920986*
X5945148Y8921744*
X5947681Y8921982*
X5950994Y8921723*
X5954329Y8920878*
X5957598Y8919579*
X5960846Y8917803*
X5963965Y8915703*
X5966974Y8913234*
X5972518Y8907518*
X5977195Y8901173*
X5980854Y8894547*
X5983215Y8888095*
X5983821Y8885085*
X5984059Y8882226*
X5983799Y8878459*
X5983128Y8874713*
X5982045Y8871053*
X5980616Y8867480*
X5978819Y8864059*
X5976783Y8860768*
X5971976Y8854748*
X5966411Y8849724*
X5960478Y8845849*
X5957425Y8844441*
X5954394Y8843380*
X5951384Y8842730*
X5948526Y8842471*
X5944238Y8842904*
X5939301Y8844095*
X5933888Y8845978*
X5928301Y8848404*
X5922736Y8851349*
X5917453Y8854640*
X5912689Y8858213*
X5908770Y8861937*
X5890343Y8880278*
X5872587Y8896843*
X5858317Y8909293*
X5853380Y8913234*
X5850413Y8915205*
Y8865315*
X5850933Y8862413*
X5852427Y8859339*
X5854744Y8856307*
X5857797Y8853384*
X5861370Y8850807*
X5865376Y8848577*
X5869642Y8846910*
X5874102Y8845870*
Y8840782*
X5837724Y8845870*
Y8924516*
X5848703*
X5852254Y8922286*
X5857039Y8918821*
X5869209Y8909099*
X5882937Y8897189*
X5896081Y8884782*
X5901906Y8879476*
X5908510Y8874366*
X5915526Y8869646*
X5922715Y8865445*
X5929709Y8861937*
X5936270Y8859209*
X5942073Y8857476*
X5946837Y8856849*
G37*
G36*
X5640545Y10075726D02*
G01X5644551Y10084020D01*
X5649012Y10091599*
X5653841Y10098354*
X5659037Y10104158*
X5664451Y10108943*
X5670146Y10112494*
X5673047Y10113793*
X5675992Y10114703*
X5678959Y10115287*
X5681990Y10115461*
X5684459Y10115244*
X5687144Y10114530*
X5689937Y10113425*
X5692882Y10111866*
X5698772Y10107752*
X5704510Y10102469*
X5709598Y10096297*
X5711807Y10092963*
X5713734Y10089455*
X5715293Y10085882*
X5716506Y10082244*
X5717242Y10078585*
X5717524Y10074882*
X5717242Y10071461*
X5716571Y10067585*
X5714557Y10059465*
X5712522Y10052297*
X5711612Y10047815*
X5712045Y10045671*
X5713280Y10043268*
X5715142Y10041059*
X5717524Y10039349*
X5682835Y10035949*
X5681146Y10040193*
X5687533Y10043463*
X5693380Y10047339*
X5698555Y10051734*
X5703016Y10056498*
X5706632Y10061522*
X5709339Y10066610*
X5711006Y10071677*
X5711612Y10076549*
X5711396Y10079537*
X5710811Y10082396*
X5709858Y10085124*
X5708646Y10087723*
X5705419Y10092486*
X5701435Y10096557*
X5696931Y10099913*
X5692297Y10102382*
X5687772Y10103941*
X5683679Y10104461*
X5680085Y10103963*
X5676382Y10102382*
X5672549Y10099740*
X5668652Y10095929*
X5664624Y10090992*
X5660575Y10084864*
X5656482Y10077545*
X5652390Y10068949*
X5648622Y10061522*
X5643945Y10054484*
X5638510Y10048032*
X5632598Y10042337*
X5626362Y10037616*
X5620126Y10034000*
X5614041Y10031705*
X5611118Y10031120*
X5608390Y10030882*
X5605423Y10031142*
X5602305Y10031856*
X5599100Y10033026*
X5595852Y10034541*
X5589356Y10038699*
X5583228Y10044026*
X5577750Y10050349*
X5575411Y10053791*
X5573419Y10057321*
X5571752Y10061024*
X5570539Y10064748*
X5569760Y10068559*
X5569500Y10072327*
X5569738Y10075770*
X5570409Y10079559*
X5572445Y10087463*
X5574459Y10094608*
X5575411Y10099394*
X5574827Y10101732*
X5573398Y10104591*
X5569500Y10110394*
X5610923Y10117150*
X5612634Y10112083*
X5608693Y10110827*
X5604925Y10109224*
X5597866Y10105175*
X5591522Y10100260*
X5586065Y10094673*
X5581561Y10088784*
X5578226Y10082742*
X5576126Y10076917*
X5575563Y10074146*
X5575411Y10071482*
X5575585Y10068819*
X5576148Y10066134*
X5577035Y10063514*
X5578291Y10060937*
X5581583Y10056087*
X5585870Y10051713*
X5590872Y10048053*
X5596437Y10045217*
X5602327Y10043398*
X5605337Y10042921*
X5608390Y10042726*
X5611854Y10043463*
X5615882Y10045520*
X5620234Y10048746*
X5624760Y10052904*
X5629199Y10057884*
X5633465Y10063471*
X5637297Y10069490*
X5640545Y10075726*
G37*
G36*
X5396854Y8659780D02*
G01X5396530Y8656034D01*
X5395642Y8652352*
X5394213Y8648780*
X5392329Y8645315*
X5389990Y8642024*
X5387348Y8638862*
X5384360Y8635917*
X5381177Y8633167*
X5374161Y8628447*
X5366843Y8624831*
X5359567Y8622536*
X5356102Y8621951*
X5352854Y8621713*
X5348091Y8622016*
X5343392Y8622817*
X5338780Y8624116*
X5334341Y8625805*
X5329988Y8627927*
X5325874Y8630352*
X5321976Y8633081*
X5318382Y8636004*
X5315026Y8639165*
X5312037Y8642435*
X5309374Y8645835*
X5307165Y8649213*
X5305346Y8652634*
X5304047Y8655969*
X5303224Y8659238*
X5302965Y8662313*
X5303354Y8666622*
X5304502Y8670909*
X5306343Y8675154*
X5308876Y8679246*
X5311972Y8683274*
X5315632Y8687106*
X5319789Y8690766*
X5324402Y8694144*
X5329339Y8697327*
X5334665Y8700163*
X5340252Y8702697*
X5346120Y8704797*
X5352096Y8706530*
X5358224Y8707786*
X5364396Y8708565*
X5370632Y8708825*
X5377907Y8708522*
X5385226Y8707569*
X5392437Y8706053*
X5399561Y8703974*
X5406447Y8701463*
X5413116Y8698496*
X5419417Y8695140*
X5425372Y8691415*
X5430829Y8687453*
X5435787Y8683230*
X5440140Y8678835*
X5443886Y8674266*
X5446874Y8669632*
X5449126Y8664911*
X5450490Y8660234*
X5450988Y8655557*
X5450382Y8651053*
X5448758Y8646484*
X5446398Y8642089*
X5443561Y8638018*
X5440465Y8634553*
X5437390Y8631782*
X5434596Y8630006*
X5432366Y8629335*
X5430439Y8629551*
X5428620Y8630093*
X5425394Y8632106*
X5424073Y8633514*
X5423077Y8635073*
X5422427Y8636827*
X5422232Y8638646*
X5422406Y8640248*
X5422947Y8641764*
X5424852Y8644471*
X5427559Y8646376*
X5429075Y8646917*
X5430677Y8647091*
X5437455Y8646246*
X5438732Y8646506*
X5440053Y8647156*
X5441331Y8648238*
X5442522Y8649646*
X5444341Y8653413*
X5444860Y8655665*
X5445077Y8658091*
X5444752Y8660884*
X5443843Y8663742*
X5442327Y8666687*
X5440270Y8669610*
X5437606Y8672555*
X5434423Y8675413*
X5430677Y8678207*
X5426455Y8680827*
X5421648Y8683339*
X5416364Y8685612*
X5410583Y8687648*
X5404346Y8689380*
X5397612Y8690831*
X5390467Y8691870*
X5382844Y8692541*
X5374854Y8692758*
X5378925Y8690333*
X5382931Y8686911*
X5386612Y8682819*
X5389969Y8678185*
X5392762Y8673356*
X5394949Y8668528*
X5396356Y8663937*
X5396854Y8659780*
G37*
G36*
X5302965Y8989650D02*
G01X5303398Y8993244D01*
X5304697Y8996925*
X5306754Y9000671*
X5309591Y9004396*
X5313033Y9008163*
X5317126Y9011801*
X5321738Y9015309*
X5326848Y9018644*
X5332327Y9021805*
X5338195Y9024663*
X5344344Y9027219*
X5350754Y9029384*
X5357293Y9031203*
X5363963Y9032524*
X5370654Y9033368*
X5377388Y9033628*
X5383624Y9033368*
X5389990Y9032567*
X5396378Y9031268*
X5402787Y9029514*
X5409024Y9027392*
X5415130Y9024880*
X5420976Y9022065*
X5426541Y9018947*
X5431673Y9015656*
X5436372Y9012148*
X5440530Y9008510*
X5444102Y9004764*
X5446982Y9000996*
X5449148Y8997163*
X5450490Y8993374*
X5450988Y8989650*
X5450512Y8986142*
X5449213Y8982482*
X5447134Y8978801*
X5444341Y8975077*
X5440854Y8971439*
X5436805Y8967866*
X5432215Y8964423*
X5427169Y8961132*
X5421669Y8958100*
X5415866Y8955307*
X5409760Y8952817*
X5403480Y8950652*
X5397006Y8948941*
X5390488Y8947620*
X5383906Y8946819*
X5377388Y8946516*
X5370805Y8946819*
X5364201Y8947620*
X5357596Y8948941*
X5351100Y8950652*
X5344713Y8952817*
X5338563Y8955307*
X5332673Y8958100*
X5327152Y8961132*
X5321976Y8964423*
X5317321Y8967866*
X5313185Y8971439*
X5309699Y8975077*
X5306819Y8978801*
X5304719Y8982482*
X5303398Y8986142*
X5302965Y8989650*
G37*
G36*
Y9206185D02*
G01X5303398Y9209780D01*
X5304697Y9213461*
X5306754Y9217207*
X5309591Y9220931*
X5313033Y9224699*
X5317126Y9228337*
X5321738Y9231845*
X5326848Y9235179*
X5332327Y9238341*
X5338195Y9241199*
X5344344Y9243754*
X5350754Y9245919*
X5357293Y9247738*
X5363963Y9249059*
X5370654Y9249904*
X5377388Y9250163*
X5383624Y9249904*
X5389990Y9249102*
X5396378Y9247803*
X5402787Y9246049*
X5409024Y9243927*
X5415130Y9241415*
X5420976Y9238600*
X5426541Y9235482*
X5431673Y9232191*
X5436372Y9228683*
X5440530Y9225045*
X5444102Y9221299*
X5446982Y9217532*
X5449148Y9213699*
X5450490Y9209910*
X5450988Y9206185*
X5450512Y9202677*
X5449213Y9199018*
X5447134Y9195337*
X5444341Y9191612*
X5440854Y9187974*
X5436805Y9184402*
X5432215Y9180959*
X5427169Y9177667*
X5421669Y9174636*
X5415866Y9171843*
X5409760Y9169352*
X5403480Y9167187*
X5397006Y9165476*
X5390488Y9164156*
X5383906Y9163354*
X5377388Y9163051*
X5370805Y9163354*
X5364201Y9164156*
X5357596Y9165476*
X5351100Y9167187*
X5344713Y9169352*
X5338563Y9171843*
X5332673Y9174636*
X5327152Y9177667*
X5321976Y9180959*
X5317321Y9184402*
X5313185Y9187974*
X5309699Y9191612*
X5306819Y9195337*
X5304719Y9199018*
X5303398Y9202677*
X5302965Y9206185*
G37*
G36*
Y9530988D02*
G01X5303398Y9534583D01*
X5304697Y9538264*
X5306754Y9542010*
X5309591Y9545734*
X5313033Y9549502*
X5317126Y9553140*
X5321738Y9556648*
X5326848Y9559982*
X5332327Y9563144*
X5338195Y9566002*
X5344344Y9568557*
X5350754Y9570723*
X5357293Y9572541*
X5363963Y9573862*
X5370654Y9574707*
X5377388Y9574967*
X5383624Y9574707*
X5389990Y9573906*
X5396378Y9572606*
X5402787Y9570852*
X5409024Y9568730*
X5415130Y9566219*
X5420976Y9563404*
X5426541Y9560286*
X5431673Y9556994*
X5436372Y9553486*
X5440530Y9549849*
X5444102Y9546102*
X5446982Y9542335*
X5449148Y9538502*
X5450490Y9534713*
X5450988Y9530988*
X5450512Y9527480*
X5449213Y9523821*
X5447134Y9520140*
X5444341Y9516415*
X5440854Y9512778*
X5436805Y9509205*
X5432215Y9505762*
X5427169Y9502471*
X5421669Y9499439*
X5415866Y9496646*
X5409760Y9494156*
X5403480Y9491990*
X5397006Y9490280*
X5390488Y9488959*
X5383906Y9488158*
X5377388Y9487854*
X5370805Y9488158*
X5364201Y9488959*
X5357596Y9490280*
X5351100Y9491990*
X5344713Y9494156*
X5338563Y9496646*
X5332673Y9499439*
X5327152Y9502471*
X5321976Y9505762*
X5317321Y9509205*
X5313185Y9512778*
X5309699Y9516415*
X5306819Y9520140*
X5304719Y9523821*
X5303398Y9527480*
X5302965Y9530988*
G37*
G36*
X5569500Y7798705D02*
G01X5569933Y7802299D01*
X5571232Y7805980*
X5573289Y7809726*
X5576126Y7813451*
X5579569Y7817219*
X5583661Y7820856*
X5588274Y7824364*
X5593384Y7827699*
X5598862Y7830860*
X5604730Y7833719*
X5610880Y7836274*
X5617289Y7838439*
X5623829Y7840258*
X5630498Y7841579*
X5637189Y7842423*
X5643923Y7842683*
X5650159Y7842423*
X5656526Y7841622*
X5662913Y7840323*
X5669323Y7838569*
X5675559Y7836447*
X5681665Y7833935*
X5687512Y7831120*
X5693077Y7828002*
X5698209Y7824711*
X5702907Y7821203*
X5707065Y7817565*
X5710638Y7813819*
X5713518Y7810051*
X5715683Y7806219*
X5717026Y7802429*
X5717524Y7798705*
X5717047Y7795197*
X5715748Y7791537*
X5713669Y7787856*
X5710876Y7784132*
X5707390Y7780494*
X5703341Y7776921*
X5698750Y7773478*
X5693705Y7770187*
X5688205Y7767156*
X5682402Y7764362*
X5676295Y7761872*
X5670016Y7759707*
X5663541Y7757996*
X5657024Y7756675*
X5650441Y7755874*
X5643923Y7755571*
X5637341Y7755874*
X5630736Y7756675*
X5624132Y7757996*
X5617636Y7759707*
X5611248Y7761872*
X5605098Y7764362*
X5599209Y7767156*
X5593687Y7770187*
X5588512Y7773478*
X5583856Y7776921*
X5579720Y7780494*
X5576234Y7784132*
X5573354Y7787856*
X5571254Y7791537*
X5569933Y7795197*
X5569500Y7798705*
G37*
G36*
Y8123508D02*
G01X5569933Y8127102D01*
X5571232Y8130783*
X5573289Y8134530*
X5576126Y8138254*
X5579569Y8142022*
X5583661Y8145660*
X5588274Y8149167*
X5593384Y8152502*
X5598862Y8155663*
X5604730Y8158522*
X5610880Y8161077*
X5617289Y8163242*
X5623829Y8165061*
X5630498Y8166382*
X5637189Y8167226*
X5643923Y8167486*
X5650159Y8167226*
X5656526Y8166425*
X5662913Y8165126*
X5669323Y8163372*
X5675559Y8161250*
X5681665Y8158738*
X5687512Y8155923*
X5693077Y8152805*
X5698209Y8149514*
X5702907Y8146006*
X5707065Y8142368*
X5710638Y8138622*
X5713518Y8134854*
X5715683Y8131022*
X5717026Y8127232*
X5717524Y8123508*
X5717047Y8120000*
X5715748Y8116341*
X5713669Y8112660*
X5710876Y8108935*
X5707390Y8105297*
X5703341Y8101724*
X5698750Y8098282*
X5693705Y8094990*
X5688205Y8091959*
X5682402Y8089165*
X5676295Y8086675*
X5670016Y8084510*
X5663541Y8082799*
X5657024Y8081478*
X5650441Y8080677*
X5643923Y8080374*
X5637341Y8080677*
X5630736Y8081478*
X5624132Y8082799*
X5617636Y8084510*
X5611248Y8086675*
X5605098Y8089165*
X5599209Y8091959*
X5593687Y8094990*
X5588512Y8098282*
X5583856Y8101724*
X5579720Y8105297*
X5576234Y8108935*
X5573354Y8112659*
X5571254Y8116341*
X5569933Y8120000*
X5569500Y8123508*
G37*
G36*
Y8881382D02*
G01X5569933Y8884976D01*
X5571232Y8888657*
X5573289Y8892404*
X5576126Y8896128*
X5579569Y8899896*
X5583661Y8903534*
X5588274Y8907041*
X5593384Y8910376*
X5598862Y8913537*
X5604730Y8916396*
X5610880Y8918951*
X5617289Y8921116*
X5623829Y8922935*
X5630498Y8924256*
X5637189Y8925100*
X5643923Y8925360*
X5650159Y8925100*
X5656526Y8924299*
X5662913Y8923000*
X5669323Y8921246*
X5675559Y8919124*
X5681665Y8916612*
X5687512Y8913797*
X5693077Y8910679*
X5698209Y8907388*
X5702907Y8903880*
X5707065Y8900242*
X5710638Y8896496*
X5713518Y8892728*
X5715683Y8888896*
X5717026Y8885106*
X5717524Y8881382*
X5717047Y8877874*
X5715748Y8874215*
X5713669Y8870534*
X5710876Y8866809*
X5707390Y8863171*
X5703341Y8859599*
X5698750Y8856156*
X5693705Y8852864*
X5688205Y8849833*
X5682402Y8847039*
X5676295Y8844549*
X5670016Y8842384*
X5663541Y8840673*
X5657024Y8839352*
X5650441Y8838551*
X5643923Y8838248*
X5637341Y8838551*
X5630736Y8839352*
X5624132Y8840673*
X5617636Y8842384*
X5611248Y8844549*
X5605098Y8847039*
X5599209Y8849833*
X5593687Y8852864*
X5588512Y8856156*
X5583856Y8859599*
X5579720Y8863171*
X5576234Y8866809*
X5573354Y8870533*
X5571254Y8874215*
X5569933Y8877874*
X5569500Y8881382*
G37*
G36*
Y9314453D02*
G01X5569933Y9318047D01*
X5571232Y9321728*
X5573289Y9325474*
X5576126Y9329199*
X5579569Y9332967*
X5583661Y9336604*
X5588274Y9340112*
X5593384Y9343447*
X5598862Y9346608*
X5604730Y9349467*
X5610880Y9352022*
X5617289Y9354187*
X5623829Y9356006*
X5630498Y9357327*
X5637189Y9358171*
X5643923Y9358431*
X5650159Y9358171*
X5656526Y9357370*
X5662913Y9356071*
X5669323Y9354317*
X5675559Y9352195*
X5681665Y9349683*
X5687512Y9346868*
X5693077Y9343750*
X5698209Y9340459*
X5702907Y9336951*
X5707065Y9333313*
X5710638Y9329567*
X5713518Y9325799*
X5715683Y9321967*
X5717026Y9318177*
X5717524Y9314453*
X5717047Y9310945*
X5715748Y9307286*
X5713669Y9303604*
X5710876Y9299880*
X5707390Y9296242*
X5703341Y9292669*
X5698750Y9289226*
X5693705Y9285935*
X5688205Y9282904*
X5682402Y9280110*
X5676295Y9277620*
X5670016Y9275455*
X5663541Y9273744*
X5657024Y9272423*
X5650441Y9271622*
X5643923Y9271319*
X5637341Y9271622*
X5630736Y9272423*
X5624132Y9273744*
X5617636Y9275455*
X5611248Y9277620*
X5605098Y9280110*
X5599209Y9282904*
X5593687Y9285935*
X5588512Y9289226*
X5583856Y9292669*
X5579720Y9296242*
X5576234Y9299880*
X5573354Y9303604*
X5571254Y9307285*
X5569933Y9310945*
X5569500Y9314453*
G37*
G36*
X5836035Y8664846D02*
G01X5836469Y8668441D01*
X5837768Y8672122*
X5839825Y8675868*
X5842661Y8679593*
X5846104Y8683360*
X5850197Y8686998*
X5854809Y8690506*
X5859919Y8693841*
X5865398Y8697002*
X5871266Y8699860*
X5877415Y8702415*
X5883825Y8704581*
X5890364Y8706400*
X5897033Y8707721*
X5903724Y8708565*
X5910459Y8708825*
X5916695Y8708565*
X5923061Y8707764*
X5929449Y8706465*
X5935858Y8704711*
X5942094Y8702589*
X5948201Y8700077*
X5954047Y8697262*
X5959612Y8694144*
X5964744Y8690852*
X5969443Y8687345*
X5973600Y8683707*
X5977173Y8679961*
X5980053Y8676193*
X5982219Y8672360*
X5983561Y8668571*
X5984059Y8664847*
X5983583Y8661339*
X5982283Y8657679*
X5980205Y8653998*
X5977411Y8650274*
X5973925Y8646636*
X5969876Y8643063*
X5965285Y8639620*
X5960240Y8636329*
X5954740Y8633297*
X5948937Y8630504*
X5942831Y8628014*
X5936551Y8625849*
X5930077Y8624138*
X5923559Y8622817*
X5916976Y8622016*
X5910459Y8621713*
X5903876Y8622016*
X5897272Y8622817*
X5890667Y8624138*
X5884171Y8625849*
X5877783Y8628014*
X5871634Y8630504*
X5865744Y8633297*
X5860222Y8636329*
X5855047Y8639620*
X5850392Y8643063*
X5846256Y8646636*
X5842770Y8650274*
X5839890Y8653998*
X5837789Y8657679*
X5836469Y8661339*
X5836035Y8664846*
G37*
G36*
Y8773114D02*
G01X5836469Y8776709D01*
X5837768Y8780390*
X5839825Y8784136*
X5842661Y8787860*
X5846104Y8791628*
X5850197Y8795266*
X5854809Y8798774*
X5859919Y8802108*
X5865398Y8805270*
X5871266Y8808128*
X5877415Y8810683*
X5883825Y8812849*
X5890364Y8814667*
X5897033Y8815988*
X5903724Y8816833*
X5910459Y8817093*
X5916695Y8816833*
X5923061Y8816032*
X5929449Y8814732*
X5935858Y8812978*
X5942094Y8810856*
X5948201Y8808345*
X5954047Y8805530*
X5959612Y8802411*
X5964744Y8799120*
X5969443Y8795612*
X5973600Y8791974*
X5977173Y8788228*
X5980053Y8784461*
X5982219Y8780628*
X5983561Y8776839*
X5984059Y8773114*
X5983583Y8769606*
X5982283Y8765947*
X5980205Y8762266*
X5977411Y8758541*
X5973925Y8754904*
X5969876Y8751331*
X5965285Y8747888*
X5960240Y8744597*
X5954740Y8741565*
X5948937Y8738772*
X5942831Y8736282*
X5936551Y8734116*
X5930077Y8732406*
X5923559Y8731085*
X5916976Y8730284*
X5910459Y8729980*
X5903876Y8730284*
X5897272Y8731085*
X5890667Y8732406*
X5884171Y8734116*
X5877783Y8736282*
X5871634Y8738772*
X5865744Y8741565*
X5860222Y8744597*
X5855047Y8747888*
X5850392Y8751331*
X5846256Y8754904*
X5842770Y8758541*
X5839890Y8762266*
X5837789Y8765947*
X5836469Y8769606*
X5836035Y8773114*
G37*
G36*
X5576256Y9849036D02*
G01X5576884Y9844726D01*
X5578703Y9840114*
X5581539Y9835415*
X5585242Y9830760*
X5589573Y9826429*
X5594445Y9822532*
X5599642Y9819305*
X5605033Y9816880*
X5604167Y9811791*
X5571189Y9821102*
Y9902303*
X5710768Y9827858*
Y9857480*
X5710161Y9861919*
X5708559Y9866726*
X5706047Y9871793*
X5702821Y9876839*
X5698967Y9881732*
X5694679Y9886171*
X5690089Y9890026*
X5685390Y9893014*
X5687079Y9898081*
X5715835Y9887947*
Y9810947*
X5576256Y9885413*
Y9849036*
G37*
G36*
X5587256Y9507321D02*
G01X5585047Y9507039D01*
X5583012Y9506195*
X5581150Y9504896*
X5579526Y9503207*
X5578140Y9501280*
X5577122Y9499136*
X5576472Y9496906*
X5576256Y9494632*
Y9487010*
X5571189*
Y9542833*
X5576256*
Y9533543*
X5576472Y9531075*
X5577122Y9528736*
X5578140Y9526593*
X5579526Y9524687*
X5581150Y9523128*
X5583012Y9521915*
X5585047Y9521158*
X5587256Y9520854*
X5615167*
Y9577522*
X5619390*
X5717524Y9515766*
Y9507321*
X5620234*
Y9484476*
X5615167*
Y9507321*
X5587256*
G37*
G36*
X5372321Y10094327D02*
G01X5316476D01*
X5315199Y10094154*
X5313986Y10093634*
X5311821Y10091815*
X5310283Y10089368*
X5309720Y10086726*
Y10080793*
X5304654*
Y10121394*
X5309720*
Y10115482*
X5310283Y10112537*
X5311821Y10110112*
X5313986Y10108467*
X5316476Y10107860*
X5437455*
X5439923Y10108510*
X5442089Y10110242*
X5443626Y10112841*
X5444232Y10115980*
Y10121394*
X5449299*
Y10071049*
X5449039Y10067065*
X5448325Y10063037*
X5447199Y10059075*
X5445705Y10055134*
X5443843Y10051366*
X5441720Y10047685*
X5436697Y10040886*
X5430872Y10035126*
X5427776Y10032701*
X5424636Y10030622*
X5421431Y10028976*
X5418248Y10027721*
X5415108Y10026941*
X5412077Y10026660*
X5408396Y10026963*
X5404758Y10027764*
X5401120Y10029085*
X5397612Y10030774*
X5394169Y10032917*
X5390900Y10035343*
X5387760Y10038093*
X5384880Y10041059*
X5379726Y10047620*
X5375785Y10054528*
X5374291Y10058057*
X5373209Y10061522*
X5372537Y10064900*
X5372321Y10068126*
Y10094327*
G37*
G36*
X5571189Y8318909D02*
G01Y8362888D01*
X5576256*
Y8355287*
X5576819Y8352343*
X5578356Y8349917*
X5580522Y8348272*
X5583012Y8347665*
X5701457*
X5705614Y8348034*
X5707065Y8348553*
X5708213Y8349268*
X5708992Y8350307*
X5709533Y8351628*
X5709923Y8355287*
X5709490Y8359640*
X5708299Y8363711*
X5706242Y8367587*
X5703341Y8371160*
X5699551Y8374559*
X5694896Y8377677*
X5689309Y8380579*
X5682856Y8383199*
X5683701Y8388266*
X5715835Y8380665*
Y8300309*
X5683701Y8293532*
X5682856Y8297776*
X5689093Y8300374*
X5694549Y8303081*
X5699183Y8305939*
X5703037Y8308992*
X5706004Y8312305*
X5708169Y8315878*
X5709469Y8319776*
X5709923Y8323998*
X5709533Y8329173*
X5708949Y8330949*
X5708104Y8332248*
X5706870Y8333179*
X5705246Y8333764*
X5700612Y8334132*
X5583012*
X5581734Y8333959*
X5580522Y8333439*
X5578356Y8331620*
X5576819Y8329173*
X5576256Y8326532*
Y8318910*
X5571189Y8318909*
G37*
G36*
X5905392Y9011650D02*
G01X5849547D01*
X5848270Y9011476*
X5847057Y9010957*
X5844892Y9009138*
X5843354Y9006691*
X5842791Y9004049*
Y8998116*
X5837724*
Y9038717*
X5842791*
Y9032805*
X5843354Y9029860*
X5844892Y9027435*
X5847057Y9025789*
X5849547Y9025183*
X5970526*
X5972994Y9025833*
X5975159Y9027565*
X5976697Y9030163*
X5977303Y9033303*
Y9038717*
X5982370*
Y8988372*
X5982110Y8984388*
X5981396Y8980360*
X5980270Y8976398*
X5978776Y8972457*
X5976913Y8968689*
X5974791Y8965008*
X5969768Y8958209*
X5963943Y8952449*
X5960846Y8950024*
X5957707Y8947945*
X5954502Y8946299*
X5951319Y8945043*
X5948179Y8944264*
X5945148Y8943982*
X5941467Y8944286*
X5937829Y8945087*
X5934191Y8946408*
X5930683Y8948097*
X5927240Y8950240*
X5923970Y8952665*
X5920831Y8955415*
X5917951Y8958382*
X5912797Y8964943*
X5908856Y8971850*
X5907362Y8975380*
X5906280Y8978845*
X5905608Y8982223*
X5905392Y8985449*
Y9011650*
G37*
G36*
X5849547Y9118207D02*
G01X5848270Y9118034D01*
X5847057Y9117514*
X5844892Y9115695*
X5843354Y9113248*
X5842791Y9110606*
Y9087762*
X5843419Y9083150*
X5845260Y9078234*
X5848118Y9073254*
X5851886Y9068425*
X5856325Y9063986*
X5861348Y9060067*
X5866740Y9056949*
X5872413Y9054784*
X5870703Y9050539*
X5837724Y9058161*
Y9145274*
X5842791*
Y9139362*
X5843354Y9136417*
X5844892Y9133992*
X5847057Y9132347*
X5849547Y9131740*
X5970526*
X5972994Y9132390*
X5975159Y9134122*
X5976697Y9136721*
X5977303Y9139860*
Y9145274*
X5982370*
Y9104673*
X5977303*
Y9110606*
X5976697Y9113248*
X5975159Y9115695*
X5972994Y9117514*
X5971760Y9118034*
X5970526Y9118207*
X5849547*
G37*
G36*
X5837724Y9401587D02*
G01Y9445565D01*
X5842791*
Y9437965*
X5843354Y9435020*
X5844892Y9432595*
X5847057Y9430949*
X5849547Y9430343*
X5967992*
X5972150Y9430711*
X5973600Y9431230*
X5974748Y9431945*
X5975528Y9432984*
X5976069Y9434305*
X5976459Y9437965*
X5976026Y9442317*
X5974835Y9446388*
X5972778Y9450264*
X5969876Y9453837*
X5966087Y9457236*
X5961431Y9460354*
X5955844Y9463256*
X5949392Y9465876*
X5950236Y9470943*
X5982370Y9463343*
Y9382986*
X5950236Y9376209*
X5949392Y9380453*
X5955628Y9383051*
X5961085Y9385758*
X5965719Y9388616*
X5969573Y9391669*
X5972539Y9394982*
X5974705Y9398555*
X5976004Y9402453*
X5976459Y9406675*
X5976069Y9411850*
X5975484Y9413626*
X5974640Y9414925*
X5973406Y9415856*
X5971781Y9416441*
X5967148Y9416809*
X5849547*
X5848270Y9416636*
X5847057Y9416116*
X5844892Y9414297*
X5843354Y9411850*
X5842791Y9409209*
Y9401587*
X5837724*
G37*
G36*
X5849547Y9659545D02*
G01X5848270Y9659372D01*
X5847057Y9658852*
X5844892Y9657034*
X5843354Y9654587*
X5842791Y9651945*
Y9629100*
X5843419Y9624488*
X5845260Y9619573*
X5848118Y9614593*
X5851886Y9609764*
X5856325Y9605325*
X5861348Y9601406*
X5866740Y9598287*
X5872413Y9596122*
X5870703Y9591878*
X5837724Y9599500*
Y9686612*
X5842791*
Y9680701*
X5843354Y9677756*
X5844892Y9675331*
X5847057Y9673685*
X5849547Y9673079*
X5970526*
X5972994Y9673728*
X5975159Y9675461*
X5976697Y9678059*
X5977303Y9681199*
Y9686612*
X5982370*
Y9646012*
X5977303*
Y9651945*
X5976697Y9654587*
X5975159Y9657034*
X5972994Y9658852*
X5971760Y9659372*
X5970526Y9659545*
X5849547*
G37*
G36*
X5710768Y9795746D02*
G01X5715835D01*
Y9712099*
X5687079Y9702701*
X5685390Y9706945*
X5690089Y9709868*
X5694679Y9713398*
X5698967Y9717382*
X5702821Y9721648*
X5706047Y9726043*
X5708559Y9730396*
X5710161Y9734532*
X5710768Y9738234*
Y9761923*
X5710161Y9764565*
X5708624Y9767012*
X5706459Y9768831*
X5705224Y9769350*
X5703990Y9769524*
X5651545*
Y9745012*
X5651913Y9741915*
X5652974Y9738949*
X5654620Y9736242*
X5656807Y9733795*
X5659341Y9731803*
X5662220Y9730266*
X5665274Y9729291*
X5668457Y9728923*
X5673545*
Y9723856*
X5623634*
Y9728923*
X5627012*
X5630498Y9729291*
X5633963Y9730266*
X5637211Y9731803*
X5640220Y9733795*
X5642732Y9736242*
X5644724Y9738949*
X5646002Y9741915*
X5646478Y9745012*
Y9769524*
X5583012*
X5581734Y9769350*
X5580522Y9768831*
X5578356Y9767012*
X5576819Y9764565*
X5576256Y9761923*
Y9739923*
X5576884Y9734986*
X5578724Y9729768*
X5581583Y9724484*
X5585350Y9719331*
X5589789Y9714567*
X5594813Y9710323*
X5600205Y9706902*
X5605878Y9704411*
X5604167Y9700167*
X5571189Y9709478*
Y9795746*
X5576256*
Y9790679*
X5576819Y9787734*
X5578356Y9785309*
X5580522Y9783663*
X5583012Y9783057*
X5703990*
X5706459Y9783707*
X5708624Y9785461*
X5710161Y9788059*
X5710768Y9791221*
Y9795746*
G37*
G36*
X5977303D02*
G01X5982370D01*
Y9712099*
X5953614Y9702701*
X5951925Y9706945*
X5956624Y9709868*
X5961215Y9713398*
X5965502Y9717382*
X5969356Y9721648*
X5972583Y9726043*
X5975094Y9730396*
X5976697Y9734532*
X5977303Y9738234*
Y9761923*
X5976697Y9764565*
X5975159Y9767012*
X5972994Y9768831*
X5971760Y9769350*
X5970526Y9769524*
X5918081*
Y9745012*
X5918449Y9741915*
X5919510Y9738949*
X5921156Y9736242*
X5923343Y9733795*
X5925876Y9731803*
X5928756Y9730266*
X5931809Y9729291*
X5934992Y9728923*
X5940081*
Y9723856*
X5890169*
Y9728923*
X5893547*
X5897033Y9729291*
X5900498Y9730266*
X5903746Y9731803*
X5906756Y9733795*
X5909268Y9736242*
X5911260Y9738949*
X5912537Y9741915*
X5913014Y9745012*
Y9769524*
X5849547*
X5848270Y9769350*
X5847057Y9768831*
X5844892Y9767012*
X5843354Y9764565*
X5842791Y9761923*
Y9739923*
X5843419Y9734986*
X5845260Y9729768*
X5848118Y9724484*
X5851886Y9719331*
X5856325Y9714567*
X5861348Y9710323*
X5866740Y9706902*
X5872413Y9704411*
X5870703Y9700167*
X5837724Y9709478*
Y9795746*
X5842791*
Y9790679*
X5843354Y9787734*
X5844892Y9785309*
X5847057Y9783663*
X5849547Y9783057*
X5970526*
X5972994Y9783707*
X5975159Y9785461*
X5976697Y9788059*
X5977303Y9791221*
Y9795746*
G37*
G36*
X5970526Y9892169D02*
G01X5972994Y9892776D01*
X5975159Y9894421*
X5976697Y9896847*
X5977303Y9899791*
Y9904858*
X5982370*
Y9866813*
X5981959Y9861876*
X5980833Y9856852*
X5978970Y9851807*
X5976502Y9846784*
X5973406Y9841890*
X5969768Y9837126*
X5965610Y9832579*
X5960998Y9828226*
X5955931Y9824242*
X5950539Y9820604*
X5944780Y9817378*
X5938803Y9814606*
X5932545Y9812398*
X5926136Y9810709*
X5919596Y9809669*
X5912992Y9809280*
X5905695Y9809648*
X5898549Y9810644*
X5891533Y9812289*
X5884778Y9814476*
X5878238Y9817205*
X5872045Y9820410*
X5866177Y9824047*
X5860742Y9828053*
X5855740Y9832449*
X5851258Y9837104*
X5847295Y9842041*
X5843982Y9847152*
X5841297Y9852478*
X5839348Y9857870*
X5838114Y9863348*
X5837724Y9868827*
Y9904858*
X5842791*
Y9899315*
X5843354Y9896565*
X5844892Y9894270*
X5847057Y9892754*
X5849547Y9892169*
X5970526*
G37*
G36*
X5910459Y9915837D02*
G01X5903876Y9916161D01*
X5897272Y9917071*
X5890667Y9918500*
X5884171Y9920406*
X5877783Y9922787*
X5871634Y9925516*
X5865744Y9928591*
X5860222Y9931925*
X5855047Y9935563*
X5850392Y9939331*
X5846256Y9943272*
X5842770Y9947256*
X5839890Y9951348*
X5837789Y9955376*
X5836469Y9959360*
X5836035Y9963215*
X5836490Y9966982*
X5837833Y9970858*
X5839976Y9974843*
X5842900Y9978849*
X5846451Y9982876*
X5850630Y9986795*
X5855350Y9990606*
X5860547Y9994201*
X5866112Y9997644*
X5872024Y10000740*
X5878173Y10003534*
X5884539Y10005915*
X5890992Y10007908*
X5897531Y10009358*
X5904028Y10010268*
X5910459Y10010571*
X5916695Y10010289*
X5923061Y10009423*
X5929449Y10008059*
X5935858Y10006175*
X5942094Y10003902*
X5948201Y10001195*
X5954047Y9998185*
X5959612Y9994850*
X5964744Y9991321*
X5969443Y9987553*
X5973600Y9983634*
X5977173Y9979563*
X5980053Y9975492*
X5982219Y9971356*
X5983561Y9967264*
X5984059Y9963215*
X5983539Y9959079*
X5982110Y9954878*
X5979837Y9950721*
X5976827Y9946541*
X5973081Y9942514*
X5968750Y9938573*
X5963900Y9934827*
X5958659Y9931276*
X5952986Y9928028*
X5947075Y9925039*
X5940969Y9922441*
X5934776Y9920167*
X5928518Y9918349*
X5922346Y9916984*
X5916262Y9916140*
X5910459Y9915837*
G37*
G36*
X5916240Y9308628D02*
G01X5852081Y9279786D01*
X5848465Y9277360*
X5845520Y9274199*
X5843506Y9270886*
X5842791Y9267941*
Y9265386*
X5837724*
Y9301764*
X5842791*
Y9298386*
X5842965Y9296913*
X5843484Y9295593*
X5845303Y9293644*
X5846472Y9293102*
X5847750Y9292821*
X5849071Y9292908*
X5850392Y9293319*
X5900433Y9316055*
X5859724Y9335998*
X5852925Y9338813*
X5848703Y9340329*
X5847447Y9340156*
X5846321Y9339636*
X5844459Y9337817*
X5843224Y9335370*
X5842791Y9332707*
Y9331018*
X5837724*
Y9362675*
X5842791*
Y9359297*
X5842986Y9357630*
X5843614Y9355789*
X5845736Y9352022*
X5848486Y9348730*
X5851236Y9346608*
X5908510Y9319736*
X5971370Y9348297*
X5973341Y9349532*
X5975268Y9351610*
X5976719Y9354165*
X5977303Y9356764*
Y9360142*
X5982370*
Y9323915*
X5977303*
Y9326449*
X5977065Y9328224*
X5976415Y9329654*
X5975398Y9330780*
X5974120Y9331581*
X5972561Y9332079*
X5970850Y9332230*
X5967148Y9331516*
X5924382Y9312287*
X5965459Y9293016*
X5967646Y9292280*
X5969789Y9291890*
X5971781*
X5973579Y9292258*
X5975073Y9293016*
X5976264Y9294099*
X5977022Y9295528*
X5977303Y9297238*
Y9302327*
X5982370*
Y9268764*
X5977303*
Y9273852*
X5976697Y9275671*
X5975159Y9278183*
X5972994Y9280890*
X5970526Y9283163*
X5916240Y9308628*
G37*
G36*
X5977303Y8430577D02*
G01X5982370D01*
Y8400110*
X5977303*
Y8403510*
X5977043Y8404917*
X5976394Y8406433*
X5973904Y8409660*
X5970136Y8412561*
X5967884Y8413709*
X5965459Y8414510*
X5837724Y8449177*
Y8454244*
X5965459Y8485555*
X5969789Y8486789*
X5973579Y8488955*
X5975073Y8490319*
X5976264Y8491770*
X5977022Y8493307*
X5977303Y8494845*
Y8499067*
X5982370*
Y8462711*
X5977303*
Y8466089*
X5977065Y8467604*
X5976415Y8468925*
X5975441Y8470073*
X5974207Y8470961*
X5971197Y8472065*
X5967992Y8472000*
X5871157Y8448852*
Y8447120*
X5965459Y8421266*
X5967646Y8420898*
X5969789Y8420919*
X5971781Y8421374*
X5973579Y8422132*
X5975073Y8423258*
X5976264Y8424622*
X5977022Y8426246*
X5977303Y8428043*
Y8430577*
G37*
G36*
X5583012Y7541569D02*
G01X5581734Y7541396D01*
X5580522Y7540876*
X5578356Y7539057*
X5576819Y7536610*
X5576256Y7533969*
Y7530569*
X5571189*
Y7566947*
X5576256*
Y7562724*
X5576819Y7559780*
X5578356Y7557354*
X5580522Y7555709*
X5583012Y7555102*
X5693835*
Y7556813*
X5571189Y7585569*
Y7590636*
X5691301Y7616858*
Y7618547*
X5583012*
X5581734Y7618374*
X5580522Y7617854*
X5578356Y7616036*
X5576819Y7613589*
X5576256Y7610947*
Y7608392*
X5571189*
Y7633770*
X5576256*
Y7631236*
X5576819Y7628291*
X5578356Y7625866*
X5580522Y7624221*
X5583012Y7623614*
X5703990*
X5706459Y7624199*
X5708624Y7625693*
X5710161Y7627923*
X5710768Y7630652*
Y7633770*
X5715835*
Y7610102*
X5605423Y7586219*
Y7584486*
X5715835Y7557658*
Y7530569*
X5710768*
Y7533969*
X5710161Y7536610*
X5708624Y7539057*
X5706459Y7540876*
X5705224Y7541396*
X5703990Y7541569*
X5583012*
G37*
G36*
Y7649837D02*
G01X5581734Y7649663D01*
X5580522Y7649144*
X5578356Y7647325*
X5576819Y7644878*
X5576256Y7642236*
Y7638837*
X5571189*
Y7675215*
X5576256*
Y7670992*
X5576819Y7668047*
X5578356Y7665622*
X5580522Y7663976*
X5583012Y7663370*
X5693835*
Y7665081*
X5571189Y7693837*
Y7698904*
X5691301Y7725126*
Y7726815*
X5583012*
X5581734Y7726642*
X5580522Y7726122*
X5578356Y7724303*
X5576819Y7721856*
X5576256Y7719215*
Y7716660*
X5571189*
Y7742037*
X5576256*
Y7739504*
X5576819Y7736559*
X5578356Y7734134*
X5580522Y7732488*
X5583012Y7731882*
X5703990*
X5706459Y7732467*
X5708624Y7733961*
X5710161Y7736191*
X5710768Y7738919*
Y7742037*
X5715835*
Y7718370*
X5605423Y7694486*
Y7692754*
X5715835Y7665925*
Y7638837*
X5710768*
Y7642236*
X5710161Y7644878*
X5708624Y7647325*
X5706459Y7649144*
X5705224Y7649663*
X5703990Y7649837*
X5583012*
G37*
G36*
Y8624246D02*
G01X5581734Y8624073D01*
X5580522Y8623553*
X5578356Y8621734*
X5576819Y8619287*
X5576256Y8616646*
Y8613246*
X5571189*
Y8649624*
X5576256*
Y8645402*
X5576819Y8642457*
X5578356Y8640032*
X5580522Y8638386*
X5583012Y8637780*
X5693835*
Y8639490*
X5571189Y8668246*
Y8673313*
X5691301Y8699536*
Y8701224*
X5583012*
X5581734Y8701051*
X5580522Y8700532*
X5578356Y8698713*
X5576819Y8696266*
X5576256Y8693624*
Y8691069*
X5571189*
Y8716447*
X5576256*
Y8713913*
X5576819Y8710969*
X5578356Y8708543*
X5580522Y8706898*
X5583012Y8706291*
X5703990*
X5706459Y8706876*
X5708624Y8708370*
X5710161Y8710600*
X5710768Y8713329*
Y8716447*
X5715835*
Y8692780*
X5605423Y8668896*
Y8667163*
X5715835Y8640335*
Y8613246*
X5710768*
Y8616646*
X5710161Y8619287*
X5708624Y8621734*
X5706459Y8623553*
X5705224Y8624073*
X5703990Y8624246*
X5583012*
G37*
G36*
Y8732514D02*
G01X5581734Y8732341D01*
X5580522Y8731821*
X5578356Y8730002*
X5576819Y8727555*
X5576256Y8724913*
Y8721514*
X5571189*
Y8757892*
X5576256*
Y8753669*
X5576819Y8750724*
X5578356Y8748299*
X5580522Y8746654*
X5583012Y8746047*
X5693835*
Y8747758*
X5571189Y8776514*
Y8781581*
X5691301Y8807803*
Y8809492*
X5583012*
X5581734Y8809319*
X5580522Y8808799*
X5578356Y8806980*
X5576819Y8804534*
X5576256Y8801892*
Y8799337*
X5571189*
Y8824715*
X5576256*
Y8822181*
X5576819Y8819236*
X5578356Y8816811*
X5580522Y8815165*
X5583012Y8814559*
X5703990*
X5706459Y8815144*
X5708624Y8816638*
X5710161Y8818868*
X5710768Y8821597*
Y8824715*
X5715835*
Y8801047*
X5605423Y8777163*
Y8775431*
X5715835Y8748602*
Y8721514*
X5710768*
Y8724913*
X5710161Y8727555*
X5708624Y8730002*
X5706459Y8731821*
X5705224Y8732341*
X5703990Y8732514*
X5583012*
G37*
G36*
X5849547Y10031726D02*
G01X5848270Y10031553D01*
X5847057Y10031033*
X5844892Y10029215*
X5843354Y10026768*
X5842791Y10024126*
Y10020726*
X5837724*
Y10057104*
X5842791*
Y10052882*
X5843354Y10049937*
X5844892Y10047512*
X5847057Y10045866*
X5849547Y10045260*
X5960370*
Y10046971*
X5837724Y10075726*
Y10080793*
X5957837Y10107016*
Y10108705*
X5849547*
X5848270Y10108532*
X5847057Y10108012*
X5844892Y10106193*
X5843354Y10103746*
X5842791Y10101104*
Y10098549*
X5837724*
Y10123927*
X5842791*
Y10121394*
X5843354Y10118449*
X5844892Y10116024*
X5847057Y10114378*
X5849547Y10113772*
X5970526*
X5972994Y10114356*
X5975159Y10115850*
X5976697Y10118081*
X5977303Y10120809*
Y10123927*
X5982370*
Y10100260*
X5871959Y10076376*
Y10074644*
X5982370Y10047815*
Y10020726*
X5977303*
Y10024126*
X5976697Y10026768*
X5975159Y10029215*
X5972994Y10031034*
X5971760Y10031553*
X5970526Y10031726*
X5849547*
G37*
G36*
X5338476Y9824502D02*
G01Y9822791D01*
X5437455*
X5439923Y9823398*
X5442089Y9825043*
X5443626Y9827469*
X5444232Y9830413*
Y9837169*
X5449299*
Y9803347*
X5444232*
Y9810124*
X5443626Y9812766*
X5442089Y9815213*
X5439923Y9817032*
X5438689Y9817551*
X5437455Y9817724*
X5304654*
Y9822791*
Y9822337*
X5430677Y9887102*
Y9888791*
X5316476*
X5315199Y9888618*
X5313986Y9888099*
X5311821Y9886280*
X5310283Y9883833*
X5309720Y9881191*
Y9874413*
X5304654*
Y9908236*
X5309720*
Y9901480*
X5310283Y9898536*
X5311821Y9896110*
X5313986Y9894465*
X5316476Y9893858*
X5437455*
X5438689Y9894053*
X5439923Y9894551*
X5442089Y9896392*
X5443626Y9899142*
X5444232Y9902498*
Y9908236*
X5449299*
Y9881451*
X5338476Y9824502*
G37*
G36*
X5285209Y10004659D02*
G01X5288608Y10010571D01*
X5469589Y9924282*
X5466189Y9918370*
X5285209Y10004659*
G37*
%LPC*%
G36*
X5362165Y8692758D02*
G01X5357358Y8692585D01*
X5352551Y8692000*
X5347787Y8691069*
X5343110Y8689791*
X5334102Y8686500*
X5325982Y8682299*
X5319010Y8677557*
X5316087Y8675045*
X5313618Y8672447*
X5311583Y8669870*
X5310110Y8667293*
X5309179Y8664782*
X5308876Y8662313*
X5309071Y8659974*
X5309699Y8657571*
X5310717Y8655232*
X5312146Y8652894*
X5313900Y8650663*
X5316065Y8648498*
X5321327Y8644471*
X5327736Y8641071*
X5335250Y8638429*
X5343652Y8636719*
X5348156Y8636264*
X5352854Y8636091*
X5359220Y8636740*
X5365522Y8638516*
X5371476Y8641223*
X5376955Y8644579*
X5381589Y8648433*
X5385205Y8652526*
X5387543Y8656683*
X5388150Y8658719*
X5388388Y8660624*
X5387868Y8664435*
X5386417Y8668636*
X5384079Y8673140*
X5380982Y8677665*
X5377106Y8682104*
X5372646Y8686219*
X5367622Y8689835*
X5362165Y8692758*
G37*
G36*
X5444211Y8989650D02*
G01X5443778Y8991945D01*
X5442565Y8994284*
X5440638Y8996665*
X5438039Y8999026*
X5434813Y9001408*
X5431089Y9003703*
X5422211Y9008055*
X5411882Y9011866*
X5400644Y9014876*
X5388972Y9016868*
X5383126Y9017410*
X5377388Y9017561*
X5371303Y9017410*
X5365240Y9016868*
X5353244Y9014876*
X5341833Y9011866*
X5331504Y9008055*
X5322648Y9003703*
X5318923Y9001408*
X5315783Y8999026*
X5313185Y8996665*
X5311301Y8994284*
X5310132Y8991945*
X5309742Y8989650*
X5310132Y8987268*
X5311301Y8984864*
X5313185Y8982482*
X5315783Y8980100*
X5318923Y8977805*
X5322648Y8975575*
X5331504Y8971396*
X5341833Y8967845*
X5353244Y8965051*
X5365240Y8963254*
X5371303Y8962778*
X5377388Y8962583*
X5388972Y8963211*
X5400644Y8964943*
X5411882Y8967628*
X5422211Y8971071*
X5431089Y8975185*
X5434813Y8977415*
X5438039Y8979732*
X5440638Y8982158*
X5442565Y8984626*
X5443778Y8987138*
X5444211Y8989650*
G37*
G36*
Y9206185D02*
G01X5443778Y9208480D01*
X5442565Y9210819*
X5440638Y9213201*
X5438039Y9215561*
X5434813Y9217943*
X5431089Y9220238*
X5422211Y9224591*
X5411882Y9228402*
X5400644Y9231411*
X5388972Y9233404*
X5383126Y9233945*
X5377388Y9234097*
X5371303Y9233945*
X5365240Y9233404*
X5353244Y9231411*
X5341833Y9228402*
X5331504Y9224591*
X5322648Y9220238*
X5318923Y9217943*
X5315783Y9215561*
X5313185Y9213201*
X5311301Y9210819*
X5310132Y9208480*
X5309742Y9206185*
X5310132Y9203803*
X5311301Y9201400*
X5313185Y9199018*
X5315783Y9196636*
X5318923Y9194341*
X5322648Y9192110*
X5331504Y9187931*
X5341833Y9184380*
X5353244Y9181587*
X5365240Y9179789*
X5371303Y9179313*
X5377388Y9179118*
X5388972Y9179746*
X5400644Y9181478*
X5411882Y9184163*
X5422211Y9187606*
X5431089Y9191721*
X5434813Y9193951*
X5438039Y9196268*
X5440638Y9198693*
X5442565Y9201161*
X5443778Y9203673*
X5444211Y9206185*
G37*
G36*
Y9530988D02*
G01X5443778Y9533284D01*
X5442565Y9535622*
X5440638Y9538004*
X5438039Y9540364*
X5434813Y9542746*
X5431089Y9545041*
X5422211Y9549394*
X5411882Y9553205*
X5400644Y9556215*
X5388972Y9558207*
X5383126Y9558748*
X5377388Y9558900*
X5371303Y9558748*
X5365240Y9558207*
X5353244Y9556215*
X5341833Y9553205*
X5331504Y9549394*
X5322648Y9545041*
X5318923Y9542746*
X5315783Y9540364*
X5313185Y9538004*
X5311301Y9535622*
X5310132Y9533284*
X5309742Y9530988*
X5310132Y9528606*
X5311301Y9526203*
X5313185Y9523821*
X5315783Y9521439*
X5318923Y9519144*
X5322648Y9516913*
X5331504Y9512734*
X5341833Y9509183*
X5353244Y9506390*
X5365240Y9504593*
X5371303Y9504116*
X5377388Y9503921*
X5388972Y9504549*
X5400644Y9506282*
X5411882Y9508967*
X5422211Y9512410*
X5431089Y9516524*
X5434813Y9518754*
X5438039Y9521071*
X5440638Y9523496*
X5442565Y9525965*
X5443778Y9528476*
X5444211Y9530988*
G37*
G36*
X5710746Y7798705D02*
G01X5710313Y7801000D01*
X5709100Y7803339*
X5707173Y7805721*
X5704575Y7808081*
X5701348Y7810463*
X5697624Y7812758*
X5688746Y7817110*
X5678417Y7820921*
X5667179Y7823931*
X5655508Y7825923*
X5649661Y7826465*
X5643923Y7826616*
X5637839Y7826465*
X5631776Y7825923*
X5619780Y7823931*
X5608368Y7820921*
X5598039Y7817110*
X5589183Y7812758*
X5585459Y7810463*
X5582319Y7808081*
X5579720Y7805721*
X5577837Y7803339*
X5576667Y7801000*
X5576278Y7798705*
X5576667Y7796323*
X5577837Y7793919*
X5579720Y7791537*
X5582319Y7789156*
X5585459Y7786860*
X5589183Y7784630*
X5598039Y7780451*
X5608368Y7776900*
X5619780Y7774106*
X5631776Y7772309*
X5637839Y7771833*
X5643923Y7771638*
X5655508Y7772266*
X5667179Y7773998*
X5678417Y7776683*
X5688746Y7780126*
X5697624Y7784240*
X5701348Y7786471*
X5704575Y7788787*
X5707173Y7791213*
X5709100Y7793681*
X5710313Y7796193*
X5710746Y7798705*
G37*
G36*
Y8123508D02*
G01X5710313Y8125803D01*
X5709100Y8128142*
X5707173Y8130524*
X5704575Y8132884*
X5701348Y8135266*
X5697624Y8137561*
X5688746Y8141913*
X5678417Y8145724*
X5667179Y8148734*
X5655508Y8150726*
X5649661Y8151268*
X5643923Y8151419*
X5637839Y8151268*
X5631776Y8150726*
X5619780Y8148734*
X5608368Y8145724*
X5598039Y8141913*
X5589183Y8137561*
X5585459Y8135266*
X5582319Y8132884*
X5579720Y8130524*
X5577837Y8128142*
X5576667Y8125803*
X5576278Y8123508*
X5576667Y8121126*
X5577837Y8118723*
X5579720Y8116341*
X5582319Y8113959*
X5585459Y8111663*
X5589183Y8109433*
X5598039Y8105254*
X5608368Y8101703*
X5619780Y8098910*
X5631776Y8097112*
X5637839Y8096636*
X5643923Y8096441*
X5655508Y8097069*
X5667179Y8098801*
X5678417Y8101486*
X5688746Y8104929*
X5697624Y8109043*
X5701348Y8111274*
X5704575Y8113591*
X5707173Y8116016*
X5709100Y8118484*
X5710313Y8120996*
X5710746Y8123508*
G37*
G36*
Y8881382D02*
G01X5710313Y8883677D01*
X5709100Y8886016*
X5707173Y8888398*
X5704575Y8890758*
X5701348Y8893140*
X5697624Y8895435*
X5688746Y8899787*
X5678417Y8903599*
X5667179Y8906608*
X5655508Y8908600*
X5649661Y8909142*
X5643923Y8909293*
X5637839Y8909142*
X5631776Y8908600*
X5619780Y8906608*
X5608368Y8903599*
X5598039Y8899787*
X5589183Y8895435*
X5585459Y8893140*
X5582319Y8890758*
X5579720Y8888398*
X5577837Y8886016*
X5576667Y8883677*
X5576278Y8881382*
X5576667Y8879000*
X5577837Y8876597*
X5579720Y8874215*
X5582319Y8871833*
X5585459Y8869537*
X5589183Y8867307*
X5598039Y8863128*
X5608368Y8859577*
X5619780Y8856784*
X5631776Y8854986*
X5637839Y8854510*
X5643923Y8854315*
X5655508Y8854943*
X5667179Y8856675*
X5678417Y8859360*
X5688746Y8862803*
X5697624Y8866917*
X5701348Y8869148*
X5704575Y8871465*
X5707173Y8873890*
X5709100Y8876358*
X5710313Y8878870*
X5710746Y8881382*
G37*
G36*
Y9314453D02*
G01X5710313Y9316748D01*
X5709100Y9319087*
X5707173Y9321469*
X5704575Y9323829*
X5701348Y9326211*
X5697624Y9328506*
X5688746Y9332858*
X5678417Y9336669*
X5667179Y9339679*
X5655508Y9341671*
X5649661Y9342213*
X5643923Y9342364*
X5637839Y9342213*
X5631776Y9341671*
X5619780Y9339679*
X5608368Y9336669*
X5598039Y9332858*
X5589183Y9328506*
X5585459Y9326211*
X5582319Y9323829*
X5579720Y9321469*
X5577837Y9319087*
X5576667Y9316748*
X5576278Y9314453*
X5576667Y9312071*
X5577837Y9309667*
X5579720Y9307286*
X5582319Y9304904*
X5585459Y9302608*
X5589183Y9300378*
X5598039Y9296199*
X5608368Y9292648*
X5619780Y9289854*
X5631776Y9288057*
X5637839Y9287581*
X5643923Y9287386*
X5655508Y9288014*
X5667179Y9289746*
X5678417Y9292431*
X5688746Y9295874*
X5697624Y9299988*
X5701348Y9302219*
X5704575Y9304536*
X5707173Y9306961*
X5709100Y9309429*
X5710313Y9311941*
X5710746Y9314453*
G37*
G36*
X5977281Y8664847D02*
G01X5976848Y8667142D01*
X5975636Y8669480*
X5973709Y8671862*
X5971110Y8674223*
X5967884Y8676604*
X5964159Y8678900*
X5955281Y8683252*
X5944953Y8687063*
X5933715Y8690073*
X5922043Y8692065*
X5916197Y8692606*
X5910459Y8692758*
X5904374Y8692606*
X5898311Y8692065*
X5886315Y8690073*
X5874904Y8687063*
X5864575Y8683252*
X5855719Y8678900*
X5851994Y8676604*
X5848854Y8674223*
X5846256Y8671862*
X5844372Y8669480*
X5843203Y8667142*
X5842813Y8664847*
X5843203Y8662465*
X5844372Y8660061*
X5846256Y8657679*
X5848854Y8655297*
X5851994Y8653002*
X5855719Y8650772*
X5864575Y8646593*
X5874904Y8643041*
X5886315Y8640248*
X5898311Y8638451*
X5904374Y8637974*
X5910459Y8637780*
X5922043Y8638408*
X5933715Y8640140*
X5944953Y8642825*
X5955281Y8646268*
X5964159Y8650382*
X5967884Y8652612*
X5971110Y8654929*
X5973709Y8657354*
X5975636Y8659823*
X5976848Y8662335*
X5977281Y8664847*
G37*
G36*
Y8773114D02*
G01X5976848Y8775410D01*
X5975636Y8777748*
X5973709Y8780130*
X5971110Y8782490*
X5967884Y8784872*
X5964159Y8787167*
X5955281Y8791520*
X5944953Y8795331*
X5933715Y8798341*
X5922043Y8800333*
X5916197Y8800874*
X5910459Y8801026*
X5904374Y8800874*
X5898311Y8800333*
X5886315Y8798341*
X5874904Y8795331*
X5864575Y8791520*
X5855719Y8787167*
X5851994Y8784872*
X5848854Y8782490*
X5846256Y8780130*
X5844372Y8777748*
X5843203Y8775410*
X5842813Y8773114*
X5843203Y8770732*
X5844372Y8768329*
X5846256Y8765947*
X5848854Y8763565*
X5851994Y8761270*
X5855719Y8759039*
X5864575Y8754860*
X5874904Y8751309*
X5886315Y8748516*
X5898311Y8746719*
X5904374Y8746242*
X5910459Y8746047*
X5922043Y8746675*
X5933715Y8748408*
X5944953Y8751093*
X5955281Y8754536*
X5964159Y8758650*
X5967884Y8760880*
X5971110Y8763197*
X5973709Y8765622*
X5975636Y8768091*
X5976848Y8770602*
X5977281Y8773114*
G37*
G36*
X5696368Y9521699D02*
G01X5620234Y9569900D01*
Y9520854*
X5696368*
Y9521699*
G37*
G36*
X5377388Y10073193D02*
G01X5378037Y10068191D01*
X5380030Y10062843*
X5383126Y10057473*
X5387305Y10052362*
X5392307Y10047902*
X5398067Y10044307*
X5401163Y10042965*
X5404411Y10041925*
X5407746Y10041276*
X5411232Y10041037*
X5414350Y10041232*
X5417469Y10041795*
X5423488Y10043852*
X5429075Y10047100*
X5434055Y10051323*
X5438213Y10056411*
X5441439Y10062128*
X5442608Y10065181*
X5443496Y10068343*
X5444037Y10071612*
X5444232Y10074882*
Y10086726*
X5443626Y10089368*
X5442089Y10091815*
X5439923Y10093634*
X5438689Y10094154*
X5437455Y10094327*
X5377388*
Y10073193*
G37*
G36*
X5910459Y8990516D02*
G01X5911108Y8985514D01*
X5913100Y8980165*
X5916197Y8974795*
X5920376Y8969685*
X5925378Y8965224*
X5931138Y8961630*
X5934234Y8960287*
X5937482Y8959248*
X5940817Y8958599*
X5944303Y8958360*
X5947421Y8958555*
X5950539Y8959118*
X5956559Y8961175*
X5962146Y8964423*
X5967126Y8968646*
X5971283Y8973734*
X5974510Y8979451*
X5975679Y8982504*
X5976567Y8985665*
X5977108Y8988935*
X5977303Y8992205*
Y9004049*
X5976697Y9006691*
X5975159Y9009138*
X5972994Y9010957*
X5971760Y9011476*
X5970526Y9011650*
X5910459*
Y8990516*
G37*
G36*
X5911303Y9825347D02*
G01X5918016Y9825606D01*
X5924577Y9826343*
X5930878Y9827555*
X5936941Y9829114*
X5942679Y9831085*
X5948136Y9833380*
X5953224Y9835978*
X5957945Y9838793*
X5962189Y9841911*
X5965978Y9845181*
X5969291Y9848624*
X5972085Y9852154*
X5974293Y9855813*
X5975939Y9859473*
X5976935Y9863175*
X5977303Y9866813*
X5976697Y9871187*
X5975159Y9874955*
X5972994Y9877640*
X5971760Y9878398*
X5970526Y9878636*
X5849547*
X5848270Y9878441*
X5847057Y9877791*
X5844892Y9875583*
X5843354Y9872616*
X5842791Y9869347*
X5843094Y9865817*
X5844047Y9862136*
X5845606Y9858390*
X5847772Y9854622*
X5850478Y9850919*
X5853726Y9847260*
X5857494Y9843752*
X5861803Y9840374*
X5866524Y9837256*
X5871742Y9834398*
X5877372Y9831843*
X5883435Y9829634*
X5889844Y9827858*
X5896665Y9826494*
X5903811Y9825650*
X5911303Y9825347*
G37*
G36*
X5910459Y9994504D02*
G01X5903659Y9994331D01*
X5897012Y9993746*
X5890494Y9992815*
X5884258Y9991537*
X5878217Y9990022*
X5872500Y9988203*
X5862128Y9983937*
X5857516Y9981599*
X5853423Y9979108*
X5849807Y9976510*
X5846797Y9973847*
X5844350Y9971183*
X5842575Y9968498*
X5841449Y9965835*
X5841102Y9963215*
X5841449Y9960508*
X5842510Y9957758*
X5844199Y9955030*
X5846559Y9952280*
X5849461Y9949616*
X5852969Y9947018*
X5856974Y9944549*
X5861500Y9942189*
X5871742Y9938053*
X5877459Y9936299*
X5883543Y9934784*
X5889888Y9933593*
X5896535Y9932683*
X5903378Y9932120*
X5910459Y9931904*
X5916197Y9932099*
X5922065Y9932575*
X5933866Y9934437*
X5945213Y9937404*
X5955715Y9941236*
X5960413Y9943510*
X5964722Y9945913*
X5968555Y9948512*
X5971846Y9951219*
X5974488Y9954077*
X5976480Y9957043*
X5977715Y9960118*
X5978148Y9963215*
X5977736Y9965965*
X5976610Y9968715*
X5974770Y9971486*
X5972301Y9974193*
X5969205Y9976878*
X5965610Y9979455*
X5961496Y9981945*
X5956970Y9984262*
X5946707Y9988441*
X5935274Y9991667*
X5929232Y9992902*
X5923061Y9993768*
X5916760Y9994331*
X5910459Y9994504*
G37*
%LPD*%
G54D244*
X7681070Y9362949D03*
Y9322949D03*
G54D245*
X7722130Y9363979D03*
X7722060Y9321949D03*
X7762130Y9363979D03*
X7485590Y9352649D03*
X7525590D03*
G54D244*
X7601900Y9362819D03*
X7640950Y9322929D03*
X6700430Y9346599D03*
Y9306599D03*
G54D245*
X6741640Y9387709D03*
G54D244*
X6740620Y9346629D03*
Y9306629D03*
G54D245*
X6781640Y9387709D03*
G54D244*
X6782620Y9306629D03*
G54D245*
X8298230Y9652949D03*
X8338230D03*
G54D244*
X8379330Y9659919D03*
G54D245*
X8013320Y9626539D03*
X8013330Y9586309D03*
X8053320Y9626539D03*
X8053330Y9586309D03*
G54D244*
X7784960Y9540319D03*
Y9500319D03*
G54D245*
X7825960Y9499369D03*
X7865960D03*
G54D244*
X7169740Y9576649D03*
X6654630Y9637849D03*
Y9597849D03*
G54D245*
X6741640Y9467709D03*
Y9427709D03*
X6781640Y9467709D03*
Y9427709D03*
G54D244*
X8379330Y9699919D03*
G54D245*
X7675220Y9787799D03*
G54D244*
X7674160Y9746819D03*
Y9706819D03*
G54D245*
X7715220Y9787799D03*
G54D244*
X7716170Y9746749D03*
Y9706749D03*
G54D245*
X7831050Y9725309D03*
G54D244*
X7864570Y9926289D03*
Y9886289D03*
X7864580Y9844289D03*
Y9804289D03*
G54D245*
X7871050Y9725309D03*
G54D244*
X7112870Y9828899D03*
Y9788899D03*
X7154950Y9828899D03*
Y9788899D03*
G54D245*
X7284650Y9843459D03*
X7324650D03*
G54D244*
X6905500Y9919289D03*
Y9879289D03*
X6947500Y9919289D03*
Y9879289D03*
X6944380Y9724789D03*
X6984380Y9684789D03*
G54D245*
X6988490Y9878289D03*
X7028490D03*
G54D244*
X7024380Y9724789D03*
Y9684789D03*
X6604500Y9840289D03*
X6682980Y9839699D03*
Y9799699D03*
X6682970Y9757729D03*
Y9717729D03*
X6722980Y9839699D03*
Y9799699D03*
X6722990Y9757719D03*
Y9717719D03*
X6604500Y9800289D03*
G54D246*
X6703600Y9637899D03*
Y9535539D03*
X6778400Y9637899D03*
Y9535539D03*
X6741000Y9637899D03*
G54D244*
X7640950Y9362929D03*
X6782620Y9346629D03*
X6944380Y9684789D03*
X7169740Y9536649D03*
X6984380Y9724789D03*
G54D250*
X7151740Y9744439D03*
X7073000D03*
Y9683419D03*
G54D251*
X7151620Y9683326D03*
G54D244*
X7601900Y9322819D03*
G54D259*
X7762060Y9321949D03*
G54D265*
X8516950Y9576869D03*
X8753170D03*
X8516950Y9722520D03*
X8753170D03*
G54D244*
X8595737Y4305401D03*
Y4265401D03*
X8555727Y4305401D03*
Y4265401D03*
X8515697Y4305401D03*
Y4265401D03*
X8475707Y4305401D03*
Y4265401D03*
X8435697D03*
X8395687Y4305401D03*
Y4265401D03*
X8101127Y4291421D03*
Y4251421D03*
X7874707Y4292441D03*
X7627727Y4257641D03*
G54D245*
X8791297Y4503841D03*
X8751297D03*
X8679257Y4495941D03*
X8679227Y4455931D03*
X8639257Y4495941D03*
X8679217Y4367941D03*
X8282507Y4518961D03*
G54D244*
X8283537Y4478071D03*
Y4438071D03*
G54D245*
X8242507Y4518961D03*
X8096137Y4606161D03*
X8142137Y4372441D03*
Y4332441D03*
X8102137Y4372441D03*
Y4332441D03*
X8056137Y4606161D03*
G54D244*
X8055267Y4558341D03*
Y4518341D03*
X8061137Y4371481D03*
Y4331481D03*
X8021077Y4371531D03*
X7981007Y4331561D03*
X7891227Y4605031D03*
Y4565031D03*
X7851197Y4605001D03*
Y4565001D03*
X7874707Y4332441D03*
X7743567Y4574631D03*
X7688417Y4480731D03*
Y4440731D03*
X7743577Y4696541D03*
Y4656541D03*
X7743567Y4614631D03*
X7691067Y4837701D03*
Y4797701D03*
G54D246*
X7690587Y4727631D03*
Y4625271D03*
X7653187Y4727631D03*
Y4625271D03*
X7615787Y4727631D03*
Y4625271D03*
G54D244*
X7981007Y4371561D03*
G54D259*
X8639227Y4455931D03*
G54D270*
X6667487Y4300551D03*
Y4250551D03*
X7216067Y4592181D03*
X6667487Y4400551D03*
Y4350551D03*
X7216067Y4742181D03*
Y4692181D03*
Y4642181D03*
G54D271*
X6825087Y4671951D03*
X6775087D03*
X6725087D03*
X6675087D03*
G54D244*
X8435697Y4305401D03*
G54D245*
X8639217Y4367941D03*
G54D244*
X8021077Y4331531D03*
G54D270*
X6880294Y4300551D03*
Y4250551D03*
Y4400551D03*
Y4350551D03*
X7216067Y4642181D03*
Y4592181D03*
Y4742181D03*
Y4692181D03*
X7428874Y4642181D03*
Y4592181D03*
Y4742181D03*
Y4692181D03*
G54D289*
X6725087Y4671951D03*
X6675087D03*
X6825087D03*
X6775087D03*
X6725087Y4459144D03*
X6675087D03*
X6825087D03*
X6775087D03*
G54D38*
X6328740Y9397758D03*
X11761899D03*
Y5917203D03*
X6328740Y5838463D03*
X6328807Y4342400D03*
Y861845D03*
X11761966Y783105D03*
Y4342400D03*
G54D310*
X7526299Y9416641D03*
G54D311*
X7586790Y9477110D03*
G54D310*
X7308701Y9416597D03*
G54D311*
X7248210Y9477110D03*
X7586790Y9694708D03*
G54D310*
X7526299Y9755221D03*
X7308701Y9755177D03*
G54D313*
X7586790Y9497326D03*
Y9517011D03*
G54D312*
X7506083Y9416620D03*
X7387973D03*
X7368287Y9416618D03*
X7348603Y9416620D03*
X7328917Y9416618D03*
X7486397D03*
X7466713Y9416620D03*
X7447027Y9416618D03*
X7427343Y9416620D03*
X7407657Y9416618D03*
G54D313*
X7248210Y9497326D03*
Y9517011D03*
X7586790Y9654806D03*
Y9674491D03*
Y9536696D03*
Y9556381D03*
Y9576066D03*
Y9595751D03*
Y9615436D03*
Y9635121D03*
X7248210Y9654806D03*
Y9674491D03*
Y9536696D03*
Y9556381D03*
Y9576066D03*
Y9595751D03*
Y9615436D03*
Y9635121D03*
G54D312*
X7506083Y9755200D03*
X7387973D03*
X7368287Y9755198D03*
X7348603Y9755200D03*
X7328917Y9755198D03*
X7486397D03*
X7466713Y9755200D03*
X7447027Y9755198D03*
X7427343Y9755200D03*
X7407657Y9755198D03*
G54D314*
X7248210Y9694756D03*
G54D316*
X7812010Y9857709D03*
Y9942349D03*
X7786420Y9857709D03*
Y9942349D03*
X7760830D03*
G54D318*
Y9857709D03*
G54D330*
X8514044Y4405771D03*
X8496330D03*
X8478615D03*
G54D332*
X8532392D03*
G54D328*
X8478615Y4490411D03*
X8496330D03*
X8514045D03*
G54D334*
X8532392D03*
G54D336*
X8458342D03*
G54D338*
Y4405771D03*
G54D340*
X8564247Y4479584D03*
Y4461869D03*
Y4444154D03*
Y4426439D03*
G54D342*
Y4497934D03*
Y4408089D03*
G54D345*
X8231500Y9753289D03*
Y9803289D03*
Y9853289D03*
Y9903289D03*
X8011500Y9753289D03*
Y9803289D03*
Y9853289D03*
Y9903289D03*
G54D306*
X6808209Y4290140D03*
X6747186D03*
X6808209Y4361006D03*
X6747186D03*
G54D307*
X6785542Y4531229D03*
X6714676D03*
G54D306*
X7356789Y4702636D03*
X7295766D03*
X7356789Y4631770D03*
X7295766D03*
G54D307*
X6785542Y4592253D03*
X6714676D03*
G54D266*
X7743407Y4527641D03*
X7660727D03*
G54D261*
X7918040Y9726379D03*
Y9809059D03*
G54D275*
X8581027Y4798931D03*
X8413707D03*
G54D410*
X7830798Y4267591D03*
Y4327591D03*
X7513657Y4250891D03*
Y4310891D03*
G54D411*
X8704187Y4411901D03*
X8726327Y4459831D03*
X8786327D03*
X8644187Y4411901D03*
X8329317Y4437435D03*
X8389317Y4437391D03*
G54D410*
X8690057Y4665161D03*
Y4725161D03*
G54D411*
X8526327Y4575061D03*
G54D410*
X8642267Y4541901D03*
Y4601901D03*
G54D411*
X8466327Y4575061D03*
X8775500Y9510289D03*
X8715500D03*
G54D410*
X6826650Y9441439D03*
Y9501439D03*
X6826640Y9553439D03*
G54D411*
X8332000Y9696919D03*
X8153410Y9657529D03*
X8272000Y9696919D03*
X8213410Y9657529D03*
X7917950Y9676109D03*
X7977950D03*
G54D410*
X6826640Y9613439D03*
X7917330Y9859289D03*
Y9919289D03*
G54D412*
X7781841Y4333091D03*
Y4258311D03*
X7672099Y4295691D03*
X8108357Y4479621D03*
X8194967Y4518991D03*
G54D413*
X8321977Y4668791D03*
X8361347Y4582171D03*
G54D412*
X8108357Y4558361D03*
G54D413*
X8282582Y4582171D03*
X7973187Y4639461D03*
X7933817Y4552851D03*
X8012557D03*
G54D412*
X7930640Y9499289D03*
X8017250Y9459919D03*
Y9538659D03*
G54D413*
X7824010Y9675869D03*
X7863380Y9589259D03*
X7784640D03*
X6804880Y9798739D03*
X6765510Y9885349D03*
X6844250D03*
G54D422*
X6975594Y4495924D03*
G54D425*
X6897550Y4519544D03*
G54D428*
X7538917Y4664491D03*
G54D244*
X10318909Y9362949D03*
Y9322949D03*
G54D245*
X10359969Y9363979D03*
X10359899Y9321949D03*
X10399969Y9363979D03*
X10123429Y9352649D03*
X10163429D03*
G54D244*
X10239739Y9362819D03*
X10278789Y9322929D03*
X9338269Y9346599D03*
Y9306599D03*
G54D245*
X9379479Y9387709D03*
G54D244*
X9378459Y9346629D03*
Y9306629D03*
G54D245*
X9419479Y9387709D03*
G54D244*
X9420459Y9306629D03*
G54D245*
X10936069Y9652949D03*
X10976069D03*
G54D244*
X11017169Y9659919D03*
G54D245*
X10651159Y9626539D03*
X10651169Y9586309D03*
X10691159Y9626539D03*
X10691169Y9586309D03*
G54D244*
X10422799Y9540319D03*
Y9500319D03*
G54D245*
X10463799Y9499369D03*
X10503799D03*
G54D244*
X9807579Y9576649D03*
X9292469Y9637849D03*
Y9597849D03*
G54D245*
X9379479Y9467709D03*
Y9427709D03*
X9419479Y9467709D03*
Y9427709D03*
G54D244*
X11017169Y9699919D03*
G54D245*
X10313059Y9787799D03*
G54D244*
X10311999Y9746819D03*
Y9706819D03*
G54D245*
X10353059Y9787799D03*
G54D244*
X10354009Y9746749D03*
Y9706749D03*
G54D245*
X10468889Y9725309D03*
G54D244*
X10502409Y9926289D03*
Y9886289D03*
X10502419Y9844289D03*
Y9804289D03*
G54D245*
X10508889Y9725309D03*
G54D244*
X9750709Y9828899D03*
Y9788899D03*
X9792789Y9828899D03*
Y9788899D03*
G54D245*
X9922489Y9843459D03*
X9962489D03*
G54D244*
X9543339Y9919289D03*
Y9879289D03*
X9585339Y9919289D03*
Y9879289D03*
X9582219Y9724789D03*
X9622219Y9684789D03*
G54D245*
X9626329Y9878289D03*
X9666329D03*
G54D244*
X9662219Y9724789D03*
Y9684789D03*
X9242339Y9840289D03*
X9320819Y9839699D03*
Y9799699D03*
X9320809Y9757729D03*
Y9717729D03*
X9360819Y9839699D03*
Y9799699D03*
X9360829Y9757719D03*
Y9717719D03*
X9242339Y9800289D03*
G54D246*
X9341439Y9637899D03*
Y9535539D03*
X9416239Y9637899D03*
Y9535539D03*
X9378839Y9637899D03*
G54D244*
X10278789Y9362929D03*
X9420459Y9346629D03*
X9582219Y9684789D03*
X9807579Y9536649D03*
X9622219Y9724789D03*
G54D250*
X9789579Y9744439D03*
X9710839D03*
Y9683419D03*
G54D251*
X9789459Y9683326D03*
G54D244*
X10239739Y9322819D03*
G54D259*
X10399899Y9321949D03*
G54D265*
X11154789Y9576869D03*
X11391009D03*
X11154789Y9722520D03*
X11391009D03*
G54D244*
X11233576Y4305401D03*
Y4265401D03*
X11193566Y4305401D03*
Y4265401D03*
X11153536Y4305401D03*
Y4265401D03*
X11113546Y4305401D03*
Y4265401D03*
X11073536D03*
X11033526Y4305401D03*
Y4265401D03*
X10738966Y4291421D03*
Y4251421D03*
X10512546Y4292441D03*
X10265566Y4257641D03*
G54D245*
X11429136Y4503841D03*
X11389136D03*
X11317096Y4495941D03*
X11317066Y4455931D03*
X11277096Y4495941D03*
X11317056Y4367941D03*
X10920346Y4518961D03*
G54D244*
X10921376Y4478071D03*
Y4438071D03*
G54D245*
X10880346Y4518961D03*
X10733976Y4606161D03*
X10779976Y4372441D03*
Y4332441D03*
X10739976Y4372441D03*
Y4332441D03*
X10693976Y4606161D03*
G54D244*
X10693106Y4558341D03*
Y4518341D03*
X10698976Y4371481D03*
Y4331481D03*
X10658916Y4371531D03*
X10618846Y4331561D03*
X10529066Y4605031D03*
Y4565031D03*
X10489036Y4605001D03*
Y4565001D03*
X10512546Y4332441D03*
X10381406Y4574631D03*
X10326256Y4480731D03*
Y4440731D03*
X10381416Y4696541D03*
Y4656541D03*
X10381406Y4614631D03*
X10328906Y4837701D03*
Y4797701D03*
G54D246*
X10328426Y4727631D03*
Y4625271D03*
X10291026Y4727631D03*
Y4625271D03*
X10253626Y4727631D03*
Y4625271D03*
G54D244*
X10618846Y4371561D03*
G54D259*
X11277066Y4455931D03*
G54D270*
X9305326Y4300551D03*
Y4250551D03*
X9853906Y4592181D03*
X9305326Y4400551D03*
Y4350551D03*
X9853906Y4742181D03*
Y4692181D03*
Y4642181D03*
G54D271*
X9462926Y4671951D03*
X9412926D03*
X9362926D03*
X9312926D03*
G54D244*
X11073536Y4305401D03*
G54D245*
X11277056Y4367941D03*
G54D244*
X10658916Y4331531D03*
G54D270*
X9518133Y4300551D03*
Y4250551D03*
Y4400551D03*
Y4350551D03*
X9853906Y4642181D03*
Y4592181D03*
Y4742181D03*
Y4692181D03*
X10066713Y4642181D03*
Y4592181D03*
Y4742181D03*
Y4692181D03*
G54D289*
X9362926Y4671951D03*
X9312926D03*
X9462926D03*
X9412926D03*
X9362926Y4459144D03*
X9312926D03*
X9462926D03*
X9412926D03*
G54D310*
X10164138Y9416641D03*
G54D311*
X10224629Y9477110D03*
G54D310*
X9946540Y9416597D03*
G54D311*
X9886049Y9477110D03*
X10224629Y9694708D03*
G54D310*
X10164138Y9755221D03*
X9946540Y9755177D03*
G54D313*
X10224629Y9497326D03*
Y9517011D03*
G54D312*
X10143921Y9416620D03*
X10025811D03*
X10006126Y9416618D03*
X9986441Y9416620D03*
X9966756Y9416618D03*
X10124236D03*
X10104551Y9416620D03*
X10084866Y9416618D03*
X10065181Y9416620D03*
X10045496Y9416618D03*
G54D313*
X9886049Y9497326D03*
Y9517011D03*
X10224629Y9654806D03*
Y9674491D03*
Y9536696D03*
Y9556381D03*
Y9576066D03*
Y9595751D03*
Y9615436D03*
Y9635121D03*
X9886049Y9654806D03*
Y9674491D03*
Y9536696D03*
Y9556381D03*
Y9576066D03*
Y9595751D03*
Y9615436D03*
Y9635121D03*
G54D312*
X10143921Y9755200D03*
X10025811D03*
X10006126Y9755198D03*
X9986441Y9755200D03*
X9966756Y9755198D03*
X10124236D03*
X10104551Y9755200D03*
X10084866Y9755198D03*
X10065181Y9755200D03*
X10045496Y9755198D03*
G54D314*
X9886049Y9694756D03*
G54D316*
X10449849Y9857709D03*
Y9942349D03*
X10424259Y9857709D03*
Y9942349D03*
X10398669D03*
G54D318*
Y9857709D03*
G54D330*
X11151883Y4405771D03*
X11134169D03*
X11116454D03*
G54D332*
X11170231D03*
G54D328*
X11116454Y4490411D03*
X11134169D03*
X11151884D03*
G54D334*
X11170231D03*
G54D336*
X11096181D03*
G54D338*
Y4405771D03*
G54D340*
X11202086Y4479584D03*
Y4461869D03*
Y4444154D03*
Y4426439D03*
G54D342*
Y4497934D03*
Y4408089D03*
G54D345*
X10869339Y9753289D03*
Y9803289D03*
Y9853289D03*
Y9903289D03*
X10649339Y9753289D03*
Y9803289D03*
Y9853289D03*
Y9903289D03*
G54D306*
X9446048Y4290140D03*
X9385025D03*
X9446048Y4361006D03*
X9385025D03*
G54D307*
X9423381Y4531229D03*
X9352515D03*
G54D306*
X9994628Y4702636D03*
X9933605D03*
X9994628Y4631770D03*
X9933605D03*
G54D307*
X9423381Y4592253D03*
X9352515D03*
G54D266*
X10381246Y4527641D03*
X10298566D03*
G54D261*
X10555879Y9726379D03*
Y9809059D03*
G54D275*
X11218866Y4798931D03*
X11051546D03*
G54D410*
X10468637Y4267591D03*
Y4327591D03*
X10151496Y4250891D03*
Y4310891D03*
G54D411*
X11342026Y4411901D03*
X11364166Y4459831D03*
X11424166D03*
X11282026Y4411901D03*
X10967156Y4437435D03*
X11027156Y4437391D03*
G54D410*
X11327896Y4665161D03*
Y4725161D03*
G54D411*
X11164166Y4575061D03*
G54D410*
X11280106Y4541901D03*
Y4601901D03*
G54D411*
X11104166Y4575061D03*
X11413339Y9510289D03*
X11353339D03*
G54D410*
X9464489Y9441439D03*
Y9501439D03*
X9464479Y9553439D03*
G54D411*
X10969839Y9696919D03*
X10791249Y9657529D03*
X10909839Y9696919D03*
X10851249Y9657529D03*
X10555789Y9676109D03*
X10615789D03*
G54D410*
X9464479Y9613439D03*
X10555169Y9859289D03*
Y9919289D03*
G54D412*
X10419680Y4333091D03*
Y4258311D03*
X10309938Y4295691D03*
X10746196Y4479621D03*
X10832806Y4518991D03*
G54D413*
X10959816Y4668791D03*
X10999186Y4582171D03*
G54D412*
X10746196Y4558361D03*
G54D413*
X10920421Y4582171D03*
X10611026Y4639461D03*
X10571656Y4552851D03*
X10650396D03*
G54D412*
X10568479Y9499289D03*
X10655089Y9459919D03*
Y9538659D03*
G54D413*
X10461849Y9675869D03*
X10501219Y9589259D03*
X10422479D03*
X9442719Y9798739D03*
X9403349Y9885349D03*
X9482089D03*
G54D422*
X9613433Y4495924D03*
G54D425*
X9535389Y4519544D03*
G54D428*
X10176756Y4664491D03*
G54D244*
X7681070Y8575508D03*
Y8535508D03*
G54D245*
X7722130Y8576538D03*
X7722060Y8534508D03*
X7762130Y8576538D03*
X7485590Y8565208D03*
X7525590D03*
G54D244*
X7601900Y8575378D03*
X7640950Y8535488D03*
X6700430Y8559158D03*
Y8519158D03*
G54D245*
X6741640Y8600268D03*
G54D244*
X6740620Y8559188D03*
Y8519188D03*
G54D245*
X6781640Y8600268D03*
G54D244*
X6782620Y8519188D03*
G54D245*
X8298230Y8865508D03*
X8338230D03*
G54D244*
X8379330Y8872478D03*
G54D245*
X8013320Y8839098D03*
X8013330Y8798868D03*
X8053320Y8839098D03*
X8053330Y8798868D03*
G54D244*
X7784960Y8752878D03*
Y8712878D03*
G54D245*
X7825960Y8711928D03*
X7865960D03*
G54D244*
X7169740Y8789208D03*
X6654630Y8850408D03*
Y8810408D03*
G54D245*
X6741640Y8680268D03*
Y8640268D03*
X6781640Y8680268D03*
Y8640268D03*
G54D244*
X8379330Y8912478D03*
G54D245*
X7675220Y9000358D03*
G54D244*
X7674160Y8959378D03*
Y8919378D03*
G54D245*
X7715220Y9000358D03*
G54D244*
X7716170Y8959308D03*
Y8919308D03*
G54D245*
X7831050Y8937868D03*
G54D244*
X7864570Y9138848D03*
Y9098848D03*
X7864580Y9056848D03*
Y9016848D03*
G54D245*
X7871050Y8937868D03*
G54D244*
X7112870Y9041458D03*
Y9001458D03*
X7154950Y9041458D03*
Y9001458D03*
G54D245*
X7284650Y9056018D03*
X7324650D03*
G54D244*
X6905500Y9131848D03*
Y9091848D03*
X6947500Y9131848D03*
Y9091848D03*
X6944380Y8937348D03*
X6984380Y8897348D03*
G54D245*
X6988490Y9090848D03*
X7028490D03*
G54D244*
X7024380Y8937348D03*
Y8897348D03*
X6604500Y9052848D03*
X6682980Y9052258D03*
Y9012258D03*
X6682970Y8970288D03*
Y8930288D03*
X6722980Y9052258D03*
Y9012258D03*
X6722990Y8970278D03*
Y8930278D03*
X6604500Y9012848D03*
G54D246*
X6703600Y8850458D03*
Y8748098D03*
X6778400Y8850458D03*
Y8748098D03*
X6741000Y8850458D03*
G54D244*
X7640950Y8575488D03*
X6782620Y8559188D03*
X6944380Y8897348D03*
X7169740Y8749208D03*
X6984380Y8937348D03*
G54D250*
X7151740Y8956998D03*
X7073000D03*
Y8895978D03*
G54D251*
X7151620Y8895885D03*
G54D244*
X7601900Y8535378D03*
G54D259*
X7762060Y8534508D03*
G54D265*
X8516950Y8789428D03*
X8753170D03*
X8516950Y8935079D03*
X8753170D03*
G54D244*
X8595737Y3517960D03*
Y3477960D03*
X8555727Y3517960D03*
Y3477960D03*
X8515697Y3517960D03*
Y3477960D03*
X8475707Y3517960D03*
Y3477960D03*
X8435697D03*
X8395687Y3517960D03*
Y3477960D03*
X8101127Y3503980D03*
Y3463980D03*
X7874707Y3505000D03*
X7627727Y3470200D03*
G54D245*
X8791297Y3716400D03*
X8751297D03*
X8679257Y3708500D03*
X8679227Y3668490D03*
X8639257Y3708500D03*
X8679217Y3580500D03*
X8282507Y3731520D03*
G54D244*
X8283537Y3690630D03*
Y3650630D03*
G54D245*
X8242507Y3731520D03*
X8096137Y3818720D03*
X8142137Y3585000D03*
Y3545000D03*
X8102137Y3585000D03*
Y3545000D03*
X8056137Y3818720D03*
G54D244*
X8055267Y3770900D03*
Y3730900D03*
X8061137Y3584040D03*
Y3544040D03*
X8021077Y3584090D03*
X7981007Y3544120D03*
X7891227Y3817590D03*
Y3777590D03*
X7851197Y3817560D03*
Y3777560D03*
X7874707Y3545000D03*
X7743567Y3787190D03*
X7688417Y3693290D03*
Y3653290D03*
X7743577Y3909100D03*
Y3869100D03*
X7743567Y3827190D03*
X7691067Y4050260D03*
Y4010260D03*
G54D246*
X7690587Y3940190D03*
Y3837830D03*
X7653187Y3940190D03*
Y3837830D03*
X7615787Y3940190D03*
Y3837830D03*
G54D244*
X7981007Y3584120D03*
G54D259*
X8639227Y3668490D03*
G54D270*
X6667487Y3513110D03*
Y3463110D03*
X7216067Y3804740D03*
X6667487Y3613110D03*
Y3563110D03*
X7216067Y3954740D03*
Y3904740D03*
Y3854740D03*
G54D271*
X6825087Y3884510D03*
X6775087D03*
X6725087D03*
X6675087D03*
G54D244*
X8435697Y3517960D03*
G54D245*
X8639217Y3580500D03*
G54D244*
X8021077Y3544090D03*
G54D270*
X6880294Y3513110D03*
Y3463110D03*
Y3613110D03*
Y3563110D03*
X7216067Y3854740D03*
Y3804740D03*
Y3954740D03*
Y3904740D03*
X7428874Y3854740D03*
Y3804740D03*
Y3954740D03*
Y3904740D03*
G54D289*
X6725087Y3884510D03*
X6675087D03*
X6825087D03*
X6775087D03*
X6725087Y3671703D03*
X6675087D03*
X6825087D03*
X6775087D03*
G54D310*
X7526299Y8629199D03*
G54D311*
X7586790Y8689668D03*
G54D310*
X7308701Y8629156D03*
G54D311*
X7248210Y8689668D03*
X7586790Y8907267D03*
G54D310*
X7526299Y8967779D03*
X7308701Y8967736D03*
G54D313*
X7586790Y8709885D03*
Y8729570D03*
G54D312*
X7506083Y8629178D03*
X7387973D03*
X7368287Y8629177D03*
X7348603Y8629178D03*
X7328917Y8629177D03*
X7486397D03*
X7466713Y8629178D03*
X7447027Y8629177D03*
X7427343Y8629178D03*
X7407657Y8629177D03*
G54D313*
X7248210Y8709885D03*
Y8729570D03*
X7586790Y8867365D03*
Y8887050D03*
Y8749255D03*
Y8768940D03*
Y8788625D03*
Y8808310D03*
Y8827995D03*
Y8847680D03*
X7248210Y8867365D03*
Y8887050D03*
Y8749255D03*
Y8768940D03*
Y8788625D03*
Y8808310D03*
Y8827995D03*
Y8847680D03*
G54D312*
X7506083Y8967758D03*
X7387973D03*
X7368287Y8967757D03*
X7348603Y8967758D03*
X7328917Y8967757D03*
X7486397D03*
X7466713Y8967758D03*
X7447027Y8967757D03*
X7427343Y8967758D03*
X7407657Y8967757D03*
G54D314*
X7248210Y8907315D03*
G54D316*
X7812010Y9070268D03*
Y9154908D03*
X7786420Y9070268D03*
Y9154908D03*
X7760830D03*
G54D318*
Y9070268D03*
G54D330*
X8514044Y3618330D03*
X8496330D03*
X8478615D03*
G54D332*
X8532392D03*
G54D328*
X8478615Y3702970D03*
X8496330D03*
X8514045D03*
G54D334*
X8532392D03*
G54D336*
X8458342D03*
G54D338*
Y3618330D03*
G54D340*
X8564247Y3692142D03*
Y3674427D03*
Y3656712D03*
Y3638997D03*
G54D342*
Y3710492D03*
Y3620647D03*
G54D345*
X8231500Y8965848D03*
Y9015848D03*
Y9065848D03*
Y9115848D03*
X8011500Y8965848D03*
Y9015848D03*
Y9065848D03*
Y9115848D03*
G54D306*
X6808209Y3502699D03*
X6747186D03*
X6808209Y3573565D03*
X6747186D03*
G54D307*
X6785542Y3743788D03*
X6714676D03*
G54D306*
X7356789Y3915195D03*
X7295766D03*
X7356789Y3844329D03*
X7295766D03*
G54D307*
X6785542Y3804811D03*
X6714676D03*
G54D266*
X7743407Y3740200D03*
X7660727D03*
G54D261*
X7918040Y8938938D03*
Y9021618D03*
G54D275*
X8581027Y4011490D03*
X8413707D03*
G54D410*
X7830798Y3480150D03*
Y3540150D03*
X7513657Y3463450D03*
Y3523450D03*
G54D411*
X8704187Y3624460D03*
X8726327Y3672390D03*
X8786327D03*
X8644187Y3624460D03*
X8329317Y3649994D03*
X8389317Y3649950D03*
G54D410*
X8690057Y3877720D03*
Y3937720D03*
G54D411*
X8526327Y3787620D03*
G54D410*
X8642267Y3754460D03*
Y3814460D03*
G54D411*
X8466327Y3787620D03*
X8775500Y8722848D03*
X8715500D03*
G54D410*
X6826650Y8653998D03*
Y8713998D03*
X6826640Y8765998D03*
G54D411*
X8332000Y8909478D03*
X8153410Y8870088D03*
X8272000Y8909478D03*
X8213410Y8870088D03*
X7917950Y8888668D03*
X7977950D03*
G54D410*
X6826640Y8825998D03*
X7917330Y9071848D03*
Y9131848D03*
G54D412*
X7781841Y3545650D03*
Y3470870D03*
X7672099Y3508250D03*
X8108357Y3692180D03*
X8194967Y3731550D03*
G54D413*
X8321977Y3881350D03*
X8361347Y3794730D03*
G54D412*
X8108357Y3770920D03*
G54D413*
X8282582Y3794730D03*
X7973187Y3852020D03*
X7933817Y3765410D03*
X8012557D03*
G54D412*
X7930640Y8711848D03*
X8017250Y8672478D03*
Y8751218D03*
G54D413*
X7824010Y8888428D03*
X7863380Y8801818D03*
X7784640D03*
X6804880Y9011298D03*
X6765510Y9097908D03*
X6844250D03*
G54D422*
X6975594Y3708482D03*
G54D425*
X6897550Y3732102D03*
G54D428*
X7538917Y3877050D03*
G54D244*
X10318909Y8575508D03*
Y8535508D03*
G54D245*
X10359969Y8576538D03*
X10359899Y8534508D03*
X10399969Y8576538D03*
X10123429Y8565208D03*
X10163429D03*
G54D244*
X10239739Y8575378D03*
X10278789Y8535488D03*
X9338269Y8559158D03*
Y8519158D03*
G54D245*
X9379479Y8600268D03*
G54D244*
X9378459Y8559188D03*
Y8519188D03*
G54D245*
X9419479Y8600268D03*
G54D244*
X9420459Y8519188D03*
G54D245*
X10936069Y8865508D03*
X10976069D03*
G54D244*
X11017169Y8872478D03*
G54D245*
X10651159Y8839098D03*
X10651169Y8798868D03*
X10691159Y8839098D03*
X10691169Y8798868D03*
G54D244*
X10422799Y8752878D03*
Y8712878D03*
G54D245*
X10463799Y8711928D03*
X10503799D03*
G54D244*
X9807579Y8789208D03*
X9292469Y8850408D03*
Y8810408D03*
G54D245*
X9379479Y8680268D03*
Y8640268D03*
X9419479Y8680268D03*
Y8640268D03*
G54D244*
X11017169Y8912478D03*
G54D245*
X10313059Y9000358D03*
G54D244*
X10311999Y8959378D03*
Y8919378D03*
G54D245*
X10353059Y9000358D03*
G54D244*
X10354009Y8959308D03*
Y8919308D03*
G54D245*
X10468889Y8937868D03*
G54D244*
X10502409Y9138848D03*
Y9098848D03*
X10502419Y9056848D03*
Y9016848D03*
G54D245*
X10508889Y8937868D03*
G54D244*
X9750709Y9041458D03*
Y9001458D03*
X9792789Y9041458D03*
Y9001458D03*
G54D245*
X9922489Y9056018D03*
X9962489D03*
G54D244*
X9543339Y9131848D03*
Y9091848D03*
X9585339Y9131848D03*
Y9091848D03*
X9582219Y8937348D03*
X9622219Y8897348D03*
G54D245*
X9626329Y9090848D03*
X9666329D03*
G54D244*
X9662219Y8937348D03*
Y8897348D03*
X9242339Y9052848D03*
X9320819Y9052258D03*
Y9012258D03*
X9320809Y8970288D03*
Y8930288D03*
X9360819Y9052258D03*
Y9012258D03*
X9360829Y8970278D03*
Y8930278D03*
X9242339Y9012848D03*
G54D246*
X9341439Y8850458D03*
Y8748098D03*
X9416239Y8850458D03*
Y8748098D03*
X9378839Y8850458D03*
G54D244*
X10278789Y8575488D03*
X9420459Y8559188D03*
X9582219Y8897348D03*
X9807579Y8749208D03*
X9622219Y8937348D03*
G54D250*
X9789579Y8956998D03*
X9710839D03*
Y8895978D03*
G54D251*
X9789459Y8895885D03*
G54D244*
X10239739Y8535378D03*
G54D259*
X10399899Y8534508D03*
G54D265*
X11154789Y8789428D03*
X11391009D03*
X11154789Y8935079D03*
X11391009D03*
G54D244*
X11233576Y3517960D03*
Y3477960D03*
X11193566Y3517960D03*
Y3477960D03*
X11153536Y3517960D03*
Y3477960D03*
X11113546Y3517960D03*
Y3477960D03*
X11073536D03*
X11033526Y3517960D03*
Y3477960D03*
X10738966Y3503980D03*
Y3463980D03*
X10512546Y3505000D03*
X10265566Y3470200D03*
G54D245*
X11429136Y3716400D03*
X11389136D03*
X11317096Y3708500D03*
X11317066Y3668490D03*
X11277096Y3708500D03*
X11317056Y3580500D03*
X10920346Y3731520D03*
G54D244*
X10921376Y3690630D03*
Y3650630D03*
G54D245*
X10880346Y3731520D03*
X10733976Y3818720D03*
X10779976Y3585000D03*
Y3545000D03*
X10739976Y3585000D03*
Y3545000D03*
X10693976Y3818720D03*
G54D244*
X10693106Y3770900D03*
Y3730900D03*
X10698976Y3584040D03*
Y3544040D03*
X10658916Y3584090D03*
X10618846Y3544120D03*
X10529066Y3817590D03*
Y3777590D03*
X10489036Y3817560D03*
Y3777560D03*
X10512546Y3545000D03*
X10381406Y3787190D03*
X10326256Y3693290D03*
Y3653290D03*
X10381416Y3909100D03*
Y3869100D03*
X10381406Y3827190D03*
X10328906Y4050260D03*
Y4010260D03*
G54D246*
X10328426Y3940190D03*
Y3837830D03*
X10291026Y3940190D03*
Y3837830D03*
X10253626Y3940190D03*
Y3837830D03*
G54D244*
X10618846Y3584120D03*
G54D259*
X11277066Y3668490D03*
G54D270*
X9305326Y3513110D03*
Y3463110D03*
X9853906Y3804740D03*
X9305326Y3613110D03*
Y3563110D03*
X9853906Y3954740D03*
Y3904740D03*
Y3854740D03*
G54D271*
X9462926Y3884510D03*
X9412926D03*
X9362926D03*
X9312926D03*
G54D244*
X11073536Y3517960D03*
G54D245*
X11277056Y3580500D03*
G54D244*
X10658916Y3544090D03*
G54D270*
X9518133Y3513110D03*
Y3463110D03*
Y3613110D03*
Y3563110D03*
X9853906Y3854740D03*
Y3804740D03*
Y3954740D03*
Y3904740D03*
X10066713Y3854740D03*
Y3804740D03*
Y3954740D03*
Y3904740D03*
G54D289*
X9362926Y3884510D03*
X9312926D03*
X9462926D03*
X9412926D03*
X9362926Y3671703D03*
X9312926D03*
X9462926D03*
X9412926D03*
G54D310*
X10164138Y8629199D03*
G54D311*
X10224629Y8689668D03*
G54D310*
X9946540Y8629156D03*
G54D311*
X9886049Y8689668D03*
X10224629Y8907267D03*
G54D310*
X10164138Y8967779D03*
X9946540Y8967736D03*
G54D313*
X10224629Y8709885D03*
Y8729570D03*
G54D312*
X10143921Y8629178D03*
X10025811D03*
X10006126Y8629177D03*
X9986441Y8629178D03*
X9966756Y8629177D03*
X10124236D03*
X10104551Y8629178D03*
X10084866Y8629177D03*
X10065181Y8629178D03*
X10045496Y8629177D03*
G54D313*
X9886049Y8709885D03*
Y8729570D03*
X10224629Y8867365D03*
Y8887050D03*
Y8749255D03*
Y8768940D03*
Y8788625D03*
Y8808310D03*
Y8827995D03*
Y8847680D03*
X9886049Y8867365D03*
Y8887050D03*
Y8749255D03*
Y8768940D03*
Y8788625D03*
Y8808310D03*
Y8827995D03*
Y8847680D03*
G54D312*
X10143921Y8967758D03*
X10025811D03*
X10006126Y8967757D03*
X9986441Y8967758D03*
X9966756Y8967757D03*
X10124236D03*
X10104551Y8967758D03*
X10084866Y8967757D03*
X10065181Y8967758D03*
X10045496Y8967757D03*
G54D314*
X9886049Y8907315D03*
G54D316*
X10449849Y9070268D03*
Y9154908D03*
X10424259Y9070268D03*
Y9154908D03*
X10398669D03*
G54D318*
Y9070268D03*
G54D330*
X11151883Y3618330D03*
X11134169D03*
X11116454D03*
G54D332*
X11170231D03*
G54D328*
X11116454Y3702970D03*
X11134169D03*
X11151884D03*
G54D334*
X11170231D03*
G54D336*
X11096181D03*
G54D338*
Y3618330D03*
G54D340*
X11202086Y3692142D03*
Y3674427D03*
Y3656712D03*
Y3638997D03*
G54D342*
Y3710492D03*
Y3620647D03*
G54D345*
X10869339Y8965848D03*
Y9015848D03*
Y9065848D03*
Y9115848D03*
X10649339Y8965848D03*
Y9015848D03*
Y9065848D03*
Y9115848D03*
G54D306*
X9446048Y3502699D03*
X9385025D03*
X9446048Y3573565D03*
X9385025D03*
G54D307*
X9423381Y3743788D03*
X9352515D03*
G54D306*
X9994628Y3915195D03*
X9933605D03*
X9994628Y3844329D03*
X9933605D03*
G54D307*
X9423381Y3804811D03*
X9352515D03*
G54D266*
X10381246Y3740200D03*
X10298566D03*
G54D261*
X10555879Y8938938D03*
Y9021618D03*
G54D275*
X11218866Y4011490D03*
X11051546D03*
G54D410*
X10468637Y3480150D03*
Y3540150D03*
X10151496Y3463450D03*
Y3523450D03*
G54D411*
X11342026Y3624460D03*
X11364166Y3672390D03*
X11424166D03*
X11282026Y3624460D03*
X10967156Y3649994D03*
X11027156Y3649950D03*
G54D410*
X11327896Y3877720D03*
Y3937720D03*
G54D411*
X11164166Y3787620D03*
G54D410*
X11280106Y3754460D03*
Y3814460D03*
G54D411*
X11104166Y3787620D03*
X11413339Y8722848D03*
X11353339D03*
G54D410*
X9464489Y8653998D03*
Y8713998D03*
X9464479Y8765998D03*
G54D411*
X10969839Y8909478D03*
X10791249Y8870088D03*
X10909839Y8909478D03*
X10851249Y8870088D03*
X10555789Y8888668D03*
X10615789D03*
G54D410*
X9464479Y8825998D03*
X10555169Y9071848D03*
Y9131848D03*
G54D412*
X10419680Y3545650D03*
Y3470870D03*
X10309938Y3508250D03*
X10746196Y3692180D03*
X10832806Y3731550D03*
G54D413*
X10959816Y3881350D03*
X10999186Y3794730D03*
G54D412*
X10746196Y3770920D03*
G54D413*
X10920421Y3794730D03*
X10611026Y3852020D03*
X10571656Y3765410D03*
X10650396D03*
G54D412*
X10568479Y8711848D03*
X10655089Y8672478D03*
Y8751218D03*
G54D413*
X10461849Y8888428D03*
X10501219Y8801818D03*
X10422479D03*
X9442719Y9011298D03*
X9403349Y9097908D03*
X9482089D03*
G54D422*
X9613433Y3708482D03*
G54D425*
X9535389Y3732102D03*
G54D428*
X10176756Y3877050D03*
G54D244*
X7681070Y7788066D03*
Y7748066D03*
G54D245*
X7722130Y7789096D03*
X7722060Y7747066D03*
X7762130Y7789096D03*
X7485590Y7777766D03*
X7525590D03*
G54D244*
X7601900Y7787936D03*
X7640950Y7748046D03*
X6700430Y7771716D03*
Y7731716D03*
G54D245*
X6741640Y7812826D03*
G54D244*
X6740620Y7771746D03*
Y7731746D03*
G54D245*
X6781640Y7812826D03*
G54D244*
X6782620Y7731746D03*
G54D245*
X8298230Y8078066D03*
X8338230D03*
G54D244*
X8379330Y8085036D03*
G54D245*
X8013320Y8051656D03*
X8013330Y8011426D03*
X8053320Y8051656D03*
X8053330Y8011426D03*
G54D244*
X7784960Y7965436D03*
Y7925436D03*
G54D245*
X7825960Y7924486D03*
X7865960D03*
G54D244*
X7169740Y8001766D03*
X6654630Y8062966D03*
Y8022966D03*
G54D245*
X6741640Y7892826D03*
Y7852826D03*
X6781640Y7892826D03*
Y7852826D03*
G54D244*
X8379330Y8125036D03*
G54D245*
X7675220Y8212916D03*
G54D244*
X7674160Y8171936D03*
Y8131936D03*
G54D245*
X7715220Y8212916D03*
G54D244*
X7716170Y8171866D03*
Y8131866D03*
G54D245*
X7831050Y8150426D03*
G54D244*
X7864570Y8351406D03*
Y8311406D03*
X7864580Y8269406D03*
Y8229406D03*
G54D245*
X7871050Y8150426D03*
G54D244*
X7112870Y8254016D03*
Y8214016D03*
X7154950Y8254016D03*
Y8214016D03*
G54D245*
X7284650Y8268576D03*
X7324650D03*
G54D244*
X6905500Y8344406D03*
Y8304406D03*
X6947500Y8344406D03*
Y8304406D03*
X6944380Y8149906D03*
X6984380Y8109906D03*
G54D245*
X6988490Y8303406D03*
X7028490D03*
G54D244*
X7024380Y8149906D03*
Y8109906D03*
X6604500Y8265406D03*
X6682980Y8264816D03*
Y8224816D03*
X6682970Y8182846D03*
Y8142846D03*
X6722980Y8264816D03*
Y8224816D03*
X6722990Y8182836D03*
Y8142836D03*
X6604500Y8225406D03*
G54D246*
X6703600Y8063016D03*
Y7960656D03*
X6778400Y8063016D03*
Y7960656D03*
X6741000Y8063016D03*
G54D244*
X7640950Y7788046D03*
X6782620Y7771746D03*
X6944380Y8109906D03*
X7169740Y7961766D03*
X6984380Y8149906D03*
G54D250*
X7151740Y8169556D03*
X7073000D03*
Y8108536D03*
G54D251*
X7151620Y8108443D03*
G54D244*
X7601900Y7747936D03*
G54D259*
X7762060Y7747066D03*
G54D265*
X8516950Y8001986D03*
X8753170D03*
X8516950Y8147637D03*
X8753170D03*
G54D244*
X8595737Y2730518D03*
Y2690518D03*
X8555727Y2730518D03*
Y2690518D03*
X8515697Y2730518D03*
Y2690518D03*
X8475707Y2730518D03*
Y2690518D03*
X8435697D03*
X8395687Y2730518D03*
Y2690518D03*
X8101127Y2716538D03*
Y2676538D03*
X7874707Y2717558D03*
X7627727Y2682758D03*
G54D245*
X8791297Y2928958D03*
X8751297D03*
X8679257Y2921058D03*
X8679227Y2881048D03*
X8639257Y2921058D03*
X8679217Y2793058D03*
X8282507Y2944078D03*
G54D244*
X8283537Y2903188D03*
Y2863188D03*
G54D245*
X8242507Y2944078D03*
X8096137Y3031278D03*
X8142137Y2797558D03*
Y2757558D03*
X8102137Y2797558D03*
Y2757558D03*
X8056137Y3031278D03*
G54D244*
X8055267Y2983458D03*
Y2943458D03*
X8061137Y2796598D03*
Y2756598D03*
X8021077Y2796648D03*
X7981007Y2756678D03*
X7891227Y3030148D03*
Y2990148D03*
X7851197Y3030118D03*
Y2990118D03*
X7874707Y2757558D03*
X7743567Y2999748D03*
X7688417Y2905848D03*
Y2865848D03*
X7743577Y3121658D03*
Y3081658D03*
X7743567Y3039748D03*
X7691067Y3262818D03*
Y3222818D03*
G54D246*
X7690587Y3152748D03*
Y3050388D03*
X7653187Y3152748D03*
Y3050388D03*
X7615787Y3152748D03*
Y3050388D03*
G54D244*
X7981007Y2796678D03*
G54D259*
X8639227Y2881048D03*
G54D270*
X6667487Y2725668D03*
Y2675668D03*
X7216067Y3017298D03*
X6667487Y2825668D03*
Y2775668D03*
X7216067Y3167298D03*
Y3117298D03*
Y3067298D03*
G54D271*
X6825087Y3097068D03*
X6775087D03*
X6725087D03*
X6675087D03*
G54D244*
X8435697Y2730518D03*
G54D245*
X8639217Y2793058D03*
G54D244*
X8021077Y2756648D03*
G54D270*
X6880294Y2725668D03*
Y2675668D03*
Y2825668D03*
Y2775668D03*
X7216067Y3067298D03*
Y3017298D03*
Y3167298D03*
Y3117298D03*
X7428874Y3067298D03*
Y3017298D03*
Y3167298D03*
Y3117298D03*
G54D289*
X6725087Y3097068D03*
X6675087D03*
X6825087D03*
X6775087D03*
X6725087Y2884261D03*
X6675087D03*
X6825087D03*
X6775087D03*
G54D310*
X7526299Y7841758D03*
G54D311*
X7586790Y7902227D03*
G54D310*
X7308701Y7841714D03*
G54D311*
X7248210Y7902227D03*
X7586790Y8119825D03*
G54D310*
X7526299Y8180338D03*
X7308701Y8180294D03*
G54D313*
X7586790Y7922443D03*
Y7942129D03*
G54D312*
X7506083Y7841737D03*
X7387973D03*
X7368287Y7841735D03*
X7348603Y7841737D03*
X7328917Y7841735D03*
X7486397D03*
X7466713Y7841737D03*
X7447027Y7841735D03*
X7427343Y7841737D03*
X7407657Y7841735D03*
G54D313*
X7248210Y7922443D03*
Y7942129D03*
X7586790Y8079923D03*
Y8099609D03*
Y7961813D03*
Y7981499D03*
Y8001183D03*
Y8020869D03*
Y8040553D03*
Y8060239D03*
X7248210Y8079923D03*
Y8099609D03*
Y7961813D03*
Y7981499D03*
Y8001183D03*
Y8020869D03*
Y8040553D03*
Y8060239D03*
G54D312*
X7506083Y8180317D03*
X7387973D03*
X7368287Y8180315D03*
X7348603Y8180317D03*
X7328917Y8180315D03*
X7486397D03*
X7466713Y8180317D03*
X7447027Y8180315D03*
X7427343Y8180317D03*
X7407657Y8180315D03*
G54D314*
X7248210Y8119873D03*
G54D316*
X7812010Y8282826D03*
Y8367466D03*
X7786420Y8282826D03*
Y8367466D03*
X7760830D03*
G54D318*
Y8282826D03*
G54D330*
X8514044Y2830888D03*
X8496330D03*
X8478615D03*
G54D332*
X8532392D03*
G54D328*
X8478615Y2915528D03*
X8496330D03*
X8514045D03*
G54D334*
X8532392D03*
G54D336*
X8458342D03*
G54D338*
Y2830888D03*
G54D340*
X8564247Y2904701D03*
Y2886986D03*
Y2869271D03*
Y2851556D03*
G54D342*
Y2923051D03*
Y2833206D03*
G54D345*
X8231500Y8178406D03*
Y8228406D03*
Y8278406D03*
Y8328406D03*
X8011500Y8178406D03*
Y8228406D03*
Y8278406D03*
Y8328406D03*
G54D306*
X6808209Y2715257D03*
X6747186D03*
X6808209Y2786123D03*
X6747186D03*
G54D307*
X6785542Y2956346D03*
X6714676D03*
G54D306*
X7356789Y3127753D03*
X7295766D03*
X7356789Y3056887D03*
X7295766D03*
G54D307*
X6785542Y3017370D03*
X6714676D03*
G54D266*
X7743407Y2952758D03*
X7660727D03*
G54D261*
X7918040Y8151496D03*
Y8234176D03*
G54D275*
X8581027Y3224048D03*
X8413707D03*
G54D410*
X7830798Y2692708D03*
Y2752708D03*
X7513657Y2676008D03*
Y2736008D03*
G54D411*
X8704187Y2837018D03*
X8726327Y2884948D03*
X8786327D03*
X8644187Y2837018D03*
X8329317Y2862552D03*
X8389317Y2862508D03*
G54D410*
X8690057Y3090278D03*
Y3150278D03*
G54D411*
X8526327Y3000178D03*
G54D410*
X8642267Y2967018D03*
Y3027018D03*
G54D411*
X8466327Y3000178D03*
X8775500Y7935406D03*
X8715500D03*
G54D410*
X6826650Y7866556D03*
Y7926556D03*
X6826640Y7978556D03*
G54D411*
X8332000Y8122036D03*
X8153410Y8082646D03*
X8272000Y8122036D03*
X8213410Y8082646D03*
X7917950Y8101226D03*
X7977950D03*
G54D410*
X6826640Y8038556D03*
X7917330Y8284406D03*
Y8344406D03*
G54D412*
X7781841Y2758208D03*
Y2683428D03*
X7672099Y2720808D03*
X8108357Y2904738D03*
X8194967Y2944108D03*
G54D413*
X8321977Y3093908D03*
X8361347Y3007288D03*
G54D412*
X8108357Y2983478D03*
G54D413*
X8282582Y3007288D03*
X7973187Y3064578D03*
X7933817Y2977968D03*
X8012557D03*
G54D412*
X7930640Y7924406D03*
X8017250Y7885036D03*
Y7963776D03*
G54D413*
X7824010Y8100986D03*
X7863380Y8014376D03*
X7784640D03*
X6804880Y8223856D03*
X6765510Y8310466D03*
X6844250D03*
G54D422*
X6975594Y2921041D03*
G54D425*
X6897550Y2944661D03*
G54D428*
X7538917Y3089608D03*
G54D244*
X10318909Y7788066D03*
Y7748066D03*
G54D245*
X10359969Y7789096D03*
X10359899Y7747066D03*
X10399969Y7789096D03*
X10123429Y7777766D03*
X10163429D03*
G54D244*
X10239739Y7787936D03*
X10278789Y7748046D03*
X9338269Y7771716D03*
Y7731716D03*
G54D245*
X9379479Y7812826D03*
G54D244*
X9378459Y7771746D03*
Y7731746D03*
G54D245*
X9419479Y7812826D03*
G54D244*
X9420459Y7731746D03*
G54D245*
X10936069Y8078066D03*
X10976069D03*
G54D244*
X11017169Y8085036D03*
G54D245*
X10651159Y8051656D03*
X10651169Y8011426D03*
X10691159Y8051656D03*
X10691169Y8011426D03*
G54D244*
X10422799Y7965436D03*
Y7925436D03*
G54D245*
X10463799Y7924486D03*
X10503799D03*
G54D244*
X9807579Y8001766D03*
X9292469Y8062966D03*
Y8022966D03*
G54D245*
X9379479Y7892826D03*
Y7852826D03*
X9419479Y7892826D03*
Y7852826D03*
G54D244*
X11017169Y8125036D03*
G54D245*
X10313059Y8212916D03*
G54D244*
X10311999Y8171936D03*
Y8131936D03*
G54D245*
X10353059Y8212916D03*
G54D244*
X10354009Y8171866D03*
Y8131866D03*
G54D245*
X10468889Y8150426D03*
G54D244*
X10502409Y8351406D03*
Y8311406D03*
X10502419Y8269406D03*
Y8229406D03*
G54D245*
X10508889Y8150426D03*
G54D244*
X9750709Y8254016D03*
Y8214016D03*
X9792789Y8254016D03*
Y8214016D03*
G54D245*
X9922489Y8268576D03*
X9962489D03*
G54D244*
X9543339Y8344406D03*
Y8304406D03*
X9585339Y8344406D03*
Y8304406D03*
X9582219Y8149906D03*
X9622219Y8109906D03*
G54D245*
X9626329Y8303406D03*
X9666329D03*
G54D244*
X9662219Y8149906D03*
Y8109906D03*
X9242339Y8265406D03*
X9320819Y8264816D03*
Y8224816D03*
X9320809Y8182846D03*
Y8142846D03*
X9360819Y8264816D03*
Y8224816D03*
X9360829Y8182836D03*
Y8142836D03*
X9242339Y8225406D03*
G54D246*
X9341439Y8063016D03*
Y7960656D03*
X9416239Y8063016D03*
Y7960656D03*
X9378839Y8063016D03*
G54D244*
X10278789Y7788046D03*
X9420459Y7771746D03*
X9582219Y8109906D03*
X9807579Y7961766D03*
X9622219Y8149906D03*
G54D250*
X9789579Y8169556D03*
X9710839D03*
Y8108536D03*
G54D251*
X9789459Y8108443D03*
G54D244*
X10239739Y7747936D03*
G54D259*
X10399899Y7747066D03*
G54D265*
X11154789Y8001986D03*
X11391009D03*
X11154789Y8147637D03*
X11391009D03*
G54D244*
X11233576Y2730518D03*
Y2690518D03*
X11193566Y2730518D03*
Y2690518D03*
X11153536Y2730518D03*
Y2690518D03*
X11113546Y2730518D03*
Y2690518D03*
X11073536D03*
X11033526Y2730518D03*
Y2690518D03*
X10738966Y2716538D03*
Y2676538D03*
X10512546Y2717558D03*
X10265566Y2682758D03*
G54D245*
X11429136Y2928958D03*
X11389136D03*
X11317096Y2921058D03*
X11317066Y2881048D03*
X11277096Y2921058D03*
X11317056Y2793058D03*
X10920346Y2944078D03*
G54D244*
X10921376Y2903188D03*
Y2863188D03*
G54D245*
X10880346Y2944078D03*
X10733976Y3031278D03*
X10779976Y2797558D03*
Y2757558D03*
X10739976Y2797558D03*
Y2757558D03*
X10693976Y3031278D03*
G54D244*
X10693106Y2983458D03*
Y2943458D03*
X10698976Y2796598D03*
Y2756598D03*
X10658916Y2796648D03*
X10618846Y2756678D03*
X10529066Y3030148D03*
Y2990148D03*
X10489036Y3030118D03*
Y2990118D03*
X10512546Y2757558D03*
X10381406Y2999748D03*
X10326256Y2905848D03*
Y2865848D03*
X10381416Y3121658D03*
Y3081658D03*
X10381406Y3039748D03*
X10328906Y3262818D03*
Y3222818D03*
G54D246*
X10328426Y3152748D03*
Y3050388D03*
X10291026Y3152748D03*
Y3050388D03*
X10253626Y3152748D03*
Y3050388D03*
G54D244*
X10618846Y2796678D03*
G54D259*
X11277066Y2881048D03*
G54D270*
X9305326Y2725668D03*
Y2675668D03*
X9853906Y3017298D03*
X9305326Y2825668D03*
Y2775668D03*
X9853906Y3167298D03*
Y3117298D03*
Y3067298D03*
G54D271*
X9462926Y3097068D03*
X9412926D03*
X9362926D03*
X9312926D03*
G54D244*
X11073536Y2730518D03*
G54D245*
X11277056Y2793058D03*
G54D244*
X10658916Y2756648D03*
G54D270*
X9518133Y2725668D03*
Y2675668D03*
Y2825668D03*
Y2775668D03*
X9853906Y3067298D03*
Y3017298D03*
Y3167298D03*
Y3117298D03*
X10066713Y3067298D03*
Y3017298D03*
Y3167298D03*
Y3117298D03*
G54D289*
X9362926Y3097068D03*
X9312926D03*
X9462926D03*
X9412926D03*
X9362926Y2884261D03*
X9312926D03*
X9462926D03*
X9412926D03*
G54D310*
X10164138Y7841758D03*
G54D311*
X10224629Y7902227D03*
G54D310*
X9946540Y7841714D03*
G54D311*
X9886049Y7902227D03*
X10224629Y8119825D03*
G54D310*
X10164138Y8180338D03*
X9946540Y8180294D03*
G54D313*
X10224629Y7922443D03*
Y7942129D03*
G54D312*
X10143921Y7841737D03*
X10025811D03*
X10006126Y7841735D03*
X9986441Y7841737D03*
X9966756Y7841735D03*
X10124236D03*
X10104551Y7841737D03*
X10084866Y7841735D03*
X10065181Y7841737D03*
X10045496Y7841735D03*
G54D313*
X9886049Y7922443D03*
Y7942129D03*
X10224629Y8079923D03*
Y8099609D03*
Y7961813D03*
Y7981499D03*
Y8001183D03*
Y8020869D03*
Y8040553D03*
Y8060239D03*
X9886049Y8079923D03*
Y8099609D03*
Y7961813D03*
Y7981499D03*
Y8001183D03*
Y8020869D03*
Y8040553D03*
Y8060239D03*
G54D312*
X10143921Y8180317D03*
X10025811D03*
X10006126Y8180315D03*
X9986441Y8180317D03*
X9966756Y8180315D03*
X10124236D03*
X10104551Y8180317D03*
X10084866Y8180315D03*
X10065181Y8180317D03*
X10045496Y8180315D03*
G54D314*
X9886049Y8119873D03*
G54D316*
X10449849Y8282826D03*
Y8367466D03*
X10424259Y8282826D03*
Y8367466D03*
X10398669D03*
G54D318*
Y8282826D03*
G54D330*
X11151883Y2830888D03*
X11134169D03*
X11116454D03*
G54D332*
X11170231D03*
G54D328*
X11116454Y2915528D03*
X11134169D03*
X11151884D03*
G54D334*
X11170231D03*
G54D336*
X11096181D03*
G54D338*
Y2830888D03*
G54D340*
X11202086Y2904701D03*
Y2886986D03*
Y2869271D03*
Y2851556D03*
G54D342*
Y2923051D03*
Y2833206D03*
G54D345*
X10869339Y8178406D03*
Y8228406D03*
Y8278406D03*
Y8328406D03*
X10649339Y8178406D03*
Y8228406D03*
Y8278406D03*
Y8328406D03*
G54D306*
X9446048Y2715257D03*
X9385025D03*
X9446048Y2786123D03*
X9385025D03*
G54D307*
X9423381Y2956346D03*
X9352515D03*
G54D306*
X9994628Y3127753D03*
X9933605D03*
X9994628Y3056887D03*
X9933605D03*
G54D307*
X9423381Y3017370D03*
X9352515D03*
G54D266*
X10381246Y2952758D03*
X10298566D03*
G54D261*
X10555879Y8151496D03*
Y8234176D03*
G54D275*
X11218866Y3224048D03*
X11051546D03*
G54D410*
X10468637Y2692708D03*
Y2752708D03*
X10151496Y2676008D03*
Y2736008D03*
G54D411*
X11342026Y2837018D03*
X11364166Y2884948D03*
X11424166D03*
X11282026Y2837018D03*
X10967156Y2862552D03*
X11027156Y2862508D03*
G54D410*
X11327896Y3090278D03*
Y3150278D03*
G54D411*
X11164166Y3000178D03*
G54D410*
X11280106Y2967018D03*
Y3027018D03*
G54D411*
X11104166Y3000178D03*
X11413339Y7935406D03*
X11353339D03*
G54D410*
X9464489Y7866556D03*
Y7926556D03*
X9464479Y7978556D03*
G54D411*
X10969839Y8122036D03*
X10791249Y8082646D03*
X10909839Y8122036D03*
X10851249Y8082646D03*
X10555789Y8101226D03*
X10615789D03*
G54D410*
X9464479Y8038556D03*
X10555169Y8284406D03*
Y8344406D03*
G54D412*
X10419680Y2758208D03*
Y2683428D03*
X10309938Y2720808D03*
X10746196Y2904738D03*
X10832806Y2944108D03*
G54D413*
X10959816Y3093908D03*
X10999186Y3007288D03*
G54D412*
X10746196Y2983478D03*
G54D413*
X10920421Y3007288D03*
X10611026Y3064578D03*
X10571656Y2977968D03*
X10650396D03*
G54D412*
X10568479Y7924406D03*
X10655089Y7885036D03*
Y7963776D03*
G54D413*
X10461849Y8100986D03*
X10501219Y8014376D03*
X10422479D03*
X9442719Y8223856D03*
X9403349Y8310466D03*
X9482089D03*
G54D422*
X9613433Y2921041D03*
G54D425*
X9535389Y2944661D03*
G54D428*
X10176756Y3089608D03*
G54D244*
X7681070Y7000625D03*
Y6960625D03*
G54D245*
X7722130Y7001655D03*
X7722060Y6959625D03*
X7762130Y7001655D03*
X7485590Y6990325D03*
X7525590D03*
G54D244*
X7601900Y7000495D03*
X7640950Y6960605D03*
X6700430Y6984275D03*
Y6944275D03*
G54D245*
X6741640Y7025385D03*
G54D244*
X6740620Y6984305D03*
Y6944305D03*
G54D245*
X6781640Y7025385D03*
G54D244*
X6782620Y6944305D03*
G54D245*
X8298230Y7290625D03*
X8338230D03*
G54D244*
X8379330Y7297595D03*
G54D245*
X8013320Y7264215D03*
X8013330Y7223985D03*
X8053320Y7264215D03*
X8053330Y7223985D03*
G54D244*
X7784960Y7177995D03*
Y7137995D03*
G54D245*
X7825960Y7137045D03*
X7865960D03*
G54D244*
X7169740Y7214325D03*
X6654630Y7275525D03*
Y7235525D03*
G54D245*
X6741640Y7105385D03*
Y7065385D03*
X6781640Y7105385D03*
Y7065385D03*
G54D244*
X8379330Y7337595D03*
G54D245*
X7675220Y7425475D03*
G54D244*
X7674160Y7384495D03*
Y7344495D03*
G54D245*
X7715220Y7425475D03*
G54D244*
X7716170Y7384425D03*
Y7344425D03*
G54D245*
X7831050Y7362985D03*
G54D244*
X7864570Y7563965D03*
Y7523965D03*
X7864580Y7481965D03*
Y7441965D03*
G54D245*
X7871050Y7362985D03*
G54D244*
X7112870Y7466575D03*
Y7426575D03*
X7154950Y7466575D03*
Y7426575D03*
G54D245*
X7284650Y7481135D03*
X7324650D03*
G54D244*
X6905500Y7556965D03*
Y7516965D03*
X6947500Y7556965D03*
Y7516965D03*
X6944380Y7362465D03*
X6984380Y7322465D03*
G54D245*
X6988490Y7515965D03*
X7028490D03*
G54D244*
X7024380Y7362465D03*
Y7322465D03*
X6604500Y7477965D03*
X6682980Y7477375D03*
Y7437375D03*
X6682970Y7395405D03*
Y7355405D03*
X6722980Y7477375D03*
Y7437375D03*
X6722990Y7395395D03*
Y7355395D03*
X6604500Y7437965D03*
G54D246*
X6703600Y7275575D03*
Y7173215D03*
X6778400Y7275575D03*
Y7173215D03*
X6741000Y7275575D03*
G54D244*
X7640950Y7000605D03*
X6782620Y6984305D03*
X6944380Y7322465D03*
X7169740Y7174325D03*
X6984380Y7362465D03*
G54D250*
X7151740Y7382115D03*
X7073000D03*
Y7321095D03*
G54D251*
X7151620Y7321002D03*
G54D244*
X7601900Y6960495D03*
G54D259*
X7762060Y6959625D03*
G54D265*
X8516950Y7214545D03*
X8753170D03*
X8516950Y7360196D03*
X8753170D03*
G54D244*
X8595737Y1943077D03*
Y1903077D03*
X8555727Y1943077D03*
Y1903077D03*
X8515697Y1943077D03*
Y1903077D03*
X8475707Y1943077D03*
Y1903077D03*
X8435697D03*
X8395687Y1943077D03*
Y1903077D03*
X8101127Y1929097D03*
Y1889097D03*
X7874707Y1930117D03*
X7627727Y1895317D03*
G54D245*
X8791297Y2141517D03*
X8751297D03*
X8679257Y2133617D03*
X8679227Y2093607D03*
X8639257Y2133617D03*
X8679217Y2005617D03*
X8282507Y2156637D03*
G54D244*
X8283537Y2115747D03*
Y2075747D03*
G54D245*
X8242507Y2156637D03*
X8096137Y2243837D03*
X8142137Y2010117D03*
Y1970117D03*
X8102137Y2010117D03*
Y1970117D03*
X8056137Y2243837D03*
G54D244*
X8055267Y2196017D03*
Y2156017D03*
X8061137Y2009157D03*
Y1969157D03*
X8021077Y2009207D03*
X7981007Y1969237D03*
X7891227Y2242707D03*
Y2202707D03*
X7851197Y2242677D03*
Y2202677D03*
X7874707Y1970117D03*
X7743567Y2212307D03*
X7688417Y2118407D03*
Y2078407D03*
X7743577Y2334217D03*
Y2294217D03*
X7743567Y2252307D03*
X7691067Y2475377D03*
Y2435377D03*
G54D246*
X7690587Y2365307D03*
Y2262947D03*
X7653187Y2365307D03*
Y2262947D03*
X7615787Y2365307D03*
Y2262947D03*
G54D244*
X7981007Y2009237D03*
G54D259*
X8639227Y2093607D03*
G54D270*
X6667487Y1938227D03*
Y1888227D03*
X7216067Y2229857D03*
X6667487Y2038227D03*
Y1988227D03*
X7216067Y2379857D03*
Y2329857D03*
Y2279857D03*
G54D271*
X6825087Y2309627D03*
X6775087D03*
X6725087D03*
X6675087D03*
G54D244*
X8435697Y1943077D03*
G54D245*
X8639217Y2005617D03*
G54D244*
X8021077Y1969207D03*
G54D270*
X6880294Y1938227D03*
Y1888227D03*
Y2038227D03*
Y1988227D03*
X7216067Y2279857D03*
Y2229857D03*
Y2379857D03*
Y2329857D03*
X7428874Y2279857D03*
Y2229857D03*
Y2379857D03*
Y2329857D03*
G54D289*
X6725087Y2309627D03*
X6675087D03*
X6825087D03*
X6775087D03*
X6725087Y2096820D03*
X6675087D03*
X6825087D03*
X6775087D03*
G54D310*
X7526299Y7054316D03*
G54D311*
X7586790Y7114785D03*
G54D310*
X7308701Y7054273D03*
G54D311*
X7248210Y7114785D03*
X7586790Y7332384D03*
G54D310*
X7526299Y7392896D03*
X7308701Y7392853D03*
G54D313*
X7586790Y7135002D03*
Y7154687D03*
G54D312*
X7506083Y7054295D03*
X7387973D03*
X7368287Y7054294D03*
X7348603Y7054295D03*
X7328917Y7054294D03*
X7486397D03*
X7466713Y7054295D03*
X7447027Y7054294D03*
X7427343Y7054295D03*
X7407657Y7054294D03*
G54D313*
X7248210Y7135002D03*
Y7154687D03*
X7586790Y7292482D03*
Y7312167D03*
Y7174372D03*
Y7194057D03*
Y7213742D03*
Y7233427D03*
Y7253112D03*
Y7272797D03*
X7248210Y7292482D03*
Y7312167D03*
Y7174372D03*
Y7194057D03*
Y7213742D03*
Y7233427D03*
Y7253112D03*
Y7272797D03*
G54D312*
X7506083Y7392875D03*
X7387973D03*
X7368287Y7392874D03*
X7348603Y7392875D03*
X7328917Y7392874D03*
X7486397D03*
X7466713Y7392875D03*
X7447027Y7392874D03*
X7427343Y7392875D03*
X7407657Y7392874D03*
G54D314*
X7248210Y7332432D03*
G54D316*
X7812010Y7495385D03*
Y7580025D03*
X7786420Y7495385D03*
Y7580025D03*
X7760830D03*
G54D318*
Y7495385D03*
G54D330*
X8514044Y2043447D03*
X8496330D03*
X8478615D03*
G54D332*
X8532392D03*
G54D328*
X8478615Y2128087D03*
X8496330D03*
X8514045D03*
G54D334*
X8532392D03*
G54D336*
X8458342D03*
G54D338*
Y2043447D03*
G54D340*
X8564247Y2117259D03*
Y2099544D03*
Y2081829D03*
Y2064114D03*
G54D342*
Y2135609D03*
Y2045764D03*
G54D345*
X8231500Y7390965D03*
Y7440965D03*
Y7490965D03*
Y7540965D03*
X8011500Y7390965D03*
Y7440965D03*
Y7490965D03*
Y7540965D03*
G54D306*
X6808209Y1927816D03*
X6747186D03*
X6808209Y1998682D03*
X6747186D03*
G54D307*
X6785542Y2168905D03*
X6714676D03*
G54D306*
X7356789Y2340312D03*
X7295766D03*
X7356789Y2269446D03*
X7295766D03*
G54D307*
X6785542Y2229928D03*
X6714676D03*
G54D266*
X7743407Y2165317D03*
X7660727D03*
G54D261*
X7918040Y7364055D03*
Y7446735D03*
G54D275*
X8581027Y2436607D03*
X8413707D03*
G54D410*
X7830798Y1905267D03*
Y1965267D03*
X7513657Y1888567D03*
Y1948567D03*
G54D411*
X8704187Y2049577D03*
X8726327Y2097507D03*
X8786327D03*
X8644187Y2049577D03*
X8329317Y2075111D03*
X8389317Y2075067D03*
G54D410*
X8690057Y2302837D03*
Y2362837D03*
G54D411*
X8526327Y2212737D03*
G54D410*
X8642267Y2179577D03*
Y2239577D03*
G54D411*
X8466327Y2212737D03*
X8775500Y7147965D03*
X8715500D03*
G54D410*
X6826650Y7079115D03*
Y7139115D03*
X6826640Y7191115D03*
G54D411*
X8332000Y7334595D03*
X8153410Y7295205D03*
X8272000Y7334595D03*
X8213410Y7295205D03*
X7917950Y7313785D03*
X7977950D03*
G54D410*
X6826640Y7251115D03*
X7917330Y7496965D03*
Y7556965D03*
G54D412*
X7781841Y1970767D03*
Y1895987D03*
X7672099Y1933367D03*
X8108357Y2117297D03*
X8194967Y2156667D03*
G54D413*
X8321977Y2306467D03*
X8361347Y2219847D03*
G54D412*
X8108357Y2196037D03*
G54D413*
X8282582Y2219847D03*
X7973187Y2277137D03*
X7933817Y2190527D03*
X8012557D03*
G54D412*
X7930640Y7136965D03*
X8017250Y7097595D03*
Y7176335D03*
G54D413*
X7824010Y7313545D03*
X7863380Y7226935D03*
X7784640D03*
X6804880Y7436415D03*
X6765510Y7523025D03*
X6844250D03*
G54D422*
X6975594Y2133599D03*
G54D425*
X6897550Y2157219D03*
G54D428*
X7538917Y2302167D03*
G54D244*
X10318909Y7000625D03*
Y6960625D03*
G54D245*
X10359969Y7001655D03*
X10359899Y6959625D03*
X10399969Y7001655D03*
X10123429Y6990325D03*
X10163429D03*
G54D244*
X10239739Y7000495D03*
X10278789Y6960605D03*
X9338269Y6984275D03*
Y6944275D03*
G54D245*
X9379479Y7025385D03*
G54D244*
X9378459Y6984305D03*
Y6944305D03*
G54D245*
X9419479Y7025385D03*
G54D244*
X9420459Y6944305D03*
G54D245*
X10936069Y7290625D03*
X10976069D03*
G54D244*
X11017169Y7297595D03*
G54D245*
X10651159Y7264215D03*
X10651169Y7223985D03*
X10691159Y7264215D03*
X10691169Y7223985D03*
G54D244*
X10422799Y7177995D03*
Y7137995D03*
G54D245*
X10463799Y7137045D03*
X10503799D03*
G54D244*
X9807579Y7214325D03*
X9292469Y7275525D03*
Y7235525D03*
G54D245*
X9379479Y7105385D03*
Y7065385D03*
X9419479Y7105385D03*
Y7065385D03*
G54D244*
X11017169Y7337595D03*
G54D245*
X10313059Y7425475D03*
G54D244*
X10311999Y7384495D03*
Y7344495D03*
G54D245*
X10353059Y7425475D03*
G54D244*
X10354009Y7384425D03*
Y7344425D03*
G54D245*
X10468889Y7362985D03*
G54D244*
X10502409Y7563965D03*
Y7523965D03*
X10502419Y7481965D03*
Y7441965D03*
G54D245*
X10508889Y7362985D03*
G54D244*
X9750709Y7466575D03*
Y7426575D03*
X9792789Y7466575D03*
Y7426575D03*
G54D245*
X9922489Y7481135D03*
X9962489D03*
G54D244*
X9543339Y7556965D03*
Y7516965D03*
X9585339Y7556965D03*
Y7516965D03*
X9582219Y7362465D03*
X9622219Y7322465D03*
G54D245*
X9626329Y7515965D03*
X9666329D03*
G54D244*
X9662219Y7362465D03*
Y7322465D03*
X9242339Y7477965D03*
X9320819Y7477375D03*
Y7437375D03*
X9320809Y7395405D03*
Y7355405D03*
X9360819Y7477375D03*
Y7437375D03*
X9360829Y7395395D03*
Y7355395D03*
X9242339Y7437965D03*
G54D246*
X9341439Y7275575D03*
Y7173215D03*
X9416239Y7275575D03*
Y7173215D03*
X9378839Y7275575D03*
G54D244*
X10278789Y7000605D03*
X9420459Y6984305D03*
X9582219Y7322465D03*
X9807579Y7174325D03*
X9622219Y7362465D03*
G54D250*
X9789579Y7382115D03*
X9710839D03*
Y7321095D03*
G54D251*
X9789459Y7321002D03*
G54D244*
X10239739Y6960495D03*
G54D259*
X10399899Y6959625D03*
G54D265*
X11154789Y7214545D03*
X11391009D03*
X11154789Y7360196D03*
X11391009D03*
G54D244*
X11233576Y1943077D03*
Y1903077D03*
X11193566Y1943077D03*
Y1903077D03*
X11153536Y1943077D03*
Y1903077D03*
X11113546Y1943077D03*
Y1903077D03*
X11073536D03*
X11033526Y1943077D03*
Y1903077D03*
X10738966Y1929097D03*
Y1889097D03*
X10512546Y1930117D03*
X10265566Y1895317D03*
G54D245*
X11429136Y2141517D03*
X11389136D03*
X11317096Y2133617D03*
X11317066Y2093607D03*
X11277096Y2133617D03*
X11317056Y2005617D03*
X10920346Y2156637D03*
G54D244*
X10921376Y2115747D03*
Y2075747D03*
G54D245*
X10880346Y2156637D03*
X10733976Y2243837D03*
X10779976Y2010117D03*
Y1970117D03*
X10739976Y2010117D03*
Y1970117D03*
X10693976Y2243837D03*
G54D244*
X10693106Y2196017D03*
Y2156017D03*
X10698976Y2009157D03*
Y1969157D03*
X10658916Y2009207D03*
X10618846Y1969237D03*
X10529066Y2242707D03*
Y2202707D03*
X10489036Y2242677D03*
Y2202677D03*
X10512546Y1970117D03*
X10381406Y2212307D03*
X10326256Y2118407D03*
Y2078407D03*
X10381416Y2334217D03*
Y2294217D03*
X10381406Y2252307D03*
X10328906Y2475377D03*
Y2435377D03*
G54D246*
X10328426Y2365307D03*
Y2262947D03*
X10291026Y2365307D03*
Y2262947D03*
X10253626Y2365307D03*
Y2262947D03*
G54D244*
X10618846Y2009237D03*
G54D259*
X11277066Y2093607D03*
G54D270*
X9305326Y1938227D03*
Y1888227D03*
X9853906Y2229857D03*
X9305326Y2038227D03*
Y1988227D03*
X9853906Y2379857D03*
Y2329857D03*
Y2279857D03*
G54D271*
X9462926Y2309627D03*
X9412926D03*
X9362926D03*
X9312926D03*
G54D244*
X11073536Y1943077D03*
G54D245*
X11277056Y2005617D03*
G54D244*
X10658916Y1969207D03*
G54D270*
X9518133Y1938227D03*
Y1888227D03*
Y2038227D03*
Y1988227D03*
X9853906Y2279857D03*
Y2229857D03*
Y2379857D03*
Y2329857D03*
X10066713Y2279857D03*
Y2229857D03*
Y2379857D03*
Y2329857D03*
G54D289*
X9362926Y2309627D03*
X9312926D03*
X9462926D03*
X9412926D03*
X9362926Y2096820D03*
X9312926D03*
X9462926D03*
X9412926D03*
G54D310*
X10164138Y7054316D03*
G54D311*
X10224629Y7114785D03*
G54D310*
X9946540Y7054273D03*
G54D311*
X9886049Y7114785D03*
X10224629Y7332384D03*
G54D310*
X10164138Y7392896D03*
X9946540Y7392853D03*
G54D313*
X10224629Y7135002D03*
Y7154687D03*
G54D312*
X10143921Y7054295D03*
X10025811D03*
X10006126Y7054294D03*
X9986441Y7054295D03*
X9966756Y7054294D03*
X10124236D03*
X10104551Y7054295D03*
X10084866Y7054294D03*
X10065181Y7054295D03*
X10045496Y7054294D03*
G54D313*
X9886049Y7135002D03*
Y7154687D03*
X10224629Y7292482D03*
Y7312167D03*
Y7174372D03*
Y7194057D03*
Y7213742D03*
Y7233427D03*
Y7253112D03*
Y7272797D03*
X9886049Y7292482D03*
Y7312167D03*
Y7174372D03*
Y7194057D03*
Y7213742D03*
Y7233427D03*
Y7253112D03*
Y7272797D03*
G54D312*
X10143921Y7392875D03*
X10025811D03*
X10006126Y7392874D03*
X9986441Y7392875D03*
X9966756Y7392874D03*
X10124236D03*
X10104551Y7392875D03*
X10084866Y7392874D03*
X10065181Y7392875D03*
X10045496Y7392874D03*
G54D314*
X9886049Y7332432D03*
G54D316*
X10449849Y7495385D03*
Y7580025D03*
X10424259Y7495385D03*
Y7580025D03*
X10398669D03*
G54D318*
Y7495385D03*
G54D330*
X11151883Y2043447D03*
X11134169D03*
X11116454D03*
G54D332*
X11170231D03*
G54D328*
X11116454Y2128087D03*
X11134169D03*
X11151884D03*
G54D334*
X11170231D03*
G54D336*
X11096181D03*
G54D338*
Y2043447D03*
G54D340*
X11202086Y2117259D03*
Y2099544D03*
Y2081829D03*
Y2064114D03*
G54D342*
Y2135609D03*
Y2045764D03*
G54D345*
X10869339Y7390965D03*
Y7440965D03*
Y7490965D03*
Y7540965D03*
X10649339Y7390965D03*
Y7440965D03*
Y7490965D03*
Y7540965D03*
G54D306*
X9446048Y1927816D03*
X9385025D03*
X9446048Y1998682D03*
X9385025D03*
G54D307*
X9423381Y2168905D03*
X9352515D03*
G54D306*
X9994628Y2340312D03*
X9933605D03*
X9994628Y2269446D03*
X9933605D03*
G54D307*
X9423381Y2229928D03*
X9352515D03*
G54D266*
X10381246Y2165317D03*
X10298566D03*
G54D261*
X10555879Y7364055D03*
Y7446735D03*
G54D275*
X11218866Y2436607D03*
X11051546D03*
G54D410*
X10468637Y1905267D03*
Y1965267D03*
X10151496Y1888567D03*
Y1948567D03*
G54D411*
X11342026Y2049577D03*
X11364166Y2097507D03*
X11424166D03*
X11282026Y2049577D03*
X10967156Y2075111D03*
X11027156Y2075067D03*
G54D410*
X11327896Y2302837D03*
Y2362837D03*
G54D411*
X11164166Y2212737D03*
G54D410*
X11280106Y2179577D03*
Y2239577D03*
G54D411*
X11104166Y2212737D03*
X11413339Y7147965D03*
X11353339D03*
G54D410*
X9464489Y7079115D03*
Y7139115D03*
X9464479Y7191115D03*
G54D411*
X10969839Y7334595D03*
X10791249Y7295205D03*
X10909839Y7334595D03*
X10851249Y7295205D03*
X10555789Y7313785D03*
X10615789D03*
G54D410*
X9464479Y7251115D03*
X10555169Y7496965D03*
Y7556965D03*
G54D412*
X10419680Y1970767D03*
Y1895987D03*
X10309938Y1933367D03*
X10746196Y2117297D03*
X10832806Y2156667D03*
G54D413*
X10959816Y2306467D03*
X10999186Y2219847D03*
G54D412*
X10746196Y2196037D03*
G54D413*
X10920421Y2219847D03*
X10611026Y2277137D03*
X10571656Y2190527D03*
X10650396D03*
G54D412*
X10568479Y7136965D03*
X10655089Y7097595D03*
Y7176335D03*
G54D413*
X10461849Y7313545D03*
X10501219Y7226935D03*
X10422479D03*
X9442719Y7436415D03*
X9403349Y7523025D03*
X9482089D03*
G54D422*
X9613433Y2133599D03*
G54D425*
X9535389Y2157219D03*
G54D428*
X10176756Y2302167D03*
G54D244*
X7681070Y6213183D03*
Y6173183D03*
G54D245*
X7722130Y6214213D03*
X7722060Y6172183D03*
X7762130Y6214213D03*
X7485590Y6202883D03*
X7525590D03*
G54D244*
X7601900Y6213053D03*
X7640950Y6173163D03*
X6700430Y6196833D03*
Y6156833D03*
G54D245*
X6741640Y6237943D03*
G54D244*
X6740620Y6196863D03*
Y6156863D03*
G54D245*
X6781640Y6237943D03*
G54D244*
X6782620Y6156863D03*
G54D245*
X8298230Y6503183D03*
X8338230D03*
G54D244*
X8379330Y6510153D03*
G54D245*
X8013320Y6476773D03*
X8013330Y6436543D03*
X8053320Y6476773D03*
X8053330Y6436543D03*
G54D244*
X7784960Y6390553D03*
Y6350553D03*
G54D245*
X7825960Y6349603D03*
X7865960D03*
G54D244*
X7169740Y6426883D03*
X6654630Y6488083D03*
Y6448083D03*
G54D245*
X6741640Y6317943D03*
Y6277943D03*
X6781640Y6317943D03*
Y6277943D03*
G54D244*
X8379330Y6550153D03*
G54D245*
X7675220Y6638033D03*
G54D244*
X7674160Y6597053D03*
Y6557053D03*
G54D245*
X7715220Y6638033D03*
G54D244*
X7716170Y6596983D03*
Y6556983D03*
G54D245*
X7831050Y6575543D03*
G54D244*
X7864570Y6776523D03*
Y6736523D03*
X7864580Y6694523D03*
Y6654523D03*
G54D245*
X7871050Y6575543D03*
G54D244*
X7112870Y6679133D03*
Y6639133D03*
X7154950Y6679133D03*
Y6639133D03*
G54D245*
X7284650Y6693693D03*
X7324650D03*
G54D244*
X6905500Y6769523D03*
Y6729523D03*
X6947500Y6769523D03*
Y6729523D03*
X6944380Y6575023D03*
X6984380Y6535023D03*
G54D245*
X6988490Y6728523D03*
X7028490D03*
G54D244*
X7024380Y6575023D03*
Y6535023D03*
X6604500Y6690523D03*
X6682980Y6689933D03*
Y6649933D03*
X6682970Y6607963D03*
Y6567963D03*
X6722980Y6689933D03*
Y6649933D03*
X6722990Y6607953D03*
Y6567953D03*
X6604500Y6650523D03*
G54D246*
X6703600Y6488133D03*
Y6385773D03*
X6778400Y6488133D03*
Y6385773D03*
X6741000Y6488133D03*
G54D244*
X7640950Y6213163D03*
X6782620Y6196863D03*
X6944380Y6535023D03*
X7169740Y6386883D03*
X6984380Y6575023D03*
G54D250*
X7151740Y6594673D03*
X7073000D03*
Y6533653D03*
G54D251*
X7151620Y6533560D03*
G54D244*
X7601900Y6173053D03*
G54D259*
X7762060Y6172183D03*
G54D265*
X8516950Y6427103D03*
X8753170D03*
X8516950Y6572754D03*
X8753170D03*
G54D244*
X8595737Y1155635D03*
Y1115635D03*
X8555727Y1155635D03*
Y1115635D03*
X8515697Y1155635D03*
Y1115635D03*
X8475707Y1155635D03*
Y1115635D03*
X8435697D03*
X8395687Y1155635D03*
Y1115635D03*
X8101127Y1141655D03*
Y1101655D03*
X7874707Y1142675D03*
X7627727Y1107875D03*
G54D245*
X8791297Y1354075D03*
X8751297D03*
X8679257Y1346175D03*
X8679227Y1306165D03*
X8639257Y1346175D03*
X8679217Y1218175D03*
X8282507Y1369195D03*
G54D244*
X8283537Y1328305D03*
Y1288305D03*
G54D245*
X8242507Y1369195D03*
X8096137Y1456395D03*
X8142137Y1222675D03*
Y1182675D03*
X8102137Y1222675D03*
Y1182675D03*
X8056137Y1456395D03*
G54D244*
X8055267Y1408575D03*
Y1368575D03*
X8061137Y1221715D03*
Y1181715D03*
X8021077Y1221765D03*
X7981007Y1181795D03*
X7891227Y1455265D03*
Y1415265D03*
X7851197Y1455235D03*
Y1415235D03*
X7874707Y1182675D03*
X7743567Y1424865D03*
X7688417Y1330965D03*
Y1290965D03*
X7743577Y1546775D03*
Y1506775D03*
X7743567Y1464865D03*
X7691067Y1687935D03*
Y1647935D03*
G54D246*
X7690587Y1577865D03*
Y1475505D03*
X7653187Y1577865D03*
Y1475505D03*
X7615787Y1577865D03*
Y1475505D03*
G54D244*
X7981007Y1221795D03*
G54D259*
X8639227Y1306165D03*
G54D270*
X6667487Y1150785D03*
Y1100785D03*
X7216067Y1442415D03*
X6667487Y1250785D03*
Y1200785D03*
X7216067Y1592415D03*
Y1542415D03*
Y1492415D03*
G54D271*
X6825087Y1522185D03*
X6775087D03*
X6725087D03*
X6675087D03*
G54D244*
X8435697Y1155635D03*
G54D245*
X8639217Y1218175D03*
G54D244*
X8021077Y1181765D03*
G54D270*
X6880294Y1150785D03*
Y1100785D03*
Y1250785D03*
Y1200785D03*
X7216067Y1492415D03*
Y1442415D03*
Y1592415D03*
Y1542415D03*
X7428874Y1492415D03*
Y1442415D03*
Y1592415D03*
Y1542415D03*
G54D289*
X6725087Y1522185D03*
X6675087D03*
X6825087D03*
X6775087D03*
X6725087Y1309378D03*
X6675087D03*
X6825087D03*
X6775087D03*
G54D310*
X7526299Y6266875D03*
G54D311*
X7586790Y6327344D03*
G54D310*
X7308701Y6266831D03*
G54D311*
X7248210Y6327344D03*
X7586790Y6544942D03*
G54D310*
X7526299Y6605455D03*
X7308701Y6605411D03*
G54D313*
X7586790Y6347560D03*
Y6367246D03*
G54D312*
X7506083Y6266854D03*
X7387973D03*
X7368287Y6266852D03*
X7348603Y6266854D03*
X7328917Y6266852D03*
X7486397D03*
X7466713Y6266854D03*
X7447027Y6266852D03*
X7427343Y6266854D03*
X7407657Y6266852D03*
G54D313*
X7248210Y6347560D03*
Y6367246D03*
X7586790Y6505040D03*
Y6524726D03*
Y6386930D03*
Y6406616D03*
Y6426300D03*
Y6445986D03*
Y6465670D03*
Y6485356D03*
X7248210Y6505040D03*
Y6524726D03*
Y6386930D03*
Y6406616D03*
Y6426300D03*
Y6445986D03*
Y6465670D03*
Y6485356D03*
G54D312*
X7506083Y6605434D03*
X7387973D03*
X7368287Y6605432D03*
X7348603Y6605434D03*
X7328917Y6605432D03*
X7486397D03*
X7466713Y6605434D03*
X7447027Y6605432D03*
X7427343Y6605434D03*
X7407657Y6605432D03*
G54D314*
X7248210Y6544990D03*
G54D316*
X7812010Y6707943D03*
Y6792583D03*
X7786420Y6707943D03*
Y6792583D03*
X7760830D03*
G54D318*
Y6707943D03*
G54D330*
X8514044Y1256005D03*
X8496330D03*
X8478615D03*
G54D332*
X8532392D03*
G54D328*
X8478615Y1340645D03*
X8496330D03*
X8514045D03*
G54D334*
X8532392D03*
G54D336*
X8458342D03*
G54D338*
Y1256005D03*
G54D340*
X8564247Y1329818D03*
Y1312103D03*
Y1294388D03*
Y1276673D03*
G54D342*
Y1348168D03*
Y1258323D03*
G54D345*
X8231500Y6603523D03*
Y6653523D03*
Y6703523D03*
Y6753523D03*
X8011500Y6603523D03*
Y6653523D03*
Y6703523D03*
Y6753523D03*
G54D306*
X6808209Y1140374D03*
X6747186D03*
X6808209Y1211240D03*
X6747186D03*
G54D307*
X6785542Y1381463D03*
X6714676D03*
G54D306*
X7356789Y1552870D03*
X7295766D03*
X7356789Y1482004D03*
X7295766D03*
G54D307*
X6785542Y1442487D03*
X6714676D03*
G54D266*
X7743407Y1377875D03*
X7660727D03*
G54D261*
X7918040Y6576613D03*
Y6659293D03*
G54D275*
X8581027Y1649165D03*
X8413707D03*
G54D410*
X7830798Y1117825D03*
Y1177825D03*
X7513657Y1101125D03*
Y1161125D03*
G54D411*
X8704187Y1262135D03*
X8726327Y1310065D03*
X8786327D03*
X8644187Y1262135D03*
X8329317Y1287669D03*
X8389317Y1287625D03*
G54D410*
X8690057Y1515395D03*
Y1575395D03*
G54D411*
X8526327Y1425295D03*
G54D410*
X8642267Y1392135D03*
Y1452135D03*
G54D411*
X8466327Y1425295D03*
X8775500Y6360523D03*
X8715500D03*
G54D410*
X6826650Y6291673D03*
Y6351673D03*
X6826640Y6403673D03*
G54D411*
X8332000Y6547153D03*
X8153410Y6507763D03*
X8272000Y6547153D03*
X8213410Y6507763D03*
X7917950Y6526343D03*
X7977950D03*
G54D410*
X6826640Y6463673D03*
X7917330Y6709523D03*
Y6769523D03*
G54D412*
X7781841Y1183325D03*
Y1108545D03*
X7672099Y1145925D03*
X8108357Y1329855D03*
X8194967Y1369225D03*
G54D413*
X8321977Y1519025D03*
X8361347Y1432405D03*
G54D412*
X8108357Y1408595D03*
G54D413*
X8282582Y1432405D03*
X7973187Y1489695D03*
X7933817Y1403085D03*
X8012557D03*
G54D412*
X7930640Y6349523D03*
X8017250Y6310153D03*
Y6388893D03*
G54D413*
X7824010Y6526103D03*
X7863380Y6439493D03*
X7784640D03*
X6804880Y6648973D03*
X6765510Y6735583D03*
X6844250D03*
G54D422*
X6975594Y1346158D03*
G54D425*
X6897550Y1369778D03*
G54D428*
X7538917Y1514725D03*
G54D244*
X10318909Y6213183D03*
Y6173183D03*
G54D245*
X10359969Y6214213D03*
X10359899Y6172183D03*
X10399969Y6214213D03*
X10123429Y6202883D03*
X10163429D03*
G54D244*
X10239739Y6213053D03*
X10278789Y6173163D03*
X9338269Y6196833D03*
Y6156833D03*
G54D245*
X9379479Y6237943D03*
G54D244*
X9378459Y6196863D03*
Y6156863D03*
G54D245*
X9419479Y6237943D03*
G54D244*
X9420459Y6156863D03*
G54D245*
X10936069Y6503183D03*
X10976069D03*
G54D244*
X11017169Y6510153D03*
G54D245*
X10651159Y6476773D03*
X10651169Y6436543D03*
X10691159Y6476773D03*
X10691169Y6436543D03*
G54D244*
X10422799Y6390553D03*
Y6350553D03*
G54D245*
X10463799Y6349603D03*
X10503799D03*
G54D244*
X9807579Y6426883D03*
X9292469Y6488083D03*
Y6448083D03*
G54D245*
X9379479Y6317943D03*
Y6277943D03*
X9419479Y6317943D03*
Y6277943D03*
G54D244*
X11017169Y6550153D03*
G54D245*
X10313059Y6638033D03*
G54D244*
X10311999Y6597053D03*
Y6557053D03*
G54D245*
X10353059Y6638033D03*
G54D244*
X10354009Y6596983D03*
Y6556983D03*
G54D245*
X10468889Y6575543D03*
G54D244*
X10502409Y6776523D03*
Y6736523D03*
X10502419Y6694523D03*
Y6654523D03*
G54D245*
X10508889Y6575543D03*
G54D244*
X9750709Y6679133D03*
Y6639133D03*
X9792789Y6679133D03*
Y6639133D03*
G54D245*
X9922489Y6693693D03*
X9962489D03*
G54D244*
X9543339Y6769523D03*
Y6729523D03*
X9585339Y6769523D03*
Y6729523D03*
X9582219Y6575023D03*
X9622219Y6535023D03*
G54D245*
X9626329Y6728523D03*
X9666329D03*
G54D244*
X9662219Y6575023D03*
Y6535023D03*
X9242339Y6690523D03*
X9320819Y6689933D03*
Y6649933D03*
X9320809Y6607963D03*
Y6567963D03*
X9360819Y6689933D03*
Y6649933D03*
X9360829Y6607953D03*
Y6567953D03*
X9242339Y6650523D03*
G54D246*
X9341439Y6488133D03*
Y6385773D03*
X9416239Y6488133D03*
Y6385773D03*
X9378839Y6488133D03*
G54D244*
X10278789Y6213163D03*
X9420459Y6196863D03*
X9582219Y6535023D03*
X9807579Y6386883D03*
X9622219Y6575023D03*
G54D250*
X9789579Y6594673D03*
X9710839D03*
Y6533653D03*
G54D251*
X9789459Y6533560D03*
G54D244*
X10239739Y6173053D03*
G54D259*
X10399899Y6172183D03*
G54D265*
X11154789Y6427103D03*
X11391009D03*
X11154789Y6572754D03*
X11391009D03*
G54D244*
X11233576Y1155635D03*
Y1115635D03*
X11193566Y1155635D03*
Y1115635D03*
X11153536Y1155635D03*
Y1115635D03*
X11113546Y1155635D03*
Y1115635D03*
X11073536D03*
X11033526Y1155635D03*
Y1115635D03*
X10738966Y1141655D03*
Y1101655D03*
X10512546Y1142675D03*
X10265566Y1107875D03*
G54D245*
X11429136Y1354075D03*
X11389136D03*
X11317096Y1346175D03*
X11317066Y1306165D03*
X11277096Y1346175D03*
X11317056Y1218175D03*
X10920346Y1369195D03*
G54D244*
X10921376Y1328305D03*
Y1288305D03*
G54D245*
X10880346Y1369195D03*
X10733976Y1456395D03*
X10779976Y1222675D03*
Y1182675D03*
X10739976Y1222675D03*
Y1182675D03*
X10693976Y1456395D03*
G54D244*
X10693106Y1408575D03*
Y1368575D03*
X10698976Y1221715D03*
Y1181715D03*
X10658916Y1221765D03*
X10618846Y1181795D03*
X10529066Y1455265D03*
Y1415265D03*
X10489036Y1455235D03*
Y1415235D03*
X10512546Y1182675D03*
X10381406Y1424865D03*
X10326256Y1330965D03*
Y1290965D03*
X10381416Y1546775D03*
Y1506775D03*
X10381406Y1464865D03*
X10328906Y1687935D03*
Y1647935D03*
G54D246*
X10328426Y1577865D03*
Y1475505D03*
X10291026Y1577865D03*
Y1475505D03*
X10253626Y1577865D03*
Y1475505D03*
G54D244*
X10618846Y1221795D03*
G54D259*
X11277066Y1306165D03*
G54D270*
X9305326Y1150785D03*
Y1100785D03*
X9853906Y1442415D03*
X9305326Y1250785D03*
Y1200785D03*
X9853906Y1592415D03*
Y1542415D03*
Y1492415D03*
G54D271*
X9462926Y1522185D03*
X9412926D03*
X9362926D03*
X9312926D03*
G54D244*
X11073536Y1155635D03*
G54D245*
X11277056Y1218175D03*
G54D244*
X10658916Y1181765D03*
G54D270*
X9518133Y1150785D03*
Y1100785D03*
Y1250785D03*
Y1200785D03*
X9853906Y1492415D03*
Y1442415D03*
Y1592415D03*
Y1542415D03*
X10066713Y1492415D03*
Y1442415D03*
Y1592415D03*
Y1542415D03*
G54D289*
X9362926Y1522185D03*
X9312926D03*
X9462926D03*
X9412926D03*
X9362926Y1309378D03*
X9312926D03*
X9462926D03*
X9412926D03*
G54D310*
X10164138Y6266875D03*
G54D311*
X10224629Y6327344D03*
G54D310*
X9946540Y6266831D03*
G54D311*
X9886049Y6327344D03*
X10224629Y6544942D03*
G54D310*
X10164138Y6605455D03*
X9946540Y6605411D03*
G54D313*
X10224629Y6347560D03*
Y6367246D03*
G54D312*
X10143921Y6266854D03*
X10025811D03*
X10006126Y6266852D03*
X9986441Y6266854D03*
X9966756Y6266852D03*
X10124236D03*
X10104551Y6266854D03*
X10084866Y6266852D03*
X10065181Y6266854D03*
X10045496Y6266852D03*
G54D313*
X9886049Y6347560D03*
Y6367246D03*
X10224629Y6505040D03*
Y6524726D03*
Y6386930D03*
Y6406616D03*
Y6426300D03*
Y6445986D03*
Y6465670D03*
Y6485356D03*
X9886049Y6505040D03*
Y6524726D03*
Y6386930D03*
Y6406616D03*
Y6426300D03*
Y6445986D03*
Y6465670D03*
Y6485356D03*
G54D312*
X10143921Y6605434D03*
X10025811D03*
X10006126Y6605432D03*
X9986441Y6605434D03*
X9966756Y6605432D03*
X10124236D03*
X10104551Y6605434D03*
X10084866Y6605432D03*
X10065181Y6605434D03*
X10045496Y6605432D03*
G54D314*
X9886049Y6544990D03*
G54D316*
X10449849Y6707943D03*
Y6792583D03*
X10424259Y6707943D03*
Y6792583D03*
X10398669D03*
G54D318*
Y6707943D03*
G54D330*
X11151883Y1256005D03*
X11134169D03*
X11116454D03*
G54D332*
X11170231D03*
G54D328*
X11116454Y1340645D03*
X11134169D03*
X11151884D03*
G54D334*
X11170231D03*
G54D336*
X11096181D03*
G54D338*
Y1256005D03*
G54D340*
X11202086Y1329818D03*
Y1312103D03*
Y1294388D03*
Y1276673D03*
G54D342*
Y1348168D03*
Y1258323D03*
G54D345*
X10869339Y6603523D03*
Y6653523D03*
Y6703523D03*
Y6753523D03*
X10649339Y6603523D03*
Y6653523D03*
Y6703523D03*
Y6753523D03*
G54D306*
X9446048Y1140374D03*
X9385025D03*
X9446048Y1211240D03*
X9385025D03*
G54D307*
X9423381Y1381463D03*
X9352515D03*
G54D306*
X9994628Y1552870D03*
X9933605D03*
X9994628Y1482004D03*
X9933605D03*
G54D307*
X9423381Y1442487D03*
X9352515D03*
G54D266*
X10381246Y1377875D03*
X10298566D03*
G54D261*
X10555879Y6576613D03*
Y6659293D03*
G54D275*
X11218866Y1649165D03*
X11051546D03*
G54D410*
X10468637Y1117825D03*
Y1177825D03*
X10151496Y1101125D03*
Y1161125D03*
G54D411*
X11342026Y1262135D03*
X11364166Y1310065D03*
X11424166D03*
X11282026Y1262135D03*
X10967156Y1287669D03*
X11027156Y1287625D03*
G54D410*
X11327896Y1515395D03*
Y1575395D03*
G54D411*
X11164166Y1425295D03*
G54D410*
X11280106Y1392135D03*
Y1452135D03*
G54D411*
X11104166Y1425295D03*
X11413339Y6360523D03*
X11353339D03*
G54D410*
X9464489Y6291673D03*
Y6351673D03*
X9464479Y6403673D03*
G54D411*
X10969839Y6547153D03*
X10791249Y6507763D03*
X10909839Y6547153D03*
X10851249Y6507763D03*
X10555789Y6526343D03*
X10615789D03*
G54D410*
X9464479Y6463673D03*
X10555169Y6709523D03*
Y6769523D03*
G54D412*
X10419680Y1183325D03*
Y1108545D03*
X10309938Y1145925D03*
X10746196Y1329855D03*
X10832806Y1369225D03*
G54D413*
X10959816Y1519025D03*
X10999186Y1432405D03*
G54D412*
X10746196Y1408595D03*
G54D413*
X10920421Y1432405D03*
X10611026Y1489695D03*
X10571656Y1403085D03*
X10650396D03*
G54D412*
X10568479Y6349523D03*
X10655089Y6310153D03*
Y6388893D03*
G54D413*
X10461849Y6526103D03*
X10501219Y6439493D03*
X10422479D03*
X9442719Y6648973D03*
X9403349Y6735583D03*
X9482089D03*
G54D422*
X9613433Y1346158D03*
G54D425*
X9535389Y1369778D03*
G54D428*
X10176756Y1514725D03*
G54D244*
X7681070Y5425741D03*
Y5385741D03*
G54D245*
X7722130Y5426771D03*
X7722060Y5384741D03*
X7762130Y5426771D03*
X7485590Y5415441D03*
X7525590D03*
G54D244*
X7601900Y5425611D03*
X7640950Y5385721D03*
X6700430Y5409391D03*
Y5369391D03*
G54D245*
X6741640Y5450501D03*
G54D244*
X6740620Y5409421D03*
Y5369421D03*
G54D245*
X6781640Y5450501D03*
G54D244*
X6782620Y5369421D03*
G54D245*
X8298230Y5715741D03*
X8338230D03*
G54D244*
X8379330Y5722711D03*
G54D245*
X8013320Y5689331D03*
X8013330Y5649101D03*
X8053320Y5689331D03*
X8053330Y5649101D03*
G54D244*
X7784960Y5603111D03*
Y5563111D03*
G54D245*
X7825960Y5562161D03*
X7865960D03*
G54D244*
X7169740Y5639441D03*
X6654630Y5700641D03*
Y5660641D03*
G54D245*
X6741640Y5530501D03*
Y5490501D03*
X6781640Y5530501D03*
Y5490501D03*
G54D244*
X8379330Y5762711D03*
G54D245*
X7675220Y5850591D03*
G54D244*
X7674160Y5809611D03*
Y5769611D03*
G54D245*
X7715220Y5850591D03*
G54D244*
X7716170Y5809541D03*
Y5769541D03*
G54D245*
X7831050Y5788101D03*
G54D244*
X7864570Y5989081D03*
Y5949081D03*
X7864580Y5907081D03*
Y5867081D03*
G54D245*
X7871050Y5788101D03*
G54D244*
X7112870Y5891691D03*
Y5851691D03*
X7154950Y5891691D03*
Y5851691D03*
G54D245*
X7284650Y5906251D03*
X7324650D03*
G54D244*
X6905500Y5982081D03*
Y5942081D03*
X6947500Y5982081D03*
Y5942081D03*
X6944380Y5787581D03*
X6984380Y5747581D03*
G54D245*
X6988490Y5941081D03*
X7028490D03*
G54D244*
X7024380Y5787581D03*
Y5747581D03*
X6604500Y5903081D03*
X6682980Y5902491D03*
Y5862491D03*
X6682970Y5820521D03*
Y5780521D03*
X6722980Y5902491D03*
Y5862491D03*
X6722990Y5820511D03*
Y5780511D03*
X6604500Y5863081D03*
G54D246*
X6703600Y5700691D03*
Y5598331D03*
X6778400Y5700691D03*
Y5598331D03*
X6741000Y5700691D03*
G54D244*
X7640950Y5425721D03*
X6782620Y5409421D03*
X6944380Y5747581D03*
X7169740Y5599441D03*
X6984380Y5787581D03*
G54D250*
X7151740Y5807231D03*
X7073000D03*
Y5746211D03*
G54D251*
X7151620Y5746119D03*
G54D244*
X7601900Y5385611D03*
G54D259*
X7762060Y5384741D03*
G54D265*
X8516950Y5639661D03*
X8753170D03*
X8516950Y5785313D03*
X8753170D03*
G54D244*
X8595737Y368193D03*
Y328193D03*
X8555727Y368193D03*
Y328193D03*
X8515697Y368193D03*
Y328193D03*
X8475707Y368193D03*
Y328193D03*
X8435697D03*
X8395687Y368193D03*
Y328193D03*
X8101127Y354213D03*
Y314213D03*
X7874707Y355233D03*
X7627727Y320433D03*
G54D245*
X8791297Y566633D03*
X8751297D03*
X8679257Y558733D03*
X8679227Y518723D03*
X8639257Y558733D03*
X8679217Y430733D03*
X8282507Y581753D03*
G54D244*
X8283537Y540863D03*
Y500863D03*
G54D245*
X8242507Y581753D03*
X8096137Y668953D03*
X8142137Y435233D03*
Y395233D03*
X8102137Y435233D03*
Y395233D03*
X8056137Y668953D03*
G54D244*
X8055267Y621133D03*
Y581133D03*
X8061137Y434273D03*
Y394273D03*
X8021077Y434323D03*
X7981007Y394353D03*
X7891227Y667823D03*
Y627823D03*
X7851197Y667793D03*
Y627793D03*
X7874707Y395233D03*
X7743567Y637423D03*
X7688417Y543523D03*
Y503523D03*
X7743577Y759333D03*
Y719333D03*
X7743567Y677423D03*
X7691067Y900493D03*
Y860493D03*
G54D246*
X7690587Y790423D03*
Y688063D03*
X7653187Y790423D03*
Y688063D03*
X7615787Y790423D03*
Y688063D03*
G54D244*
X7981007Y434353D03*
G54D259*
X8639227Y518723D03*
G54D270*
X6667487Y363343D03*
Y313343D03*
X7216067Y654973D03*
X6667487Y463343D03*
Y413343D03*
X7216067Y804973D03*
Y754973D03*
Y704973D03*
G54D271*
X6825087Y734743D03*
X6775087D03*
X6725087D03*
X6675087D03*
G54D244*
X8435697Y368193D03*
G54D245*
X8639217Y430733D03*
G54D244*
X8021077Y394323D03*
G54D270*
X6880294Y363343D03*
Y313343D03*
Y463343D03*
Y413343D03*
X7216067Y704973D03*
Y654973D03*
Y804973D03*
Y754973D03*
X7428874Y704973D03*
Y654973D03*
Y804973D03*
Y754973D03*
G54D289*
X6725087Y734743D03*
X6675087D03*
X6825087D03*
X6775087D03*
X6725087Y521936D03*
X6675087D03*
X6825087D03*
X6775087D03*
G54D310*
X7526299Y5479433D03*
G54D311*
X7586790Y5539902D03*
G54D310*
X7308701Y5479389D03*
G54D311*
X7248210Y5539902D03*
X7586790Y5757500D03*
G54D310*
X7526299Y5818013D03*
X7308701Y5817969D03*
G54D313*
X7586790Y5560119D03*
Y5579804D03*
G54D312*
X7506083Y5479412D03*
X7387973D03*
X7368287Y5479410D03*
X7348603Y5479412D03*
X7328917Y5479410D03*
X7486397D03*
X7466713Y5479412D03*
X7447027Y5479410D03*
X7427343Y5479412D03*
X7407657Y5479410D03*
G54D313*
X7248210Y5560119D03*
Y5579804D03*
X7586790Y5717599D03*
Y5737284D03*
Y5599489D03*
Y5619174D03*
Y5638859D03*
Y5658544D03*
Y5678229D03*
Y5697914D03*
X7248210Y5717599D03*
Y5737284D03*
Y5599489D03*
Y5619174D03*
Y5638859D03*
Y5658544D03*
Y5678229D03*
Y5697914D03*
G54D312*
X7506083Y5817992D03*
X7387973D03*
X7368287Y5817990D03*
X7348603Y5817992D03*
X7328917Y5817990D03*
X7486397D03*
X7466713Y5817992D03*
X7447027Y5817990D03*
X7427343Y5817992D03*
X7407657Y5817990D03*
G54D314*
X7248210Y5757549D03*
G54D316*
X7812010Y5920501D03*
Y6005141D03*
X7786420Y5920501D03*
Y6005141D03*
X7760830D03*
G54D318*
Y5920501D03*
G54D330*
X8514044Y468563D03*
X8496330D03*
X8478615D03*
G54D332*
X8532392D03*
G54D328*
X8478615Y553203D03*
X8496330D03*
X8514045D03*
G54D334*
X8532392D03*
G54D336*
X8458342D03*
G54D338*
Y468563D03*
G54D340*
X8564247Y542376D03*
Y524661D03*
Y506946D03*
Y489231D03*
G54D342*
Y560726D03*
Y470881D03*
G54D345*
X8231500Y5816081D03*
Y5866081D03*
Y5916081D03*
Y5966081D03*
X8011500Y5816081D03*
Y5866081D03*
Y5916081D03*
Y5966081D03*
G54D306*
X6808209Y352932D03*
X6747186D03*
X6808209Y423798D03*
X6747186D03*
G54D307*
X6785542Y594021D03*
X6714676D03*
G54D306*
X7356789Y765428D03*
X7295766D03*
X7356789Y694562D03*
X7295766D03*
G54D307*
X6785542Y655045D03*
X6714676D03*
G54D266*
X7743407Y590433D03*
X7660727D03*
G54D261*
X7918040Y5789171D03*
Y5871851D03*
G54D275*
X8581027Y861723D03*
X8413707D03*
G54D410*
X7830798Y330383D03*
Y390383D03*
X7513657Y313683D03*
Y373683D03*
G54D411*
X8704187Y474693D03*
X8726327Y522623D03*
X8786327D03*
X8644187Y474693D03*
X8329317Y500227D03*
X8389317Y500183D03*
G54D410*
X8690057Y727953D03*
Y787953D03*
G54D411*
X8526327Y637853D03*
G54D410*
X8642267Y604693D03*
Y664693D03*
G54D411*
X8466327Y637853D03*
X8775500Y5573081D03*
X8715500D03*
G54D410*
X6826650Y5504231D03*
Y5564231D03*
X6826640Y5616231D03*
G54D411*
X8332000Y5759711D03*
X8153410Y5720321D03*
X8272000Y5759711D03*
X8213410Y5720321D03*
X7917950Y5738901D03*
X7977950D03*
G54D410*
X6826640Y5676231D03*
X7917330Y5922081D03*
Y5982081D03*
G54D412*
X7781841Y395883D03*
Y321103D03*
X7672099Y358483D03*
X8108357Y542413D03*
X8194967Y581783D03*
G54D413*
X8321977Y731583D03*
X8361347Y644963D03*
G54D412*
X8108357Y621153D03*
G54D413*
X8282582Y644963D03*
X7973187Y702253D03*
X7933817Y615643D03*
X8012557D03*
G54D412*
X7930640Y5562081D03*
X8017250Y5522711D03*
Y5601451D03*
G54D413*
X7824010Y5738661D03*
X7863380Y5652051D03*
X7784640D03*
X6804880Y5861531D03*
X6765510Y5948141D03*
X6844250D03*
G54D422*
X6975594Y558716D03*
G54D425*
X6897550Y582336D03*
G54D428*
X7538917Y727283D03*
G54D244*
X10318909Y5425741D03*
Y5385741D03*
G54D245*
X10359969Y5426771D03*
X10359899Y5384741D03*
X10399969Y5426771D03*
X10123429Y5415441D03*
X10163429D03*
G54D244*
X10239739Y5425611D03*
X10278789Y5385721D03*
X9338269Y5409391D03*
Y5369391D03*
G54D245*
X9379479Y5450501D03*
G54D244*
X9378459Y5409421D03*
Y5369421D03*
G54D245*
X9419479Y5450501D03*
G54D244*
X9420459Y5369421D03*
G54D245*
X10936069Y5715741D03*
X10976069D03*
G54D244*
X11017169Y5722711D03*
G54D245*
X10651159Y5689331D03*
X10651169Y5649101D03*
X10691159Y5689331D03*
X10691169Y5649101D03*
G54D244*
X10422799Y5603111D03*
Y5563111D03*
G54D245*
X10463799Y5562161D03*
X10503799D03*
G54D244*
X9807579Y5639441D03*
X9292469Y5700641D03*
Y5660641D03*
G54D245*
X9379479Y5530501D03*
Y5490501D03*
X9419479Y5530501D03*
Y5490501D03*
G54D244*
X11017169Y5762711D03*
G54D245*
X10313059Y5850591D03*
G54D244*
X10311999Y5809611D03*
Y5769611D03*
G54D245*
X10353059Y5850591D03*
G54D244*
X10354009Y5809541D03*
Y5769541D03*
G54D245*
X10468889Y5788101D03*
G54D244*
X10502409Y5989081D03*
Y5949081D03*
X10502419Y5907081D03*
Y5867081D03*
G54D245*
X10508889Y5788101D03*
G54D244*
X9750709Y5891691D03*
Y5851691D03*
X9792789Y5891691D03*
Y5851691D03*
G54D245*
X9922489Y5906251D03*
X9962489D03*
G54D244*
X9543339Y5982081D03*
Y5942081D03*
X9585339Y5982081D03*
Y5942081D03*
X9582219Y5787581D03*
X9622219Y5747581D03*
G54D245*
X9626329Y5941081D03*
X9666329D03*
G54D244*
X9662219Y5787581D03*
Y5747581D03*
X9242339Y5903081D03*
X9320819Y5902491D03*
Y5862491D03*
X9320809Y5820521D03*
Y5780521D03*
X9360819Y5902491D03*
Y5862491D03*
X9360829Y5820511D03*
Y5780511D03*
X9242339Y5863081D03*
G54D246*
X9341439Y5700691D03*
Y5598331D03*
X9416239Y5700691D03*
Y5598331D03*
X9378839Y5700691D03*
G54D244*
X10278789Y5425721D03*
X9420459Y5409421D03*
X9582219Y5747581D03*
X9807579Y5599441D03*
X9622219Y5787581D03*
G54D250*
X9789579Y5807231D03*
X9710839D03*
Y5746211D03*
G54D251*
X9789459Y5746119D03*
G54D244*
X10239739Y5385611D03*
G54D259*
X10399899Y5384741D03*
G54D265*
X11154789Y5639661D03*
X11391009D03*
X11154789Y5785313D03*
X11391009D03*
G54D244*
X11233576Y368193D03*
Y328193D03*
X11193566Y368193D03*
Y328193D03*
X11153536Y368193D03*
Y328193D03*
X11113546Y368193D03*
Y328193D03*
X11073536D03*
X11033526Y368193D03*
Y328193D03*
X10738966Y354213D03*
Y314213D03*
X10512546Y355233D03*
X10265566Y320433D03*
G54D245*
X11429136Y566633D03*
X11389136D03*
X11317096Y558733D03*
X11317066Y518723D03*
X11277096Y558733D03*
X11317056Y430733D03*
X10920346Y581753D03*
G54D244*
X10921376Y540863D03*
Y500863D03*
G54D245*
X10880346Y581753D03*
X10733976Y668953D03*
X10779976Y435233D03*
Y395233D03*
X10739976Y435233D03*
Y395233D03*
X10693976Y668953D03*
G54D244*
X10693106Y621133D03*
Y581133D03*
X10698976Y434273D03*
Y394273D03*
X10658916Y434323D03*
X10618846Y394353D03*
X10529066Y667823D03*
Y627823D03*
X10489036Y667793D03*
Y627793D03*
X10512546Y395233D03*
X10381406Y637423D03*
X10326256Y543523D03*
Y503523D03*
X10381416Y759333D03*
Y719333D03*
X10381406Y677423D03*
X10328906Y900493D03*
Y860493D03*
G54D246*
X10328426Y790423D03*
Y688063D03*
X10291026Y790423D03*
Y688063D03*
X10253626Y790423D03*
Y688063D03*
G54D244*
X10618846Y434353D03*
G54D259*
X11277066Y518723D03*
G54D270*
X9305326Y363343D03*
Y313343D03*
X9853906Y654973D03*
X9305326Y463343D03*
Y413343D03*
X9853906Y804973D03*
Y754973D03*
Y704973D03*
G54D271*
X9462926Y734743D03*
X9412926D03*
X9362926D03*
X9312926D03*
G54D244*
X11073536Y368193D03*
G54D245*
X11277056Y430733D03*
G54D244*
X10658916Y394323D03*
G54D270*
X9518133Y363343D03*
Y313343D03*
Y463343D03*
Y413343D03*
X9853906Y704973D03*
Y654973D03*
Y804973D03*
Y754973D03*
X10066713Y704973D03*
Y654973D03*
Y804973D03*
Y754973D03*
G54D289*
X9362926Y734743D03*
X9312926D03*
X9462926D03*
X9412926D03*
X9362926Y521936D03*
X9312926D03*
X9462926D03*
X9412926D03*
G54D310*
X10164138Y5479433D03*
G54D311*
X10224629Y5539902D03*
G54D310*
X9946540Y5479389D03*
G54D311*
X9886049Y5539902D03*
X10224629Y5757500D03*
G54D310*
X10164138Y5818013D03*
X9946540Y5817969D03*
G54D313*
X10224629Y5560119D03*
Y5579804D03*
G54D312*
X10143921Y5479412D03*
X10025811D03*
X10006126Y5479410D03*
X9986441Y5479412D03*
X9966756Y5479410D03*
X10124236D03*
X10104551Y5479412D03*
X10084866Y5479410D03*
X10065181Y5479412D03*
X10045496Y5479410D03*
G54D313*
X9886049Y5560119D03*
Y5579804D03*
X10224629Y5717599D03*
Y5737284D03*
Y5599489D03*
Y5619174D03*
Y5638859D03*
Y5658544D03*
Y5678229D03*
Y5697914D03*
X9886049Y5717599D03*
Y5737284D03*
Y5599489D03*
Y5619174D03*
Y5638859D03*
Y5658544D03*
Y5678229D03*
Y5697914D03*
G54D312*
X10143921Y5817992D03*
X10025811D03*
X10006126Y5817990D03*
X9986441Y5817992D03*
X9966756Y5817990D03*
X10124236D03*
X10104551Y5817992D03*
X10084866Y5817990D03*
X10065181Y5817992D03*
X10045496Y5817990D03*
G54D314*
X9886049Y5757549D03*
G54D316*
X10449849Y5920501D03*
Y6005141D03*
X10424259Y5920501D03*
Y6005141D03*
X10398669D03*
G54D318*
Y5920501D03*
G54D330*
X11151883Y468563D03*
X11134169D03*
X11116454D03*
G54D332*
X11170231D03*
G54D328*
X11116454Y553203D03*
X11134169D03*
X11151884D03*
G54D334*
X11170231D03*
G54D336*
X11096181D03*
G54D338*
Y468563D03*
G54D340*
X11202086Y542376D03*
Y524661D03*
Y506946D03*
Y489231D03*
G54D342*
Y560726D03*
Y470881D03*
G54D345*
X10869339Y5816081D03*
Y5866081D03*
Y5916081D03*
Y5966081D03*
X10649339Y5816081D03*
Y5866081D03*
Y5916081D03*
Y5966081D03*
G54D306*
X9446048Y352932D03*
X9385025D03*
X9446048Y423798D03*
X9385025D03*
G54D307*
X9423381Y594021D03*
X9352515D03*
G54D306*
X9994628Y765428D03*
X9933605D03*
X9994628Y694562D03*
X9933605D03*
G54D307*
X9423381Y655045D03*
X9352515D03*
G54D266*
X10381246Y590433D03*
X10298566D03*
G54D261*
X10555879Y5789171D03*
Y5871851D03*
G54D275*
X11218866Y861723D03*
X11051546D03*
G54D410*
X10468637Y330383D03*
Y390383D03*
X10151496Y313683D03*
Y373683D03*
G54D411*
X11342026Y474693D03*
X11364166Y522623D03*
X11424166D03*
X11282026Y474693D03*
X10967156Y500227D03*
X11027156Y500183D03*
G54D410*
X11327896Y727953D03*
Y787953D03*
G54D411*
X11164166Y637853D03*
G54D410*
X11280106Y604693D03*
Y664693D03*
G54D411*
X11104166Y637853D03*
X11413339Y5573081D03*
X11353339D03*
G54D410*
X9464489Y5504231D03*
Y5564231D03*
X9464479Y5616231D03*
G54D411*
X10969839Y5759711D03*
X10791249Y5720321D03*
X10909839Y5759711D03*
X10851249Y5720321D03*
X10555789Y5738901D03*
X10615789D03*
G54D410*
X9464479Y5676231D03*
X10555169Y5922081D03*
Y5982081D03*
G54D412*
X10419680Y395883D03*
Y321103D03*
X10309938Y358483D03*
X10746196Y542413D03*
X10832806Y581783D03*
G54D413*
X10959816Y731583D03*
X10999186Y644963D03*
G54D412*
X10746196Y621153D03*
G54D413*
X10920421Y644963D03*
X10611026Y702253D03*
X10571656Y615643D03*
X10650396D03*
G54D412*
X10568479Y5562081D03*
X10655089Y5522711D03*
Y5601451D03*
G54D413*
X10461849Y5738661D03*
X10501219Y5652051D03*
X10422479D03*
X9442719Y5861531D03*
X9403349Y5948141D03*
X9482089D03*
G54D422*
X9613433Y558716D03*
G54D425*
X9535389Y582336D03*
G54D428*
X10176756Y727283D03*
G54D309*
X12105075Y131980D02*
G01Y10152252D01*
X6072925*
Y131980*
X12105075*
M02*
